<svg width="85" height="85" viewBox="0 0 85 85" fill="none" xmlns="http://www.w3.org/2000/svg">
<path d="M62.9624 74.8739C61.579 74.7332 60.65 74.5968 59.2224 73.5874C57.7349 72.5385 57.6461 71.8109 58.1599 72.2274C58.7613 72.7939 59.4302 73.2835 60.1523 73.6856C61.1689 74.2508 62.3245 74.5186 63.486 74.4574C63.5557 74.4574 63.625 74.4833 63.6943 74.485C63.7521 74.4867 64.214 74.7319 62.9624 74.8739Z" fill="#20262C"/>
<path d="M55.696 51.8993C53.2926 59.2336 43.2614 59.7805 39.9557 52.9669C39.3812 51.7778 39.0914 50.4718 39.1089 49.1513C39.1265 47.8308 39.451 46.5329 40.0568 45.3594C43.0217 39.5943 50.7278 39.3704 54.0653 43.6973C56.1733 46.4279 56.5762 49.215 55.696 51.8993ZM47.5237 41.055C45.9831 41.0718 44.4781 41.5227 43.1823 42.3561C41.8866 43.1894 40.8521 44.3717 40.1978 45.7666C39.5436 47.1614 39.296 48.7127 39.4837 50.2419C39.6714 51.771 40.2866 53.2164 41.2588 54.412C42.2309 55.6071 43.5206 56.5038 44.9796 56.9993C46.4382 57.4945 48.0073 57.5684 49.5063 57.2123C51.0053 56.8557 52.3734 56.0839 53.4533 54.9849C54.5332 53.8862 55.2816 52.505 55.6119 51C55.869 49.7973 55.8533 48.5521 55.5655 47.3565C55.2778 46.1606 54.7257 45.0445 53.9497 44.0904C53.1736 43.1363 52.1936 42.3681 51.0814 41.8428C49.9691 41.3175 48.7536 41.0483 47.5237 41.055Z" fill="#20262C"/>
<path fill-rule="evenodd" clip-rule="evenodd" d="M79.9254 31.6276C81.1469 34.5456 82.0309 37.5937 82.5604 40.7124C83.3565 45.112 82.5349 47.2238 81.2731 49.3135C80.5646 50.4878 78.4583 52.0548 76.4931 52.4313C75.8233 52.5304 75.1472 52.5763 74.4701 52.5695C72.2019 52.5695 70.5971 52.048 69.7658 51.7781C69.3327 51.6374 69.1096 51.5648 69.1122 51.6697C69.113 51.7042 69.1143 51.7377 69.1156 51.7696C69.136 52.2686 69.144 52.4607 66.7054 51.5291C65.9918 51.2507 65.2935 50.9336 64.6144 50.5796C64.5549 50.5537 64.5549 50.5545 64.6059 50.8495C64.6467 51.0896 64.7215 51.5235 64.8243 52.2949C65.3913 56.5381 65.407 65.8324 65.243 67.7024C65.2034 68.1559 65.1924 68.4942 65.1843 68.7492C65.1622 69.4335 65.1592 69.521 64.6752 69.6277C64.6084 69.6426 64.5668 69.6443 64.5455 69.6659C64.4529 69.7616 64.7542 70.2397 65.1257 73.853C65.3033 75.1361 65.3743 76.4315 65.3382 77.7265C65.3382 77.8625 65.305 78.0546 65.1682 78.0618C65.0534 78.0678 64.9722 77.1073 64.8562 75.7307C64.7143 74.0494 64.52 71.7472 64.1482 69.8279C64.1329 69.7497 63.738 69.8211 62.9709 69.9596C60.8578 70.3413 55.9197 71.2333 48.3093 70.9137C37.6982 70.4692 32.7507 68.0607 31.3899 67.3981C31.1572 67.2847 31.0294 67.2226 30.996 67.2298C30.9912 67.2307 30.9862 67.2311 30.9813 67.2311C30.8994 67.2332 30.8192 67.2354 30.7389 71.1513C30.7388 71.1551 30.7379 71.1692 30.7364 71.1908C30.7213 71.4144 30.6495 72.4756 30.8562 72.417C32.4342 71.9677 33.0423 71.465 33.3433 71.2159C33.5181 71.0714 33.5893 71.0123 33.6867 71.0995C34.0356 71.4165 32.4466 72.4569 30.9718 72.8148L30.9642 72.8165C30.7358 72.8721 30.7285 72.8738 30.7419 73.1123C30.8441 74.8076 31.0692 76.4927 31.4155 78.1553C31.4207 78.1829 31.4162 78.2118 31.4028 78.2365C31.3894 78.2616 31.3678 78.2807 31.3417 78.2917C31.3156 78.3024 31.2866 78.3036 31.2596 78.2956C31.2326 78.2875 31.2091 78.2705 31.1932 78.2471C30.8392 77.5688 30.5149 75.284 30.4367 74.525C30.2909 72.816 30.2649 71.0986 30.359 69.3859C30.4183 68.0743 30.5358 67.5103 30.5898 67.2507C30.6251 67.0815 30.6334 67.0416 30.5808 67.008C30.4183 66.906 30.3294 66.8554 30.2751 66.7798C30.1811 66.6493 30.1902 66.4444 30.1006 65.7729C29.5776 61.8544 31.1555 54.6592 31.4812 53.1738C31.5186 53.0034 31.5395 52.9082 31.5388 52.9018C31.507 52.9222 31.4397 52.9787 31.3446 53.0586C30.9638 53.3782 30.1358 54.074 29.3398 54.3281C27.5756 54.8934 25.6929 55.2716 23.4956 53.9363C19.3617 51.4232 17.5971 45.5667 16.2592 40.8692C15.3825 37.7935 15.4668 37.2711 15.3452 37.2177C15.2878 37.1925 15.1847 37.2715 14.9136 37.2363C14.4788 37.1802 14.2821 36.5278 14.2034 36.0986C14.1153 35.613 14.3755 35.3253 14.7024 34.9637C14.7177 34.9468 14.7332 34.9297 14.7487 34.9124C14.8629 34.789 14.861 34.7772 14.7747 34.2458C14.7303 33.9721 14.6635 33.5605 14.5787 32.9247C14.5362 32.6829 14.42 32.4603 14.2459 32.2872C13.5825 31.4335 13.1157 30.444 12.8787 29.3891C12.8271 29.1239 12.8905 28.9202 13.0091 28.8008C13.08 29.0018 13.152 29.2034 13.2249 29.4055C13.3543 30.0263 13.5806 30.623 13.8957 31.1737C14.0869 31.4781 14.2984 31.7692 14.529 32.0449C14.6913 32.2398 14.8075 32.4687 14.869 32.7147C14.8699 32.7185 14.8746 32.7568 14.8825 32.8218C14.9469 33.3512 15.2272 35.6535 15.4691 35.552C16.3365 35.1899 18.7671 33.3913 18.521 33.0322C18.0358 32.3209 18.2 31.4793 18.3169 30.8801C18.3628 30.6448 18.4015 30.4468 18.3905 30.3088C18.3707 29.5269 18.4451 28.7453 18.612 27.9811C18.6885 27.4473 18.0467 28.0249 17.9137 29.2472C17.9151 29.3567 17.8791 29.4634 17.8117 29.5498C17.7187 29.666 17.6159 29.7835 17.51 29.9046C17.06 30.4193 16.5541 30.9977 16.5125 31.8048C16.504 32.036 16.1096 31.9939 16.2711 31.2421C16.3522 30.9874 16.461 30.7438 16.595 30.5154C16.8976 30.0896 17.246 29.698 17.634 29.3475C17.6468 28.9215 17.7526 28.5035 17.9439 28.1226C17.9461 28.118 17.9471 28.1075 17.9469 28.0917C17.9925 28.0035 18.0428 27.9175 18.0977 27.834C18.3433 27.4626 18.5636 27.4645 18.6319 27.4651C18.6344 27.4651 18.6367 27.4651 18.6387 27.4651C18.8398 27.4694 18.9192 27.7295 18.909 27.8264C18.8556 28.3184 18.822 28.5235 18.7906 28.7154C18.7606 28.8989 18.7326 29.0703 18.691 29.469C18.654 29.8225 18.6594 29.9678 18.665 30.1153C18.6733 30.3349 18.6818 30.5593 18.5503 31.4827C18.4482 31.8456 18.4548 32.2306 18.5695 32.5898C18.6332 32.7327 18.7248 32.8614 18.8389 32.9685C19.0991 33.1642 19.3177 33.4098 19.4819 33.691C19.6094 34.3204 24.1569 38.0855 24.2419 38.1509C24.9879 38.733 25.6949 39.3634 26.3584 40.0379C26.5398 40.1949 26.5843 40.1416 26.7638 39.9263C26.8345 39.8414 26.9262 39.7314 27.0554 39.5993C29.8787 36.7246 33.3748 33.3943 38.8913 31.0568C40.1925 30.5191 41.5598 30.1578 42.9568 29.9824C43.194 29.9455 43.1906 29.9428 42.9972 29.7931C42.9058 29.7224 42.7724 29.6189 42.6019 29.4635C40.3367 27.3971 40.9491 23.2725 42.5118 21.3685C42.7915 21.028 42.9368 20.9772 43.0223 20.8757C43.1761 20.6932 43.1345 20.3466 43.3257 17.8563C43.3278 17.8238 43.3087 17.8228 43.245 17.8195C43.1642 17.8154 43.0129 17.8077 42.7443 17.7288C42.1129 17.5448 42.1954 15.9862 42.2354 15.2299C42.2376 15.1881 42.2397 15.1487 42.2415 15.1121C42.274 14.4802 42.7719 14.4198 43.106 14.3794C43.2747 14.3589 43.4018 14.3436 43.4056 14.2621C43.5391 11.3243 45.3912 10.1299 46.0844 9.68276C46.2535 9.57366 46.3538 9.50906 46.3432 9.47446C46.1243 8.76514 46.8668 7.64696 47.6208 7.09446C48.2102 6.66479 49.1877 6.55471 49.5413 7.19221C49.5902 7.28401 49.5987 7.28019 49.6752 7.21686C50.6548 6.40639 51.753 6.65331 51.8193 7.21686C51.8516 7.49375 51.6608 7.73702 51.5104 7.92853C51.4572 7.99627 51.4092 8.05751 51.3778 8.11149C51.436 8.11999 51.5405 8.08272 51.6825 8.03227C52.0586 7.89848 52.6957 7.67183 53.4178 7.95976C53.6991 8.07111 53.9745 8.32016 53.9252 8.61766C53.9074 8.72731 53.9108 8.72731 54.023 8.72731C55.4714 8.68269 55.9087 9.44811 55.553 9.96916C55.207 10.4747 54.9065 10.5288 54.9061 10.5857C54.9057 10.6278 55.0702 10.6715 55.5032 10.9016C55.7808 11.0647 55.9992 11.3116 56.1271 11.6068C56.2555 11.902 56.2865 12.2302 56.216 12.5442C56.1722 12.7064 56.2389 12.7553 56.3392 12.829C56.5683 12.9974 56.9742 13.2953 56.6448 15.3675C56.618 15.5267 56.6099 15.601 56.5985 15.7046C56.5844 15.8328 56.5653 16.0057 56.4999 16.4398C56.4599 16.62 56.4591 16.8066 56.4982 16.9871C56.5368 17.1676 56.6142 17.3375 56.7247 17.4853C57.6784 17.7539 58.0541 19.011 57.8059 19.887C57.7766 19.9896 57.8046 20.0321 57.8454 20.0939C57.8811 20.148 57.9266 20.2171 57.9517 20.3545C57.9644 20.428 57.9695 20.4828 57.9767 20.5555C57.9865 20.6526 57.9997 20.7817 58.0367 21.0298C58.0796 21.3141 58.0337 21.3679 57.7553 21.692C57.6954 21.7618 57.6248 21.8441 57.542 21.944C57.3762 22.1443 56.9542 21.9836 56.6465 21.8663C56.4909 21.8069 56.3643 21.7587 56.3146 21.774C56.0842 21.8463 55.8959 21.819 55.768 21.8005C55.6609 21.7851 55.5967 21.7757 55.587 21.8369C55.6125 22.2244 55.5972 22.6136 55.5411 22.998C55.2465 24.6793 54.5083 25.8304 53.9868 26.6432C53.6677 27.1412 53.4297 27.5123 53.425 27.8005C53.4088 28.868 53.3145 29.2808 53.4764 29.4538C53.867 29.871 55.7468 28.8939 63.798 32.3412C66.6157 33.5371 69.3174 34.9893 71.8696 36.6796C71.8934 36.6933 71.9074 36.7132 71.9218 36.7136C71.9864 36.7151 72.0604 36.3305 73.0404 33.2966C73.414 32.1346 73.4858 31.9823 73.4378 31.8973C73.4246 31.8737 73.4025 31.8553 73.3749 31.8222C72.785 31.1142 73.3983 30.0219 74.0035 30.1431C74.0196 30.1466 74.0303 30.151 74.04 30.1489C74.077 30.1406 74.0915 30.0317 74.2891 29.3708C74.3473 29.1817 74.3448 29.1805 74.2347 29.1301C74.1106 29.0731 73.8492 28.9531 73.3834 28.4278C73.2211 28.2447 73.1841 28.1711 73.1284 28.152C73.0744 28.1335 73.003 28.1663 72.7829 28.2004C72.0642 28.3109 71.4072 27.4719 71.5772 26.6666C71.6877 26.3315 71.833 26.009 72.0111 25.7044C72.3511 24.7052 73.3711 23.5636 74.4336 23.3414C76.2211 22.9678 77.4902 25.3282 78.0571 27.0707C78.282 27.8303 78.5599 28.5732 78.8884 29.2939C79.1043 29.8026 79.1243 29.8417 79.2212 29.8188C79.7682 29.6909 80.3798 30.4741 80.1116 31.1601C80.0687 31.2678 80.0177 31.3352 79.9773 31.389C79.9165 31.4693 79.8787 31.5192 79.9254 31.6276ZM57.4672 21.4598C57.5925 21.2942 57.7166 21.13 57.6554 20.9031H57.6559C57.6559 20.3941 57.5789 20.3656 57.2887 20.2579C57.2304 20.2361 57.1633 20.2112 57.0864 20.1785C57.0515 20.1632 57.0128 20.1587 56.9754 20.1657C56.938 20.1726 56.9036 20.1908 56.8764 20.2176C56.8241 20.2621 56.7736 20.2984 56.7268 20.3319C56.4982 20.4966 56.3609 20.5957 56.5245 21.2746C56.57 21.465 57.3154 21.6707 57.4004 21.55C57.4221 21.5196 57.4446 21.4897 57.4672 21.4598ZM45.0295 11.0202C44.333 11.8039 43.9177 12.6394 43.7324 14.2328V14.2431C43.7312 14.272 43.7303 14.3 43.7919 14.2833C43.885 14.2544 44.2645 14.2635 44.6296 14.2723C44.8549 14.2777 45.0742 14.283 45.2174 14.2791C46.6258 14.2791 46.6734 14.598 46.7414 15.0524C46.7542 15.1361 46.7674 15.2244 46.7899 15.3161C46.7924 15.3274 46.795 15.3432 46.7971 15.3605C46.8077 15.4354 46.8218 15.5379 46.8978 15.4147C46.9204 15.3781 46.9437 15.3309 46.9675 15.2818C47.0436 15.1275 47.1282 14.9548 47.2315 15.0347C47.2969 15.0868 47.2927 15.1498 47.2795 15.3333C47.2778 15.3579 47.2757 15.3847 47.274 15.4138C47.5502 15.3373 47.8447 15.3554 48.1095 15.4653C48.1694 15.494 48.1826 15.4148 48.2425 15.0582C48.251 15.0082 48.26 14.9528 48.2706 14.8915C48.3462 14.4453 48.6799 14.4189 49.3463 14.4028C50.2978 14.4107 51.2481 14.4675 52.1938 14.5728C52.2388 14.5799 52.283 14.5868 52.3255 14.5935C53.4773 14.7744 53.6868 14.8074 53.7556 15.2209C53.8062 15.526 53.7765 15.6696 53.8292 15.7694C53.9112 15.9237 54.1917 15.9726 55.2763 16.3514C55.3111 16.3635 55.3354 16.3752 55.3532 16.3686C55.4046 16.3498 55.4 16.18 55.4238 15.4372C55.4437 14.9748 55.4335 14.5115 55.3927 14.0504C55.3779 13.7464 55.1237 13.7039 54.8305 13.6549C54.6388 13.6228 54.4305 13.588 54.261 13.4754C53.7926 13.1656 53.816 12.7109 53.8381 12.2869C53.8419 12.2137 53.8453 12.1413 53.8466 12.0708C53.8479 11.9899 53.6855 11.9837 53.4641 11.9751C53.0833 11.9605 52.5287 11.9391 52.3276 11.5217C52.0811 11.0113 52.2554 10.4391 52.3595 10.0966C52.4122 9.92399 52.4471 9.80975 52.4012 9.79109C51.2719 9.33549 50.1164 9.12809 47.9569 9.42049C46.8201 9.58284 45.7801 10.1511 45.0295 11.0202ZM43.6164 17.8246C43.5816 17.8194 43.5731 17.8181 43.5773 17.8317H43.5786C43.695 18.1953 43.5357 19.4852 43.4494 20.1834C43.4179 20.4374 43.3963 20.6132 43.4009 20.6375C44.2454 20.244 45.1847 20.1004 46.1078 20.2236C47.9667 20.5915 48.9013 21.2282 49.6127 21.713C50.1045 22.048 50.4899 22.3104 50.9999 22.3613C52.0446 22.4645 52.5299 21.952 52.9902 21.4663C53.2597 21.1814 53.521 20.9057 53.881 20.7688C54.1313 20.6555 54.4127 20.6303 54.6792 20.6973C54.9456 20.7643 55.1815 20.9195 55.3485 21.1377C55.4471 21.2424 55.5717 21.3193 55.7094 21.3609C55.8471 21.4024 55.9933 21.4071 56.1335 21.3745C56.1412 21.3722 56.1356 21.3475 56.1288 21.3157C56.1242 21.2933 56.1186 21.2673 56.1165 21.2431C56.114 21.2175 56.1144 21.13 56.1148 21.0207C56.1152 20.8815 56.1157 20.707 56.111 20.5793C56.1029 20.3647 56.2274 20.279 56.7204 19.9398C56.7519 19.9182 56.785 19.8955 56.8195 19.8717C56.9831 19.7587 57.1374 19.8063 57.2534 19.842C57.3537 19.8729 57.4251 19.895 57.4493 19.7964C57.675 18.8963 57.1361 17.6634 56.2109 17.8448C55.8645 17.9109 55.6558 18.0981 55.4042 18.3238C55.3324 18.3883 55.2572 18.4559 55.1739 18.5248C55.0357 18.6387 54.8504 18.3548 55.5857 17.7246C55.4063 17.668 53.6978 17.1653 53.6213 17.3353C53.575 17.4401 53.5512 17.5517 53.5287 17.6588C53.4658 17.9559 53.4101 18.2191 52.8933 18.2091C52.0624 18.193 50.1198 18.0253 49.7313 17.9918C49.688 17.988 49.6642 17.9859 49.6633 17.9859C49.5401 17.9675 49.4274 17.9518 49.3237 17.9373C48.4827 17.8201 48.2532 17.7882 48.1894 17.1011C48.1665 16.8562 48.158 16.6905 48.1516 16.5757C48.1401 16.3559 48.1384 16.3224 48.0674 16.2766C47.6135 15.9833 47.1197 16.0305 47.0674 16.2218C46.9854 16.5174 46.7984 16.9734 46.6054 17.4436C46.4248 17.8833 46.2395 18.3356 46.1299 18.6808C46.0916 18.8401 46.1129 19.008 46.1902 19.1524C46.2676 19.2969 46.3955 19.4078 46.5493 19.4641C46.7049 19.5128 46.8549 19.5772 46.9977 19.6562C47.2455 19.7701 47.0479 19.9346 46.8779 19.9307C45.9747 19.9116 45.5973 19.2652 45.7304 18.6982C45.7644 18.5485 45.7984 18.4632 45.8468 18.3413C45.8965 18.2172 45.9611 18.0551 46.0563 17.7484C45.7338 17.7493 45.0499 17.7846 44.5187 17.812C44.2892 17.8238 44.0886 17.8343 43.9573 17.8397C43.7664 17.8472 43.6653 17.832 43.6164 17.8246ZM52.8096 31.2323C52.9558 30.9488 53.0306 30.6338 53.0272 30.3148H53.0285C53.0106 28.8524 53.0442 28.3781 53.0569 28.1967C53.0642 28.0935 53.065 28.0852 53.0455 28.0436C52.5593 28.6844 51.9872 29.2554 51.3455 29.7406C50.5579 30.342 49.6523 30.7702 48.6875 30.9973C47.7232 31.2243 46.7215 31.245 45.7482 31.0581C44.6033 30.7858 44.1417 30.5282 43.9488 30.4203C43.8145 30.3454 43.8098 30.3428 43.7953 30.458C43.7847 30.7755 43.8179 31.0929 43.8948 31.4011C44.3121 34.8389 47.2667 36.2754 49.3951 35.0918C51.1096 34.1415 51.9252 32.9825 52.8096 31.2323ZM47.9574 24.8174C46.7912 25.8909 45.639 25.0737 45.3517 23.5534C45.279 23.1697 44.9488 23.3014 44.9709 23.7103C44.9781 24.1169 45.109 24.5117 45.347 24.8416C45.5017 25.1229 45.7295 25.3571 46.0062 25.5198C46.2829 25.6825 46.5986 25.7676 46.9195 25.766C47.2094 25.7634 47.4954 25.6994 47.7585 25.5782C48.022 25.4571 48.2566 25.2815 48.447 25.063C49.0938 24.4778 48.9149 23.9759 48.5698 24.2339C48.3913 24.4064 48.1401 24.6474 47.9574 24.8174ZM14.996 35.3891C14.9596 35.1921 14.9553 35.169 14.9081 35.221V35.2214C14.8653 35.2687 14.8234 35.3131 14.7843 35.3548C14.5244 35.6312 14.3825 35.7822 14.8401 35.7811C14.8604 35.7768 14.8796 35.7733 14.8975 35.7699C15.0051 35.7497 15.0642 35.7387 15.0441 35.6387C15.023 35.535 15.0078 35.4529 14.996 35.3891ZM14.6148 36.4291C14.7316 36.7744 14.7777 36.9108 15.0441 36.9108L15.0449 36.9112C16.4854 36.5681 17.8423 35.2838 18.5875 34.5784C18.627 34.541 18.6648 34.5052 18.7008 34.4713C19.2533 33.9481 19.2367 33.9213 19.1683 33.8291C19.1136 33.7549 19.0668 33.6845 19.0254 33.6223C18.8862 33.4126 18.8086 33.2958 18.6936 33.4377C17.3059 35.1598 15.1231 36.3289 14.5613 36.1241C14.5366 36.1156 14.5082 36.1288 14.5247 36.1713C14.5602 36.2677 14.5892 36.3534 14.6148 36.4291ZM33.3446 47.22C34.3374 44.7444 35.4959 42.3386 36.8122 40.0188V40.0192C37.006 39.6193 36.6383 39.55 36.4649 39.8297C36.2522 40.1779 36.0517 40.4976 35.8591 40.8048C35.0573 42.0834 34.3926 43.1434 33.5575 45.1256C33.1221 46.1583 33.0298 46.5272 32.957 46.5234C32.8963 46.5204 32.8491 46.2578 32.6276 45.9046C32.5307 45.7495 32.436 45.5961 32.3405 45.4414C31.5134 44.0996 30.632 42.6704 27.8124 39.4807C27.7923 39.458 27.7773 39.4408 27.7589 39.4355C27.6973 39.4177 27.5971 39.5331 27.1349 40.0192C27.0908 40.0657 27.0508 40.1064 27.0152 40.1426C26.7772 40.385 26.7379 40.4251 26.9649 40.6469C27.6516 41.2686 28.2855 41.9463 28.86 42.6729C29.3092 43.2288 30.1456 44.4396 29.2786 43.559C26.1448 40.377 25.4749 39.6792 24.7543 39.0384C24.0926 38.4499 23.3882 37.9094 20.6936 35.5372C20.2319 35.1343 19.8 34.6986 19.4012 34.2333C19.3748 34.2062 19.3027 34.2894 19.1621 34.4515C18.7681 34.9058 17.8363 35.9802 15.866 36.9873C15.8095 37.0163 15.7726 37.0332 15.7537 37.0619C15.6926 37.1546 15.8184 37.3704 16.0692 38.5151C16.6931 41.0054 17.4419 43.463 18.3128 45.8778C19.7127 49.3403 21.7523 53.3311 25.3733 54.235C27.3015 54.717 29.6603 54.1972 31.6021 52.2711C31.7977 52.0765 31.8916 51.7156 32.0567 51.082C32.2628 50.2902 32.5799 49.0726 33.3446 47.22ZM47.7882 59.358C51.3786 59.4693 55.1883 57.2219 56.9036 53.6519V53.6524C57.7787 51.8465 58.0991 49.8218 57.825 47.8337C57.5509 45.846 56.6937 43.9836 55.3626 42.4821C50.1984 36.6813 40.3057 38.2784 37.8657 46.7113C36.2282 52.374 40.5607 59.358 47.7882 59.358ZM58.0265 34.6617C57.788 39.4433 60.9768 47.0929 63.078 48.5167V48.5171C63.4006 48.7355 63.721 48.4453 63.5145 48.2255C62.6942 47.3836 62.0049 46.424 61.4685 45.378C59.6971 42.0451 58.6644 38.3699 58.44 34.6022C58.4111 34.2979 58.063 33.9277 58.0265 34.6617ZM79.6934 30.3437C79.5748 30.2198 79.4125 30.1477 79.2412 30.1431C78.4265 30.2723 78.2157 31.4946 79.1477 31.5018C79.336 31.5035 79.517 31.4315 79.653 31.3011C79.7886 31.1708 79.8676 30.9925 79.8736 30.8044C79.8766 30.633 79.812 30.4675 79.6934 30.3437ZM72.8216 27.7116C72.7123 27.5343 72.567 27.2976 72.6639 27.2267C72.7591 27.158 72.9219 27.3585 73.1633 27.6554C73.5228 28.0979 74.0562 28.7545 74.7978 29.0521C74.9109 29.0976 74.9075 29.2098 74.8348 29.2467C74.7953 29.266 74.7557 29.267 74.7205 29.2678C74.6554 29.2694 74.6044 29.2707 74.5921 29.3866C74.5581 29.7213 74.4965 29.9298 74.4553 30.07C74.4077 30.2311 74.3868 30.3018 74.4646 30.37C74.726 30.5986 74.8008 30.8007 74.8446 30.9183C74.8811 31.0167 74.8956 31.056 74.9793 31.0024C75.0622 30.9287 75.1595 30.8736 75.2653 30.8407C75.3711 30.8078 75.4825 30.7981 75.5926 30.812C76.1098 30.8757 76.2683 31.0754 76.3478 31.1754C76.3988 31.2395 76.4171 31.2626 76.4766 31.1826C76.6168 30.9979 76.8008 30.8511 77.0125 30.7555C77.2237 30.6599 77.4558 30.6186 77.687 30.6352C77.9925 30.6521 78.1111 30.7306 78.1702 30.7698C78.2169 30.8008 78.2267 30.8073 78.2624 30.7393C78.3351 30.4255 78.5221 30.15 78.7873 29.9671C78.8404 29.9375 78.8294 29.9125 78.7648 29.7703C78.7227 29.6779 78.6585 29.536 78.5748 29.3109C78.4855 29.0688 78.3997 28.8314 78.3151 28.5991C77.6177 26.6771 77.0465 25.1029 75.947 24.1289C75.6733 23.8612 75.3159 23.6963 74.9347 23.6621C74.5534 23.6279 74.1722 23.7264 73.8552 23.941C73.3537 24.2846 72.9333 24.7344 72.6252 25.2585C71.9711 26.5063 71.9142 26.6513 71.9286 27.0061C71.8704 27.3338 72.3328 28.0295 72.91 27.8642C72.8925 27.8265 72.8594 27.7725 72.8216 27.7116ZM77.0775 32.2676C77.1923 32.3348 77.3244 32.3673 77.4575 32.3611C77.582 32.3713 77.7069 32.3507 77.8213 32.301C77.9356 32.2513 78.0363 32.1741 78.1137 32.0762C78.191 31.9784 78.2433 31.8629 78.2654 31.7401C78.2875 31.6173 78.279 31.4909 78.2403 31.3722C78.171 31.2608 78.0775 31.1667 77.9662 31.0973C77.8553 31.0279 77.7295 30.9849 77.599 30.9717C77.4685 30.9586 77.3368 30.9755 77.2139 31.0213C77.0911 31.0671 76.9806 31.1404 76.8905 31.2357C76.8064 31.3391 76.7541 31.4645 76.7396 31.5969C76.7252 31.7294 76.7494 31.8632 76.8093 31.9822C76.8693 32.1012 76.9623 32.2003 77.0775 32.2676ZM75.3312 32.397C75.4162 32.4299 75.5071 32.4457 75.5985 32.4432C76.5284 32.4432 76.4196 31.1218 75.5365 31.1201C75.366 31.1212 75.2028 31.1892 75.0821 31.3095C74.9614 31.4298 74.893 31.5927 74.8913 31.7632C74.8926 31.8545 74.9117 31.9446 74.9478 32.0284C74.9844 32.1122 75.0367 32.188 75.1025 32.2512C75.1684 32.3145 75.2462 32.3641 75.3312 32.397ZM73.4327 31.1577C73.6197 32.1008 74.6546 31.9899 74.5675 31.2566C74.4472 30.6668 74.2976 30.6172 74.0179 30.5245L74.0124 30.5226C73.8326 30.4631 73.4344 30.6756 73.4344 31.1601L73.4327 31.1577ZM69.2915 51.2728C73.8926 52.8338 78.7554 52.8126 81.2791 48.58L81.2735 48.5745C82.4742 46.5608 82.6004 43.041 82.2659 41.3006C81.3228 36.523 81.0678 35.8161 80.3164 33.7347C80.2387 33.5196 80.1558 33.2898 80.0661 33.0394C79.67 31.9275 79.6296 31.7306 79.5684 31.724C79.5536 31.7224 79.537 31.7325 79.5136 31.7432C79.1932 31.8905 78.9666 31.8096 78.8268 31.7596C78.7269 31.7239 78.6708 31.7038 78.656 31.7938C78.6147 31.9597 78.5378 32.1147 78.4303 32.2477C78.2871 32.4357 78.0916 32.5769 77.868 32.6533C77.6445 32.7296 77.4031 32.7377 77.1748 32.6765C76.9113 32.6062 76.6784 32.4514 76.5118 32.2358C76.4825 32.2738 76.457 32.3088 76.4332 32.3412C76.3282 32.4837 76.2594 32.5774 76.083 32.6646C75.8603 32.7785 75.6032 32.8065 75.3609 32.7433C75.1191 32.68 74.9083 32.53 74.7698 32.3216C74.7421 32.2718 74.7183 32.2237 74.6975 32.1813C74.6457 32.0761 74.6112 32.0058 74.5726 32.0309C74.2933 32.211 74.1131 32.1766 73.9958 32.1543C73.9028 32.1365 73.8492 32.1263 73.8169 32.2366C73.3324 33.9042 72.9227 35.2009 72.5823 36.2778C71.6018 39.3792 71.1972 40.6588 71.2516 43.7295C71.2533 43.8183 71.0893 43.8655 70.9694 43.6326C70.3039 42.337 71.3234 38.8842 71.6983 37.6141C71.782 37.3306 71.8334 37.1558 71.8271 37.1381C71.8143 37.1023 71.7565 37.0777 71.6945 37.0512C71.6617 37.0372 71.6273 37.0226 71.598 37.0055C70.8368 36.5377 70.6269 36.3726 70.5512 36.4203C70.5117 36.4453 70.5091 36.5288 70.4832 36.6579C70.4399 36.8682 70.3901 37.1083 70.3357 37.3682C70.0472 38.7512 69.6421 40.6947 69.5397 41.6882L69.5163 41.9137C69.15 45.4545 68.9345 47.5379 69.0595 50.9574C69.0633 51.0781 69.065 51.1376 69.0939 51.1772C69.1228 51.2163 69.1789 51.235 69.2915 51.2728Z" fill="#20262C"/>
<path d="M21.6991 11.4137C21.6991 11.0827 21.5002 11.146 21.4016 11.4061C18.7471 18.34 18.6952 17.7887 18.7373 17.9825C18.9523 18.9758 21.9248 11.4626 21.6991 11.4137Z" fill="#20262C"/>
<path d="M21.4373 28.9676C21.2822 28.8903 21.1233 28.9706 21.377 29.1801C22.2057 29.8601 26.5798 31.7254 27.8969 32.0076C27.9356 32.0118 27.9746 32.0027 28.0072 31.9816C28.04 31.9606 28.0645 31.929 28.0767 31.892C28.1405 31.5911 25.7256 31.0998 21.4373 28.9676Z" fill="#20262C"/>
<path d="M28.4183 20.2254C28.2593 20.2568 25.7059 21.4745 23.5733 22.2837C21.3692 23.1192 21.9349 22.8838 21.7662 22.9569C21.6943 22.9879 21.6229 23.1422 21.8571 23.143C23.0046 23.0066 28.1985 20.8773 28.5351 20.4328C28.6252 20.3108 28.5568 20.1978 28.4183 20.2254Z" fill="#20262C"/>
<path d="M9.53281 27.2917C9.44144 26.8837 3.15442 29.5595 2.72815 29.8842C2.60065 29.9824 2.64315 30.2153 2.85225 30.1579C2.9228 30.1388 5.56841 28.9586 5.64746 28.928C9.55109 27.4158 9.58041 27.503 9.53281 27.2917Z" fill="#20262C"/>
<path d="M11.7386 32.7105C11.4318 32.5214 8.18306 37.3005 7.76061 38.1544C7.66966 38.3388 7.82606 38.519 8.00158 38.2819C8.05938 38.2032 9.11891 36.5683 9.36371 36.2236C11.8398 32.7356 11.918 32.821 11.7386 32.7105Z" fill="#20262C"/>
<path d="M15.7355 20.8643C14.7384 21.0577 11.9742 21.6854 11.2139 22.2511C10.6894 22.6413 10.9721 23.1904 11.7464 26.1513C12.2055 27.9158 12.8155 29.6374 13.5697 31.2972C13.678 31.4953 13.7252 31.5816 14.2242 31.4987C15.0254 31.3645 15.8149 31.1679 16.5855 30.9105C16.6628 30.6623 16.7647 30.4223 16.8898 30.1944C16.0781 30.4852 15.247 30.7188 14.4027 30.8935C14.0202 30.9785 13.9896 30.8268 13.9352 30.695C12.9428 28.3771 12.2024 25.422 11.6193 22.9762C11.5509 22.688 11.9453 22.5652 12.3227 22.4237C12.5973 22.3208 12.9092 23.127 13.3134 22.9821C13.5191 22.9082 13.7354 22.8635 13.9428 22.7943C14.2586 22.6893 14.5688 22.5677 14.8863 22.4674C15.401 22.3047 15.1256 21.657 15.3725 21.5962C15.6747 21.5214 16.0704 21.3063 16.2578 21.753C16.857 23.1823 17.6301 27.2895 17.8154 28.553C17.9291 28.2429 18.111 27.9624 18.3479 27.7323C18.257 27.3273 18.0288 25.7599 17.1324 22.4147C16.7618 21.0373 16.5476 20.7071 15.7355 20.8643Z" fill="#20262C"/>
<path d="M8.94272 21.2496C9.11272 20.8641 2.80149 18.2865 2.35736 18.2041C2.25536 18.2041 2.16781 18.1888 2.13339 18.2823C2.03351 18.5555 2.76324 18.6138 6.26564 20.1544C8.86622 21.2998 8.85219 21.4536 8.94272 21.2496Z" fill="#20262C"/>
<path d="M12.4041 18.2367C12.844 18.7391 12.1257 14.648 11.2341 11.2421C11.1295 10.8426 10.8779 10.9543 10.8911 11.0937C10.9425 11.6441 11.2779 12.8362 11.7411 14.9336C12.0815 16.4764 12.2583 18.0701 12.4041 18.2367Z" fill="#20262C"/>
<path d="M50.0215 50.021V48.1072H50.9007V46.0789H48.8724V51.0761H46.9258V44.0096L50.4523 44C51.81 43.9963 52.9127 45.0959 52.9127 46.4536V50.021H50.0215Z" fill="#20262C"/>
<path d="M45.9198 48.0704V50.0251H44.9465V52.0126H48.8724V54H45.0447C43.9154 54 43 53.0846 43 51.9553V48.0704H45.9198Z" fill="#20262C"/>
</svg>
