<svg width="172" height="200" viewBox="0 0 172 200" fill="none" xmlns="http://www.w3.org/2000/svg">
<path d="M148.647 176.174C145.392 175.843 143.206 175.522 139.847 173.147C136.347 170.679 136.138 168.967 137.347 169.947C138.762 171.28 140.336 172.432 142.035 173.378C144.427 174.708 147.146 175.338 149.879 175.194C150.043 175.194 150.206 175.255 150.369 175.259C150.505 175.263 151.592 175.84 148.647 176.174Z" fill="#20262C"/>
<path d="M131.55 122.116C125.895 139.373 102.292 140.66 94.5135 124.628C93.1619 121.83 92.4798 118.757 92.5211 115.65C92.5625 112.543 93.326 109.489 94.7515 106.728C101.728 93.163 119.86 92.636 127.713 102.817C132.673 109.242 133.621 115.8 131.55 122.116ZM112.321 96.6C108.696 96.6393 105.155 97.7004 102.106 99.6614C99.0569 101.622 96.6228 104.404 95.0833 107.686C93.5438 110.968 92.9614 114.618 93.403 118.216C93.8446 121.814 95.2922 125.215 97.5796 128.028C99.867 130.84 102.902 132.95 106.335 134.116C109.767 135.281 113.459 135.455 116.986 134.617C120.513 133.778 123.732 131.962 126.273 129.376C128.814 126.791 130.575 123.541 131.352 120C131.957 117.17 131.92 114.24 131.243 111.427C130.566 108.613 129.267 105.987 127.441 103.742C125.615 101.497 123.309 99.6895 120.692 98.4535C118.075 97.2175 115.215 96.5842 112.321 96.6Z" fill="#20262C"/>
<path fill-rule="evenodd" clip-rule="evenodd" d="M188.56 74.4178C191.434 81.2838 193.514 88.4556 194.76 95.7938C196.633 106.146 194.7 111.115 191.731 116.032C190.064 118.795 185.108 122.482 180.484 123.368C178.908 123.601 177.317 123.709 175.724 123.693C170.387 123.693 166.611 122.466 164.655 121.831C163.636 121.5 163.111 121.329 163.117 121.576C163.119 121.657 163.122 121.736 163.125 121.811C163.173 122.985 163.192 123.437 157.454 121.245C155.775 120.59 154.132 119.844 152.534 119.011C152.394 118.95 152.394 118.952 152.514 119.646C152.61 120.211 152.786 121.232 153.028 123.047C154.362 133.031 154.399 154.9 154.013 159.3C153.92 160.367 153.894 161.163 153.875 161.763C153.823 163.373 153.816 163.579 152.677 163.83C152.52 163.865 152.422 163.869 152.372 163.92C152.154 164.145 152.863 165.27 153.737 173.772C154.155 176.791 154.322 179.839 154.237 182.886C154.237 183.206 154.159 183.658 153.837 183.675C153.567 183.689 153.376 181.429 153.103 178.19C152.769 174.234 152.312 168.817 151.437 164.301C151.401 164.117 150.472 164.285 148.667 164.611C143.695 165.509 132.076 167.608 114.169 166.856C89.2016 165.81 77.5606 160.143 74.3587 158.584C73.8111 158.317 73.5103 158.171 73.4319 158.188C73.4204 158.19 73.4088 158.191 73.3973 158.191C73.2044 158.196 73.0157 158.201 72.8269 167.415C72.8267 167.424 72.8245 167.457 72.821 167.508C72.7855 168.034 72.6166 170.531 73.1029 170.393C76.8159 169.336 78.2467 168.153 78.9549 167.567C79.3661 167.227 79.5337 167.088 79.7629 167.293C80.5839 168.039 76.8449 170.487 73.3749 171.329L73.3569 171.333C72.8195 171.464 72.8023 171.468 72.8339 172.029C73.0743 176.018 73.6041 179.983 74.4189 183.895C74.4312 183.96 74.4206 184.028 74.389 184.086C74.3574 184.145 74.3066 184.19 74.2452 184.216C74.1838 184.241 74.1156 184.244 74.052 184.225C73.9884 184.206 73.9332 184.166 73.8959 184.111C73.0629 182.515 72.2999 177.139 72.1159 175.353C71.7727 171.332 71.7116 167.291 71.9329 163.261C72.0726 160.175 72.3489 158.848 72.476 158.237C72.5591 157.839 72.5786 157.745 72.4549 157.666C72.0725 157.426 71.8634 157.307 71.7355 157.129C71.5145 156.822 71.5358 156.34 71.3249 154.76C70.0944 145.54 73.807 128.61 74.5734 125.115C74.6615 124.714 74.7107 124.49 74.7089 124.475C74.6341 124.523 74.4759 124.656 74.252 124.844C73.3561 125.596 71.4077 127.233 69.5349 127.831C65.3839 129.161 60.9539 130.051 55.7839 126.909C46.0569 120.996 41.9049 107.216 38.7569 96.1628C36.6941 88.9258 36.8926 87.6967 36.6063 87.5709C36.4713 87.5117 36.2287 87.6975 35.5909 87.6148C34.5679 87.4828 34.1049 85.9478 33.9199 84.9378C33.7126 83.7953 34.3248 83.1182 35.0939 82.2675C35.1299 82.2277 35.1663 82.1875 35.2029 82.1468C35.4715 81.8564 35.467 81.8287 35.2641 80.5784C35.1596 79.9343 35.0025 78.9658 34.8029 77.4698C34.7028 76.901 34.4294 76.3771 34.0199 75.9698C32.4589 73.9612 31.3604 71.6328 30.8029 69.1508C30.6814 68.5268 30.8307 68.0474 31.1096 67.7665C31.2765 68.2395 31.446 68.7138 31.6175 69.1894C31.9219 70.6501 32.4545 72.0541 33.1959 73.3498C33.6456 74.0661 34.1434 74.751 34.6859 75.3998C35.0677 75.8583 35.3411 76.397 35.4859 76.9758C35.4881 76.9847 35.4991 77.0747 35.5177 77.2278C35.6693 78.4733 36.3288 83.8905 36.8979 83.6518C38.9389 82.7998 44.6579 78.5678 44.0789 77.7228C42.9373 76.0492 43.3236 74.069 43.5987 72.6591C43.7067 72.1053 43.7976 71.6394 43.7719 71.3148C43.7253 69.4749 43.9002 67.636 44.2929 65.8378C44.4729 64.5818 42.9629 65.9408 42.6499 68.8168C42.6531 69.0745 42.5685 69.3256 42.4099 69.5288C42.1912 69.8022 41.9493 70.0788 41.7001 70.3638C40.6411 71.5747 39.4509 72.9357 39.3529 74.8348C39.3329 75.3788 38.4049 75.2798 38.7849 73.5108C38.9757 72.9114 39.2319 72.3383 39.5471 71.8008C40.2592 70.799 41.0789 69.8775 41.9919 69.0528C42.022 68.0505 42.2708 67.0669 42.7209 66.1708C42.7262 66.1599 42.7285 66.1353 42.728 66.098C42.8354 65.8905 42.9538 65.6881 43.0829 65.4918C43.6608 64.6178 44.1791 64.6223 44.3397 64.6237C44.3456 64.6238 44.351 64.6238 44.3559 64.6238C44.8289 64.6338 45.0159 65.2458 44.9919 65.4738C44.8662 66.6315 44.7872 67.1141 44.7133 67.5656C44.6427 67.9974 44.5767 68.4007 44.4789 69.3388C44.3917 70.1706 44.4046 70.5125 44.4177 70.8595C44.4372 71.3762 44.4572 71.9042 44.1479 74.0768C43.9075 74.9308 43.9232 75.8366 44.1929 76.6818C44.3429 77.018 44.5584 77.3209 44.8269 77.5728C45.4391 78.0334 45.9535 78.6113 46.3399 79.2728C46.6399 80.7538 57.3399 89.6128 57.5399 89.7668C59.2952 91.1364 60.9587 92.6196 62.5199 94.2068C62.9467 94.5762 63.0514 94.4507 63.4737 93.9441C63.6401 93.7445 63.8558 93.4857 64.1599 93.1748C70.8029 86.4108 79.0289 78.5748 92.0089 73.0748C95.0707 71.8097 98.2878 70.9595 101.575 70.5468C102.133 70.4599 102.125 70.4537 101.67 70.1013C101.455 69.935 101.141 69.6914 100.74 69.3258C95.4099 64.4638 96.8509 54.7588 100.528 50.2788C101.186 49.4776 101.528 49.3581 101.729 49.1193C102.091 48.6898 101.993 47.8744 102.443 42.0148C102.448 41.9382 102.403 41.9359 102.253 41.9282C102.063 41.9186 101.707 41.9004 101.075 41.7148C99.5891 41.2818 99.7833 37.6146 99.8775 35.835C99.8827 35.7366 99.8876 35.6439 99.8919 35.5578C99.9683 34.071 101.14 33.929 101.926 33.8338C102.323 33.7857 102.622 33.7495 102.631 33.5578C102.945 26.6454 107.303 23.835 108.934 22.7829C109.332 22.5262 109.568 22.3742 109.543 22.2928C109.028 20.6238 110.775 17.9928 112.549 16.6928C113.936 15.6818 116.236 15.4228 117.068 16.9228C117.183 17.1388 117.203 17.1298 117.383 16.9808C119.688 15.0738 122.272 15.6548 122.428 16.9808C122.504 17.6323 122.055 18.2047 121.701 18.6553C121.576 18.8147 121.463 18.9588 121.389 19.0858C121.526 19.1058 121.772 19.0181 122.106 18.8994C122.991 18.5846 124.49 18.0513 126.189 18.7288C126.851 18.9908 127.499 19.5768 127.383 20.2768C127.341 20.5348 127.349 20.5348 127.613 20.5348C131.021 20.4298 132.05 22.2308 131.213 23.4568C130.399 24.6462 129.692 24.7735 129.691 24.9074C129.69 25.0066 130.077 25.1093 131.096 25.6508C131.749 26.0345 132.263 26.6155 132.564 27.3101C132.866 28.0047 132.939 28.777 132.773 29.5158C132.67 29.8974 132.827 30.0124 133.063 30.1859C133.602 30.5821 134.557 31.2829 133.782 36.1588C133.719 36.5334 133.7 36.7082 133.673 36.952C133.64 37.2535 133.595 37.6605 133.441 38.6818C133.347 39.1058 133.345 39.545 133.437 39.9696C133.528 40.3942 133.71 40.794 133.97 41.1418C136.214 41.7738 137.098 44.7318 136.514 46.7928C136.445 47.0342 136.511 47.1342 136.607 47.2796C136.691 47.4071 136.798 47.5695 136.857 47.8928C136.887 48.0658 136.899 48.1948 136.916 48.3659C136.939 48.5944 136.97 48.898 137.057 49.4818C137.158 50.1508 137.05 50.2774 136.395 51.04C136.254 51.2042 136.088 51.3979 135.893 51.6328C135.503 52.1042 134.51 51.7261 133.786 51.4501C133.42 51.3104 133.122 51.1969 133.005 51.2328C132.463 51.403 132.02 51.3388 131.719 51.2953C131.467 51.2589 131.316 51.237 131.293 51.3808C131.353 52.2927 131.317 53.2085 131.185 54.1128C130.492 58.0689 128.755 60.7773 127.528 62.6898C126.777 63.8616 126.217 64.7347 126.206 65.4128C126.168 67.9247 125.946 68.896 126.327 69.303C127.246 70.2846 131.669 67.9856 150.613 76.0968C157.243 78.9108 163.6 82.3278 169.605 86.3048C169.661 86.337 169.694 86.3839 169.728 86.3848C169.88 86.3884 170.054 85.4834 172.36 78.3448C173.239 75.6108 173.408 75.2525 173.295 75.0523C173.264 74.997 173.212 74.9537 173.147 74.8758C171.759 73.2098 173.202 70.6398 174.626 70.9248C174.664 70.933 174.689 70.9435 174.712 70.9385C174.799 70.9189 174.833 70.6627 175.298 69.1078C175.435 68.6628 175.429 68.66 175.17 68.5414C174.878 68.4072 174.263 68.125 173.167 66.8888C172.785 66.4581 172.698 66.2848 172.567 66.24C172.44 66.1965 172.272 66.2736 171.754 66.3538C170.063 66.6138 168.517 64.6398 168.917 62.7448C169.177 61.9564 169.519 61.1976 169.938 60.4808C170.738 58.1298 173.138 55.4438 175.638 54.9208C179.844 54.0418 182.83 59.5958 184.164 63.6958C184.693 65.483 185.347 67.231 186.12 68.9268C186.628 70.1238 186.675 70.2158 186.903 70.1618C188.19 69.8608 189.629 71.7038 188.998 73.3178C188.897 73.5713 188.777 73.7299 188.682 73.8565C188.539 74.0453 188.45 74.1627 188.56 74.4178ZM135.717 50.4936C136.012 50.104 136.304 49.7175 136.16 49.1838H136.161C136.161 47.9861 135.98 47.919 135.297 47.6655C135.16 47.6144 135.002 47.5558 134.821 47.4788C134.739 47.4427 134.648 47.4322 134.56 47.4486C134.472 47.465 134.391 47.5076 134.327 47.5708C134.204 47.6755 134.085 47.7608 133.975 47.8398C133.437 48.2272 133.114 48.4604 133.499 50.0578C133.606 50.5058 135.36 50.9898 135.56 50.7058C135.611 50.6344 135.664 50.564 135.717 50.4936ZM106.452 25.9298C104.813 27.7738 103.836 29.7398 103.4 33.4888V33.5132C103.397 33.5812 103.395 33.6471 103.54 33.6078C103.759 33.5398 104.652 33.5612 105.511 33.5818C106.041 33.5946 106.557 33.607 106.894 33.5978C110.208 33.5978 110.32 34.3481 110.48 35.4173C110.51 35.6142 110.541 35.822 110.594 36.0378C110.6 36.0643 110.606 36.1015 110.611 36.1423C110.636 36.3186 110.669 36.5598 110.848 36.2698C110.901 36.1837 110.956 36.0726 111.012 35.9572C111.191 35.5941 111.39 35.1877 111.633 35.3758C111.787 35.4984 111.777 35.6466 111.746 36.0784C111.742 36.1362 111.737 36.1992 111.733 36.2678C112.383 36.0876 113.076 36.1302 113.699 36.3888C113.84 36.4564 113.871 36.27 114.012 35.4309C114.032 35.3134 114.053 35.1831 114.078 35.0388C114.256 33.9888 115.041 33.9268 116.609 33.8888C118.848 33.9074 121.084 34.041 123.309 34.2888C123.415 34.3056 123.519 34.3218 123.619 34.3375C126.329 34.7633 126.822 34.8408 126.984 35.8138C127.103 36.5316 127.033 36.8697 127.157 37.1043C127.35 37.4675 128.01 37.5825 130.562 38.4738C130.644 38.5024 130.701 38.5299 130.743 38.5144C130.864 38.47 130.853 38.0705 130.909 36.3228C130.956 35.2347 130.932 34.1447 130.836 33.0598C130.801 32.3444 130.203 32.2445 129.513 32.1291C129.062 32.0537 128.572 31.9716 128.173 31.7068C127.071 30.9778 127.126 29.9079 127.178 28.9104C127.187 28.738 127.195 28.5678 127.198 28.4018C127.201 28.2115 126.819 28.1968 126.298 28.1767C125.402 28.1422 124.097 28.0919 123.624 27.1098C123.044 25.9089 123.454 24.5625 123.699 23.7566C123.823 23.3505 123.905 23.0817 123.797 23.0378C121.14 21.9658 118.421 21.4778 113.34 22.1658C110.665 22.5478 108.218 23.8848 106.452 25.9298ZM103.127 41.9402C103.045 41.9279 103.025 41.9249 103.035 41.9568H103.038C103.312 42.8125 102.937 45.8474 102.734 47.4904C102.66 48.088 102.609 48.5015 102.62 48.5588C104.607 47.633 106.817 47.295 108.989 47.5848C113.363 48.4505 115.562 49.9487 117.236 51.0893C118.393 51.8776 119.3 52.4951 120.5 52.6148C122.958 52.8575 124.1 51.6516 125.183 50.5088C125.817 49.8385 126.432 49.1898 127.279 48.8678C127.868 48.6012 128.53 48.5419 129.157 48.6995C129.784 48.8571 130.339 49.2224 130.732 49.7358C130.964 49.982 131.257 50.163 131.581 50.2608C131.905 50.3585 132.249 50.3695 132.579 50.2928C132.597 50.2875 132.584 50.2294 132.568 50.1546C132.557 50.1018 132.544 50.0406 132.539 49.9838C132.533 49.9235 132.534 49.7177 132.535 49.4603C132.536 49.133 132.537 48.7224 132.526 48.4218C132.507 47.917 132.8 47.7153 133.96 46.9172C134.034 46.8662 134.112 46.8128 134.193 46.7568C134.578 46.491 134.941 46.6029 135.214 46.687C135.45 46.7598 135.618 46.8118 135.675 46.5798C136.206 44.4618 134.938 41.5608 132.761 41.9878C131.946 42.1433 131.455 42.5837 130.863 43.1147C130.694 43.2665 130.517 43.4257 130.321 43.5878C129.996 43.8558 129.56 43.1878 131.29 41.7048C130.868 41.5718 126.848 40.3888 126.668 40.7888C126.559 41.0354 126.503 41.298 126.45 41.5501C126.302 42.2492 126.171 42.8683 124.955 42.8448C123 42.807 118.429 42.4123 117.515 42.3335C117.413 42.3247 117.357 42.3198 117.355 42.3198C117.065 42.2765 116.8 42.2394 116.556 42.2054C114.577 41.9297 114.037 41.8545 113.887 40.2378C113.833 39.6617 113.813 39.2718 113.798 39.0016C113.771 38.4844 113.767 38.4055 113.6 38.2978C112.532 37.6078 111.37 37.7188 111.247 38.1688C111.054 38.8644 110.614 39.9373 110.16 41.0437C109.735 42.0784 109.299 43.1425 109.041 43.9548C108.951 44.3296 109.001 44.7246 109.183 45.0645C109.365 45.4044 109.666 45.6654 110.028 45.7978C110.394 45.9125 110.747 46.0639 111.083 46.2498C111.666 46.5178 111.201 46.9048 110.801 46.8958C108.676 46.8508 107.788 45.3298 108.101 43.9958C108.181 43.6434 108.261 43.4428 108.375 43.1559C108.492 42.8639 108.644 42.4825 108.868 41.7608C108.109 41.7629 106.5 41.846 105.25 41.9106C104.71 41.9384 104.238 41.9629 103.929 41.9758C103.48 41.9934 103.242 41.9575 103.127 41.9402ZM124.758 73.4878C125.102 72.8206 125.278 72.0794 125.27 71.3288H125.273C125.231 67.8879 125.31 66.772 125.34 66.3452C125.357 66.1024 125.359 66.0827 125.313 65.9848C124.169 67.4927 122.823 68.8362 121.313 69.9778C119.46 71.3929 117.329 72.4005 115.059 72.9347C112.79 73.469 110.433 73.5177 108.143 73.0778C105.449 72.4371 104.363 71.8309 103.909 71.5772C103.593 71.4008 103.582 71.3948 103.548 71.6658C103.523 72.4128 103.601 73.1596 103.782 73.8848C104.764 81.9738 111.716 85.3538 116.724 82.5688C120.758 80.3328 122.677 77.6058 124.758 73.4878ZM113.341 58.3938C110.597 60.9198 107.886 58.9968 107.21 55.4198C107.039 54.5168 106.262 54.8268 106.314 55.7888C106.331 56.7456 106.639 57.6745 107.199 58.4508C107.563 59.1126 108.099 59.6638 108.75 60.0466C109.401 60.4294 110.144 60.6295 110.899 60.6258C111.581 60.6197 112.254 60.4691 112.873 60.184C113.493 59.8989 114.045 59.4858 114.493 58.9718C116.015 57.5948 115.594 56.4138 114.782 57.0208C114.362 57.4268 113.771 57.9938 113.341 58.3938ZM35.7847 83.2683C35.699 82.8049 35.6889 82.7505 35.5779 82.8728V82.8738C35.4771 82.985 35.3787 83.0897 35.2866 83.1877C34.6752 83.838 34.3411 84.1934 35.4179 84.1908C35.4658 84.1807 35.5109 84.1723 35.5529 84.1644C35.8061 84.1169 35.9451 84.0909 35.8979 83.8558C35.8482 83.6117 35.8125 83.4185 35.7847 83.2683ZM34.8877 85.7154C35.1626 86.5279 35.2712 86.8488 35.8979 86.8488L35.8999 86.8498C39.2892 86.0426 42.4818 83.0206 44.2353 81.3609C44.3282 81.2728 44.4172 81.1886 44.5019 81.1088C45.8019 79.8778 45.7629 79.8148 45.6019 79.5978C45.4731 79.4232 45.3631 79.2576 45.2658 79.1112C44.9382 78.6179 44.7556 78.3429 44.4849 78.6768C41.2199 82.7288 36.0839 85.4798 34.7619 84.9978C34.7039 84.9778 34.6369 85.0088 34.6759 85.1088C34.7593 85.3358 34.8275 85.5374 34.8877 85.7154ZM78.9579 111.106C81.2939 105.281 84.0197 99.6201 87.1169 94.1618V94.1628C87.5729 93.2218 86.7079 93.0588 86.2999 93.7168C85.7994 94.5361 85.3276 95.2885 84.8744 96.0112C82.9877 99.0196 81.4239 101.514 79.4589 106.178C78.4343 108.608 78.2173 109.476 78.046 109.467C77.9031 109.46 77.792 108.842 77.2709 108.011C77.0429 107.646 76.82 107.285 76.5954 106.921C74.6491 103.764 72.5754 100.401 65.9409 92.8958C65.8936 92.8423 65.8584 92.8018 65.8151 92.7893C65.6701 92.7474 65.4344 93.0191 64.3469 94.1628C64.243 94.2722 64.1489 94.368 64.0653 94.4531C63.5053 95.0235 63.4127 95.1178 63.9469 95.6398C65.5626 97.1026 67.0541 98.6971 68.4059 100.407C69.4629 101.715 71.4309 104.564 69.3909 102.492C62.0173 95.0046 60.441 93.3627 58.7455 91.8549C57.1885 90.4702 55.531 89.1986 49.1909 83.6168C48.1045 82.6689 47.0882 81.6436 46.1499 80.5488C46.0878 80.4852 45.9182 80.6808 45.5873 81.0623C44.6602 82.1312 42.4677 84.6593 37.8319 87.0288C37.6988 87.0972 37.6121 87.1369 37.5676 87.2045C37.4239 87.4225 37.7197 87.9302 38.3099 90.6238C39.778 96.4833 41.5399 102.266 43.5889 107.948C46.8829 116.095 51.6819 125.485 60.2019 127.612C64.7389 128.746 70.2889 127.523 74.8579 122.991C75.3182 122.533 75.5391 121.684 75.9275 120.193C76.4126 118.33 77.1587 115.465 78.9579 111.106ZM112.943 139.666C121.391 139.928 130.355 134.64 134.391 126.24V126.241C136.45 121.992 137.204 117.228 136.559 112.55C135.914 107.873 133.897 103.491 130.765 99.9578C118.614 86.3088 95.3369 90.0668 89.5959 109.909C85.7429 123.233 95.9369 139.666 112.943 139.666ZM137.033 81.5568C136.472 92.8078 143.975 110.807 148.919 114.157V114.158C149.678 114.672 150.432 113.989 149.946 113.472C148.016 111.491 146.394 109.233 145.132 106.772C140.964 98.9297 138.534 90.2821 138.006 81.4168C137.938 80.7008 137.119 79.8298 137.033 81.5568ZM188.014 71.3968C187.735 71.1054 187.353 70.9358 186.95 70.9248C185.033 71.2288 184.537 74.1048 186.73 74.1218C187.173 74.1259 187.599 73.9565 187.919 73.6497C188.238 73.343 188.424 72.9234 188.438 72.4808C188.445 72.0777 188.293 71.6882 188.014 71.3968ZM171.845 65.2036C171.588 64.7865 171.246 64.2295 171.474 64.0628C171.698 63.901 172.081 64.3729 172.649 65.0714C173.495 66.1126 174.75 67.6576 176.495 68.3578C176.761 68.4648 176.753 68.7288 176.582 68.8158C176.489 68.8611 176.396 68.8634 176.313 68.8654C176.16 68.8692 176.04 68.8722 176.011 69.1448C175.931 69.9323 175.786 70.423 175.689 70.7528C175.577 71.1319 175.528 71.2984 175.711 71.4588C176.326 71.9967 176.502 72.4721 176.605 72.7489C176.691 72.9805 176.725 73.073 176.922 72.9468C177.117 72.7733 177.346 72.6436 177.595 72.5663C177.844 72.489 178.106 72.466 178.365 72.4988C179.582 72.6487 179.955 73.1185 180.142 73.3538C180.262 73.5047 180.305 73.5591 180.445 73.3708C180.775 72.9362 181.208 72.5908 181.706 72.3659C182.203 72.141 182.749 72.0437 183.293 72.0828C184.012 72.1225 184.291 72.3073 184.43 72.3995C184.54 72.4724 184.563 72.4876 184.647 72.3278C184.818 71.5893 185.258 70.9411 185.882 70.5108C186.007 70.4411 185.981 70.3824 185.829 70.0478C185.73 69.8304 185.579 69.4963 185.382 68.9668C185.172 68.3972 184.97 67.8386 184.771 67.2919C183.13 62.7696 181.786 59.0657 179.199 56.7738C178.555 56.144 177.714 55.756 176.817 55.6755C175.92 55.5949 175.023 55.8268 174.277 56.3318C173.097 57.1402 172.108 58.1986 171.383 59.4318C169.844 62.3678 169.71 62.7088 169.744 63.5438C169.607 64.3148 170.695 65.9518 172.053 65.5628C172.012 65.474 171.934 65.3471 171.845 65.2036ZM181.859 75.9236C182.129 76.0818 182.44 76.1583 182.753 76.1438C183.046 76.1678 183.34 76.1192 183.609 76.0023C183.878 75.8853 184.115 75.7037 184.297 75.4734C184.479 75.2432 184.602 74.9715 184.654 74.6825C184.706 74.3935 184.686 74.0961 184.595 73.8168C184.432 73.5547 184.212 73.3334 183.95 73.1701C183.689 73.0067 183.393 72.9056 183.086 72.8746C182.779 72.8436 182.469 72.8835 182.18 72.9912C181.891 73.0989 181.631 73.2715 181.419 73.4958C181.221 73.7389 181.098 74.034 181.064 74.3457C181.03 74.6574 181.087 74.9722 181.228 75.2522C181.369 75.5322 181.588 75.7654 181.859 75.9236ZM177.75 76.2282C177.95 76.3057 178.164 76.3427 178.379 76.3368C180.567 76.3368 180.311 73.2278 178.233 73.2238C177.832 73.2262 177.448 73.3862 177.164 73.6693C176.88 73.9523 176.719 74.3358 176.715 74.7368C176.718 74.9516 176.763 75.1638 176.848 75.3609C176.934 75.5581 177.057 75.7363 177.212 75.8852C177.367 76.0341 177.55 76.1507 177.75 76.2282ZM173.283 73.3122C173.723 75.5313 176.158 75.2702 175.953 73.5448C175.67 72.1572 175.318 72.0403 174.66 71.8222L174.647 71.8178C174.224 71.6778 173.287 72.1778 173.287 73.3178L173.283 73.3122ZM163.539 120.642C174.365 124.315 185.807 124.265 191.745 114.306L191.732 114.293C194.557 109.555 194.854 101.273 194.067 97.1778C191.848 85.9363 191.248 84.2732 189.48 79.3756C189.297 78.8696 189.102 78.329 188.891 77.7398C187.959 75.1235 187.864 74.6602 187.72 74.6447C187.685 74.6409 187.646 74.6646 187.591 74.6898C186.837 75.0364 186.304 74.8461 185.975 74.7284C185.74 74.6443 185.608 74.5972 185.573 74.8088C185.476 75.1993 185.295 75.5639 185.042 75.8768C184.705 76.3192 184.245 76.6515 183.719 76.8312C183.193 77.0108 182.625 77.0299 182.088 76.8858C181.468 76.7204 180.92 76.3561 180.528 75.8488C180.459 75.9383 180.399 76.0206 180.343 76.097C180.096 76.4321 179.934 76.6526 179.519 76.8578C178.995 77.1258 178.39 77.1917 177.82 77.0429C177.251 76.8941 176.755 76.541 176.429 76.0508C176.364 75.9336 176.308 75.8205 176.259 75.7207C176.137 75.4731 176.056 75.3076 175.965 75.3668C175.308 75.7906 174.884 75.7097 174.608 75.657C174.389 75.6152 174.263 75.5912 174.187 75.8508C173.047 79.7746 172.083 82.8255 171.282 85.3595C168.975 92.6568 168.023 95.6678 168.151 102.893C168.155 103.102 167.769 103.213 167.487 102.665C165.921 99.6164 168.32 91.4921 169.202 88.5037C169.399 87.8366 169.52 87.4254 169.505 87.3838C169.475 87.2995 169.339 87.2417 169.193 87.1793C169.116 87.1463 169.035 87.112 168.966 87.0718C167.175 85.971 166.681 85.5825 166.503 85.6947C166.41 85.7535 166.404 85.9501 166.343 86.2538C166.241 86.7486 166.124 87.3136 165.996 87.9251C165.317 91.1793 164.364 95.7521 164.123 98.0898L164.068 98.6204C163.206 106.952 162.699 111.854 162.993 119.9C163.002 120.184 163.006 120.324 163.074 120.417C163.142 120.509 163.274 120.553 163.539 120.642Z" fill="#20262C"/>
<path d="M51.5567 26.856C51.5567 26.077 51.0887 26.226 50.8567 26.838C44.6107 43.153 44.4887 41.856 44.5877 42.312C45.0937 44.649 52.0877 26.971 51.5567 26.856Z" fill="#20262C"/>
<path d="M50.9408 68.159C50.5758 67.977 50.2018 68.166 50.7988 68.659C52.7488 70.259 63.0408 74.648 66.1398 75.312C66.2308 75.3219 66.3225 75.3003 66.3994 75.2508C66.4764 75.2013 66.5341 75.1269 66.5629 75.04C66.7129 74.332 61.0308 73.1761 50.9408 68.159Z" fill="#20262C"/>
<path d="M67.3665 47.5892C66.9925 47.6632 60.9845 50.5282 55.9665 52.4322C50.7805 54.3982 52.1115 53.8442 51.7145 54.0162C51.5455 54.0892 51.3775 54.4522 51.9285 54.4542C54.6285 54.1332 66.8495 49.1232 67.6415 48.0772C67.8535 47.7902 67.6925 47.5242 67.3665 47.5892Z" fill="#20262C"/>
<path d="M22.9301 64.2158C22.7151 63.2558 7.92217 69.5518 6.91917 70.3158C6.61917 70.5468 6.71917 71.0948 7.21117 70.9598C7.37717 70.9148 13.6021 68.1378 13.7881 68.0658C22.9731 64.5078 23.0421 64.7128 22.9301 64.2158Z" fill="#20262C"/>
<path d="M28.1201 76.966C27.3981 76.521 19.7541 87.766 18.7601 89.775C18.5461 90.209 18.9141 90.633 19.3271 90.075C19.4631 89.89 21.9561 86.043 22.5321 85.232C28.3581 77.025 28.5421 77.226 28.1201 76.966Z" fill="#20262C"/>
<path d="M37.5245 49.0925C35.1785 49.5475 28.6745 51.0245 26.8855 52.3555C25.6515 53.2735 26.3165 54.5655 28.1385 61.5325C29.2186 65.6841 30.6539 69.735 32.4285 73.6405C32.6835 74.1065 32.7945 74.3095 33.9685 74.1145C35.8538 73.7988 37.7114 73.3361 39.5245 72.7305C39.7065 72.1464 39.9463 71.5819 40.2405 71.0455C38.3306 71.7297 36.3752 72.2794 34.3885 72.6905C33.4885 72.8905 33.4165 72.5335 33.2885 72.2235C30.9535 66.7695 29.2115 59.8165 27.8395 54.0615C27.6785 53.3835 28.6065 53.0945 29.4945 52.7615C30.1405 52.5195 30.8745 54.4165 31.8255 54.0755C32.3095 53.9015 32.8185 53.7965 33.3065 53.6335C34.0495 53.3865 34.7795 53.1005 35.5265 52.8645C36.7375 52.4815 36.0895 50.9575 36.6705 50.8145C37.3815 50.6385 38.3125 50.1325 38.7535 51.1835C40.1635 54.5465 41.9825 64.2105 42.4185 67.1835C42.6859 66.4539 43.1141 65.7939 43.6715 65.2525C43.4575 64.2995 42.9205 60.6115 40.8115 52.7405C39.9395 49.4995 39.4355 48.7225 37.5245 49.0925Z" fill="#20262C"/>
<path d="M21.5418 49.999C21.9418 49.092 7.09183 43.027 6.04683 42.833C5.80683 42.833 5.60083 42.797 5.51983 43.017C5.28483 43.66 7.00183 43.797 15.2428 47.422C21.3618 50.117 21.3288 50.479 21.5418 49.999Z" fill="#20262C"/>
<path d="M29.6862 42.9098C30.7212 44.0918 29.0312 34.4658 26.9332 26.4518C26.6872 25.5118 26.0952 25.7748 26.1262 26.1028C26.2472 27.3978 27.0362 30.2028 28.1262 35.1378C28.9272 38.7678 29.3432 42.5178 29.6862 42.9098Z" fill="#20262C"/>
<path d="M118.198 117.696V113.193H120.266V108.421H115.494V120.179H110.914V103.552L119.211 103.529C122.406 103.521 125 106.108 125 109.303V117.696H118.198Z" fill="#20262C"/>
<path d="M108.547 113.107V117.706H106.257V122.382H115.494V127.059H106.488C103.83 127.059 101.677 124.905 101.677 122.248V113.107H108.547Z" fill="#20262C"/>
</svg>
