<svg width="85" height="85" viewBox="0 0 85 85" fill="none" xmlns="http://www.w3.org/2000/svg">
<path fill-rule="evenodd" clip-rule="evenodd" d="M35.4828 5.19014C42.9543 4.85699 46.9314 7.26589 50.5762 9.83063C45.9556 15.0792 45.4575 22.1822 47.3552 27.5167C51.5469 39.2994 66.9842 43.6573 76.7337 34.34C79.5026 31.6936 81.0045 28.2883 81.6505 25.9594C83.1895 30.3096 83.2915 35.0559 81.9157 39.4906C81.2685 41.6483 80.3441 43.4282 79.4231 45.2001C78.4346 47.1032 77.4507 48.997 76.8204 51.34C76.0597 54.1684 76.6534 56.6657 77.2773 59.2905C78.16 63.0025 79.1031 66.9686 76.361 72.4842C73.9916 77.251 68.1249 79.4304 62.8388 79.5715C57.8174 79.7054 52.7595 77.0517 48.9064 75.03C47.5643 74.3257 46.3687 73.6984 45.3713 73.2921C40.7441 71.4073 37.6814 73.9224 34.3971 76.6195L34.3959 76.6207L34.395 76.6212C33.9184 77.0126 33.4369 77.4083 32.9455 77.7942C30.2374 79.9221 15.3824 88.1068 5.76678 72.4069C3.53766 68.7714 -0.263118 59.234 4.19428 49.8394C6.32026 45.359 8.90685 43.1537 11.2073 41.1924C13.8943 38.9016 16.1909 36.9437 16.9073 32.0816C17.1817 30.219 17.1068 28.3321 17.0306 26.4112C16.8794 22.5984 16.7229 18.6521 19.2818 14.4976C21.0103 11.7352 23.3926 9.44099 26.2183 7.81771C29.0438 6.19442 32.2257 5.29197 35.4828 5.19014ZM27.5673 34.196C28.2695 33.8578 29.3758 33.325 29.6747 33.201C29.7079 33.1908 29.7435 33.1916 29.7762 33.2033C29.8088 33.2151 29.8368 33.2371 29.8559 33.2661C29.8749 33.295 29.8841 33.3295 29.882 33.3641C29.8798 33.3987 29.8664 33.4318 29.8439 33.4582C29.6616 33.6409 27.7108 34.7293 27.4133 34.8938C27.4854 34.9855 27.712 35.1428 27.9686 35.3209C28.1856 35.4716 28.424 35.6371 28.6088 35.7906C29.0951 36.1928 29.1004 36.2555 29.1108 36.3772C29.1117 36.3873 29.1125 36.3978 29.1137 36.4089C29.1156 36.4244 29.1142 36.44 29.1095 36.4548C29.1047 36.4696 29.0968 36.4832 29.0863 36.4947C29.0758 36.5061 29.0629 36.5151 29.0486 36.5211C29.0342 36.527 29.0187 36.5298 29.0032 36.5292C28.9507 36.5267 28.8989 36.516 28.8498 36.4973C28.4753 36.2777 28.1262 36.0326 27.8317 35.826C27.4562 35.5625 27.1697 35.3614 27.0329 35.3549C26.9437 36.0476 26.8906 36.7444 26.8736 37.4425C26.857 37.7107 26.8417 37.8786 26.7397 37.9525C26.6957 37.9893 26.6413 38.0114 26.5841 38.0154C26.3925 38.0154 26.3806 37.7477 26.3759 37.5569C26.3597 36.8943 26.4511 35.7009 26.4762 35.3894C26.412 35.4174 26.3087 35.4688 26.1387 35.5594C25.5102 35.892 25.159 36.0966 24.9511 36.2178C24.6577 36.3887 24.6496 36.3935 24.5501 36.3567C24.5171 36.3457 24.4881 36.3252 24.4667 36.2978C24.4452 36.2705 24.4322 36.2374 24.4294 36.2028C24.4018 35.8705 25.3323 35.3751 25.976 35.0324C26.0872 34.9732 26.19 34.9185 26.2777 34.87L25.967 34.6524C24.5113 33.6327 24.3148 33.495 24.3223 33.3696C24.3235 33.3501 24.3297 33.3308 24.3368 33.3086L24.3376 33.306C24.4792 32.8612 25.2654 33.45 25.9075 33.9308C26.1728 34.1295 26.4135 34.3098 26.5739 34.391C26.5714 34.2436 26.5905 33.8237 26.7048 32.5546C26.7636 31.902 26.7563 31.4012 26.7509 31.0312C26.7424 30.4427 26.7387 30.1853 27.013 30.1746C27.0742 30.1795 27.1325 30.2032 27.1798 30.2423C27.2272 30.2815 27.2614 30.3342 27.2777 30.3935C27.2923 31.7367 27.2355 33.0797 27.1077 34.417C27.2134 34.3665 27.3723 34.2899 27.5609 34.1991L27.5639 34.1977L27.5673 34.196ZM72.9002 47.7348C72.9244 47.7084 72.9389 47.6748 72.9419 47.6391C72.9448 47.6034 72.9359 47.5682 72.9164 47.538C72.8972 47.5078 72.8683 47.4853 72.8343 47.4734C72.8008 47.4615 72.7642 47.4615 72.7302 47.4725C72.3919 47.6124 71.0298 48.2703 70.3778 48.5848L70.1632 48.6885C70.2911 47.351 70.3477 46.008 70.3332 44.6646C70.3166 44.6055 70.2822 44.5528 70.235 44.5137C70.1879 44.4746 70.1296 44.4512 70.0684 44.4461C69.7943 44.4567 69.7981 44.7143 69.8071 45.3016C69.8122 45.6718 69.8198 46.1729 69.7607 46.8261C69.6464 48.0943 69.6277 48.5146 69.6303 48.6621C69.4696 48.5814 69.2282 48.4003 68.9622 48.201C68.3208 47.7203 67.5354 47.1317 67.3935 47.5775L67.3922 47.5809C67.3854 47.603 67.379 47.6221 67.3782 47.6417C67.3701 47.7671 67.5677 47.9052 69.0442 48.9384L69.3336 49.1411C69.2537 49.1853 69.1594 49.235 69.0561 49.2898C68.4207 49.6273 67.4572 50.139 67.4853 50.4743C67.4921 50.5109 67.5087 50.5453 67.5333 50.5733C67.5575 50.6014 67.5894 50.6222 67.6247 50.6341C67.66 50.646 67.6978 50.6481 67.7343 50.6401C67.7709 50.6324 67.8045 50.615 67.8321 50.5899C67.9388 50.5049 69.3621 49.734 69.5746 49.6324C69.5729 49.6528 69.5708 49.6774 69.5682 49.7051L69.5678 49.708C69.5189 50.255 69.3553 52.0787 69.7535 52.0787C69.8674 52.0787 69.8725 52.0098 69.9086 51.5096C69.9286 51.2317 69.9588 50.8207 70.0221 50.2159C70.0412 50.0344 70.0595 49.6069 70.0595 49.6069C70.1356 49.6447 70.2142 49.697 70.3319 49.7748C70.4875 49.8776 70.7102 50.0255 71.0842 50.2444C71.159 50.272 71.2669 50.3001 71.3209 50.2418C71.3545 50.2057 71.3511 50.1751 71.3473 50.1407C71.3464 50.1343 71.3456 50.1279 71.3451 50.1216C71.3345 49.9775 71.289 49.9061 70.8432 49.5368C70.6979 49.4165 70.5937 49.337 70.5062 49.2699C70.4726 49.2444 70.4412 49.2201 70.411 49.1968C70.6035 49.0994 72.7132 47.9218 72.9002 47.7348ZM36.8767 12.9272C36.8843 12.9424 36.8889 12.9591 36.89 12.9761C36.8963 13.2392 34.7225 15.4271 33.7943 16.2384C33.9101 16.3793 34.6256 17.0278 35.2499 17.5935L35.2532 17.5965C35.3586 17.692 35.4613 17.7851 35.558 17.8729C36.1849 18.4416 36.1726 18.4934 36.1556 18.5644C36.1499 18.5843 36.1395 18.6024 36.1252 18.6173C36.1109 18.6321 36.0932 18.6431 36.0735 18.6494C35.8368 18.7161 33.9617 17.2214 33.396 16.6519C33.3012 17.0683 33.1542 18.6342 33.0552 19.6882C33.0026 20.249 32.9635 20.6651 32.9532 20.6856C32.9459 20.7003 32.9354 20.7131 32.9223 20.7231C32.9092 20.733 32.8941 20.7397 32.878 20.7428C32.8618 20.7459 32.8452 20.7451 32.8294 20.7406C32.8137 20.7362 32.7991 20.7281 32.787 20.717C32.4585 20.4195 32.6245 18.9026 32.7431 17.8197L32.7432 17.8186C32.7761 17.518 32.8054 17.2509 32.8193 17.0527C32.732 17.1184 32.6052 17.2226 32.3751 17.4118C32.2614 17.5052 32.1225 17.6194 31.9506 17.7599C31.6034 18.0452 31.5838 18.0869 31.535 18.1909C31.5245 18.2133 31.5126 18.2387 31.4959 18.2699C31.3097 18.6265 30.8673 18.2682 31.0709 17.8483C31.1953 17.5922 31.2615 17.538 32.1967 16.7725C32.3569 16.6414 32.5426 16.4894 32.7585 16.3119C32.8117 16.2682 32.8627 16.2261 32.8928 16.198C32.8482 16.1593 30.6102 14.045 30.5957 13.9846C30.5451 13.7959 30.6106 13.7186 30.6726 13.6871C31.0454 13.4967 32.736 15.2142 33.0169 15.5227C33.0208 15.4802 33.0242 15.4283 33.0271 15.3799C33.0375 15.211 33.0739 14.879 33.1235 14.4256L33.1237 14.4245C33.1736 13.9686 33.237 13.3901 33.3008 12.7313L33.301 12.7302C33.3939 11.7772 33.3995 11.7198 33.6013 11.6879C33.9389 11.6324 33.7983 12.9393 33.6305 14.4987C33.5879 14.8946 33.5435 15.3067 33.5048 15.7169C34.9999 14.4712 35.7653 13.7118 36.191 13.2893C36.6224 12.8613 36.7053 12.7791 36.8453 12.8873C36.8583 12.8984 36.869 12.9119 36.8767 12.9272ZM53.7246 51.2776C53.2584 51.5296 53.2338 51.5402 53.1496 51.5755C53.0905 51.6006 53.0017 51.6384 52.7085 51.7816C52.5312 51.8683 52.3005 51.9869 52.0948 52.0919C51.8644 52.21 51.6659 52.3116 51.6111 52.3341C51.6247 52.1072 51.6991 50.6864 51.663 50.5606C51.6863 50.4645 51.6999 50.3664 51.7025 50.2673C51.7038 50.1985 51.6787 50.1313 51.6324 50.0803C51.586 50.0293 51.5219 49.9979 51.453 49.9924C51.1453 49.9724 51.1334 50.3324 51.1347 50.6392C51.1364 51.0124 51.1211 51.227 51.1071 51.4297C51.093 51.6282 51.0799 51.8148 51.0841 52.1267C51.0624 52.1152 51.0378 52.1021 51.0106 52.0876L50.9668 52.0642C50.5337 51.8313 49.5915 51.3256 49.2847 51.5194C49.2528 51.5432 49.2277 51.5755 49.2128 51.6125C49.1975 51.6494 49.1933 51.6898 49.1997 51.7293C49.206 51.7689 49.223 51.8058 49.249 51.836C49.2745 51.8666 49.3085 51.8891 49.3463 51.9019C50.3582 52.3702 50.637 52.505 50.7777 52.573C50.8593 52.6125 50.8941 52.6295 50.9995 52.6762C50.943 52.7136 50.8788 52.7532 50.8011 52.8012C50.6294 52.907 50.3901 53.0541 50.0178 53.3137C49.5605 53.635 49.8478 54.1897 50.0939 53.9627C50.3905 53.7094 50.7152 53.4914 51.062 53.3129C51.076 54.8637 51.2299 55.0023 51.289 55.0554C51.3043 55.0703 51.3221 55.0822 51.3421 55.0898C51.3621 55.0975 51.3833 55.1009 51.4046 55.0996C51.4262 55.0987 51.4471 55.0932 51.4662 55.0839C51.4853 55.0745 51.5023 55.0609 51.5159 55.0448C51.569 54.9776 51.5588 54.8947 51.5278 54.6448C51.524 54.6147 51.5202 54.5824 51.5159 54.5475C51.5316 54.4876 51.5435 54.1527 51.5554 53.8093C51.569 53.4238 51.5831 53.0273 51.6035 52.9975C51.6268 52.9997 51.6494 53.0069 51.6693 53.0192C52.0625 53.213 52.36 53.3626 52.5869 53.4769C53.1619 53.7659 53.2797 53.825 53.3324 53.7889C53.346 53.78 53.3549 53.7642 53.3668 53.7443L53.3736 53.7328C53.5491 53.4255 52.7816 53.0201 52.3128 52.7719C52.249 52.7383 52.1908 52.7073 52.1411 52.6801C52.7136 52.3715 53.2678 52.0311 53.802 51.6601C54.1152 51.3932 53.8628 51.2019 53.7246 51.2776ZM65.0386 63.4878C65.0462 63.5031 65.0509 63.5201 65.0517 63.5371C65.0607 63.8002 62.8889 65.9855 61.9569 66.8003C62.0678 66.9333 62.7601 67.561 63.4304 68.1683L63.4321 68.17C63.529 68.258 63.6254 68.3456 63.7198 68.431C64.3462 68.9996 64.3339 69.0511 64.3169 69.1225C64.3114 69.1424 64.3012 69.1607 64.2867 69.1752C64.2723 69.19 64.2544 69.2011 64.2349 69.2075C64.0003 69.2699 62.1235 67.7799 61.5574 67.21C61.4609 67.6299 61.31 69.2372 61.211 70.2921C61.1604 70.8305 61.1235 71.2254 61.1141 71.2441C61.1069 71.2585 61.0963 71.2713 61.0831 71.281C61.0699 71.2908 61.055 71.2976 61.0389 71.3006C60.5727 71.3733 60.7996 69.3031 60.9224 68.1807L60.9229 68.1777C60.9496 67.9325 60.9717 67.7327 60.9802 67.6107C60.8842 67.6834 60.7184 67.8194 60.4881 68.009L60.4872 68.0098L60.3321 68.1373C60.2633 68.1938 60.1897 68.2542 60.1115 68.3179C59.7639 68.6023 59.7452 68.6422 59.6955 68.7485C59.6853 68.7706 59.6734 68.7952 59.6572 68.8258C59.4706 69.1824 59.0278 68.8245 59.2322 68.4042C59.3601 68.1416 59.3759 68.1284 60.5319 67.1849L60.7091 67.0404L60.9322 66.8581L60.9445 66.8479C60.9705 66.8266 60.996 66.8058 61.0172 66.7875C61.0317 66.7752 61.0444 66.7641 61.055 66.7544C61.0125 66.7204 58.7719 64.6013 58.7575 64.5401C58.7069 64.3518 58.7724 64.2741 58.8344 64.2426C59.2084 64.0526 60.8897 65.7654 61.1787 66.0786C61.2357 65.4258 61.2735 65.0811 61.3198 64.6549C61.3568 64.3157 61.3997 63.9251 61.4622 63.2864C61.5557 62.3327 61.5616 62.2757 61.7631 62.2434C62.101 62.1907 61.9603 63.498 61.7924 65.0561C61.7499 65.4517 61.7053 65.8636 61.6666 66.2733C61.6925 66.2473 61.7729 66.1798 61.8982 66.0748C62.3368 65.7072 63.3241 64.8793 64.4474 63.7594C64.7687 63.4385 64.8664 63.3408 65.0067 63.4483C65.0199 63.4593 65.0309 63.4725 65.0386 63.4878ZM19.3179 53.2946C19.4154 53.2882 19.5159 53.2381 19.651 53.1709C20.077 52.9589 20.8473 52.5759 22.9538 52.8441C23.1415 52.8513 23.2742 52.876 23.3784 52.8955C23.5872 52.9346 23.6817 52.9521 23.8756 52.7646C24.1459 52.5096 26.0104 50.0446 26.0367 50.0068C26.1935 49.7901 26.4418 49.5151 26.6931 49.2363C27.2545 48.6137 27.831 47.9749 27.4358 47.9362C26.6712 47.8062 25.8901 47.8062 25.1255 47.9362C24.5027 48.0425 23.8942 48.2205 23.3121 48.4662C21.9382 49.1696 20.7621 50.2053 19.8904 51.479C19.5929 51.9529 19.3353 52.4484 19.0871 52.9495C19.0677 52.9873 19.0587 53.0294 19.0611 53.0719C19.0635 53.114 19.0771 53.1548 19.1007 53.1901C19.1243 53.2253 19.1569 53.2538 19.195 53.2721C19.2332 53.2904 19.2757 53.298 19.3179 53.2946ZM27.0598 59.9637C27.0983 59.985 27.1297 60.0168 27.1498 60.0559C27.2699 60.3211 26.7736 60.9319 24.4402 63.804C22.8597 65.7492 20.4363 68.7323 16.7909 73.3474C16.5514 73.6504 16.3617 73.8948 16.2097 74.0903C15.6601 74.7983 15.6029 74.8723 15.4674 74.7886C15.4241 74.7605 15.3799 74.7036 15.4181 74.5761C15.8036 73.3125 26.5361 59.9378 26.9335 59.9378C26.9772 59.9335 27.0212 59.9425 27.0598 59.9637ZM19.1479 73.2773C18.7369 73.78 19.1632 74.2284 19.4573 73.7983C19.649 73.4541 21.0026 72.7052 22.5228 72.7592C22.7064 72.766 22.7536 72.831 22.6797 73.0235C22.4879 73.5187 21.4446 74.1638 21.0205 74.426C20.9265 74.4843 20.863 74.5234 20.8458 74.5382C20.7692 74.5909 20.707 74.6619 20.6648 74.7444C20.6226 74.8272 20.6017 74.919 20.604 75.0121C20.6063 75.1048 20.6318 75.1957 20.6781 75.2765C20.7244 75.3568 20.7901 75.4244 20.8692 75.4732C20.9668 75.5451 21.0661 75.6143 21.1615 75.6811C21.5021 75.9195 21.7923 76.1226 21.7744 76.2582C21.7396 76.5213 20.7769 76.9212 19.0119 77.5681C18.7199 77.6752 18.7637 78.0356 19.456 78.0356C20.2147 77.9824 20.9488 77.7449 21.5946 77.3432C23.4423 76.3164 22.2136 75.5574 21.5647 75.1566C21.4303 75.0733 21.3208 75.0057 21.2687 74.9543C21.2812 74.9454 21.3186 74.9254 21.3749 74.8952C21.7646 74.6857 23.0645 73.987 23.3745 73.1234C24.001 71.3779 20.1875 72.0074 19.1479 73.2773ZM12.4754 68.7587C12.9769 66.8015 14.4984 65.4041 15.3654 67.167C15.9698 68.3949 15.5001 69.9198 14.9731 69.8751C14.9371 69.8743 14.9018 69.8645 14.8702 69.8475C14.8385 69.8301 14.8113 69.8059 14.7908 69.7761C14.764 69.7068 14.7525 69.6325 14.7571 69.5581C14.7616 69.4841 14.7821 69.4115 14.8172 69.346C15.2005 68.2142 14.6442 66.7514 14.1287 67.2087C13.4453 67.816 12.9064 69.2381 13.1478 69.7876C13.2506 70.0226 13.2464 70.3707 13.0003 70.4476C12.673 70.5509 12.563 70.2946 12.4669 70.0694C12.1839 69.4136 11.6373 69.3328 11.3194 69.6019C10.9438 69.9903 10.7191 70.5003 10.6857 71.0396C10.6857 71.2356 10.827 71.3558 10.9475 71.4583C11.0652 71.5586 11.163 71.6419 11.0895 71.7621C11.0647 71.8 11.0277 71.8284 10.9847 71.8425C10.9417 71.8565 10.8952 71.8556 10.8528 71.8399C10.6158 71.7881 10.4055 71.6525 10.2603 71.4583C10.1151 71.264 10.0448 71.0239 10.0623 70.7821C10.0536 70.5007 10.1119 70.2211 10.2323 69.9665C10.5055 69.2355 10.8651 68.867 11.4346 68.734C11.7647 68.663 12.1096 68.7255 12.3938 68.9078L12.4329 68.9257C12.4442 68.8692 12.4584 68.8135 12.4754 68.7587ZM30.2791 62.9421C30.0592 62.4092 29.7019 62.764 29.1816 63.2808C28.9717 63.4895 28.7353 63.7245 28.4707 63.9379C27.5999 64.6387 24.9908 67.1649 24.1884 67.9439C21.4459 70.6053 21.5007 70.6758 21.584 70.7829C21.5943 70.7974 21.6079 70.8089 21.6237 70.8169C21.6394 70.825 21.6569 70.8293 21.6745 70.8288C22.1544 70.8288 29.9935 63.4674 30.2702 63.0403C30.2795 63.0258 30.2852 63.0093 30.2867 62.9923C30.2883 62.9753 30.2857 62.9578 30.2791 62.9421ZM23.2932 59.7317C21.5659 62.1971 18.9232 65.9685 18.5266 66.6919C18.4186 66.8916 18.1432 66.8372 18.2133 66.5448C18.4348 65.6328 23.6028 57.9552 24.3894 57.3291C24.4257 57.2875 24.4752 57.2594 24.5296 57.2497C24.584 57.2403 24.6401 57.2497 24.6885 57.2764C24.7368 57.3032 24.7745 57.3457 24.7953 57.3967C24.816 57.4481 24.8186 57.5051 24.8025 57.5578C24.7915 57.5931 24.1567 58.4992 23.2932 59.7317ZM45.56 45.6081C44.7444 45.2761 43.9671 44.8571 43.2416 44.3586C41.9839 43.4448 40.8908 42.3238 40.009 41.0436C39.8701 40.8155 39.7618 40.6313 39.6753 40.4841C39.4533 40.1066 39.3747 39.9729 39.2893 39.9684C39.2426 39.966 39.1938 40.0023 39.1182 40.0585L39.1034 40.0695C34.8598 42.6033 31.0699 45.8295 27.8906 49.6137C27.2612 50.3787 27.2663 50.3978 27.3933 50.6158C29.2319 53.7808 33.6999 57.2709 36.8628 59.0614C37.0935 59.194 37.1649 59.1928 39.4608 56.4031C42.0929 53.2054 44.2552 49.6481 45.8817 45.8393C45.8813 45.6429 45.8065 45.6395 45.7091 45.6357C45.6628 45.6336 45.6114 45.6314 45.56 45.6081ZM38.2619 51.2686C36.9048 51.085 36.122 50.748 35.351 49.6069C33.4589 46.8019 36.5461 43.0389 39.8267 44.5422C42.9857 45.9897 42.3818 51.0672 38.2619 51.2686ZM35.6561 59.6828C36.1236 59.9437 36.2172 59.996 36.0769 60.1511L36.0394 60.1919C35.6674 60.5961 34.1913 62.2009 33.634 62.3577C31.3713 61.9854 27.0487 58.2501 25.5765 56.1702C25.1112 55.596 24.7478 54.9457 24.5021 54.2487L24.4811 54.2003L24.4629 54.1578C24.3554 53.9092 24.3335 53.8586 24.3958 53.7744C24.9721 52.9992 26.2012 51.4943 26.211 51.485C26.4336 51.2266 26.5648 51.4204 26.9538 51.9954C27.5592 52.8896 28.7892 54.7073 31.9604 57.18C33.9354 58.721 35.0799 59.3606 35.6561 59.6828ZM48.0794 37.3907C48.0747 37.302 48.0513 37.2154 48.0101 37.1367C47.9689 37.058 47.9115 36.9891 47.8414 36.9347C47.7712 36.8803 47.6901 36.8417 47.6034 36.8215C47.5171 36.8013 47.4274 36.8001 47.3403 36.8178C45.1333 37.0728 43.5204 37.5437 40.4128 39.1438C40.2428 39.2318 40.2517 39.296 40.5479 39.7389C41.8123 41.6259 43.0495 43.217 45.6607 44.3526C45.7831 44.4057 45.8898 44.4529 45.9828 44.4937C46.5795 44.7559 46.6229 44.7751 46.6807 44.6714C47.8031 42.6046 48.229 38.687 48.0794 37.3907ZM36.4911 50.0319C36.117 49.734 35.8216 49.3489 35.6307 48.9107C35.4009 48.3735 35.3368 47.7798 35.4464 47.2056C35.556 46.6315 35.8344 46.1032 36.246 45.6884C36.6575 45.2732 37.1835 44.9905 37.7567 44.8762C38.3299 44.7619 38.9241 44.8214 39.4633 45.0466C39.9033 45.2341 40.2906 45.5265 40.5915 45.8979C40.8924 46.2694 41.0978 46.7088 41.1897 47.178C41.2816 47.6472 41.2572 48.1321 41.1187 48.5894C40.9802 49.0472 40.7317 49.4641 40.395 49.8037C40.0582 50.1428 39.6435 50.3948 39.1871 50.5372C38.7306 50.6796 38.2462 50.7076 37.7763 50.6197C37.3063 50.5317 36.8651 50.3298 36.4911 50.0319ZM40.4273 48.399C40.5718 48.0076 40.6047 47.5835 40.5224 47.1746C40.452 46.8304 40.3021 46.5069 40.0847 46.2307C39.8673 45.9544 39.5884 45.733 39.2702 45.5834C38.9521 45.4338 38.6034 45.3607 38.252 45.3701C37.9006 45.379 37.5561 45.4699 37.2461 45.6357C36.8788 45.8337 36.5736 46.1295 36.3647 46.4904C36.1557 46.8516 36.0511 47.2639 36.0625 47.6808C36.074 48.0977 36.201 48.5036 36.4295 48.8525C36.658 49.2014 36.9789 49.4802 37.3565 49.6579C37.7341 49.8351 38.1536 49.904 38.5682 49.8572C38.9827 49.81 39.376 49.6485 39.7043 49.3914C40.0325 49.1339 40.2829 48.79 40.4273 48.399ZM39.431 58.4316C39.23 58.3925 38.9574 58.7359 38.5484 59.2514C38.2943 59.5714 37.9875 59.9578 37.6125 60.3602C37.5997 60.3738 37.6031 60.37 37.6074 60.3653C37.6264 60.3441 37.6614 60.3054 36.343 61.7202C36.1928 61.8809 36.0751 61.9952 35.9631 62.104C35.7757 62.2863 35.6041 62.4525 35.323 62.7942C35.1175 63.039 35.2148 63.3008 35.3394 63.6366C35.3973 63.7925 35.4611 63.9642 35.5032 64.1576C35.5629 64.4309 35.6052 64.6192 35.6351 64.7526C35.6899 64.9966 35.7034 65.0565 35.7072 65.1173C35.7085 65.1372 35.7086 65.1568 35.7089 65.1836C35.7098 65.2754 35.7116 65.4462 35.7607 65.969C35.77 66.6077 35.6329 66.9409 35.546 67.1522C35.466 67.3464 35.4288 67.4369 35.5886 67.5665C35.7916 67.7323 35.8105 67.7174 36.9467 66.83L36.986 66.7994C40.4566 64.082 40.1684 58.5744 39.431 58.4316ZM37.9665 46.8661C38.37 46.6595 38.7956 46.4997 39.2351 46.3888C39.3129 46.3739 39.3652 46.3497 39.4068 46.3301C39.4916 46.2902 39.5309 46.2719 39.6482 46.4015C39.8888 46.6778 40.247 47.2316 39.8994 47.3412C38.6542 47.7348 38.6545 47.7352 38.7621 47.9022C38.7923 47.949 38.8311 48.0093 38.853 48.0952C38.8708 48.1602 38.8691 48.2286 38.8484 48.2928C38.8276 48.3565 38.7886 48.4131 38.7362 48.4551C38.3711 48.6927 37.979 48.8865 37.5683 49.0314C37.241 49.1143 36.8929 49.0195 36.6277 48.2885C36.5737 48.1402 36.6477 48.1232 36.8656 48.0731C37.0436 48.0323 37.3176 47.9698 37.6962 47.7951C38.1522 47.5856 38.0512 47.4283 37.9484 47.269C37.8686 47.1449 37.7877 47.0191 37.9665 46.8661Z" fill="#20262C"/>
<path d="M79.253 10.6485C73.4645 2.60026 62.8501 1.16334 54.6493 5.76566C42.42 12.6281 42.3936 32.5619 57.2184 38.5854C62.7473 40.832 70.3611 40.387 75.4318 36.3597C78.1918 34.1676 80.0609 31.1841 81.1549 29.0331C83.8392 22.7372 82.4987 15.1607 79.253 10.6485ZM82.0406 23.8078C81.9981 25.461 80.6032 30.6418 76.7336 34.3401C66.9841 43.6574 51.5468 39.2994 47.355 27.5167C44.9168 20.6628 46.4336 10.8895 55.5677 5.88084C65.6483 0.35329 79.2993 5.41078 81.67 17.6015C82.1188 19.6379 82.2441 21.7324 82.0406 23.8078Z" fill="#20262C"/>
<path d="M65.9435 27.1078C64.6855 26.6548 63.4844 27.5575 62.8261 28.589C61.4529 30.7416 61.9251 33.8165 64.5002 33.6609C65.2477 33.6609 66.7008 32.4407 67.1628 30.6961C67.6146 28.9914 66.9341 27.4644 65.9435 27.1078ZM66.9932 29.8028C66.8432 31.6303 65.5057 33.0812 64.671 33.2453C64.13 33.3511 65.4785 32.289 65.6978 30.0663C65.9617 27.3645 64.2809 27.7577 64.6251 27.4449C64.8325 27.3254 65.0743 27.2804 65.3106 27.3174C66.0289 27.1618 67.1237 28.2196 66.9932 29.8028Z" fill="#20262C"/>
<path d="M55.3546 22.2437C54.2496 21.0244 52.1411 21.1871 51.0778 23.9067C50.1041 26.3964 52.3868 29.8992 55.1429 26.8753C56.0924 25.8341 56.3635 23.3589 55.3546 22.2437ZM54.6147 22.1366C54.2755 22.2547 53.9746 22.4621 53.7438 22.7371C53.298 23.2276 52.9877 23.8256 52.8432 24.4724C52.8211 24.6318 52.7157 24.7699 52.7047 24.9344C52.6732 25.3224 52.5487 26.3284 52.8237 26.8469C52.9512 27.087 53.0332 27.3624 53.2954 27.5086C53.3906 27.5617 53.3673 27.6735 53.2954 27.6714C52.9767 27.7108 52.6533 27.6616 52.3604 27.529C50.9847 26.7138 51.04 24.3525 51.8878 23.1749C53.1386 21.1391 54.8943 21.9623 54.6147 22.1366Z" fill="#20262C"/>
<path d="M63.209 12.0585C62.353 11.5162 60.4039 11.7232 59.347 12.0917C56.8254 12.9697 55.5054 14.9043 57.0133 15.994C58.2968 16.9218 61.3632 16.068 62.6866 15.1649C64.2226 14.1164 64.243 12.7139 63.209 12.0585ZM57.2258 15.099C57.0558 15.3638 57.1183 15.5151 56.9555 15.3323C56.6474 14.9859 56.7949 14.4594 57.267 13.906C58.885 12.0101 62.1498 11.7704 63.0704 12.4032C63.3092 12.5724 63.4733 12.8273 63.529 13.1147C63.5842 13.402 63.5264 13.6997 63.3679 13.9455C63.3007 14.0458 62.9935 13.7887 62.8358 13.6604C61.7193 12.7496 58.1153 13.7118 57.2258 15.099Z" fill="#20262C"/>
<path d="M70.7963 21.0452C71.8524 20.7753 71.9281 19.7354 72.0067 18.6512C71.8958 17.533 71.8031 16.4709 70.8728 15.8211C69.0478 14.5465 68.1872 20.5739 70.7963 21.0452ZM70.2183 16.0544C70.6314 15.8823 71.1278 16.3715 71.271 16.7514C72.1848 19.1739 71.3492 20.7889 70.7308 20.6971C70.6165 20.6797 70.5859 20.6372 70.6407 20.5348C71.0487 19.7698 71.1737 18.0141 70.4958 16.672C70.3415 16.3668 70.095 16.3354 70.1095 16.1318C70.1086 16.0553 70.1732 16.0731 70.2183 16.0544Z" fill="#20262C"/>
<path d="M53.1889 11.7109C53.265 10.9034 52.7066 10.5409 52.0958 10.7032C50.7783 11.0534 49.474 13.1997 49.607 14.4007C49.8365 16.4722 52.5918 14.8976 53.1889 11.7109ZM50.5408 14.2554C50.4715 14.4733 50.446 14.7029 50.466 14.9307C50.44 15.082 50.1209 14.9732 50.0159 14.7118C49.4545 13.3242 51.976 10.2969 52.707 11.1112C53.2234 11.6858 52.0882 10.914 50.7282 13.6872C50.6649 13.8164 50.5926 14.1232 50.5408 14.2554Z" fill="#20262C"/>
<path d="M74.7497 26.4571C74.1483 27.3288 73.9141 28.6195 74.7297 29.1244C75.7114 29.7317 77.3613 28.4538 77.4858 26.7444C77.5993 25.191 75.81 24.9199 74.7497 26.4571ZM76.6405 28.0976C75.9469 28.9213 75.326 29.0063 75.2312 28.9731C75.0421 28.9064 75.0739 28.7861 75.1887 28.7326C75.5597 28.4903 75.861 28.1557 76.0638 27.7619C76.9703 26.2654 76.1539 25.7984 76.5797 25.7826C77.1509 25.7618 77.4352 27.1575 76.6405 28.0976Z" fill="#20262C"/>
<path d="M79.2203 17.288C78.3771 17.458 77.4153 19.2562 77.9364 20.7807C78.6304 22.8118 80.6491 21.2864 80.5323 19.0641C80.4566 17.5945 79.7401 17.1826 79.2203 17.288ZM78.7834 21.377C78.341 21.2206 78.8748 20.9758 79.0167 20.442C79.0337 20.3782 79.6007 18.8903 79.0248 18.062C78.8467 17.807 78.8348 17.8218 79.0248 17.702C79.1247 17.6556 79.2335 17.6322 79.3435 17.6333C79.4532 17.6345 79.5616 17.6602 79.6606 17.7086C79.7592 17.757 79.8459 17.8269 79.9139 17.913C79.9823 17.9993 80.0303 18.0997 80.055 18.2069C80.5969 20.3094 79.4328 21.6039 78.7834 21.377Z" fill="#20262C"/>
<path d="M70.148 7.65756C69.0078 8.38006 72.2705 11.1183 73.5102 10.2182C74.0904 9.79701 73.3492 8.86201 72.6649 8.32311C72.0686 7.85306 70.8404 7.21896 70.148 7.65756ZM73.1923 10.0074C73.0223 10.1051 72.9445 10.1294 72.6441 9.71329C72.0712 9.07749 71.3525 8.59022 70.5497 8.29336C70.4009 8.25766 70.2016 8.31206 70.2522 8.11316C70.3185 7.84924 70.4507 7.87686 70.7269 7.87006C71.9581 7.83989 73.8859 9.61341 73.1923 10.0074Z" fill="#20262C"/>
<path d="M69.3354 34.5576C69.2645 34.6688 69.2237 34.7963 69.216 34.928C69.2088 35.0596 69.2351 35.191 69.2929 35.3094C69.6257 35.799 70.6058 35.8343 71.355 35.7191C71.888 35.6375 71.9925 35.5113 72.1069 35.2278C72.6815 33.8317 70.0898 33.677 69.3354 34.5576ZM71.8196 34.7531C71.7486 35.6239 71.4515 34.4768 69.9721 34.9439C69.882 34.9724 69.7298 35.0778 69.6321 35.0982C69.3138 35.1632 69.6321 34.0357 71.3355 34.3787C71.4757 34.4071 71.8455 34.6116 71.8196 34.7531Z" fill="#20262C"/>
<path d="M55.2115 32.7193C54.7912 33.3369 56.2392 35.3076 57.2825 35.1452C58.9005 34.8924 56.1427 31.3517 55.2115 32.7193ZM56.8992 34.6527C56.8329 34.5197 56.7581 34.3912 56.6748 34.268C56.4767 33.9349 56.2251 33.6368 55.9302 33.3857C55.7075 33.1707 55.5001 33.2344 55.5133 32.9794C55.5201 32.8426 55.5447 32.8133 55.6888 32.8094C56.4869 32.7835 57.0977 33.6875 57.4394 34.4967C57.5711 34.8074 57.0237 35.0063 56.8992 34.6527Z" fill="#20262C"/>
<path d="M63.3879 6.71173C66.2889 6.91998 65.0271 3.86761 62.5273 5.38913C61.8048 5.82901 61.846 6.60123 63.3879 6.71173ZM64.6387 5.56423C64.7955 5.70193 64.7101 5.85706 64.5775 5.98923C64.3331 6.23276 64.4206 5.97818 63.9527 5.93526C62.8532 5.83411 63.0568 6.37641 62.775 6.27526C61.5115 5.82221 63.8919 4.90548 64.6387 5.56296V5.56423Z" fill="#20262C"/>
<path d="M63.8411 20.3287C62.9937 20.7201 62.9729 21.0223 62.8398 21.4732C62.7659 21.7235 62.9291 21.9241 63.0974 22.1034C63.2121 22.2254 63.3902 22.2284 63.6252 22.2692C63.8747 22.2754 64.1225 22.2261 64.3507 22.1249C64.5789 22.0237 64.7821 21.8731 64.9449 21.684C65.253 21.44 65.4506 20.8289 65.2152 20.5501C65.0439 20.3651 64.8152 20.2428 64.5662 20.2026C64.3171 20.1625 64.0621 20.2069 63.8411 20.3287ZM64.9253 20.8977C64.9253 21.4298 64.4884 20.8884 63.8411 21.3542C63.482 21.613 63.4331 21.8642 63.3205 21.8043C63.108 21.6946 63.108 21.0652 63.8411 20.6835C64.4995 20.3405 64.9971 20.5985 64.9253 20.8977Z" fill="#20262C"/>
</svg>
