<svg width="201" height="200" viewBox="0 0 201 200" fill="none" xmlns="http://www.w3.org/2000/svg">
<path d="M159.109 126.023C159.395 127.278 159.931 128.463 160.684 129.508C161.437 130.552 162.392 131.434 163.493 132.102C164.593 132.77 165.817 133.21 167.091 133.396C168.365 133.582 169.663 133.51 170.909 133.185C179.767 130.985 180.753 119.605 173.409 115.363C171.765 114.422 169.882 113.982 167.991 114.096C166.101 114.211 164.284 114.875 162.766 116.007C161.247 117.139 160.092 118.69 159.443 120.469C158.793 122.249 158.677 124.179 159.109 126.023ZM162.896 116.541C163.912 115.749 165.084 115.18 166.335 114.872C167.586 114.563 168.888 114.521 170.156 114.749C171.424 114.977 172.63 115.47 173.695 116.196C174.76 116.921 175.66 117.863 176.337 118.959C182.154 128.417 169.456 137.986 161.859 130.08C160.981 129.151 160.306 128.048 159.88 126.842C159.453 125.637 159.283 124.355 159.381 123.08C159.479 121.805 159.843 120.564 160.449 119.438C161.055 118.312 161.89 117.325 162.9 116.541H162.896Z" fill="#20262C"/>
<path d="M168.611 131.482C169.729 131.452 170.828 131.178 171.829 130.681C172.831 130.183 173.713 129.473 174.412 128.6C175.112 127.727 175.613 126.712 175.88 125.626C176.148 124.54 176.176 123.409 175.961 122.311C175.747 121.213 175.296 120.174 174.64 119.268C173.984 118.362 173.138 117.61 172.162 117.064C171.186 116.518 170.102 116.192 168.987 116.107C167.871 116.022 166.751 116.182 165.703 116.574C164.283 117.164 163.046 118.124 162.122 119.354C158.32 125.561 163.1 131.7 168.611 131.482ZM167.137 129.511C167.545 128.024 167.851 126.755 167.937 126.679C168.046 126.608 168.169 126.562 168.298 126.542C168.798 126.414 171.39 125.58 171.857 125.457C172.049 125.406 172.178 125.394 171.844 125.737C171.847 125.913 167 130.027 167.137 129.511ZM167.823 125.049C167.694 125.462 167.582 125.374 167.523 125.324C166.774 124.591 166.196 124.012 165.569 123.291C165.269 122.945 165.086 122.824 165.261 122.783C166.261 122.543 167.277 122.371 168.3 122.266C168.341 122.26 168.582 122.221 168.5 122.477C168.5 122.577 168.01 124.451 167.823 125.049ZM169.26 122.457C170.07 122.984 170.822 123.597 171.5 124.285C171.919 124.678 171.764 124.685 170.693 125.001C168.322 125.711 168.266 125.637 168.353 125.279C169.012 122.569 168.958 122.287 169.26 122.457ZM170.221 117.882C170.502 118.591 171.79 123.313 171.79 123.349C172.19 124.968 172.19 123.792 169.39 121.93C169.258 121.842 169.29 121.776 169.366 121.357C169.414 121.099 170.058 118.165 170.113 117.965C170.158 117.809 170.2 117.833 170.221 117.882ZM169.709 117.776C169.945 117.597 169.528 118.476 169.045 120.441C168.715 121.778 168.7 121.679 168.485 121.691C167.318 121.85 166.159 122.067 165.013 122.342C166.474 120.717 168.043 119.191 169.709 117.776ZM164.761 123.549C164.877 123.458 166.093 125.149 167.324 126.418C167.178 127.407 166.978 128.388 166.724 129.355C166.589 129.891 164.474 123.684 164.761 123.549Z" fill="#20262C"/>
<path d="M107.3 120.868C111.446 122.856 132.572 129.233 135.97 128.368C137.457 127.989 138.101 126.525 138.944 124.868C146.344 110.292 147.494 108.431 144.526 104.118C143.54 102.686 142.49 102.412 139.87 101.577C134.829 99.9677 117.395 95.3847 112.09 95.2307C108.39 94.9177 106.611 99.5157 104.321 103.786C103.506 105.306 100.39 112.467 101.211 114.763C102.853 119.358 104.678 119.61 107.3 120.868ZM102.226 111.861C102.649 109.766 104.788 104.267 108.49 98.3247C110.36 95.3247 112.162 96.4707 112.179 96.1247C117.696 96.7497 130.924 99.9597 136.561 101.612C145.539 104.242 145.821 103.248 139.154 116.639C136.061 122.852 135.482 125.277 132.678 124.712C120.628 122.285 106.078 117.637 103.105 115.732C101.939 115.101 101.962 113.164 102.225 111.861H102.226Z" fill="#20262C"/>
<path d="M163.532 104.549C160.176 108.049 150.813 128.422 150.632 132.403C150.571 133.768 151.459 132.683 160.632 137.091C172.039 142.571 174.458 145.744 175.525 144.036C178.406 139.421 187.763 116.117 186.062 113.868C184.785 112.18 178.813 109.077 175.49 107.253C173.806 106.329 168.715 103.453 165.884 103.499C165.434 103.446 164.977 103.515 164.563 103.7C164.149 103.885 163.793 104.178 163.532 104.549ZM166.632 104.806C172.72 106.406 183.148 112.698 184.82 114.114C185.504 114.693 185.62 114.801 182.756 123.914C180.677 129.888 178.255 135.737 175.5 141.431C174.589 143.337 174.662 143.17 174.37 143.022C168.12 139.864 167.807 138.622 156.156 133.547C151.256 131.415 151.381 133.763 152.564 129.947C155.171 122.444 158.471 115.199 162.42 108.307C162.677 107.858 162.996 107.488 163.6 106.447C164.341 105.17 165.211 104.432 166.633 104.806H166.632Z" fill="#20262C"/>
<path d="M113.4 102.309C112.096 102.406 110.869 102.966 109.941 103.887C109.012 104.808 108.443 106.031 108.335 107.334C108.309 113.76 115.257 113.951 117.205 108.805C118.334 105.815 116.736 102.468 113.4 102.309ZM115.512 109.992C113.287 112.512 109.5 111.798 109.292 107.778C109.372 103.813 113.565 101.688 115.803 104.23C116.434 105.074 116.75 106.112 116.697 107.164C116.643 108.216 116.223 109.217 115.51 109.992H115.512Z" fill="#20262C"/>
<path d="M123.493 106.355C130.363 108.462 133.618 109.655 134.293 109.565C134.536 109.532 134.701 109.248 134.493 109.085C132.757 107.743 125.299 105.746 124.293 105.764C123.621 105.776 123.441 105.72 123.32 106.073C123.269 106.208 123.35 106.311 123.493 106.355Z" fill="#20262C"/>
<path d="M131.229 110.877C128.919 109.993 126.555 109.256 124.152 108.669C123.671 108.535 123.157 108.597 122.722 108.841C122.104 109.241 123 109.541 123.722 109.679C129.033 110.721 131.18 112.139 131.507 111.328C131.571 111.159 131.505 111.01 131.229 110.877Z" fill="#20262C"/>
<path d="M128.464 113.451C128.164 113.289 123.141 111.639 121.975 111.426C121.885 111.41 121.793 111.427 121.714 111.474C121.636 111.521 121.577 111.594 121.548 111.681C121.52 111.768 121.523 111.862 121.558 111.946C121.593 112.03 121.657 112.099 121.739 112.14C121.988 112.298 127.885 114.164 128.176 114.217C128.659 114.305 128.977 113.721 128.464 113.451Z" fill="#20262C"/>
<path d="M165.987 110.401C166.376 110.245 165.626 111.644 166.215 111.829C166.341 111.869 166.486 111.566 166.536 111.443C167.07 110.121 166.857 110.148 167.404 110.358C168.469 110.766 168.567 110.748 168.724 110.716C168.881 110.684 168.908 110.586 168.804 110.499C168.475 110.222 168.136 109.956 167.782 109.711C167.389 109.439 169.254 108.996 169.123 108.684C168.992 108.372 168.982 108.553 167.693 108.901C167.224 109.028 167.502 108.749 167.617 107.745C167.628 107.662 167.605 107.578 167.554 107.511C167.503 107.444 167.428 107.401 167.345 107.389C167.262 107.378 167.178 107.399 167.111 107.45C167.044 107.5 166.999 107.575 166.987 107.658C166.513 109.084 166.587 108.958 166.182 108.73C165.242 108.193 165.033 108.467 165.197 109.023C165.269 109.268 166.097 109.48 165.789 109.674C165.277 109.996 164.853 110.129 165.062 110.51C165.2 110.759 165.445 110.616 165.987 110.401Z" fill="#20262C"/>
<path d="M174.321 136.973C172.512 136.819 172.703 137.301 173.429 135.805C173.729 135.187 173.295 134.824 172.86 135.451C172.502 135.968 172.452 136.318 172.251 136.074C172.018 135.792 171.621 135.206 171.259 135.423C170.897 135.64 171.337 136.055 171.669 136.686C171.944 137.209 170.152 136.606 170.085 137.198C170.072 137.309 170.247 137.518 170.419 137.576C171.414 137.913 171.591 137.418 171.393 138.038C171.324 138.255 171.148 138.501 171.363 138.722C171.463 138.822 171.563 138.735 171.636 138.652C172.629 137.482 172.053 137.673 172.917 138.628C173.429 139.195 173.653 138.928 173.596 138.744C173.129 137.224 172.656 137.868 174.369 137.224C174.544 137.158 174.419 137 174.321 136.973Z" fill="#20262C"/>
<path d="M178.983 118.6C179.668 118.692 179.901 118.474 179.836 118.769C179.627 119.711 179.81 119.442 180.511 118.826C180.728 119.142 181.211 119.969 181.264 119.455C181.403 118.027 180.32 118.748 182.314 118.02C182.39 117.993 182.5 118.02 182.549 117.786C182.568 117.695 182.156 117.686 181.681 117.654C181.681 117.668 181.167 117.754 181.394 117.263C181.494 117.047 181.544 116.847 181.327 116.746C181 116.595 180.921 116.883 180.713 117.198C180.468 117.567 180.507 117.169 179.892 116.69C179.692 116.532 179.414 116.748 179.577 117.163C179.796 117.716 180.034 117.722 179.562 117.858C179.334 117.89 179.113 117.964 178.911 118.075C178.707 118.271 178.779 118.573 178.983 118.6Z" fill="#20262C"/>
<path d="M157.824 128.245C157.695 128.051 157.378 128.321 157.195 128.49C156.595 129.042 156.571 129.242 156.425 128.969C156.334 128.8 156.225 128.445 156.058 128.501C155.991 128.523 155.935 128.567 155.898 128.627C155.861 128.686 155.847 128.757 155.858 128.826C155.821 129.137 155.832 129.082 155.391 129.026C154.775 129.026 154.668 129.545 155.174 129.779C155.68 130.013 155.796 129.896 155.591 130.213C155.071 131.013 155.198 130.799 155.129 131.013C155.315 131.03 155.315 131.187 156.081 130.542C156.338 130.326 156.251 130.588 156.633 131.297C156.676 131.378 156.785 131.421 156.865 131.482C157.082 130.82 156.624 130.262 157.021 130.316C157.195 130.34 157.652 130.483 157.672 130.336C157.702 130.119 157.556 129.997 157.182 129.778C156.665 129.481 158.226 128.844 157.824 128.245Z" fill="#20262C"/>
<path d="M173.657 111.867C174.167 112.101 174.206 111.956 173.993 112.278C173.646 112.712 173.433 112.972 173.598 113.146C173.763 113.32 173.786 113.32 174.584 112.659C174.847 112.441 174.623 112.628 175.018 113.365C175.062 113.447 175.185 113.799 175.4 113.632C175.615 113.465 175.152 112.372 175.562 112.432C175.74 112.456 176.215 112.604 176.237 112.452C176.271 112.22 176.116 112.105 175.73 111.877C175.195 111.561 176.597 111.208 176.179 110.598C176.042 110.398 175.716 110.676 175.528 110.85C174.909 111.42 175.096 111.309 174.948 111.026C174.856 110.849 174.731 110.481 174.571 110.542C174.499 110.562 174.438 110.607 174.398 110.669C174.357 110.732 174.342 110.807 174.354 110.88C174.314 111.2 174.554 111.548 173.811 111.351C173.442 111.251 173.331 111.386 173.318 111.51C173.305 111.634 173.39 111.745 173.657 111.867Z" fill="#20262C"/>
<path fill-rule="evenodd" clip-rule="evenodd" d="M192.65 112.393C192.884 113.414 192.852 114.479 192.556 115.484C192.143 116.864 191.592 118.199 190.911 119.469C190.699 119.792 190.767 119.935 190.938 120.299C191.106 120.656 191.374 121.223 191.577 122.378C191.713 123.704 191.633 125.043 191.341 126.343C191.095 127.94 190.002 129.352 189.29 130.271C188.959 130.699 188.711 131.019 188.669 131.202C188.643 131.317 188.678 131.498 188.728 131.755C188.931 132.789 189.372 135.045 186.979 139.078C186.859 139.278 186.914 139.448 187.025 139.786C187.231 140.417 187.629 141.633 187.434 144.721C187.298 148.357 186.453 151.932 184.945 155.243C184.673 155.852 184.823 156.522 185.029 157.441C185.218 158.285 185.455 159.34 185.455 160.753C185.36 163.723 184.651 166.642 183.371 169.324C183.244 169.648 183.354 169.923 183.524 170.349C183.687 170.758 183.905 171.306 184.023 172.169C184.1 172.913 184.126 173.661 184.101 174.409C184.165 176.037 183.861 176.942 183.589 177.751C183.29 178.642 183.03 179.415 183.345 180.909C183.764 182.507 184.043 184.139 184.179 185.786C184.363 188.016 184.359 190.257 184.166 192.486C184.059 193.203 183.751 193.919 183.039 193.771C182.512 193.661 182.524 193.357 182.59 191.796C182.633 190.764 182.699 189.184 182.647 186.748C182.448 184.779 182.142 182.823 181.729 180.888C181.443 179.451 181.585 178.964 181.922 177.81C182.089 177.239 182.303 176.506 182.536 175.415C182.563 175.285 182.558 173.731 182.556 173.132C182.555 173.032 182.555 172.959 182.555 172.923C182.549 171.94 182.32 171.345 182.118 170.82C181.772 169.92 181.505 169.226 182.579 167.135C183.347 165.37 183.787 163.48 183.879 161.557C184.042 159.704 183.76 158.442 183.538 157.45C183.408 156.866 183.298 156.376 183.312 155.914C183.332 155.27 183.545 154.766 183.88 153.974C184.249 153.103 184.765 151.883 185.335 149.744C185.858 147.78 186.42 142.697 185.986 140.551C185.799 140.745 185.635 140.914 185.492 141.061C184.646 141.933 184.511 142.071 184.495 142.504C184.207 150.04 180.992 152.707 179.281 154.125C178.636 154.66 178.206 155.017 178.227 155.391C178.495 160.131 177.136 162.034 173.695 164.572C173.298 164.861 173.307 165.235 173.325 165.991C173.326 166.049 173.328 166.109 173.329 166.172C173.394 167.173 173.206 168.175 172.784 169.085C172.361 169.995 171.716 170.784 170.909 171.38C169.719 172.167 169.662 172.323 169.537 172.663L169.531 172.68C169.454 172.889 169.393 173.084 169.336 173.266C169.105 174 168.941 174.522 168.059 174.941C166.887 175.497 166.13 175.809 165.633 176.014C164.853 176.336 164.718 176.392 164.63 176.71C164.254 177.908 163.425 178.912 162.321 179.51C160.096 180.894 158.696 181.591 155.658 180.983C154.854 180.823 154.166 181.088 153.418 181.378C151.941 181.948 150.227 182.611 146.914 180.274C146.848 180.227 146.785 180.182 146.726 180.139C146.264 179.805 145.981 179.601 145.314 179.712C140.458 180.512 138.354 178.573 136.62 176.975C136.355 176.73 136.098 176.494 135.841 176.276C135.299 175.817 134.602 175.742 133.789 175.655C132.211 175.486 130.196 175.27 128.028 172.102C127.261 170.982 126.354 170.632 125.383 170.258C123.907 169.689 122.283 169.062 120.775 165.592C120.33 164.567 119.599 164.259 118.267 163.699C118.219 163.679 118.171 163.659 118.122 163.638C115.433 162.514 114.616 160.285 113.972 158.53C113.591 157.491 113.271 156.619 112.66 156.238C112.22 155.964 111.747 155.775 111.267 155.583C109.685 154.951 108.022 154.286 107.178 150.457C107.061 149.93 106.556 149.609 105.881 149.18C105.173 148.73 104.279 148.161 103.453 147.114C102.536 145.951 101.917 144.7 101.434 143.723C100.972 142.79 100.635 142.107 100.278 141.988C99.13 141.522 98.2138 140.619 97.7299 139.479C97.2743 138.413 97.1432 137.667 97.0326 137.038C96.8904 136.229 96.7822 135.614 96.0629 134.761C95.2351 133.88 94.5074 132.909 93.8929 131.868C93.0979 130.597 94.7499 129.854 95.9809 130.522C97.1514 131.234 98.1984 132.131 99.0809 133.179C99.1442 133.011 99.1852 132.77 99.2348 132.479C99.2808 132.209 99.3343 131.896 99.4199 131.555C99.8697 129.757 100.097 129.448 100.027 129.237C100.002 129.161 99.9379 129.098 99.8319 128.983C99.4066 128.353 98.8018 127.865 98.0959 127.583C97.4462 127.448 96.84 127.155 96.3319 126.728C96.2356 126.592 96.1684 126.437 96.1347 126.274C96.101 126.111 96.1015 125.943 96.1361 125.779C96.1706 125.616 96.2386 125.462 96.3356 125.327C96.4326 125.191 96.5566 125.077 96.6999 124.992C96.9831 124.802 97.1407 124.761 97.142 124.715C97.1439 124.652 96.8528 124.581 96.1899 124.106C94.7489 123.075 96.9779 121.233 100.19 122.24C104.96 123.736 105.037 128.292 105.094 131.702C105.126 133.585 105.152 135.118 105.958 135.596C107.53 136.527 108.6 136.323 109.644 136.124C110.68 135.927 111.688 135.735 113.133 136.664C113.259 136.745 113.379 136.829 113.495 136.91C114.113 137.341 114.643 137.711 115.699 137.41C118.904 136.499 119.391 136.826 120.583 137.626C120.872 137.82 121.202 138.041 121.621 138.279C122.303 138.666 122.708 138.538 123.367 138.329C123.95 138.144 124.731 137.897 126.079 137.886C127.321 137.879 127.961 138.34 129.325 139.321L129.406 139.379C130.031 139.829 130.39 139.69 130.956 139.471C131.435 139.285 132.062 139.043 133.122 139.051C134.175 139.059 135.193 139.432 136.002 140.106C136.584 140.646 137.049 140.618 137.533 140.59C137.643 140.583 137.753 140.577 137.866 140.577C138.084 140.578 138.074 140.506 138.027 140.183C137.967 139.763 137.845 138.918 138.083 137.259C138.131 136.909 138.261 136.576 138.464 136.287C138.666 135.997 138.935 135.761 139.247 135.596C139.629 135.37 139.666 135.333 139.547 134.902C139.314 134.219 139.219 133.496 139.267 132.775C139.315 132.055 139.507 131.351 139.829 130.705C140.152 130.059 140.6 129.484 141.147 129.013C141.693 128.541 142.329 128.183 143.015 127.959C143.306 127.85 143.297 127.726 143.247 127.028C143.22 126.647 143.181 126.096 143.171 125.285C143.133 122.218 144.527 120.713 146.933 118.774C147.788 118.085 147.764 117.104 147.735 115.883C147.7 114.399 147.656 112.56 149.172 110.46C150.384 108.92 152.032 107.78 153.901 107.189C153.987 107.161 154.069 107.138 154.147 107.116C154.609 106.985 154.919 106.896 155.08 106.167L155.085 106.146C155.558 103.996 156.002 101.977 157.346 100.348C158.6 98.8272 161.465 96.3792 163.31 96.8912C163.903 97.0542 164.263 97.7672 163.71 97.8672C162.877 97.7982 162.045 98.0017 161.338 98.4472C157.595 100.627 157.006 103.441 156.574 105.505C156.303 106.797 156.094 107.795 155.211 108.159C155.016 108.239 154.795 108.317 154.554 108.402C153.332 108.831 151.596 109.442 150.143 111.453C149.125 112.863 149.101 114.464 149.079 115.932C149.058 117.329 149.039 118.606 148.166 119.484C147.777 119.876 147.413 120.216 147.078 120.53C145.593 121.918 144.674 122.777 144.674 125.233C144.673 125.902 144.686 126.445 144.696 126.889C144.734 128.479 144.742 128.809 143.969 129.2C143.85 129.26 143.715 129.321 143.568 129.387C142.626 129.812 141.224 130.443 140.824 132.321C140.592 133.406 140.834 134.198 141.026 134.823C141.294 135.7 141.462 136.25 140.088 136.827C139.288 137.165 139.178 137.892 139.088 139.485C139.021 140.638 139.523 140.792 140.301 141.03C140.958 141.231 141.813 141.492 142.688 142.467C142.703 142.484 142.72 142.502 142.737 142.521C142.986 142.796 143.423 143.279 143.248 143.552C143.18 143.619 143.099 143.671 143.009 143.705C142.92 143.738 142.825 143.753 142.73 143.747C142.634 143.742 142.541 143.716 142.456 143.673C142.372 143.629 142.297 143.568 142.237 143.494C140.989 142.409 139.376 141.84 137.724 141.901C137.281 142 136.82 141.985 136.385 141.857C135.949 141.73 135.553 141.494 135.233 141.172C134.871 140.788 134.414 140.508 133.909 140.359C133.403 140.21 132.867 140.198 132.355 140.325C132.014 140.381 131.711 140.513 131.41 140.643C130.688 140.956 129.981 141.262 128.807 140.497C128.32 140.179 127.976 139.922 127.704 139.718C127.097 139.263 126.843 139.073 126.15 139.073C125.115 139.073 124.411 139.308 123.8 139.512C122.678 139.888 121.872 140.157 119.913 138.661C119.689 138.428 119.413 138.251 119.108 138.143C118.803 138.036 118.478 138.001 118.157 138.042C117.43 138.194 116.866 138.349 116.4 138.476C114.783 138.919 114.349 139.038 112.408 137.608C111.389 136.856 110.179 137.128 109.355 137.313C109.124 137.364 108.924 137.409 108.766 137.423C106.905 137.586 106.594 137.083 106.493 137.122C106.425 137.149 106.452 137.42 106.166 138.305C105.64 140.267 104.546 142.03 103.023 143.374C102.949 143.454 102.865 143.487 102.797 143.515C102.635 143.58 102.557 143.611 102.884 144.151C104.51 146.835 105.904 147.65 106.921 148.244C107.77 148.739 108.356 149.082 108.596 150.228C109.231 153.262 110.502 153.778 111.879 154.336C112.621 154.637 113.395 154.951 114.115 155.68C114.592 156.163 114.777 156.682 115.052 157.453C115.244 157.993 115.481 158.657 115.893 159.519C116.866 161.564 118.133 162.112 119.955 162.9L119.977 162.909C121.563 163.596 121.938 164.473 122.345 165.425C122.87 166.653 123.447 168.004 126.749 169.227C128.209 169.768 128.83 170.606 129.456 171.451C130.386 172.707 131.329 173.979 135.059 174.319C136.127 174.414 136.938 175.159 137.844 175.99C139.19 177.225 140.743 178.65 143.651 178.419C145.798 178.248 145.8 178.233 145.827 177.991C145.828 177.978 145.83 177.964 145.832 177.95C145.987 175.888 146.529 173.874 147.432 172.014C149.241 168.516 150.933 165.903 154.117 163.442C154.326 163.232 154.583 163.076 154.866 162.988C156.429 161.462 159.235 160.81 160.445 160.53C160.646 160.483 160.803 160.447 160.903 160.418C162.376 160.159 163.876 160.086 165.368 160.201C168.02 160.403 170.556 161.377 172.662 163.001C172.692 163.034 172.728 163.06 172.769 163.078C172.809 163.096 172.853 163.106 172.897 163.106C172.922 163.106 172.946 163.103 172.97 163.097C172.989 163.093 173.008 163.086 173.026 163.078C173.054 163.066 173.08 163.049 173.104 163.03C173.114 163.021 173.124 163.011 173.133 163.001C176.835 160.349 176.818 157.82 176.805 155.964C176.797 154.907 176.791 154.069 177.474 153.55C182.27 149.906 182.569 147.127 183.009 143.038C183.043 142.717 183.078 142.388 183.117 142.05C183.172 141.561 183.677 140.93 184.32 140.125C185.578 138.551 187.368 136.312 187.368 133.169C187.368 132.316 187.278 131.813 187.214 131.456C187.126 130.961 187.088 130.745 187.405 130.269C187.536 130.074 187.697 129.862 187.875 129.628C188.833 128.369 190.286 126.46 190.138 122.949C190.077 122.012 189.794 121.103 189.313 120.297C189.044 119.778 189.475 118.923 190.011 117.858C190.965 115.962 192.255 113.401 190.52 110.888C190.283 110.545 190.079 110.273 189.907 110.044C189.054 108.905 189.006 108.84 189.786 106.615C191.299 102.296 189.605 100.821 188.342 99.7217C187.791 99.242 187.322 98.8339 187.238 98.2922C187.003 97.3551 186.572 96.4786 185.973 95.7202C185.375 94.9618 184.623 94.3388 183.766 93.8922C183.359 93.6923 183.005 93.5316 182.689 93.3877C182.206 93.168 181.809 92.9873 181.437 92.7662C181.018 92.5176 180.915 92.1136 180.789 91.611C180.507 90.4958 180.102 88.8947 175.837 87.4272C175.711 87.384 175.58 87.3454 175.446 87.3062C174.717 87.092 173.919 86.8577 173.597 85.7412C173.46 85.2806 173.221 84.8571 172.897 84.5025C172.573 84.148 172.172 83.8716 171.726 83.6942C170.261 82.9378 168.612 82.6112 166.969 82.7522C166.751 82.7478 166.636 83.0129 166.45 83.4426C166.166 84.0954 165.718 85.1281 164.494 86.1732C162.752 87.9799 160.7 89.4596 158.435 90.5422C154.477 92.3442 148.083 93.5932 134.802 91.1932C123.198 89.0942 121.39 84.1962 120.81 82.3292C120.439 81.0468 120.402 79.6907 120.704 78.3902C120.745 78.1772 120.73 78.1362 118.994 77.7692C118.17 77.487 117.278 77.4765 116.448 77.7392C114.877 78.1949 113.495 79.1475 112.511 80.4542C112.148 80.8302 111.973 80.7907 111.56 80.6972C111.158 80.6062 110.531 80.4641 109.284 80.6042C107.979 80.8781 106.745 81.4233 105.664 82.2042C104.254 83.199 103.191 84.6108 102.625 86.2412C102.362 86.8567 102.063 86.8637 101.457 86.878C101.059 86.8873 100.529 86.8998 99.7889 87.0902C96.4549 87.9472 95.3429 89.8592 94.7189 93.1772C94.5653 93.9933 94.3059 94.0994 93.6874 94.3525C93.0931 94.5956 92.1675 94.9743 90.6859 96.2482C88.9595 97.7351 88.7086 99.1477 88.4919 100.368C88.2914 101.497 88.1201 102.461 86.8359 103.167C82.8838 105.338 82.865 106.431 82.8058 109.873C82.802 110.095 82.7981 110.325 82.7929 110.567C82.7694 111.671 82.2912 111.785 81.5113 111.97C81.0607 112.077 80.5094 112.207 79.8869 112.567C77.8312 113.753 77.4196 114.95 76.8978 116.467C76.7348 116.941 76.561 117.447 76.3229 117.993C76.2782 118.071 76.2659 118.164 76.2887 118.251C76.3115 118.338 76.3676 118.413 76.4449 118.459C78.1009 119.816 78.5149 121.483 77.8009 121.6C77.5235 121.645 77.5105 121.623 77.4013 121.434C77.2294 121.137 76.8189 120.428 74.7629 118.924C73.5922 118.312 72.2626 118.072 70.9519 118.236C70.365 118.276 69.9413 118.367 69.6085 118.439C68.9762 118.575 68.6723 118.64 68.2019 118.153C66.2559 116.147 64.5389 115.392 60.5489 117.053C59.9136 117.317 59.573 117.119 59.0264 116.8C58.3691 116.418 57.414 115.861 55.2909 115.727C54.4886 115.676 53.9107 115.841 53.4264 115.979C52.7041 116.186 52.1902 116.332 51.4509 115.614C50.293 114.49 48.9209 114.874 47.857 115.172C47.731 115.207 47.6094 115.241 47.4929 115.271C46.8714 115.432 46.7355 115.233 46.5448 114.954C46.3511 114.671 46.1008 114.305 45.2269 114.149C44.8298 114.077 44.4293 114.025 44.0269 113.995C42.9749 116.684 40.6209 120.023 37.7749 120.584C37.616 121.15 37.6172 121.748 37.7784 122.313C37.9396 122.878 38.2544 123.387 38.6879 123.784C41.0274 125.695 40.9584 125.966 40.8398 126.433C40.7614 126.742 40.6613 127.136 41.2209 128.146C42.2869 130.068 43.7122 130.834 45.7405 131.925C45.7899 131.951 45.8397 131.978 45.8899 132.005C46.3498 132.253 46.4179 132.422 46.5632 132.785C46.7367 133.218 47.0202 133.926 48.2119 135.369C49.5457 136.987 50.7407 137.282 51.6978 137.519C52.5065 137.718 53.1454 137.876 53.5549 138.755C54.6159 140.132 55.9703 141.256 57.5199 142.045C58.5934 142.559 59.764 142.838 60.9539 142.865C61.553 142.943 61.6221 143.157 61.7459 143.54C61.8548 143.876 62.0059 144.344 62.5969 144.965C63.8492 146.43 65.5442 147.448 67.4259 147.865C68.1986 148.041 68.9911 148.113 69.7829 148.082C69.9829 148.086 70.0829 148.023 70.0829 147.806C70.0619 145.84 73.8489 138.527 81.9959 135.62C82.8185 135.314 83.6678 135.086 84.5329 134.939C84.7599 134.923 84.7665 134.722 84.7814 134.264C84.806 133.509 84.8532 132.057 85.9459 129.589C86.6724 127.947 87.2502 127.148 87.6272 126.627C87.9799 126.14 88.1569 125.895 88.1159 125.43C88.0355 124.459 88.0992 123.482 88.3049 122.53C89.2681 117.971 90.6645 116.387 91.6162 115.307C92.1554 114.695 92.5518 114.245 92.6459 113.508C92.9199 111.35 94.0789 107.638 95.6279 105.868C96.1779 105.239 97.0809 106.031 96.4699 106.407C95.5099 106.996 94.3329 111.364 93.9909 112.883C93.9011 113.279 93.8768 113.607 93.8549 113.9C93.8104 114.499 93.7764 114.955 93.2179 115.559C91.9717 116.773 91.0147 118.252 90.4179 119.886C89.9039 121.212 89.1589 124.198 89.4649 125.575C89.5288 125.857 89.5197 126.151 89.4385 126.428C89.3574 126.706 89.2067 126.958 89.0009 127.161C88.6441 127.613 88.3294 128.097 88.0609 128.607C85.9938 131.968 86.0933 134.67 86.1611 136.51C86.1979 137.509 86.2253 138.254 85.8909 138.712C83.0649 142.581 83.6305 147.603 83.8664 149.697C83.902 150.014 83.9301 150.263 83.9379 150.432C83.9714 151.162 83.6021 151.841 83.1422 152.687C82.6563 153.58 82.0694 154.66 81.7499 156.181C81.5475 157.144 81.7182 158.115 81.9178 159.251C82.0121 159.788 82.1129 160.361 82.1839 160.988C82.2663 161.715 82.35 162.252 82.4141 162.663C82.5725 163.679 82.6118 163.931 82.2189 164.395C80.9048 165.893 80.1864 167.822 80.1999 169.815C80.4056 171.28 80.7591 172.298 81.0316 173.084C81.4413 174.264 81.6676 174.917 80.9319 175.761C80.7837 175.93 80.642 176.061 80.5124 176.181C80.174 176.494 79.9182 176.73 79.8459 177.372C79.5629 179.927 80.0567 181.329 80.4077 182.325C80.7364 183.258 80.9399 183.835 80.2629 184.672C80.0221 184.97 79.8197 185.187 79.6477 185.372C79.2689 185.78 79.0377 186.028 78.8699 186.626C78.5357 188.687 78.669 190.796 79.2599 192.798C79.5519 193.251 78.1389 193.332 77.6849 191.875C76.7579 188.901 76.6539 185.846 78.9329 183.739C79.2088 183.484 79.0546 183.019 78.8145 182.295C78.4586 181.223 77.9141 179.582 78.3029 177.213C78.5298 175.817 79.0506 175.342 79.42 175.005C79.6025 174.839 79.748 174.706 79.8029 174.513C79.6702 173.85 79.4911 173.198 79.2669 172.56C78.4849 170.814 78.4072 168.834 79.0499 167.032C79.4915 165.251 80.0706 164.522 80.4611 164.031C80.7851 163.623 80.9794 163.379 80.8579 162.832C80.7399 162.232 80.6544 161.627 80.6019 161.018C80.5258 160.341 80.4527 159.769 80.3893 159.274C80.0386 156.532 79.9829 156.097 81.3379 152.771C81.4119 152.59 81.0144 152.658 79.9764 152.837C79.9214 152.846 79.8645 152.856 79.8059 152.866C76.4199 153.442 72.5889 151.485 69.9199 149.342C69.7116 149.174 69.4431 149.214 69.0631 149.27C68.4635 149.359 67.5863 149.489 66.2299 148.908C65.7751 148.713 65.4185 148.569 65.1231 148.45C64.1187 148.044 63.822 147.925 62.7819 147.056C61.377 145.883 60.9631 145.144 60.7118 144.694C60.4927 144.303 60.3971 144.132 59.8759 144.088C58.1454 143.935 56.4962 143.284 55.1269 142.215C53.4259 140.896 52.8537 140.124 52.497 139.643C52.1513 139.176 52.0082 138.983 51.2359 138.831C48.1359 138.22 45.8989 135.072 45.3359 133.431C45.2579 133.204 44.8654 133.001 44.3059 132.71C43.1565 132.114 41.3021 131.152 40.0209 128.874C39.569 128.218 39.3594 127.425 39.4279 126.632C39.531 126.345 39.2066 126.08 38.7305 125.69C38.0986 125.174 37.1997 124.438 36.6779 123.144C36.3438 122.374 36.2568 121.519 36.4289 120.698C35.145 120.656 33.8855 120.337 32.7374 119.761C31.5892 119.185 30.5798 118.366 29.7789 117.362C28.1791 116.58 26.686 115.596 25.3359 114.435C24.6999 113.884 23.3529 112.078 24.2209 111.235C24.7289 110.741 25.8069 111.042 26.3909 111.309C25.4646 110.581 24.6678 109.702 24.0339 108.709C23.791 108.402 23.6453 108.029 23.6156 107.638C23.5858 107.248 23.6733 106.857 23.8669 106.517C24.1036 106.262 24.4126 106.087 24.7523 106.013C25.0921 105.94 25.4461 105.972 25.7669 106.106C25.7955 106.116 25.8253 106.128 25.8561 106.14C25.8974 106.156 25.9403 106.172 25.9839 106.187C25.0374 105.554 24.2723 104.686 23.7639 103.667C23.6787 103.436 23.67 103.184 23.7392 102.947C23.8083 102.711 23.9516 102.503 24.1479 102.354C24.3513 102.206 24.587 102.11 24.8355 102.072C24.9168 102.06 24.9987 102.054 25.0805 102.054C25.2767 102.389 25.4795 102.735 25.6888 103.093C25.176 102.937 24.7753 102.919 24.6439 103.164C24.4739 103.478 24.9119 103.956 25.2119 104.249C25.9829 105.025 26.7927 105.761 27.6378 106.453C28.0232 107.114 28.45 107.825 28.9214 108.585C28.099 108.081 27.2333 107.65 26.3339 107.296C25.5319 106.961 24.0599 106.638 24.7459 108.075C26.0199 110.1 28.5389 111.756 30.5769 112.993C30.6946 113.055 30.783 113.161 30.8226 113.288C30.8622 113.415 30.8497 113.552 30.7879 113.67C30.7261 113.788 30.62 113.876 30.4931 113.916C30.3661 113.955 30.2286 113.943 30.1109 113.881C29.6609 113.644 25.2059 111.335 24.8369 111.962C24.6209 112.268 25.0649 112.864 25.6369 113.453C26.9457 114.799 28.3848 115.52 29.3728 116.015C29.9111 116.284 30.3155 116.487 30.4919 116.687C30.9217 117.176 31.4143 117.607 31.9569 117.967C36.3129 120.879 38.7289 119.001 39.5809 118.291C41.2463 116.851 42.4875 114.984 43.1709 112.891C43.3507 112.415 43.5075 111.932 43.6409 111.443C44.0498 111.143 44.4545 110.837 44.8549 110.525C44.921 110.47 44.9835 110.418 45.0426 110.366C44.9188 111.166 44.725 111.957 44.4619 112.73C45.0875 112.811 45.7079 112.929 46.3199 113.082C46.7835 113.198 46.9836 113.42 47.1406 113.594C47.2995 113.77 47.414 113.897 47.7129 113.815C48.4115 113.546 49.1653 113.453 49.9084 113.543C50.6515 113.632 51.3613 113.903 51.9759 114.33C52.4209 114.677 52.8119 114.944 53.3559 114.592C55.4634 114.121 57.6712 114.467 59.5329 115.562C60.0196 115.828 60.4924 115.644 61.1483 115.389C61.8709 115.108 62.8159 114.74 64.2469 114.792C65.8483 114.795 67.385 115.424 68.5289 116.545C69.1292 117.14 69.502 117.077 70.1566 116.966C70.9905 116.825 72.2817 116.606 75.0829 117.572C75.1403 117.592 75.174 117.605 75.1977 117.595C75.291 117.555 75.2284 117.151 75.8319 115.33C76.1614 114.333 76.7147 113.425 77.4495 112.675C78.1843 111.925 79.081 111.354 80.0709 111.004C80.462 110.867 80.7441 110.79 80.947 110.735C81.3727 110.619 81.4489 110.598 81.4489 110.319C81.4549 105.878 81.6039 104.496 86.3799 101.824C86.8365 101.568 86.9516 100.96 87.1057 100.145C87.3235 98.9938 87.6192 97.4308 89.0669 95.8712C89.9562 95.0008 90.9505 94.2446 92.0269 93.6202C92.3722 93.4439 92.6311 93.3425 92.8263 93.266C93.2048 93.1176 93.3439 93.0631 93.4099 92.7392C93.6149 90.8657 94.4309 89.1118 95.7319 87.7482C96.5153 86.8892 97.5378 86.2843 98.6679 86.0112C99.8759 85.6303 100.543 85.5805 100.943 85.5506C101.346 85.5205 101.479 85.5106 101.622 85.2042C102.003 84.1112 102.645 83.1277 103.493 82.3392C104.423 81.3536 105.554 80.5794 106.809 80.0692C107.633 79.6176 108.549 79.36 109.487 79.3162C110.171 79.2634 110.859 79.297 111.534 79.4162C111.689 79.4614 111.928 79.2199 112.289 78.8559C113.397 77.7387 115.65 75.4682 120.1 76.7942C117.839 73.6963 116.523 70.0104 116.311 66.1812C116.214 64.5476 116.353 63.3421 116.447 62.5338C116.517 61.9191 116.562 61.5341 116.456 61.3652C114.795 58.2247 113.949 54.7176 113.995 51.1652C114.768 40.2895 119.876 36.2424 122.19 34.4095C122.778 33.9436 123.185 33.6207 123.295 33.3652C126.87 25.0592 140.402 21.4712 149.202 22.4982C171.262 25.074 174.223 42.1641 174.994 46.6147C175.096 47.2026 175.16 47.5699 175.224 47.6542C178.78 52.3052 177.066 63.4232 172.724 66.1932C172.579 66.2854 172.45 66.3395 172.334 66.3883C172.05 66.5073 171.841 66.5953 171.657 67.1292C170.316 71.0142 165.6 75.9122 164.894 76.5502C164.502 76.8474 164.134 77.1755 163.794 77.5312C163.777 77.5532 163.825 77.6762 163.888 77.6762C164.748 77.8608 165.53 78.3051 166.128 78.9491C166.727 79.593 167.113 80.4054 167.234 81.2762C167.261 81.4463 167.264 81.5317 167.309 81.5745C167.432 81.6924 167.864 81.4878 169.934 81.8362C171.014 82.113 172.044 82.5581 172.985 83.1552C174.132 83.9741 174.384 84.6599 174.578 85.1873C174.749 85.6512 174.875 85.9925 175.524 86.1942C177.993 86.9592 179.952 87.6022 181.193 89.6382C181.527 90.2929 181.803 90.9755 182.018 91.6782C182.13 91.9404 182.508 92.0891 183.048 92.3023C184.166 92.7428 185.981 93.4586 187.602 96.0192C188.018 96.6753 188.107 97.1661 188.178 97.5595C188.253 97.975 188.308 98.2818 188.709 98.5602C189.456 99.1316 190.106 99.8206 190.632 100.6C192.165 102.655 191.588 105.908 190.517 108.235C190.321 108.661 190.631 109.004 191.185 109.617L191.217 109.652C191.922 110.428 192.415 111.371 192.65 112.393ZM45.1369 106.842C45.0833 106.308 44.9987 105.775 44.8829 105.247C44.7159 104.802 44.4979 104.222 43.8529 104.094C43.7895 104.081 43.7264 104.077 43.6636 104.08C44.3127 105.273 44.7901 106.163 45.1369 106.842ZM81.5049 136.918C76.5579 138.543 71.5229 144.682 70.8709 148.174C70.8387 148.345 70.8209 148.427 70.8447 148.493C70.8676 148.557 70.9289 148.607 71.0529 148.71C73.005 150.163 75.2545 151.165 77.6399 151.645C79.0337 151.798 80.4441 151.658 81.7809 151.235C82.4608 151.018 82.4311 150.717 82.3118 149.507C82.2639 149.021 82.2015 148.389 82.1649 147.556C81.952 142.726 82.9593 140.861 83.7662 139.368C84.29 138.398 84.7293 137.585 84.6959 136.218C84.6951 136.186 84.6981 136.156 84.7008 136.128C84.7259 135.874 84.7274 135.859 81.5049 136.918ZM167.838 58.3382C168.232 66.6272 171.951 67.1692 174.232 62.0272C177.868 53.8302 174.231 44.6342 170.866 48.6492C168.454 51.5297 168.151 54.8966 167.914 57.5219C167.889 57.803 167.864 58.0756 167.838 58.3382ZM168.613 65.5257C168.428 65.3046 168.097 64.9105 167.756 64.1932C165.641 59.7492 166.642 52.9472 168.533 49.5962C169.584 47.7377 170.26 47.3703 170.686 47.1389C170.766 47.0958 170.836 47.0575 170.899 47.0152C170.914 47.0054 170.929 46.9955 170.944 46.9853C171.121 46.8694 171.333 46.7301 171.215 46.6382C170.806 46.4599 170.356 46.399 169.915 46.4622C168.724 46.5335 167.599 47.0304 166.744 47.8622C164.047 50.4402 162.261 59.7752 164.761 64.5492C165.44 65.8432 167.396 65.9642 168.624 65.8172C168.836 65.7912 168.792 65.7389 168.613 65.5257ZM157.171 25.6782C145.25 21.0532 131.815 24.6502 126.235 30.8932V30.8942C125.827 31.2807 125.486 31.733 125.228 32.2322C125.408 32.1903 125.681 32.0346 126.068 31.8139C127.889 30.7754 132.233 28.2974 141.289 29.4652C148.829 30.4392 158.119 35.5732 163.908 43.9392C165.423 46.1294 165.62 46.7904 165.805 46.7871C166.039 46.7829 166.255 45.7065 169.132 45.3322C170.532 45.166 171.949 45.4238 173.201 46.0722C173.479 46.1699 173.443 46.0179 173.318 45.4891C173.26 45.2438 173.182 44.9174 173.108 44.4972C172.674 42.312 171.948 40.1951 170.95 38.2032C169.579 34.8782 165.771 29.0132 157.171 25.6782ZM140.856 70.5632C140.731 70.2624 140.535 69.7925 140.358 69.0622V69.0632C140.328 68.9413 140.299 68.8202 140.27 68.6998C139.315 64.7748 138.528 61.5406 139.458 56.0152C139.477 55.8472 139.546 55.6887 139.655 55.5598C139.765 55.4308 139.91 55.3372 140.072 55.2908C140.235 55.2443 140.408 55.2471 140.569 55.2988C140.73 55.3505 140.872 55.4488 140.977 55.5812C142.332 57.264 142.921 58.003 143.211 57.8999C143.591 57.765 143.459 56.1866 143.862 53.3932C144.73 47.3622 145.557 43.2152 148.419 37.7152C150.022 34.6378 150.566 34.1865 150.487 34.0105C150.468 33.9665 150.409 33.9396 150.319 33.8932C148.003 32.7028 145.552 31.7963 143.019 31.1932C141.973 30.9062 136.981 46.4422 136.564 47.9302C136.416 48.4602 135.659 49.0372 134.847 47.2602C134.607 46.5733 134.306 45.9094 133.947 45.2762C133.314 46.4371 132.878 47.6948 132.657 48.9982L132.579 49.3922C130.96 57.6251 130.417 60.3896 131.789 68.4622C131.852 68.8301 131.892 69.1276 131.924 69.3681C132.026 70.1161 132.053 70.313 132.44 70.3622C135.144 70.974 137.919 71.2166 140.688 71.0832C141.071 71.0791 141.037 70.9974 140.856 70.5632ZM117.747 63.3132C117.302 64.9582 117.882 70.1232 119.894 73.9742V73.9752C124.65 83.0792 149.932 84.0162 159.619 78.5362C166.152 74.8412 169.771 68.1662 170.23 67.2502C170.367 66.9759 170.012 67.0093 169.387 67.068C167.656 67.2306 163.855 67.5875 162.688 62.1632C162.572 61.6149 162.518 61.6967 162.244 62.1138C162.071 62.3777 161.809 62.7756 161.388 63.2332C150.413 75.1542 133.504 73.8252 125.037 69.0542C120.836 66.6863 119.803 65.5069 118.922 64.5008C118.571 64.0989 118.243 63.7246 117.747 63.3132ZM158.307 80.8812C156.137 84.3284 151.984 85.5512 147.917 85.7222C142.094 86.0293 136.262 85.2899 130.7 83.5392C128.896 83.0914 127.278 82.0907 126.071 80.6772C128.065 81.3684 130.094 81.9571 132.148 82.4412C147.001 85.051 155.057 82.0524 157.528 81.1324C157.944 80.9775 158.202 80.8816 158.307 80.8812ZM151.867 91.0762C157.579 90.0692 161.156 87.7382 162.979 86.0152L162.972 86.0142C166.108 83.0492 166.106 81.8632 166 81.1002C165.866 80.3579 165.491 79.6802 164.935 79.171C164.378 78.6618 163.67 78.3492 162.919 78.2812C162.808 78.2573 162.583 78.4154 162.238 78.6579C161.803 78.9633 161.178 79.4027 160.35 79.7812C160.079 79.9064 160.037 80.0765 159.964 80.3813C159.915 80.5829 159.852 80.8436 159.699 81.1892C158.798 83.2182 154.529 86.4942 148.862 87.0012C148.366 87.0457 147.629 87.0186 146.877 86.9909C146.245 86.9676 145.601 86.9439 145.082 86.9622C140.563 86.8648 136.073 86.2269 131.706 85.0622C129.63 84.656 127.696 83.7173 126.093 82.3382C125.003 81.3695 124.822 80.8046 124.697 80.4134C124.615 80.1541 124.556 79.971 124.273 79.7972C122.417 78.6576 122.017 78.3412 121.915 78.4185C121.886 78.4403 121.881 78.4934 121.873 78.5682C121.436 80.1342 121.639 81.8097 122.437 83.2262C125.429 87.9722 131.55 89.2822 136.529 90.1952C141.577 91.1202 147.383 91.8662 151.867 91.0762ZM100.517 141.132C100.749 141.265 100.944 141.377 101.073 141.505V141.506C101.221 141.653 101.349 141.798 101.465 141.93C101.895 142.418 102.158 142.716 102.629 142.214C103.546 141.057 104.307 139.784 104.893 138.429C105.117 137.842 105.249 137.224 105.285 136.597C105.305 136.452 105.234 136.344 105.122 136.173C104.896 135.827 104.499 135.221 104.333 133.522C104.263 132.8 104.21 132.098 104.159 131.421C103.817 126.85 103.561 123.428 98.4729 123.005C97.555 123.134 97.0517 123.16 97.0273 123.282C96.9971 123.433 97.6994 123.731 99.2559 124.55C99.9215 124.705 100.56 124.959 101.151 125.303C102.454 125.968 103.375 127.984 102.887 128.203C102.513 128.371 102.283 127.964 102.014 127.49C101.812 127.133 101.588 126.738 101.266 126.519C100.732 126.104 100.104 125.827 99.4367 125.713C98.7698 125.6 98.0852 125.653 97.4439 125.868C97.1474 126.045 97.3732 126.126 97.8438 126.296C98.4685 126.521 99.5245 126.902 100.363 127.868C101.182 128.814 100.955 129.677 100.643 130.863C100.268 132.29 99.7694 134.184 100.823 137.252C100.917 137.526 100.891 137.972 100.591 137.806C99.9363 137.445 99.5977 136.351 99.2951 135.373L99.2669 135.282C99.1707 134.972 99.0209 134.894 98.8472 134.804C98.7029 134.73 98.5421 134.646 98.3819 134.414C97.483 133.151 96.2994 132.116 94.9269 131.395C94.2839 131.169 95.7139 133.063 96.2139 133.595C97.4298 134.901 97.5696 135.63 97.7714 136.682C97.8406 137.043 97.9171 137.443 98.0469 137.916C98.6326 140.051 99.7691 140.703 100.517 141.132ZM171.226 168.743C171.569 167.992 171.761 167.18 171.79 166.355V166.356C171.828 164.811 171.977 164.395 171.835 164.148C171.765 164.027 171.624 163.946 171.365 163.792C163.718 159.261 153.996 161.439 148.318 172.612C147.52 174.304 147.006 176.116 146.799 177.975C146.761 178.076 146.762 178.188 146.803 178.288C146.843 178.389 146.919 178.471 147.016 178.518C147.744 179.046 148.518 179.507 149.328 179.896C151.26 180.687 152.02 180.361 152.988 179.945C153.317 179.804 153.67 179.652 154.102 179.531C154.887 179.311 155.604 179.415 156.358 179.523C157.946 179.753 159.694 180.006 162.577 177.298C163.183 176.729 163.262 176.391 163.329 176.1C163.455 175.559 163.543 175.179 166.903 173.78C167.663 173.464 167.762 173.136 167.919 172.612C167.947 172.521 167.976 172.425 168.01 172.322C168.383 171.209 169.08 170.733 169.757 170.271C170.332 169.879 170.892 169.497 171.226 168.743Z" fill="#20262C"/>
<path d="M19.0083 95.753C20.1703 98.562 27.1932 109.077 29.5382 112.942C30.2955 114.27 31.1303 115.551 32.0382 116.781C33.2722 118.129 33.8382 118.36 35.0022 118.14C36.8612 117.787 46.6342 111.52 47.4122 110.016C48.1552 108.581 47.2333 108.087 40.4843 95.364C33.9743 83.089 34.8293 83.384 27.4843 86.281C24.8496 87.5 22.2903 88.8758 19.8202 90.401C17.9692 91.55 18.1043 93.568 19.0083 95.753ZM21.8383 90.841C22.7493 90.298 22.7453 90.275 23.5743 90.917C23.8196 91.1478 24.1319 91.2949 24.4661 91.3371C24.8002 91.3793 25.1391 91.3145 25.4342 91.152C28.4892 89.588 30.3282 89.259 29.7752 87.573C29.7414 87.4367 29.7437 87.294 29.7817 87.1588C29.8198 87.0236 29.8924 86.9007 29.9923 86.802C33.5693 85.138 33.6263 85.684 38.9703 95.497C43.7573 104.284 45.3823 107.106 45.8333 108.356C46.0683 109.007 46.1672 109.443 44.8542 110.526C42.0796 112.686 39.0985 114.567 35.9543 116.141C34.4923 116.741 33.6643 115.598 32.7743 114.352C30.4283 111.067 28.6863 108.277 27.4223 106.083C19.3563 92.075 18.7993 92.654 21.8383 90.841Z" fill="#20262C"/>
<path d="M35.9552 69.3325C35.6072 69.2725 35.7112 68.9965 35.7382 68.7165C37.3732 51.7435 35.9552 48.4375 37.0162 48.5565C38.4872 48.7215 37.1002 69.5335 35.9552 69.3325Z" fill="#20262C"/>
<path d="M51.2063 95.205C51.3213 95.116 51.3923 95.012 51.4833 94.988C52.0897 94.8246 52.712 94.7271 53.3393 94.697C54.7953 94.753 72.0523 95.524 71.9283 96.958C71.8783 97.529 70.2203 96.987 68.5703 96.835C50.5303 95.169 51.8633 96.168 51.2063 95.205Z" fill="#20262C"/>
<path d="M56.6328 71.7443C47.9328 80.2073 48.5818 80.5883 48.1538 79.1623C51.7888 74.6623 60.4238 66.2913 62.9248 65.2153C63.0008 65.1833 63.2988 65.4213 63.1898 65.5653C63.1475 65.6207 63.1084 65.6784 63.0728 65.7383C62.9998 65.7493 62.2318 66.3003 56.6328 71.7443Z" fill="#20262C"/>
<path d="M12.945 65.9554C10.093 61.3124 8.45199 59.2004 8.25299 58.4114C7.22799 54.3564 20.046 74.5114 19.053 76.0674C17.711 74.5874 19.506 76.6374 12.945 65.9554Z" fill="#20262C"/>
<path d="M27.4903 92.3607C28.5633 92.5517 30.6463 93.1007 31.7383 93.3847C32.5263 93.7037 32.5733 93.8967 32.0503 94.4997C31.1013 95.5997 30.8573 95.3997 31.5033 95.9757C39.4283 103.083 39.3953 102.803 37.4803 103.138C34.3213 103.692 35.3803 102.972 40.3433 108.814C41.2133 109.838 39.9333 110.682 39.2583 110.728C38.8583 110.755 38.4643 110.161 38.3233 109.994C30.9233 101.232 30.5293 101.864 33.8363 101.474C34.1293 101.439 34.2683 101.224 33.8153 100.736C30.3253 96.9797 30.7093 97.3257 30.2153 96.9357C29.0613 96.0127 27.9703 99.4507 27.5023 96.7357C26.7493 92.3467 26.4943 92.1827 27.4903 92.3607Z" fill="#20262C"/>
<path d="M89.2446 36.6749C87.7656 37.9099 84.1086 40.5389 85.2986 41.1219C85.6416 41.2889 85.8116 40.8159 86.5766 40.1929C90.0036 37.4019 89.6456 37.6379 89.7216 38.1349C89.9676 39.7349 89.6876 42.6629 90.3056 42.5449C90.4186 42.5239 90.5826 42.4689 90.6136 42.3869C91.0686 41.1689 90.5046 37.7779 90.7456 37.6919C90.9626 37.6149 94.2596 40.8699 94.7846 41.0329C95.3096 41.1959 95.4916 40.6829 95.2736 40.2859C95.1946 40.1419 92.9276 38.0459 92.8056 37.9329C91.1876 36.4449 91.0416 36.6119 91.2366 36.4139C91.8736 35.7699 96.4286 32.2399 95.9266 31.5939C95.4926 31.0359 92.5586 33.8859 90.7176 35.4549C90.6376 33.5489 90.5626 28.6249 90.4616 28.3599C90.3736 28.1279 89.9616 28.1429 89.9216 28.6899C89.7266 31.2009 89.8516 35.2599 89.6546 35.2569C89.4576 35.2539 86.6636 32.9179 85.4416 32.5119C85.3672 32.4818 85.2848 32.4778 85.2078 32.5004C85.1309 32.523 85.0638 32.571 85.0175 32.6365C84.9711 32.702 84.9483 32.7813 84.9527 32.8614C84.9571 32.9415 84.9884 33.0178 85.0416 33.0779C86.1406 34.1769 89.6996 36.2929 89.2446 36.6749Z" fill="#20262C"/>
<path d="M42.9334 13.116C43.2924 13.423 42.9204 13.459 41.5974 14.689C39.9904 16.182 39.9884 16.261 39.8604 16.643C39.7324 17.025 40.1794 17.511 40.5724 17.038C40.9654 16.565 43.2994 14.601 43.4414 14.501C43.5824 15.029 43.3754 17.477 43.6064 19.129C43.7684 20.288 44.4744 19.89 44.4744 18.082C44.4744 14.512 44.4874 15.044 44.5504 14.697C44.9844 14.997 44.4254 14.512 46.3504 16.397C47.2164 17.241 48.3834 17.097 46.5154 15.158C44.5644 13.126 44.6054 13.421 44.9284 13.091C45.6284 12.381 47.2844 10.762 48.3284 9.68404C49.2284 8.74804 48.9794 8.40304 48.6714 8.56004C46.2504 9.79504 44.4884 12.419 44.4824 11.75C44.4234 4.97904 44.3264 5.01504 43.8924 5.00704C43.3514 4.99804 43.4924 5.27204 43.4924 8.71404C43.5164 8.71404 43.5364 11.865 43.4424 12.154C43.2564 12.03 40.1424 9.36004 39.4424 9.15404C38.9824 9.02104 38.7924 9.46704 39.0624 9.75904C39.3714 10.093 39.4654 10.14 42.9334 13.116Z" fill="#20262C"/>
<path d="M38.3589 157.905C41.3109 155.539 41.0939 154.548 40.7589 154.791C38.0099 156.774 38.4589 156.475 37.3749 157.302C36.8509 157.702 37.3929 149.833 36.3329 149.825C35.6819 149.825 35.9029 150.476 36.1009 154.76C36.1829 156.525 36.0169 154.296 36.2009 157.189C36.2539 158.038 33.7419 154.954 30.8489 154.268C30.8093 154.256 30.7677 154.253 30.7268 154.258C30.6858 154.264 30.6465 154.278 30.6116 154.3C30.5766 154.322 30.5468 154.351 30.524 154.386C30.5013 154.42 30.4863 154.459 30.4799 154.5C30.3799 154.982 30.6799 154.991 30.9639 155.151C32.5819 156.074 31.5999 155.337 35.4559 158.224C36.0119 158.64 35.8279 158.581 35.1959 159.168C34.1549 160.137 31.5739 162.226 32.4639 162.568C32.9739 162.763 33.0559 162.468 35.9709 159.905C36.6849 159.278 36.1049 162.182 36.7709 164.871C36.7884 164.942 36.8301 165.004 36.8886 165.048C36.9472 165.091 37.0191 165.113 37.0919 165.109C37.6979 165.144 37.5999 164.5 37.3089 160.252C37.3089 159.452 37.1869 159.623 38.8279 160.843C39.8569 161.607 40.0549 161.711 40.4499 161.743C40.8449 161.775 40.8839 161.309 40.5949 161.023C40.3949 160.823 40.3529 160.762 37.7739 158.681C37.5749 158.518 37.6259 158.493 38.3589 157.905Z" fill="#20262C"/>
</svg>
