<svg width="85" height="85" viewBox="0 0 85 85" fill="none" xmlns="http://www.w3.org/2000/svg">
<path d="M55.013 82.1528C53.9696 82.1103 54.6564 82.427 54.5676 80.2038C54.5124 78.8187 53.268 79.3419 53.2926 79.0597C53.8655 72.5716 54.129 64.8039 54.1286 61.2828C54.1286 61.143 54.1783 61.188 54.7036 61.194C54.8596 61.194 54.7491 61.3997 54.886 62.0155C55.288 64.1503 56.1635 66.1673 57.4483 67.9192C57.6714 68.2532 56.0692 70.2337 55.9055 73.3664C55.6471 78.3147 59.569 80.2051 61.1045 77.3614C61.9273 75.8373 61.5363 73.7514 61.4705 73.074C61.292 71.232 60.0119 69.3093 58.994 67.7789C58.796 67.4814 59.6264 66.5324 60.3735 63.3683C61.1364 60.1404 60.9175 59.3452 61.0612 58.4808C61.0986 58.2547 61.0807 52.2851 60.9384 51.4814C60.9001 51.2689 61.0701 51.4015 61.4037 51.3212C61.7714 51.2324 61.6298 51.2524 61.6094 47.5812C61.5988 45.6224 61.3043 44.8094 60.9549 44.3763C60.7586 44.1685 60.5214 44.0027 60.2588 43.8901C59.0722 42.4375 57.7266 41.1224 56.2472 39.9695C55.4006 39.3371 54.8902 39.516 54.8791 39.4029C54.8162 38.7799 54.843 38.4875 54.5459 38.1007C54.0916 37.5083 53.6534 37.9227 53.6398 37.6698C53.5068 35.3557 53.571 35.4058 52.5055 35.0747C52.4838 35.0699 52.4651 35.0571 52.4524 35.0389C52.4396 35.0208 52.4341 34.9985 52.4371 34.9766C52.4112 34.6389 52.3232 34.3089 52.1779 34.0029C51.1298 31.3649 48.7859 31.0372 45.9558 30.6199C44.3328 30.3802 44.2639 30.4966 44.2865 30.3402C44.6239 27.9866 44.6469 28.1052 44.5767 28.095C44.4488 28.1447 44.3264 28.2076 44.2116 28.2828C44.2006 28.2899 44.1912 28.2994 44.1844 28.3107C44.1776 28.322 44.1734 28.3347 44.1725 28.3478C44.1334 28.9895 44.0616 29.6287 43.9571 30.2629C43.9023 30.4014 43.8024 30.3713 43.6171 30.3428C42.2643 30.2232 40.905 30.1966 39.5486 30.2629C38.4368 30.3147 38.2141 30.5298 38.1499 30.1524C38.1235 29.9981 38.0394 28.6734 38.027 28.3959C38.0228 28.3002 37.8995 28.3274 37.6318 28.2339C37.6267 28.2321 37.6212 28.2316 37.6159 28.2325C37.6105 28.2333 37.6055 28.2356 37.6012 28.2389C37.597 28.2423 37.5936 28.2467 37.5916 28.2517C37.5895 28.2567 37.5887 28.2621 37.5893 28.2675C37.6424 28.5999 37.7168 29.4779 37.8299 30.3305C37.8511 30.4915 37.9098 30.3402 35.8001 30.6705C34.6384 30.8288 33.4932 31.0904 32.378 31.452C31.6778 31.7708 31.066 32.2553 30.5953 32.8637C30.1246 33.4722 29.8093 34.1861 29.6767 34.9438C29.6516 35.2503 28.6592 35.0161 28.578 36.0408C28.5151 36.8355 28.408 39.7808 28.4055 39.8037C28.3549 40.1985 28.3492 40.5977 28.3885 40.9937C27.0612 60.837 29.0001 79.0882 28.7625 79.126C27.8096 79.2773 27.4552 79.2667 27.5491 81.0202C27.6001 81.9722 27.8041 82.0474 27.5661 82.0568C18.7941 82.3921 20.4108 82.9289 22.1495 82.7457C26.3502 82.305 47.3452 81.9161 53.5502 82.4601C53.8549 82.4869 63.6885 82.8545 64.0608 82.8732C64.0957 82.8775 64.1305 82.8685 64.159 82.8477C64.1871 82.8269 64.2062 82.7959 64.2121 82.7614C64.2181 82.727 64.2104 82.6913 64.1909 82.6624C64.1713 82.6335 64.1412 82.6131 64.1072 82.6055C65.1068 82.6055 57.7343 82.2638 55.013 82.1528ZM54.163 60.6053C54.163 54.9078 54.0912 55.53 54.3955 55.5308C57.2621 55.5402 56.574 56.7157 56.753 60.7792C56.7585 60.9003 56.7164 60.8314 56.5099 60.8331C55.8244 60.8399 55.4418 60.7452 55.1647 60.7443C54.0648 60.7422 54.1634 60.7796 54.1634 60.6053H54.163ZM60.1181 76.5785C59.6736 78.2909 57.3403 77.647 57.2523 73.6941C57.2222 72.3302 57.8235 70.4602 58.2889 69.1993C58.3216 69.11 58.3769 69.0875 58.4313 69.1767C59.9324 71.6626 60.8483 73.7706 60.1185 76.579L60.1181 76.5785ZM60.3935 44.3028C60.8436 44.5892 61.1453 45.137 61.2435 46.1617C61.3782 47.5774 61.3175 50.637 61.3323 50.9102C61.3387 51.0263 61.3876 50.9995 59.8406 51.0411C59.0828 51.0615 59.2031 51.0467 59.2001 50.8516C59.1823 49.1155 59.2001 49.0088 59.1049 46.6547C59.0743 45.8778 58.9889 45.7388 56.0738 45.7877C56.0016 45.7877 55.9463 45.803 55.9391 45.7363C55.9076 45.3963 55.8868 44.616 55.9017 44.1872C55.9089 43.9823 55.8957 43.9619 56.1886 43.9513C57.0309 43.9198 58.0161 43.9564 58.7411 43.9734C60.2596 44.0095 60.3927 44.3478 60.3927 44.3032L60.3935 44.3028ZM58.736 49.5341C58.0985 49.3785 57.4823 49.1461 56.9004 48.8422C56.781 48.7814 56.7228 48.7674 56.6833 48.6688C56.6063 48.4763 56.6382 46.4333 56.6408 46.1757C56.6408 46.0869 56.7109 46.0763 57.5877 46.0538C57.6654 46.0538 57.6994 46.0814 57.6858 46.1579C57.6399 46.4201 57.5775 46.6789 57.4988 46.9335C57.0237 48.4486 56.8711 48.3921 57.1134 48.5736C57.1321 48.5944 57.155 48.6114 57.1805 48.6229C57.2065 48.6344 57.2341 48.6403 57.2621 48.6403C57.2902 48.6403 57.3178 48.6344 57.3437 48.6229C57.3692 48.6114 57.3922 48.5944 57.4109 48.5736C58.2184 47.7193 58.3952 46.9203 58.6404 46.5701C58.688 46.5026 58.7305 46.5459 58.7369 46.5837C58.8061 47.2455 58.841 47.9102 58.841 48.5753C58.844 49.6403 58.8814 49.549 58.7386 49.5345L58.736 49.5341ZM55.9489 46.7601C55.9565 46.3734 55.9064 46.1128 56.0832 46.0975C56.393 46.0708 56.3921 46.0691 56.3913 46.3878C56.3836 48.778 56.4028 48.8405 56.6323 48.9493C57.2659 49.2634 57.9204 49.5328 58.5911 49.7568C58.8529 49.8384 58.8278 49.8197 58.8274 49.9587C58.8274 50.1529 58.9166 50.3692 58.708 50.288C57.7989 49.9684 56.9145 49.5825 56.0615 49.1342C55.8915 49.0088 55.9102 48.835 55.9514 46.7605L55.9489 46.7601ZM57.8486 46.4856C57.8648 46.4286 57.866 46.4154 57.923 46.4006C58.0335 46.3921 58.1449 46.3942 58.2549 46.4078C58.3591 46.4142 58.3888 46.3963 58.376 46.48C58.1516 47.1702 57.7997 47.812 57.339 48.3726C57.2863 48.444 57.1801 48.3896 57.1984 48.3373C57.2736 48.1609 57.8949 46.4864 57.8512 46.486L57.8486 46.4856ZM55.0606 39.7973C55.8545 39.9083 56.8881 40.8883 57.4644 41.448C59.5593 43.488 59.4764 43.403 59.5762 43.5679C59.6255 43.65 59.6345 43.7069 59.5418 43.7209C59.1534 43.7316 58.7645 43.7209 58.3773 43.6891C58.0292 43.6525 58.0496 43.4035 55.7848 41.3252C55.3012 40.8811 55.0049 41.0358 54.9773 40.6826C54.9391 40.1939 54.9867 40.5347 54.9319 39.8938C54.9234 39.7803 54.9331 39.7803 55.0606 39.7973ZM55.0555 42.015C55.0725 41.505 54.9369 41.1471 55.1448 41.2674C56.0572 41.7965 57.7487 43.6398 57.756 43.6474C57.1223 43.6287 56.4882 43.6427 55.8562 43.6899C55.7058 43.7137 55.6199 43.7868 55.6101 44.0622C55.557 45.5561 55.6526 45.6883 55.6849 45.8425C55.6905 45.9369 55.6905 46.0321 55.6849 46.1264C55.7104 48.9688 55.5477 49.1074 56.0028 49.3768C56.8082 49.7802 57.6412 50.1253 58.4959 50.4096C58.8784 50.5481 58.844 50.4988 58.8588 50.6616C58.9205 51.3221 58.9319 51.396 59.215 51.396C59.8597 51.396 59.83 51.3399 59.838 51.5048C60.1398 57.3796 59.7666 61.3023 59.5558 61.9777C59.5133 62.1086 59.3735 62.8451 59.0646 63.8001C58.0981 66.7874 58.2145 66.5868 58.1057 66.421C57.0789 64.9025 56.3722 63.191 56.0288 61.3903C55.9807 61.188 56.0118 61.1778 56.1346 61.1846C56.6624 61.2042 56.7517 61.3083 57.0186 61.069C57.1737 60.93 57.1299 59.5815 57.121 59.5815C57.121 56.8394 57.036 54.8105 54.2909 55.1802C54.0861 55.2078 54.1796 50.5082 53.9084 43.9972C53.8889 43.5229 53.7775 43.4753 54.1239 43.5195C54.3109 43.5135 54.4911 43.4502 54.6407 43.338C54.7903 43.2262 54.9021 43.0711 54.9607 42.8935C55.0215 42.6045 55.053 42.3102 55.0555 42.015ZM53.6874 38.2002C53.7958 38.0332 54.3878 38.105 54.4886 38.6498C54.6263 39.6005 54.6858 40.5608 54.6666 41.5211C54.6666 42.4115 54.7941 43.3019 53.9072 43.1599C53.8183 43.1459 53.8511 42.9955 53.829 42.4481C53.6687 38.5143 53.6407 38.2002 53.6874 38.2002ZM30.1076 34.8104C30.3367 33.8498 30.8561 32.983 31.5951 32.328C32.5926 31.4078 36.4227 30.8638 38.9927 30.6305C42.1249 30.3458 46.0872 30.8575 49.1255 31.6259C49.6504 31.7237 50.1366 31.9685 50.528 32.3318C51.27 32.9836 51.7898 33.8507 52.0155 34.8121C52.1375 35.3404 50.3525 33.7997 37.7355 34.0896C31.6729 34.2281 30.0052 35.249 30.1076 34.8104ZM28.7089 41.5764C28.9554 35.8529 28.7455 35.6183 29.3018 35.5048C36.6411 34.0037 46.4153 34.1261 52.8663 35.5116C52.9518 35.547 53.0266 35.6037 53.0835 35.6764C53.1405 35.7491 53.1774 35.8352 53.1915 35.9264C54.3751 60.5939 52.9598 74.3082 52.8833 78.8349C52.8774 79.2016 53.2102 79.1094 50.1145 78.942C50.0256 78.942 42.6863 78.4077 38.3292 78.7176C35.0567 78.7176 31.1421 79.0151 29.3804 79.0835C29.1934 79.0928 27.907 60.2105 28.7089 41.5764ZM54.0461 82.0224C53.9582 82.1635 54.1227 82.0963 51.871 82.0224C28.468 81.2531 28.0107 82.7024 27.9558 81.5175C27.9401 81.18 27.9558 80.7839 27.9503 80.7839C27.9503 79.4486 27.7272 79.5837 30.1021 79.4787C41.7416 78.9649 38.2795 78.7503 49.1183 79.3194C54.8031 79.6169 54.1707 79.208 54.1707 80.979C54.2076 81.3317 54.1651 81.6883 54.0461 82.0224Z" fill="#20262C"/>
<path d="M34.1768 55.0152C32.6587 54.6667 32.419 54.8371 32.1419 52.0827C31.9893 50.5693 31.6273 41.2915 32.0081 37.9978C32.0416 37.7075 32.3413 37.2918 33.065 37.1138C36.2585 36.3279 42.6798 36.0462 47.8045 36.883C49.2286 37.1159 50.0332 37.2289 50.2078 38.0033C50.527 39.4156 50.3583 50.2539 49.9928 53.3156C49.8712 54.3297 49.9311 54.6786 48.0866 55.0071C43.6173 55.8048 37.1127 55.6892 34.1768 55.0152ZM32.8644 37.5528C32.2635 37.6994 32.2826 38.2489 32.2762 38.937C32.238 42.9299 32.2516 49.5025 32.6234 53.1244C32.782 54.6688 33.2252 54.4963 34.2588 54.6607C39.8451 55.5511 46.1406 55.2132 49.1823 54.3858C49.5767 54.2787 49.7522 54.1099 49.8474 50.3198C49.8474 50.3113 49.9966 43.5844 49.9426 40.0713C49.9001 37.3692 50.0319 37.6756 48.4551 37.4091C41.8714 36.2973 35.5993 36.8847 32.8644 37.5528Z" fill="#20262C"/>
<path d="M32.6259 65.9082C32.4569 65.8648 32.3021 65.7781 32.1771 65.6566C32.0521 65.535 31.9613 65.3824 31.9137 65.2146C31.7646 64.2201 31.7309 63.212 31.8134 62.2098C31.8095 58.8472 31.5779 58.7452 34.3663 58.2998C39.1327 57.5382 45.3071 57.8072 48.2485 58.4299C50.2524 58.8549 50.3807 58.4974 50.161 63.9085C50.0862 65.7594 50.3183 66.0879 46.421 66.3948C42.953 66.6685 35.9346 66.9592 32.6259 65.9082ZM32.8933 58.97C32.2511 59.126 32.229 59.4286 32.2039 60.0908C32.0059 65.365 32.0445 65.4793 32.9927 65.6434C39.8964 66.8381 47.679 66.1109 49.3684 65.6009C49.4432 65.5779 49.5104 65.535 49.5631 65.4768C49.6153 65.419 49.651 65.3476 49.6659 65.2707C49.8967 63.4096 49.9421 61.5307 49.801 59.6607C49.7114 58.9484 49.206 59.0113 48.6357 58.9101C41.726 57.6874 35.2622 58.395 32.895 58.97H32.8933Z" fill="#20262C"/>
<path d="M36.1673 53.9409C34.087 53.7582 33.6271 53.9222 33.3844 52.4071C33.0291 50.1916 32.973 43.4643 33.0364 41.0817C33.1099 38.3014 33.4074 39.0893 33.3139 38.8126C33.6382 38.7536 33.2251 38.4204 36.0046 38.1003C38.9307 37.812 41.8764 37.7777 44.8084 37.9979C49.1553 38.3379 48.987 38.5721 49.0504 40.448C49.2259 44.1617 49.1519 47.8826 48.8289 51.586C48.7163 53.558 48.4192 53.8236 46.565 53.901C43.1089 54.2546 39.6261 54.2678 36.1673 53.9409ZM33.557 51.0484C33.5808 51.1712 33.5957 51.2957 33.6016 51.4207C33.7125 53.1674 33.6488 53.3906 34.9744 53.5278C39.0064 53.8576 43.0587 53.8606 47.0911 53.5368C48.6411 53.3995 48.3325 53.0123 48.5331 51.3268C48.6874 50.0297 48.732 42.8191 48.7316 42.8102C48.6891 39.7825 48.8876 38.9367 48.0656 38.7944C42.9822 37.9121 38.6387 38.295 35.5128 38.5819C33.4546 38.7697 33.4558 38.8819 33.4333 40.1369C33.3972 42.1527 33.4639 50.6068 33.557 51.0484Z" fill="#20262C"/>
<path d="M39.5504 59.3197C41.3915 59.2543 43.2348 59.3006 45.0703 59.4596C45.4953 59.497 48.2077 59.7613 48.5617 60.001C48.6314 60.0486 48.6905 60.1098 48.7351 60.1808C48.7802 60.2522 48.8099 60.3317 48.8227 60.415C48.8902 60.7928 48.9221 61.1761 48.9179 61.5599C48.8873 62.6738 49.0879 62.0699 48.829 64.3428C48.7666 64.8885 48.2536 64.9242 47.1987 65.0985C45.8723 65.3178 38.6006 65.2183 37.0587 65.0985C33.8236 64.8473 33.2647 64.8316 33.1657 64.1265C33.0628 63.4626 33.0185 62.7911 33.0335 62.1196C33.0471 61.8965 33.1793 60.4766 33.2116 60.3393C33.3561 59.7282 33.6799 59.5246 39.5504 59.3197ZM45.8404 64.8396C48.7683 64.7504 48.5443 64.5217 48.6063 63.5468C48.6153 63.4078 48.6514 62.8285 48.6382 62.6904C48.3581 59.7379 49.4066 60.3865 45.4681 59.831C42.9878 59.4812 38.4748 59.6347 35.1304 59.9198C34.7182 59.9551 34.3149 60.0452 33.9026 60.0792C33.4024 60.1217 33.4576 60.5246 33.2966 62.6611C33.2966 62.6611 33.3667 63.3279 33.3756 63.5183C33.4313 64.7138 34.2469 64.4329 36.504 64.659C39.6108 64.8911 42.7277 64.9514 45.8413 64.8396H45.8404Z" fill="#20262C"/>
<path d="M42.9602 42.7316C42.9602 42.7414 43.0001 46.3229 43.0001 46.3327C43.0222 47.9196 43.0099 47.7828 43.2237 47.8125C43.4374 47.8423 44.6644 47.8125 44.4702 48.1406C43.6198 49.5278 42.6202 50.8181 41.4892 51.9877C41.2954 52.1713 41.4425 52.2963 38.864 49.1666C38.1249 48.2694 38.0914 48.2443 38.037 48.1542C37.952 48.0136 38.0183 47.8924 38.1832 47.8801C39.8292 47.7568 39.4433 47.9651 39.4399 47.1376C39.4399 47.1249 39.4454 43.8175 39.3447 40.945C39.3234 40.333 39.1381 40.4294 41.4956 40.35C41.8518 40.3381 42.2079 40.3381 42.5581 40.3155C42.6036 40.3075 42.6503 40.3103 42.6945 40.3238C42.7387 40.3373 42.7791 40.3611 42.8123 40.3933C42.8454 40.4255 42.8705 40.465 42.8854 40.5088C42.9002 40.5525 42.9049 40.5992 42.8981 40.6449C42.8824 41.3015 42.9852 42.7299 42.9602 42.7316Z" fill="#20262C"/>
<path d="M41.5349 63.3818C41.6046 63.0592 41.5893 63.0503 41.778 63.06C42.186 63.0821 42.2969 63.1846 42.4958 63.0014C42.529 62.978 42.5553 62.9457 42.5719 62.9083C42.5885 62.8709 42.594 62.8297 42.5889 62.7893C42.5838 62.7489 42.5677 62.7107 42.5422 62.6784C42.5167 62.6465 42.4831 62.6223 42.4448 62.6078C42.1584 62.468 41.2859 62.3528 41.4308 61.5309C41.4578 61.3473 41.5415 61.1764 41.6702 61.0426C41.7989 60.9087 41.9661 60.8182 42.1486 60.7837C42.291 60.7391 42.2132 60.6252 42.2795 60.4616C42.3875 60.1943 42.7236 60.4191 42.6739 60.6397C42.6293 60.836 42.8728 60.663 43.2451 61.1033C43.3679 61.2487 43.3127 61.2814 43.1563 61.4149C42.9085 61.6274 42.9098 61.6274 42.6488 61.4221C42.5855 61.3596 42.5009 61.3239 42.412 61.3222C42.3232 61.3205 42.2371 61.3532 42.1716 61.4132C41.9136 61.7447 42.3747 61.9232 42.9408 62.2143C43.0802 62.298 43.189 62.4242 43.2502 62.5751C43.3118 62.7256 43.3225 62.8922 43.2808 63.0494C43.0781 63.7481 42.6505 63.5637 42.7466 63.8187C42.8788 64.1693 42.3743 64.3138 42.3284 63.9657C42.2859 63.6317 42.3824 63.7957 41.7942 63.7281C41.6033 63.7052 41.5358 63.6227 41.5349 63.3818Z" fill="#20262C"/>
<path d="M44.384 63.3796C44.4809 62.6677 44.996 63.3796 45.3615 62.9826C45.659 62.6618 45.1031 62.5381 44.9565 62.4875C43.9097 62.128 44.1851 61.0961 44.8137 60.8521C45.2485 60.6821 45.0037 60.7471 45.1282 60.4577C45.2429 60.1908 45.5732 60.4382 45.5209 60.6162C45.4529 60.8462 45.693 60.64 46.0806 61.0863C46.2153 61.2414 46.1707 61.2656 45.999 61.414C45.5421 61.8088 45.6854 61.3455 45.2072 61.3251C45.1575 61.3268 45.1091 61.3426 45.0678 61.3706C45.0266 61.3982 44.9935 61.4369 44.9731 61.4824C44.9527 61.5279 44.945 61.578 44.9514 61.6273C44.9582 61.6766 44.9782 61.7234 45.0096 61.762C45.2463 61.9495 45.509 62.102 45.7895 62.2142C46.3237 62.4896 46.2391 63.3698 45.6705 63.6388C45.5171 63.7115 45.6093 63.7948 45.6195 63.9244C45.622 63.9827 45.6016 64.0392 45.563 64.0825C45.5243 64.1259 45.4703 64.1527 45.4125 64.1565C45.3543 64.1607 45.2969 64.142 45.2527 64.1046C45.2081 64.0672 45.18 64.0137 45.1745 63.9559C45.1405 63.703 45.2038 63.74 44.9242 63.7298C44.5714 63.7166 44.3849 63.7714 44.384 63.3796Z" fill="#20262C"/>
<path d="M35.5702 63.4266C35.5707 63.3969 35.5736 63.3671 35.5792 63.3378C35.6251 63.1079 35.7033 63.0633 35.9353 63.11C36.6655 63.2562 36.7853 62.77 36.4581 62.6353C36.1742 62.5197 35.3531 62.3858 35.4725 61.5673C35.4945 61.4138 35.558 61.2689 35.656 61.1486C35.754 61.0284 35.8829 60.937 36.0288 60.8843C36.4326 60.7377 36.1988 60.7746 36.3208 60.4988C36.4338 60.2438 36.7658 60.4525 36.7118 60.7088C36.699 60.7683 36.7118 60.781 36.7662 60.798C36.9657 60.8579 37.143 60.9752 37.2762 61.1355C37.4062 61.2923 37.3612 61.3186 37.1869 61.464C36.7466 61.835 36.8588 61.3926 36.4177 61.3675C36.3639 61.3654 36.3107 61.3794 36.2651 61.4079C36.2194 61.4364 36.1835 61.478 36.1619 61.5273C36.1403 61.5766 36.1342 61.6314 36.1443 61.6841C36.1543 61.7368 36.1802 61.7857 36.2184 61.8235C36.4542 61.9995 36.7112 62.1457 36.9834 62.2579C37.5053 62.5261 37.4364 63.4084 36.8559 63.6825C36.6323 63.7883 36.9566 63.9664 36.7241 64.1406C36.6938 64.167 36.6567 64.1844 36.617 64.1912C36.5773 64.198 36.5365 64.1933 36.4992 64.1785C36.4619 64.1632 36.4295 64.1381 36.4055 64.1058C36.3816 64.0735 36.3671 64.0348 36.3637 63.9949C36.3637 63.6442 36.3416 63.8287 35.8214 63.7641C35.6365 63.7411 35.5694 63.6629 35.5702 63.4266Z" fill="#20262C"/>
<path d="M38.42 63.4151C38.505 62.9578 38.5624 63.1095 39.1136 63.1482C39.3805 63.1669 39.6423 62.8082 39.3359 62.6514C39.052 62.5073 38.1973 62.404 38.3129 61.5787C38.3342 61.421 38.3983 61.2727 38.4981 61.149C38.5981 61.0253 38.7299 60.9318 38.8795 60.8779C39.2734 60.7359 39.0495 60.7788 39.1587 60.5085C39.2777 60.2208 39.5799 60.4622 39.5561 60.6671C39.5301 60.8893 39.7817 60.6964 40.1511 61.1681C40.273 61.3241 40.1443 61.3556 39.8536 61.5931C39.7533 61.6752 39.7129 61.5931 39.5386 61.4656C39.3644 61.3381 39.1081 61.3007 39.0087 61.5145C38.8756 61.8018 39.2471 61.9722 39.7796 62.2213C39.9083 62.2969 40.0142 62.4057 40.0857 62.5371C40.1573 62.668 40.1919 62.8159 40.1859 62.965C40.1799 63.1142 40.1334 63.2587 40.0515 63.3837C39.9696 63.5086 39.8554 63.6085 39.721 63.6735C39.4681 63.7972 39.8098 63.9404 39.5866 64.1274C39.5566 64.1567 39.5187 64.1767 39.4776 64.1852C39.4365 64.1937 39.3938 64.1903 39.3546 64.1754C39.3154 64.1606 39.2813 64.1346 39.2563 64.1006C39.2313 64.0671 39.2164 64.0267 39.2135 63.985C39.2135 63.764 39.2314 63.7806 38.9768 63.7696C38.6219 63.7543 38.4128 63.824 38.42 63.4151Z" fill="#20262C"/>
<path d="M35.9308 10.9649C34.4457 11.8766 33.2331 13.1709 32.42 14.7122C31.607 16.2536 31.2234 17.9852 31.3095 19.7257C31.3956 21.4662 31.9482 23.1516 32.9093 24.6051C33.8705 26.0587 35.2049 27.2271 36.7727 27.9878C38.0745 28.6109 39.4971 28.941 40.9403 28.9547C42.4267 29.0096 43.9029 28.6893 45.2328 28.0231C46.5231 27.4204 49.3128 25.8671 50.5172 21.3544C50.7803 20.1553 50.8228 18.9183 50.6422 17.7041C49.2643 10.3473 41.5408 7.52235 35.9308 10.9649ZM50.0807 16.7143C50.4254 17.8871 50.5266 19.1181 50.3782 20.3314C50.1079 22.6642 48.9732 24.8109 47.1984 26.3483C45.4232 27.8858 43.1362 28.7022 40.789 28.6368C35.2678 28.4591 31.2532 23.7255 31.6549 18.8805C31.676 17.8275 31.8814 16.7864 32.2618 15.8043C35.9338 7.0183 47.9494 8.49518 50.0807 16.716V16.7143Z" fill="#20262C"/>
<path d="M60.5031 13.3357C58.4232 13.5522 56.3572 13.8862 54.3151 14.3361C53.664 14.4802 53.6751 14.8886 54.1591 14.7964L60.5452 13.5601C60.7585 13.5121 60.7828 13.3357 60.5031 13.3357Z" fill="#20262C"/>
<path d="M27.887 14.8164C25.8484 14.5775 23.7965 14.4703 21.7441 14.4955C21.518 14.5015 21.5579 14.7161 21.7351 14.7165C21.7458 14.7165 27.7276 15.2227 28.1628 15.269C28.672 15.3239 28.6988 14.9129 27.887 14.8164Z" fill="#20262C"/>
<path d="M47.5519 8.59141C47.7368 8.65388 47.7401 8.46051 49.7517 6.09878C51.5107 4.03287 51.5822 4.11064 52.1678 3.42342C52.0148 3.08767 46.7814 8.33003 47.5519 8.59141Z" fill="#20262C"/>
<path d="M31.3222 5.83246C33.8199 8.19503 34.0604 8.66848 34.1641 8.33996C34.3443 7.76918 30.2308 4.35601 29.0314 3.68408C28.8359 3.79671 29.3531 3.97181 31.3222 5.83246Z" fill="#20262C"/>
<path d="M55.3886 26.3881C53.8624 25.3052 52.7625 24.5088 52.6146 24.8581C52.5483 25.015 52.7872 25.1131 53.1858 25.3826C57.1932 28.0771 57.3755 28.1221 57.3534 27.8569C57.228 27.6908 57.5905 27.9513 55.3886 26.3881Z" fill="#20262C"/>
<path d="M29.1282 26.1129C28.9863 26.2319 26.9429 28.0076 26.8489 28.1508C26.8315 28.1771 26.8417 28.2868 26.9603 28.2689C26.9692 28.2689 30.7636 25.3908 30.7118 25.1898C30.7147 24.7125 29.5898 25.7245 29.1282 26.1129Z" fill="#20262C"/>
<path d="M41.4681 6.24303C41.5798 6.01693 41.9071 2.50303 41.7868 2.15496C41.6474 1.75078 41.0299 5.59235 41.2135 6.24218C41.2615 6.41133 41.4192 6.34205 41.4681 6.24303Z" fill="#20262C"/>
<path d="M48.7446 18.8385C48.6817 14.8214 45.0896 11.2824 40.9055 11.3814C39.034 11.3836 37.2238 12.0492 35.7966 13.2599C34.2466 14.6204 33.2726 16.5198 33.0723 18.5724C32.9548 19.8502 33.152 21.1373 33.6465 22.3213C34.1411 23.5052 34.918 24.5501 35.9095 25.3647C36.9009 26.1792 38.0767 26.7386 39.3342 26.994C40.5916 27.2494 41.8925 27.193 43.1232 26.8298C46.0204 25.9989 48.8143 23.321 48.7446 18.8385ZM48.4 19.731C48.1377 23.5611 45.0501 27.0563 40.2557 26.8174C38.306 26.6796 36.4877 25.7842 35.1899 24.3227C33.8921 22.8612 33.2179 20.9497 33.3116 18.9974C33.3966 15.8193 35.9538 12.4996 39.5774 11.8243C40.7048 11.6009 41.8687 11.6428 42.977 11.9467C44.0854 12.2505 45.1079 12.8081 45.9639 13.5753C46.8198 14.3425 47.4854 15.2982 47.9082 16.3669C48.3307 17.4356 48.4994 18.5881 48.4 19.7331V19.731Z" fill="#20262C"/>
<path d="M44.8014 20.0356C44.7636 20.0144 44.7194 20.0062 44.6764 20.0123C44.6335 20.0185 44.5936 20.0386 44.563 20.0696C40.8289 22.2949 40.908 22.2622 40.6759 22.0922L36.9929 19.6501C36.9627 19.6994 36.913 19.7445 36.913 19.7891C36.913 20.056 40.018 24.8198 40.7728 25.6817C40.9216 25.8517 40.9428 25.8517 41.0826 25.6817C42.2072 24.3668 44.9544 20.1176 44.8014 20.0356ZM41.0588 23.5971C41.0533 24.1254 41.0474 24.6715 41.024 24.8139C41.0172 24.8564 40.9904 25.0629 40.8621 25.0544C40.7656 25.0485 40.7265 24.9414 40.7176 24.6596C40.6819 23.8151 40.6394 22.9962 40.6406 22.8653C40.6406 22.5427 40.8293 22.4458 40.9526 22.5206C41.1175 22.6205 41.0669 22.8342 41.0588 23.5971Z" fill="#20262C"/>
<path d="M43.7223 16.8298C42.9505 15.3938 42.0991 14.0019 41.1723 12.6606C41.0903 12.536 40.9853 12.4311 40.8812 12.5331C40.4175 12.9895 36.7731 18.7304 36.9469 18.9429C37.0885 19.121 39.8828 20.9672 40.7983 21.4899C40.83 21.5085 40.8661 21.5183 40.9028 21.5183C40.9396 21.5183 40.9757 21.5085 41.0074 21.4899C42.2864 20.8619 43.5306 20.1656 44.7351 19.404C45.05 19.1847 44.9029 19.0955 43.7223 16.8298ZM44.4023 18.8843C44.3517 18.9693 44.2425 18.9506 43.9543 18.8031C43.0869 18.3175 42.1783 17.9095 41.239 17.5838C41.2286 17.5794 41.2174 17.5776 41.2062 17.5785C41.1949 17.5793 41.1841 17.5829 41.1745 17.5888C41.1649 17.5947 41.1568 17.6028 41.151 17.6124C41.1451 17.622 41.1416 17.6329 41.1408 17.6441C41.1408 17.6441 41.1153 19.0135 41.0286 20.8775C41.0248 20.9472 41.0121 21.1525 40.8799 21.1525C40.6525 21.1525 40.7069 20.7419 40.6606 17.69C40.6603 17.6733 40.656 17.6569 40.6481 17.6422C40.6401 17.6275 40.6288 17.6149 40.6149 17.6055C40.601 17.5961 40.5852 17.5902 40.5686 17.5883C40.552 17.5864 40.5351 17.5884 40.5195 17.5944C39.7457 17.8416 38.9926 18.1493 38.267 18.5145C38.1153 18.5906 37.978 18.6594 37.8535 18.716C37.7901 18.7521 37.5534 18.8753 37.4446 18.8095C37.43 18.7986 37.418 18.7848 37.4092 18.7689C37.4004 18.7529 37.3951 18.7353 37.3936 18.7172C37.3936 18.6641 37.4327 18.5978 37.6711 18.4656C40.5522 16.8651 40.624 17.2888 40.6291 16.8868C40.6852 16.2412 40.7677 13.7885 40.7966 13.4919C40.8251 13.2029 40.8688 13.1094 40.9666 13.1026C41.2216 13.1072 41.1047 13.8361 41.1561 16.7248C41.1561 16.7465 41.1561 17.0623 41.1638 17.0818C42.2112 17.4538 43.2119 17.9464 44.1452 18.5498C44.415 18.7347 44.4435 18.8175 44.4031 18.886L44.4023 18.8843Z" fill="#20262C"/>
</svg>
