<svg width="85" height="85" viewBox="0 0 85 85" fill="none" xmlns="http://www.w3.org/2000/svg">
<path fill-rule="evenodd" clip-rule="evenodd" d="M51.8428 53.0655C49.4522 52.2839 47.0437 51.5546 44.6195 50.8793C43.7007 50.6349 42.0695 50.2571 41.4847 50.1504C40.9038 50.0684 40.3142 50.0684 39.7333 50.1504C39.7202 50.1504 38.1268 50.3671 35.7387 50.7165C35.7673 50.8708 35.7951 51.0204 35.822 51.1657C37.0955 50.9579 38.5083 50.7263 40.0903 50.464C40.8877 50.3319 41.0455 50.3697 42.3415 50.6833C42.469 50.7144 42.6076 50.7479 42.7589 50.7841C45.518 51.4471 48.7288 52.4229 51.8037 53.4429C51.8156 53.3162 51.8284 53.1904 51.8428 53.0655ZM53.2759 62.1163C53.4833 62.84 53.6469 63.4287 53.658 63.526C53.6363 63.6339 53.5619 63.7028 53.3962 63.8549C53.2045 64.0313 52.8909 64.3203 52.3962 64.9128C52.2266 65.0768 52.1004 65.28 52.029 65.5048C52.0158 65.5588 52.026 65.6157 52.0358 65.6722C52.0485 65.7441 52.0613 65.815 52.0239 65.8754C51.8806 66.1079 51.244 66.583 50.3171 67.249C48.0187 68.2677 45.5664 69.3468 43.084 70.4373C40.6164 71.5211 36.6246 73.312 33.0098 74.9334L33.0097 74.9338C28.8099 76.8179 25.119 78.4737 24.9182 78.5272C24.6058 78.6109 24.4932 78.6092 24.4507 78.3079C24.4082 78.0066 24.4282 75.4783 24.4558 75.1846C24.4834 74.8909 24.4116 74.8289 24.3364 74.9066C23.9619 75.2947 23.8203 77.4362 23.7782 78.0737C23.7723 78.1617 23.7684 78.2208 23.766 78.2429C23.7373 78.5106 23.5631 78.3865 22.2092 77.4222C20.5197 76.219 16.993 73.7069 9.61949 69.0153C7.28688 67.5312 5.76852 66.5809 4.7781 65.9608C3.10455 64.9132 2.93841 64.8091 2.89837 64.6688C2.89395 64.6535 2.89107 64.6378 2.88788 64.6199C2.88645 64.6123 2.88496 64.6038 2.88323 64.5953C2.63775 63.6475 2.46568 62.6824 2.36856 61.7083C2.29971 61.1541 3.00691 61.5009 6.91139 63.4712C14.4496 67.2749 22.4723 72.4897 24.1676 73.5917C24.3422 73.7052 24.4496 73.7749 24.4826 73.7953C24.636 73.8896 41.7206 66.9009 53.2759 62.1163ZM2.35538 57.4978C4.53985 56.822 7.16868 56.1459 9.87759 55.5105C9.91571 55.6835 9.95209 55.8475 9.9866 56.0018C5.86198 56.9181 3.97797 57.4124 3.1065 57.641C2.50653 57.7983 2.3865 57.8297 2.34569 57.7868C2.33549 57.7757 2.33024 57.7604 2.32367 57.7409L2.32351 57.7405C2.29036 57.6423 2.25678 57.5284 2.35538 57.4978Z" fill="#20262C"/>
<path d="M18.759 38.655C18.708 38.3694 10.0984 39.732 9.81021 39.7787C9.01843 39.9062 9.01546 39.803 9.27938 41.2522C9.62236 43.1341 11.1919 52.6579 12.7359 56.8807C12.9008 57.3334 14.8724 56.4727 24.5845 54.7532C31.5847 53.5139 33.6633 53.3596 34.3293 53.1212C34.5966 52.9937 34.504 52.7259 34.4475 52.3179C33.6769 46.756 31.8626 38.3397 31.6085 37.5794C31.4844 37.2066 31.3008 37.3082 30.3925 37.3809C25.5599 37.7664 24.5275 37.9245 24.5386 38.0481C24.553 38.2241 24.4859 38.1489 28.8353 37.7693C30.2608 37.6452 30.8906 37.57 31.1728 37.5517C31.4181 37.536 31.4091 37.6686 31.4448 37.8531C31.7819 39.6049 32.7164 43.6819 34.2804 52.5466C34.2943 52.6265 34.301 52.7072 34.3004 52.7884C34.3004 53.0328 34.3493 52.9108 30.4933 53.5266C13.6339 56.2177 12.9884 57.0796 12.8664 56.6355C11.3474 51.1054 9.36906 40.5025 9.39243 40.1455C9.40433 39.9704 9.27343 40.0796 10.5969 39.8994C12.5243 39.6376 12.9552 39.5369 13.3551 39.4825C19.0238 38.712 18.7943 38.8548 18.759 38.655Z" fill="#20262C"/>
<path d="M31.1415 60.527C31.1508 60.527 32.5478 60.0434 32.6468 60.0149C32.578 59.958 29.6319 58.8028 29.4678 58.8555C29.0399 58.9928 26.5736 59.7429 26.4176 59.8037C26.5876 59.9422 26.0946 59.6175 29.039 61.1382C29.24 61.2423 29.0764 61.2376 31.1415 60.527Z" fill="#20262C"/>
<path d="M28.8031 61.3125C28.6964 61.2275 27.4474 60.6461 26.1341 60.001C25.9305 59.9007 26.0682 59.8705 23.2377 60.8722C23.2101 60.882 22.9198 60.9882 22.9126 61.0299C22.9054 61.0715 25.8664 62.3393 25.9807 62.3703C26.2918 62.2785 28.7564 61.3478 28.8031 61.3125Z" fill="#20262C"/>
<path d="M31.8719 59.467C32.8787 59.8665 32.9178 59.9554 33.1469 59.8606C33.6939 59.6324 36.5388 58.8329 36.433 58.7594C36.3786 58.722 33.9157 57.7645 33.6399 57.688C33.2574 57.7398 30.4405 58.5767 30.0635 58.6889C29.9165 58.7322 29.9832 58.7173 31.8719 59.467Z" fill="#20262C"/>
<path d="M25.6375 59.7629C23.3289 58.7064 23.3705 58.6736 23.1627 58.7357C22.4262 58.9546 20.036 59.6163 19.8834 59.7298C19.937 59.7931 22.5065 60.8972 22.5898 60.8972C22.6145 60.8943 22.6396 60.8977 22.6625 60.9074C23.5662 60.5058 24.4931 60.1586 25.4382 59.8679C25.6519 59.7935 25.6107 59.8046 25.6375 59.7629Z" fill="#20262C"/>
<path d="M39.3808 57.8521C39.6115 57.7768 39.8767 57.7148 39.7293 57.6595C36.8218 56.5754 37.2587 56.6935 36.7067 56.8406C35.9871 57.0322 34.4865 57.4245 34.0857 57.5495C34.2021 57.6736 35.308 58.0637 36.6234 58.6222C36.8703 58.7267 36.7844 58.6982 39.3808 57.8521Z" fill="#20262C"/>
<path d="M29.7653 58.5366C29.9591 58.4674 33.2503 57.5591 33.2682 57.5498C33.2231 57.5073 31.3935 56.8086 31.1007 56.7266C30.8614 56.7725 27.3926 57.5872 27.2268 57.6824C27.2978 57.7181 27.0968 57.6361 28.5796 58.1924C29.512 58.5434 29.5728 58.6051 29.7653 58.5366Z" fill="#20262C"/>
<path d="M19.6048 58.0783C18.8648 58.2538 17.1976 58.5326 17.8049 58.8705C17.9677 58.9614 19.3561 59.5339 19.6137 59.6215C22.0098 58.7783 22.7081 58.6771 22.9317 58.553C22.7889 58.4595 21.476 57.9453 21.1199 57.8025C20.8853 57.7081 20.8806 57.7761 19.6048 58.0783Z" fill="#20262C"/>
<path d="M26.6295 57.8188C26.2542 57.9246 23.7994 58.5362 23.8079 58.5693C23.8164 58.6025 23.8079 58.5812 25.0404 59.1533C26.0485 59.6208 26.0179 59.6739 26.2083 59.6102C28.1888 58.9484 29.0813 58.7912 29.1807 58.6752C29.1756 58.6769 26.8339 57.761 26.6295 57.8188Z" fill="#20262C"/>
<path d="M24.7544 56.8424C24.8181 56.8875 24.6966 56.8301 25.2189 57.009C26.726 57.5263 26.7489 57.573 27.0116 57.5012C27.2406 57.4387 30.5977 56.6329 30.681 56.5913C30.0674 56.3443 29.4417 56.1288 28.8063 55.9448C28.3384 56.0226 24.7905 56.8258 24.7544 56.8424Z" fill="#20262C"/>
<path d="M33.7704 57.4235C37.0429 56.5451 36.6391 56.6819 36.7653 56.608C36.7024 56.582 34.7385 55.8714 34.4533 55.9139C34.3756 55.9254 34.5774 55.8812 32.8927 56.2816C31.6126 56.5859 31.5642 56.5791 31.6483 56.6471C31.6568 56.6522 33.6743 57.449 33.7704 57.4235Z" fill="#20262C"/>
<path d="M32.6646 61.5252C34.8635 62.3268 34.784 62.3348 34.9995 62.2401C35.1882 62.1551 40.9708 60.2111 40.6584 59.9247C40.5286 59.8346 40.385 59.7661 40.2334 59.7219C38.615 59.0492 39.1284 59.2459 38.4484 59.0547C36.3994 59.6599 34.3899 60.3913 32.4317 61.2456C32.2544 61.3416 32.4767 61.4547 32.6646 61.5252ZM33.8155 60.8954C39.2487 58.8953 38.2027 59.1495 38.9129 59.4079C39.0221 59.4474 40.2623 59.9085 40.3524 59.9842C40.3273 60.005 34.7811 62.1279 34.773 62.1313C34.6242 62.0854 34.92 62.201 32.8397 61.3922C32.5549 61.28 32.7474 61.2885 33.8155 60.8954Z" fill="#20262C"/>
<path d="M41.2462 56.5587C39.8194 56.0241 39.9015 56.0219 39.7587 56.0581C38.9044 56.2757 37.7493 56.5379 37.5861 56.6352C37.7926 56.7296 39.1802 57.2417 39.8662 57.5434C40.1335 57.6616 40.1637 57.591 41.6584 57.0883C42.3193 56.8647 41.7404 56.7436 41.2462 56.5587Z" fill="#20262C"/>
<path d="M24.0498 57.0007C23.9257 57.0232 21.5763 57.5847 21.4573 57.6382C21.4709 57.6467 23.4331 58.4147 23.4416 58.4172C23.5589 58.3981 26.2279 57.7372 26.3031 57.6476C26.2296 57.5915 26.2513 57.6267 26.1828 57.6051C24.2431 56.9642 24.3307 56.9497 24.0498 57.0007Z" fill="#20262C"/>
<path d="M29.3776 55.8398C29.9947 56.0774 30.6235 56.2831 31.2616 56.4569C32.7491 56.1199 33.8116 55.8849 34.1941 55.7608C34.0764 55.7149 32.4516 55.2414 32.33 55.2083C32.2374 55.1798 29.4808 55.765 29.3776 55.8398Z" fill="#20262C"/>
<path d="M37.4674 55.2319C37.2264 55.2485 35.1112 55.7598 35.1023 55.7623C35.3306 55.8584 35.5652 55.9383 35.8044 56.0025C37.178 56.4776 37.1563 56.5337 37.4317 56.4602C37.9719 56.3161 39.4088 55.9825 39.5567 55.9221C38.9753 55.7313 37.6842 55.2923 37.4674 55.2319Z" fill="#20262C"/>
<path d="M37.0297 55.0798C36.438 54.8737 35.8301 54.7173 35.2124 54.6123C34.415 54.7313 33.6242 54.8911 32.843 55.0909C33.4965 55.3102 34.1627 55.4891 34.838 55.6272C35.7351 55.3718 37.3191 55.1648 37.0297 55.0798Z" fill="#20262C"/>
<path d="M10.6588 58.5743C10.6647 58.5879 10.6741 58.5994 10.686 58.6083C10.6978 58.6173 10.7118 58.6228 10.7265 58.6245C10.7411 58.6262 10.756 58.6241 10.7696 58.6185C10.7832 58.6126 10.7951 58.6036 10.8041 58.5917C10.9673 58.3716 11.1989 58.1808 11.2958 58.2581C11.3443 58.2968 11.2436 58.3236 10.9932 58.8421C10.8955 59.0444 10.8997 59.1145 11.1207 59.2416C16.3482 62.2166 22.1537 64.8941 27.5933 67.3591C27.8394 67.4704 27.8037 67.3323 27.8288 67.1253C27.924 66.328 27.9303 66.2753 28.0022 66.1661C28.074 66.0569 28.139 66.121 28.1641 66.2005C28.7034 67.9196 26.326 68.4105 36.2557 64.6884C49.463 59.7363 49.9492 59.9343 49.9866 58.9394C50.0172 58.5106 50.001 58.0796 49.939 57.6542C49.9177 57.596 49.8867 57.542 49.8472 57.4944C49.7775 57.3826 49.9079 57.4914 47.6499 58.364C45.714 59.1124 42.3421 60.2871 40.6965 60.8944C28.119 65.5367 28.3715 65.8486 27.9954 65.6816C21.9374 62.9812 20.7079 62.5217 16.3652 60.4057C16.2284 60.3389 12.2317 58.3848 12.1301 58.27C12.1926 58.2233 11.6537 58.3822 15.9615 57.4149C22.4742 55.9525 34.3415 54.0421 34.35 54.0404C36.6492 53.7518 35.4775 53.4951 37.9625 54.0829C45.7234 55.9185 49.6291 57.4383 49.65 57.3422C49.2866 57.1072 48.8939 56.9202 48.4825 56.7859C47.76 56.4952 44.5619 55.4544 43.2376 55.1182C38.4852 53.9116 36.3717 53.5729 36.3577 53.5559C36.3105 53.5002 35.489 47.1686 33.7873 39.8259C33.3448 37.9095 33.1498 36.6346 32.59 36.0821C32.3168 35.8126 31.8718 35.8066 30.5543 35.8963C28.3099 36.0485 22.4895 36.4934 22.3327 36.6677C22.0917 36.9354 22.7921 36.7603 25.7101 36.4786C25.7178 36.4786 29.9963 36.1917 31.5424 36.0663C32.4192 35.9953 32.5624 36.3111 32.7936 36.9006C32.9863 37.487 33.1375 38.0861 33.2462 38.6937C35.7019 49.8631 35.0967 47.8401 36.1197 53.4195C36.2047 53.8785 29.2801 54.0765 11.8165 58.1009C11.519 58.1697 11.621 58.5437 10.1411 52.3795C9.23458 48.6051 8.33528 44.177 7.90008 41.7142C7.65825 40.3465 7.4279 39.7592 8.06668 39.0337C8.40073 38.6537 8.61705 38.644 10.3787 38.3715C16.7643 37.3826 16.5484 37.5695 16.5697 37.4021C16.602 37.1471 16.8795 37.1309 11.0651 38.0252C8.85973 38.3652 7.9974 38.3686 7.31868 38.9848C6.36668 39.8497 6.55368 40.6661 6.94255 42.7507C7.4908 45.699 9.50658 55.8067 10.6588 58.5743Z" fill="#20262C"/>
<path d="M15.7281 25.2168C22.047 21.6544 20.4422 11.5938 11.9749 11.0269C11.317 11.0351 10.6626 11.1247 10.0267 11.2938C9.00366 11.5863 8.05379 12.0914 7.23911 12.7758C6.42442 13.4603 5.76325 14.3089 5.29868 15.2662C4.83412 16.2235 4.57665 17.268 4.54308 18.3316C4.5095 19.3951 4.70054 20.4538 5.10378 21.4385C5.50702 22.4232 6.11337 23.3118 6.88325 24.0463C7.6531 24.7809 8.56923 25.3448 9.5718 25.7013C10.5743 26.0579 11.6408 26.199 12.7016 26.1155C13.7624 26.032 14.7937 25.7257 15.7281 25.2168ZM13.4926 11.5271C15.1353 11.8867 16.605 12.7989 17.6563 14.1114C18.7076 15.4239 19.2769 17.0573 19.2692 18.7389C19.2947 24.929 11.4458 28.4748 6.68537 23.365C4.90037 21.447 4.90037 19.24 4.83067 18.3692C4.85392 17.3148 5.10977 16.2787 5.57995 15.3347C6.05017 14.3907 6.72307 13.5623 7.55063 12.9086C8.37819 12.2549 9.33992 11.7921 10.3671 11.5533C11.3943 11.3145 12.4615 11.3055 13.4926 11.5271Z" fill="#20262C"/>
<path d="M13.6172 19.8168V18.2858H14.3205V16.6631H12.6979V20.6609H11.1406V15.0077L13.9619 15C15.048 14.997 15.9301 15.8767 15.9301 16.9629V19.8168H13.6172Z" fill="#20262C"/>
<path d="M10.3359 18.2563V19.8201H9.55724V21.41H12.6979V23H9.63575C8.73235 23 8 22.2676 8 21.3642V18.2563H10.3359Z" fill="#20262C"/>
<path d="M22.1708 13.3263C22.4628 13.3123 23.3562 12.6195 25.5067 11.4346C26.2552 10.9997 27.0281 10.6082 27.8216 10.262C27.8714 10.234 27.8216 10.0844 27.6742 10.1192C26.6614 10.3581 21.3854 12.9536 22.1708 13.3263Z" fill="#20262C"/>
<path d="M23.1533 20.3112C23.3807 20.4948 24.138 20.4727 26.7326 21.086C28.2584 21.4464 28.8364 21.6721 29.0782 21.7294C29.3081 21.7843 29.3188 21.6113 29.1955 21.5573C28.3621 21.1901 22.8532 19.607 23.1533 20.3112Z" fill="#20262C"/>
<path d="M10.1793 8.42714C10.257 8.95924 10.5864 8.71996 10.5193 8.12964C10.3728 6.56015 10.0224 5.01647 9.47717 3.53752C9.30079 3.12059 9.20644 3.14524 9.31227 3.58342C9.43467 4.08449 9.72792 5.33739 10.1793 8.42714Z" fill="#20262C"/>
<path d="M23.156 29.9045C21.708 28.162 20.266 26.0162 19.9685 26.0681C19.7921 26.0757 19.8155 26.1318 19.8992 26.2665C20.3502 26.9924 22.9592 29.95 23.1118 30.1272C23.2525 30.2896 23.2861 30.1829 23.2929 30.1549C23.3086 30.0979 23.2155 29.9764 23.156 29.9045Z" fill="#20262C"/>
<path d="M17.6745 9.07042C17.8292 8.9034 19.7425 4.27642 19.7217 3.92793C19.7217 3.9037 19.6333 3.86928 19.601 3.9496C19.1416 5.08392 17.4522 8.35387 17.4433 9.0071C17.4411 9.16775 17.6043 9.14607 17.6745 9.07042Z" fill="#20262C"/>
<path d="M20.0886 36.1511C19.1077 36.3071 19.6253 36.5863 19.0652 34.1579C19.0342 34.0236 18.9611 33.942 18.8493 33.942C17.4965 33.9399 17.8918 34.3364 17.689 33.4239C17.6789 33.3067 17.6406 33.1937 17.5773 33.0945C17.5403 33.0499 17.4923 33.0095 17.4349 33.0321C17.3129 33.0746 17.2691 33.086 17.2815 33.2446C17.301 33.5072 17.4005 33.9696 17.4162 34.1005C17.1705 34.1601 16.922 34.2072 16.6716 34.2416C16.4935 34.2658 16.5568 34.0291 16.066 31.7911C15.2389 28.0149 15.2661 28.3962 14.9529 28.3983C13.9167 28.4059 14.2053 28.774 13.8993 27.3141C13.8898 27.1706 13.8494 27.0308 13.7807 26.9044C13.7149 26.8305 13.5984 26.8657 13.5364 26.9163C13.4033 27.0251 13.5177 27.1917 13.5789 27.5003C13.7892 28.5288 13.8764 28.5203 13.6184 28.5802C12.7841 28.7761 12.7718 28.7277 12.759 28.9814C12.9686 30.0656 13.6864 33.6194 13.9775 34.5969C14.0251 34.7559 14.0136 34.8944 14.36 34.8302C15.3137 34.6488 15.0625 34.4817 15.315 35.7402C15.3554 35.942 15.4 36.0653 15.4561 36.0564C15.5768 36.0368 15.7141 36.0054 15.706 35.9386C15.5755 34.8392 15.3609 34.6896 15.567 34.6432C15.8202 34.6093 16.0709 34.5589 16.3176 34.4924C16.5619 34.404 16.3924 35.1813 16.9015 36.6866C16.9682 36.8843 17.0171 36.8664 17.2806 36.8362C17.8429 36.7716 17.9134 36.7249 17.9479 36.8762C18.0732 37.4253 18.0856 37.4865 18.1425 37.5677C18.2424 37.7109 18.3712 37.495 18.3635 37.353C18.3325 36.7942 18.1663 36.7257 18.4485 36.6858C19.548 36.529 19.1476 36.3658 19.4133 37.5966C19.644 38.6659 19.528 37.9663 19.7958 39.0713C19.8438 39.2689 19.9424 39.4657 20.1434 39.4266C20.69 39.3199 20.7354 39.3297 20.7673 39.4508C20.7992 39.6899 20.8866 39.9183 21.0223 40.1177C21.1073 40.2027 21.1923 40.1772 21.2017 39.9795C21.2331 39.2031 20.6602 39.3051 21.8613 39.1572C22.1056 39.127 22.0253 40.1942 22.9195 43.6124C22.9671 43.7948 23.1006 43.7871 23.557 43.6974C23.8766 43.6337 23.8018 43.6634 23.8715 43.941C23.9135 44.1883 23.9761 44.4318 24.0585 44.669C24.1516 44.8241 24.2812 44.6915 24.3135 44.6516C24.2881 44.3447 24.2399 44.04 24.1694 43.7399C24.1537 43.6549 24.217 43.6307 24.3394 43.6099C25.0326 43.4934 25.124 43.4216 25.1644 43.7952C25.186 43.9962 25.6319 46.1221 25.6931 46.3146C25.9268 47.0745 25.5456 46.9908 26.5269 46.9049C26.6854 46.8913 26.682 46.8752 26.7454 47.1846C26.8015 47.4557 26.9647 47.8518 27.079 47.6015C27.164 47.4183 27.1024 47.2462 27.0743 46.9483C27.0645 46.8458 27.0917 46.8633 27.719 46.7324C27.9498 46.6835 27.8176 46.8208 28.0097 47.8374C28.6183 51.0576 28.6077 50.7541 29.0616 50.7146C29.4569 50.6802 29.5202 50.6572 29.5346 50.7571C29.5491 50.857 29.606 51.208 29.6898 51.5769C29.7446 51.7044 29.9932 51.6619 30.0183 51.5259C30.0032 51.2603 29.9605 50.9968 29.8908 50.7401C29.8657 50.6092 29.799 50.6054 30.5954 50.5008C30.7429 50.4817 30.7068 50.6679 30.734 50.8247C30.7943 51.3508 30.9083 51.8693 31.074 52.3725C31.1811 52.6224 32.7659 52.245 33.0507 52.1847C33.1216 52.1694 33.1839 52.1273 33.2245 52.0674C33.2651 52.007 33.2808 51.9335 33.2683 51.8621C32.9108 49.7881 32.8798 49.8757 32.6431 49.9037C31.7374 50.0117 31.9992 50.0886 31.8641 49.6194C31.8216 49.4677 31.7417 49.2033 31.6014 49.2858C31.3626 49.4256 31.7748 50.0274 31.5555 50.0682C30.3434 50.2934 31.2844 50.667 30.1624 46.3443C30.0884 46.0583 29.8555 46.1633 29.235 46.2283C28.9014 46.2632 29.2116 45.5747 28.8716 45.5993C28.7773 45.6061 28.7412 45.6393 28.7441 45.7502C28.7552 46.3975 28.9898 46.2904 28.0964 46.4111C27.8295 46.4468 28.0658 46.3027 27.4492 43.5262C27.2864 42.793 27.4028 43.0094 26.3314 43.0255C26.1924 43.0255 26.2991 42.9656 26.113 42.2274C26.0976 42.1966 26.0747 42.1702 26.0464 42.1506C26.0181 42.1311 25.9852 42.1191 25.951 42.1156C25.883 42.1156 25.807 42.2248 25.838 42.3659C25.9935 43.0812 26.0314 43.071 25.8962 43.0982C25.3611 43.2061 25.2081 43.2877 25.2081 43.0264C25.2081 42.5261 24.7037 40.2639 24.5511 39.5443C24.3586 38.6395 24.3841 38.5571 24.2506 38.5588C23.0253 38.5745 23.3156 38.8873 23.1983 38.2009C23.1825 38.0995 23.1567 37.9998 23.1214 37.9034C23.0768 37.7878 22.9692 37.7814 22.9004 37.8834C22.7351 38.1287 23.0746 38.6765 22.8944 38.7177C21.6959 38.9914 22.5336 39.0964 21.6067 36.1639C21.5251 35.9055 21.3666 35.9544 20.8986 36.0096C20.6309 36.0411 20.5501 36.1006 20.5319 35.9811C20.5107 35.7541 20.4636 35.5303 20.3916 35.3139C20.2939 35.1184 19.9832 35.2442 20.0457 35.5642C20.1426 36.0619 20.2038 36.1329 20.0886 36.1511Z" fill="#20262C"/>
<path d="M18.0231 44.4847C18.6071 44.3572 18.8574 44.3755 18.0656 43.7197C16.9518 42.7775 15.7898 41.8936 14.5845 41.0716C14.2513 40.8548 12.4225 44.7057 12.2652 45.2553C12.1586 45.6271 12.8981 45.4652 13.4327 45.3687C13.6546 45.3284 13.7 45.2944 13.7727 45.6038C15.1599 51.6834 14.9045 52.4828 15.3316 52.6868C16.6419 52.496 17.2322 52.3693 17.8995 52.2393C18.8251 52.0587 18.7099 52.224 18.4945 51.079C17.4413 45.5153 17.5416 45.928 17.2161 44.764C17.1744 44.6322 17.1748 44.6675 18.0231 44.4847Z" fill="#20262C"/>
<path d="M80.4031 43.5201C79.8553 42.41 79.0729 41.4321 78.1107 40.6534C77.9198 40.4872 78.3963 40.1957 77.9143 37.8353C77.7209 36.9405 77.355 36.0921 76.8369 35.3375C74.8084 32.1636 73.7132 31.6681 74.1123 29.3786C75.6172 20.7481 69.6923 14.5461 63.7563 15.5104C62.6878 15.6843 62.6555 15.8504 62.5004 15.7399C57.8679 12.4249 53.289 19.3478 53.5363 24.7682C53.5482 25.0232 53.6638 25.0627 54.7174 25.1401C54.8309 25.1482 54.7535 24.9034 54.8725 28.5035C55.0383 33.5253 54.1534 32.9716 52.7726 36.1132C52.1721 37.4791 52.4203 37.5386 52.2379 37.5658C51.589 37.6606 50.9519 37.8241 50.3378 38.0537C49.9429 38.2033 50.3191 38.2305 49.2447 34.9937C48.6535 33.2142 47.5872 30.5184 46.3857 29.0722C46.0066 28.6166 45.5416 28.022 44.9832 27.9706C44.6746 27.9421 44.5114 27.9506 44.4995 27.8771C44.355 27.0071 44.0618 26.9174 44.202 26.7496C44.5811 26.2809 44.8561 25.7371 45.0095 25.1541C45.0559 24.9644 45.035 24.7646 44.9513 24.5883C44.8676 24.412 44.7256 24.2699 44.5493 24.186C43.8807 23.8723 43.6487 24.271 43.6593 23.9849C43.7018 22.7571 42.9793 22.5578 42.4289 23.1141C42.3333 23.211 42.3367 23.2212 42.2164 23.1677C42.0575 23.0948 41.877 23.0841 41.7106 23.1376C41.5441 23.1912 41.4038 23.3052 41.3171 23.4571C41.1756 23.7146 41.2181 23.7916 41.0528 23.8073C40.9709 23.806 40.8897 23.8217 40.8141 23.8533C40.7386 23.8848 40.6704 23.9317 40.6138 23.9909C40.5572 24.05 40.5134 24.1202 40.4851 24.1971C40.4569 24.274 40.4449 24.3558 40.4497 24.4376C40.454 24.6794 40.1522 24.4104 39.8619 24.8545C39.6454 25.3294 39.6038 25.8656 39.7442 26.3683C39.9044 27.3063 40.5186 27.8558 41.3715 28.3131C41.5284 28.3981 41.3966 28.3284 41.3108 28.8758C41.2793 29.0756 41.2572 28.9136 40.5691 29.5741C40.1271 29.9991 40.0022 30.7603 39.8704 31.4823C38.8929 36.8344 39.5419 41.0045 41.3031 45.1117C42.3231 47.4917 43.3673 48.4828 46.2089 49.1152C48.1881 49.5555 50.4415 49.4781 52.4513 49.3077C52.7377 49.2835 51.6357 52.244 51.7581 55.0499C51.8002 56.4056 52.0135 57.7507 52.3922 59.0529C52.5537 59.6526 53.6298 63.2715 53.6583 63.5261C53.6115 63.759 53.3183 63.8091 52.3965 64.9128C52.2269 65.0769 52.1007 65.28 52.0293 65.5049C51.9991 65.6277 52.0905 65.768 52.0242 65.8755C51.4219 66.853 41.3907 72.5242 38.887 78.498C38.856 78.5724 38.8543 78.8023 38.9626 78.7075C39.723 78.0402 39.7888 75.3075 49.7891 68.0702C50.6922 67.4692 51.5499 66.8037 52.3561 66.0778C52.5308 65.9596 54.4492 68.5079 59.1561 70.1119C69.1959 73.5331 79.0274 69.0035 78.956 69.4999C78.6445 71.6674 78.2165 73.0363 76.1654 75.6041C72.1407 80.6434 69.1682 81.3446 69.269 81.4691C69.4292 81.6659 72.9465 79.9613 75.4459 77.0105C77.6253 74.4375 78.9012 72.9028 79.293 69.6112C79.3398 69.2202 79.3024 69.2869 79.6543 69.2032C79.783 69.1565 79.8978 69.0779 79.9879 68.975C80.123 68.8607 80.0232 66.51 79.7116 64.8414C79.4362 63.3658 79.2947 64.4003 80.5757 62.7407C81.4099 61.5885 82.0228 60.2914 82.3832 58.9157C82.6186 57.8595 82.7823 56.7885 82.8719 55.7099C82.8936 52.0103 82.7181 48.0642 80.4031 43.5201ZM73.5411 42.585C73.9661 41.9174 74.3486 41.1872 75.2734 40.7711C75.6197 40.5818 76.0086 40.4826 76.4034 40.4826C78.1859 40.4753 79.9309 43.3301 79.8668 43.5115C78.0427 43.3415 76.2028 43.4521 74.4123 43.8392C73.7676 44.0058 73.1424 44.2404 72.5474 44.5401C72.819 43.8605 73.1518 43.2073 73.5411 42.5876V42.585ZM71.9261 46.1512C71.9762 45.9787 72.2843 45.1372 72.2843 45.1372C72.2933 45.0819 72.3158 45.0301 72.3506 44.9863C72.3851 44.9425 72.4301 44.9085 72.4815 44.8868C75.4565 43.2956 79.919 43.8188 79.9284 43.8184C80.4405 43.8129 81.6386 48.0395 81.6411 48.048C81.6815 48.1806 81.653 48.0408 80.1158 47.9311C77.8582 47.7845 75.5955 48.1266 73.4824 48.9345C72.6456 49.2864 71.8725 49.7748 71.1955 50.3796C71.1275 50.2321 71.3149 48.2635 71.9273 46.155L71.9261 46.1512ZM57.9839 25.1792C58.2402 25.167 58.4935 25.1167 58.7349 25.03C58.9742 24.9412 58.8875 22.5446 60.1408 21.0686C60.1497 21.0595 60.1612 21.0532 60.1735 21.0505C60.1859 21.0478 60.199 21.0487 60.2109 21.0532C60.2228 21.0577 60.233 21.0656 60.2407 21.0758C60.2483 21.0861 60.2526 21.0984 60.2534 21.1111C60.1816 22.3487 60.1956 23.5899 60.2959 24.8256C60.3618 25.3262 64.4427 25.8783 64.8749 25.9331C67.1992 26.2306 67.6268 28.4406 66.1125 29.1385C65.2927 29.5167 67.141 30.49 68.0883 29.1023C68.6884 28.223 68.6463 26.3356 69.7071 26.3862C69.9269 26.3645 70.1479 26.413 70.3378 26.5248C70.5282 26.6366 70.6783 26.8059 70.7662 27.0084C70.9728 27.4219 71.0888 27.8749 71.1062 28.3369C71.0484 30.3701 69.5886 30.4352 69.0161 30.1083C68.7658 29.9651 68.6595 30.0531 67.9319 30.7798C64.3126 34.3923 64.7516 41.3041 64.126 41.5842C62.5416 42.2944 59.2266 41.7265 62.1171 38.0499C62.2271 37.9096 62.2722 37.8701 62.1638 36.6635C62.1447 36.4928 62.1137 36.3236 62.0703 36.1573C61.9211 35.5258 57.2814 38.0584 56.8747 25.3662C56.8683 25.1601 56.8156 25.248 57.9839 25.1792ZM56.9533 63.8146C56.6439 63.5333 56.9958 63.3046 56.9958 62.9043C56.9958 62.5473 56.757 62.5192 56.6622 62.4219C56.6027 62.3743 56.5581 62.3114 56.5326 62.24C56.5066 62.1686 56.5015 62.0913 56.5173 62.0169C56.6975 61.2209 57.3813 61.4984 58.0473 61.2128C58.2457 61.1278 58.1182 61.022 57.9712 60.2119C57.8828 59.8503 57.9304 59.469 58.1046 59.1401C58.2372 59.3071 58.5942 60.8269 59.3456 61.0101C59.4774 61.0424 59.5156 61.0033 59.8301 60.8707C60.998 60.3756 61.6751 65.4228 60.5216 65.501C59.9279 65.5916 59.324 65.5975 58.7285 65.5181C58.2279 65.4666 57.6393 65.3634 57.465 64.9923C57.4319 64.9201 57.4132 64.8419 57.411 64.7624C57.4085 64.6829 57.4225 64.6034 57.4514 64.5295C57.513 64.1653 57.3056 64.1355 56.9533 63.8146ZM60.1582 65.9201C60.3945 65.8916 60.6279 65.8427 60.8557 65.7739C61.4932 65.674 61.9313 62.3896 60.7796 60.9017C60.2726 60.2464 59.5896 60.6586 59.7405 60.4848C60.429 59.7504 61.2632 59.1686 62.1902 58.7767C62.2977 58.7215 62.3049 58.7253 62.3759 58.8243C62.7176 59.3033 62.9994 59.8222 63.2153 60.3696C64.2285 62.8958 63.8417 64.6081 62.9097 67.0421C62.8829 67.1122 62.8447 67.1696 62.6453 67.1071C61.8442 66.8602 60.6364 66.5045 60.131 66.023C60.0834 65.9775 60.0975 65.9176 60.1582 65.9201ZM64.1698 63.0369C64.0976 61.4636 63.5591 59.9472 62.6228 58.6807C62.5489 58.5923 62.4562 58.6207 63.5761 58.1486C64.7682 57.653 65.9897 57.2318 67.2341 56.8884C67.2668 56.8778 67.3016 56.8774 67.3348 56.8863C67.3679 56.8957 67.3977 56.9144 67.4202 56.9403C69.7577 59.0717 69.7577 63.4513 69.762 63.4521C69.7207 64.7212 69.5091 65.9792 69.1334 67.1921C69.099 67.3107 69.0667 67.2771 68.2298 67.3749C67.3029 67.5283 66.3598 67.5593 65.4248 67.4667C64.6807 67.4242 63.939 67.343 63.2029 67.224C62.9547 67.1619 64.2374 65.544 64.1698 63.0369ZM68.7369 58.1345C67.7487 56.5106 67.186 56.8833 68.5384 56.5365C68.7887 56.4723 69.9834 56.1999 70.9086 55.9708C71.2146 56.0452 71.5074 56.1642 71.7786 56.3244C73.8186 57.4158 74.5555 58.3883 76.0605 60.7542C76.7558 61.9489 77.3393 63.2048 77.803 64.507C77.9504 64.8806 73.6269 66.635 69.5393 67.2117C69.3727 67.2355 69.4751 67.1692 69.6889 66.3319C69.6872 66.3744 71.028 61.8979 68.7369 58.1345ZM61.7371 38.0562C61.1986 38.6709 60.8255 39.4126 60.6529 40.2114C60.3482 42.0508 62.6203 42.5791 64.0908 41.8171C64.2416 41.7389 64.1668 41.789 63.7465 43.8345C63.7312 43.9076 63.7406 43.9161 62.7915 43.9888C60.454 44.1677 59.2381 43.727 58.0434 42.8804C57.6818 42.6101 57.3469 42.3064 57.0426 41.9731C56.3626 41.3288 58.0434 44.6174 62.1192 44.3399C62.6088 44.3352 63.0971 44.2914 63.5795 44.2081C63.6513 44.1954 63.7044 44.1389 63.517 44.8529C63.421 45.2179 63.6687 45.3671 64.5179 45.7526C64.8855 45.9196 67.5299 46.9804 67.5851 46.3688C67.6157 45.3463 67.7487 44.3292 67.9825 43.333C68.8078 45.4801 68.3157 47.4509 68.1733 48.4207C68.1712 48.4581 68.1567 48.4934 68.1325 48.5214C68.1079 48.5495 68.0747 48.5686 68.0382 48.5758C63.3083 50.1271 58.9181 49.9783 55.2129 46.6808C54.8797 46.3833 54.5712 46.0679 54.2503 45.7636C54.2138 45.7347 54.1874 45.6948 54.1759 45.6493C54.164 45.6043 54.1679 45.5562 54.1861 45.5133C54.6239 44.1656 55.3026 42.8685 55.2444 42.6777C55.221 42.687 55.1896 42.6883 55.176 42.7062C55.1092 42.7835 55.0502 42.8672 54.9992 42.9561C53.1984 46.6599 53.1644 47.6766 52.9252 47.9711C52.6753 46.7926 52.6255 45.58 52.7773 44.3849C53.0522 40.8914 53.7934 39.596 54.5737 37.8637C54.7824 37.4047 61.2934 37.8675 61.7371 38.0562ZM42.8926 23.1813C43.236 22.9904 43.3512 23.6819 43.3291 24.0589C43.318 24.2408 43.2951 24.1145 42.8025 24.3415C42.6856 24.3955 42.7052 24.3092 42.7026 24.1405C42.6941 23.6305 42.5025 23.5272 42.6176 23.401C42.6967 23.3127 42.7898 23.2378 42.8926 23.1791V23.1813ZM41.6274 23.6594C41.78 23.4601 42.1531 23.3581 42.2946 23.6709C42.5237 24.177 42.321 25.3199 42.0188 25.554C42.0352 25.0683 41.9466 24.5846 41.7591 24.1362C41.6108 23.8472 41.3796 23.9815 41.6274 23.6573V23.6594ZM40.7736 24.3394C40.8055 24.2682 40.858 24.2083 40.9242 24.1672C40.9905 24.126 41.0675 24.1057 41.1454 24.1086C41.5624 24.1252 41.7545 24.9425 41.7077 25.6339C41.6733 25.8464 41.6359 25.7423 41.5802 25.8082C41.5645 25.7899 41.5377 25.7746 41.533 25.7538C41.1675 24.6037 40.5917 24.8974 40.7736 24.3394ZM40.1998 26.7848C40.0398 26.3815 39.9673 25.9488 39.9873 25.5154C40.0128 25.0028 40.2708 24.6773 40.6898 25.0385C40.8838 25.2023 41.0405 25.4056 41.1493 25.6349C41.2582 25.8642 41.3167 26.1141 41.321 26.3679C41.321 26.4159 41.1272 26.5668 40.89 26.2901C40.8292 26.2192 40.7549 26.07 40.6639 26.0776C40.4603 26.0946 40.5462 26.2736 40.6737 26.4346C41.1837 27.0789 41.6087 26.6072 42.3002 27.0233C42.4587 27.1189 42.5747 27.2783 42.6287 27.2591C42.7838 27.2069 42.5841 26.4907 41.7013 26.4771C41.6537 26.4771 41.6223 26.4589 41.6236 26.4036C41.5985 25.9863 41.7464 26.3046 41.9058 25.9382C41.9874 25.7499 42.103 25.9744 42.301 25.7321C42.5624 25.4125 42.451 25.1754 42.6019 25.2587C42.6746 25.3113 42.7575 25.3482 42.8454 25.3671C42.9334 25.3859 43.0239 25.3862 43.1119 25.3679C42.8569 25.5995 42.6363 26.3029 42.842 26.5303C42.8446 26.5335 42.848 26.5362 42.8518 26.5379C42.8556 26.5396 42.8599 26.5403 42.8641 26.5401C42.868 26.5399 42.8722 26.5386 42.8756 26.5364C42.8794 26.5342 42.8824 26.5313 42.8845 26.5277C43.0507 26.2727 42.9236 25.9034 43.5356 25.4078C43.7158 25.2621 43.9445 25.2204 43.8412 25.0143C43.7184 24.7691 43.4115 25.3118 42.746 25.0198C42.5233 24.9221 42.8051 24.6624 43.2173 24.5196C43.9891 24.2518 44.2573 24.3364 44.3754 24.3819C44.7975 24.5447 44.8451 24.9663 44.4532 25.7164C43.7613 27.0415 43.712 26.5281 44.2615 27.8767C44.2815 27.9255 44.2615 27.9357 44.2212 27.9417C42.12 28.2519 41.5976 28.9515 41.621 28.6922C41.6635 28.2332 41.7409 28.1223 41.5165 27.9808C40.8054 27.5324 40.4149 27.331 40.1998 26.7848ZM40.4008 30.5852C40.7221 29.0917 44.5701 27.7177 45.3806 28.5027C46.1328 29.2321 46.7542 30.0852 47.2174 31.0251C47.373 31.2962 46.9055 30.9061 44.698 31.734C42.9249 32.4189 41.3045 33.4468 39.9291 34.7587C40.0008 33.3592 40.1583 31.9654 40.4008 30.5852ZM40.675 42.0632C40.1379 40.08 39.8664 38.0343 39.8675 35.9797C39.8675 35.3957 39.8156 35.3167 40.0451 35.08C42.3716 32.6783 47.1617 30.8266 47.4159 31.4169C48.7236 34.4552 48.9459 35.3035 49.0122 35.44C49.0487 35.5143 49.0547 35.5084 48.5477 35.6826C45.6377 36.6827 42.706 39.5786 41.2202 42.0215C40.7574 42.7852 40.8989 42.8468 40.675 42.0632ZM45.5676 48.4755C43.1485 47.8291 42.5029 47.1296 41.0014 43.1231C40.896 42.8426 42.8195 40.1791 44.5097 38.5361C45.6521 37.3641 47.0317 36.4497 48.5557 35.8539C48.7194 35.7715 48.8919 35.7074 49.0696 35.6627C49.1652 35.8161 50.0118 38.3308 49.8975 38.4651C45.5238 43.605 45.9233 48.5707 45.5676 48.4755ZM52.2979 48.9431C48.6883 49.0612 47.8111 48.9091 46.1813 48.6069C45.6033 48.5002 47.047 42.0053 50.0828 38.5539C50.3637 38.2343 53.0684 37.8153 54.3595 37.7358C54.6298 37.7192 52.7292 40.1796 52.4262 44.7198C52.3642 45.5753 52.3888 46.4347 52.4997 47.2851C52.7841 48.6507 53.0552 47.5252 52.6765 48.824C52.6345 48.9694 52.5499 48.9363 52.2979 48.9443V48.9431ZM54.0119 46.0348C54.1428 45.7016 53.9809 45.9638 55.3162 47.1015C57.383 48.8627 60.463 50.1416 63.2068 49.8538C66.7096 49.4866 68.0152 48.7348 68.0581 48.8279C68.1308 48.986 67.8125 49.3268 68.1699 49.4203C68.8299 49.6235 69.5159 49.7289 70.2065 49.7331C70.969 49.7093 70.623 49.2325 70.674 51.8097C70.6821 52.2266 70.674 51.6163 70.759 53.5471C70.7658 53.6954 70.8058 53.6618 69.0076 54.1973C65.7874 55.157 62.3691 55.375 62.3648 55.2717C57.1305 55.2717 52.5537 51.9661 52.4751 51.7413C52.4109 51.5653 53.3077 47.8287 54.0119 46.036V46.0348ZM54.5104 53.3873C60.0354 56.5378 64.4482 55.8722 70.3918 54.0545C71.1058 53.8361 70.5801 53.6499 70.994 55.5356C71.0497 55.7906 71.0289 55.6317 69.2541 56.0456C58.5173 58.548 59.5156 60.883 59.2135 60.4376C58.9202 60.0423 58.6996 59.5987 58.5619 59.1265C58.3541 58.5761 57.972 58.6398 57.76 58.9165C57.4268 59.3504 57.5691 60.084 57.6414 60.4818C57.706 60.8379 57.7897 60.9068 57.5849 60.9119C57.4251 60.9174 57.2665 60.8872 57.1199 60.8235C55.6214 60.1754 54.122 59.5727 52.8066 58.1724C52.2027 57.5978 52.1385 53.7545 52.3761 52.2126C52.3761 51.7625 52.4547 52.2147 54.5104 53.3864V53.3873ZM79.6776 68.7565C79.6776 68.9389 79.7737 68.8896 78.6266 69.202C76.2207 69.8926 73.7676 70.4077 71.2873 70.7438C64.4711 71.4404 57.6533 70.5152 52.5941 65.8172C52.3064 65.5503 52.2341 65.5172 53.6489 64.1228C53.8189 63.9528 53.8687 64.0016 54 64.0378C54.5703 64.3433 55.1602 64.6111 55.7659 64.8393C55.8135 64.8508 55.9784 64.7896 55.9082 64.7169C55.881 64.6889 54.8224 64.0794 54.1037 63.5444C54.0476 63.5019 52.5571 58.2901 52.7692 58.4826C54.187 59.9603 55.1709 60.2124 56.7408 61.019C56.7247 61.0381 56.7115 61.0645 56.6907 61.0738C56.1275 61.3288 55.8568 62.2213 56.2368 62.651C56.4297 62.8677 56.5844 62.8503 56.5296 62.9846C56.4352 63.1542 56.3804 63.3433 56.3694 63.5371C56.3634 63.6935 56.4 63.8491 56.4752 63.9863C56.5504 64.1236 56.6618 64.2379 56.7973 64.317C57.1701 64.5346 56.7072 64.745 57.1412 65.3621C57.4569 65.8113 58.0966 65.8534 58.624 65.9146C59.4795 66.014 59.7184 65.8636 59.7915 66.0319C60.086 66.7119 61.48 67.1696 62.1936 67.3664C63.2595 67.6567 64.3547 67.8249 65.4584 67.867C67.2188 68.037 71.269 67.442 72.8959 66.9745C78.8009 65.2745 79.1774 63.8253 79.2611 64.2154C79.5778 65.7072 79.7172 67.2312 79.6776 68.7557V68.7565ZM78.2365 64.3502C77.7545 64.6553 78.1799 63.8299 76.3265 60.6157C73.5963 55.8807 71.2469 56.123 71.2393 55.664C71.2393 55.6551 71.2142 54.6223 71.2082 54.5849C71.1581 54.2776 73.4794 53.553 75.3307 53.5139C76.876 53.5921 78.4001 53.9066 79.8502 54.4464C80.7248 54.7303 81.5659 55.1098 82.3577 55.5773C82.5222 55.7601 82.1881 61.8482 78.2365 64.3493V64.3502ZM82.4248 54.5088C82.3955 55.2003 82.4835 55.2904 82.3224 55.2071C79.2378 53.6117 76.1136 52.6448 72.7629 53.5666C71.2435 53.9844 71.2125 54.2815 71.2023 54.0766C71.0574 51.1399 71.1547 51.3409 71.1564 50.8789C71.1568 50.8339 71.1683 50.7897 71.1895 50.7502C71.2112 50.7106 71.2418 50.677 71.2792 50.652C74.2814 48.2333 77.7277 47.9426 81.6424 48.3612C81.6671 48.3604 81.6917 48.3685 81.7108 48.3842C81.7304 48.3999 81.7431 48.4216 81.7478 48.4462C82.172 50.4395 82.3989 52.4701 82.4248 54.508V54.5088Z" fill="#20262C"/>
<path d="M60.5697 32.2398C60.7129 32.4089 60.8978 32.538 61.106 32.6144C61.3139 32.6908 61.5383 32.712 61.7571 32.6758C63.206 32.4956 63.6182 31.3621 63.707 31.6324C64.648 34.4914 61.0584 34.375 61.4035 34.6542C61.5616 34.731 61.7342 34.7737 61.9101 34.7796C62.0857 34.7854 62.2608 34.7543 62.4235 34.6882C64.2408 34.1926 64.5528 32.5844 63.863 31.3405C63.6114 30.887 63.5294 31.8411 62.0355 32.2521C61.8124 32.3151 61.5782 32.3321 61.3483 32.3021C61.1184 32.2722 60.8965 32.1958 60.6968 32.0778C60.5965 32.0383 60.5314 32.1773 60.5697 32.2398Z" fill="#20262C"/>
<path d="M60.3192 30.6671C60.5517 30.5663 60.7017 30.2191 60.4242 30.3534C60.2861 30.421 60.1624 30.407 59.8964 30.2684C59.4998 30.0636 59.6227 29.9101 59.9533 29.0657C60.0481 28.823 60.241 27.9959 60.0081 27.9815C59.8262 27.97 59.904 28.2943 59.6256 28.857C59.4123 29.1981 59.2797 29.5835 59.238 29.9837C59.1858 30.4541 59.8768 30.8587 60.3192 30.6671Z" fill="#20262C"/>
<path d="M57.6254 26.7791C57.7091 26.6368 57.8068 26.5033 57.9173 26.3806C58.111 26.2137 58.3022 25.9945 58.6042 26.1797C58.7316 26.2001 58.583 25.8237 58.2699 25.8399C58.1135 25.8522 57.9632 25.9036 57.8319 25.9894C57.7006 26.0752 57.5932 26.1927 57.5192 26.3309C57.3068 26.6895 57.5048 26.9121 57.6254 26.7791Z" fill="#20262C"/>
<path d="M61.2536 26.5786C62.4619 25.9292 62.1712 26.6148 62.4338 26.6322C62.4406 26.625 62.4457 26.6166 62.4487 26.6074C62.4521 26.5981 62.4534 26.5884 62.4529 26.5786C62.3786 26.2667 62.368 26.0431 61.9668 25.9836C61.705 25.9836 61.1593 26.1638 61.0942 26.4371C61.0879 26.4643 61.1316 26.6441 61.2536 26.5786Z" fill="#20262C"/>
<path d="M58.1017 28.1507C58.1119 28.926 58.8541 28.948 58.6115 28.0508C58.5223 27.7102 58.0975 27.7271 58.1017 28.1507Z" fill="#20262C"/>
<path d="M61.6673 27.7488C61.618 28.0138 61.6826 28.3656 61.9098 28.4565C62.1371 28.5474 62.1702 28.329 62.211 28.185C62.1732 27.3571 61.7097 27.513 61.6673 27.7488Z" fill="#20262C"/>
</svg>
