<svg width="639" height="323" viewBox="0 0 639 323" fill="none" xmlns="http://www.w3.org/2000/svg">
<mask id="mask0_514_3033" style="mask-type:alpha" maskUnits="userSpaceOnUse" x="0" y="0" width="639" height="323">
<path fill-rule="evenodd" clip-rule="evenodd" d="M306.881 0.715885C382.859 3.71802 495.286 44.1966 519.5 97.0927C544.76 152.274 685.533 258.65 623 294.5C555.595 333.143 89.2493 331.347 19.9999 294.5C-49.4038 257.571 82.4876 157.063 108.277 97.0927C134.673 35.7127 219.244 -2.74697 306.881 0.715885Z" fill="#F4F6F7"/>
</mask>
<g mask="url(#mask0_514_3033)">
<path fill-rule="evenodd" clip-rule="evenodd" d="M306.881 0.715885C382.859 3.71802 495.286 44.1966 519.5 97.0927C544.76 152.274 685.533 258.65 623 294.5C555.595 333.143 89.2493 331.347 19.9999 294.5C-49.4038 257.571 82.4876 157.063 108.277 97.0927C134.673 35.7127 219.244 -2.74697 306.881 0.715885Z" fill="url(#paint0_linear_514_3033)"/>
<path d="M435.033 102.044C434.246 105.194 429.474 103.619 427.725 103.036C427.577 102.98 427.412 102.985 427.268 103.05C427.123 103.115 427.01 103.235 426.954 103.383C426.954 103.556 426.465 105.226 425.835 107.651C425.796 107.788 425.804 107.934 425.859 108.066C425.913 108.197 426.01 108.306 426.135 108.376C428.207 109.453 430.494 110.055 432.828 110.14C432.97 110.148 433.104 110.204 433.21 110.298C433.316 110.393 433.387 110.52 433.411 110.659L433.742 112.439C433.753 112.52 433.781 112.598 433.823 112.668C433.865 112.739 433.921 112.8 433.987 112.848C434.053 112.897 434.128 112.931 434.207 112.95C434.287 112.969 434.37 112.972 434.451 112.959L439.176 112.282C439.26 112.267 439.341 112.235 439.413 112.187C439.485 112.14 439.546 112.077 439.592 112.005C439.638 111.932 439.668 111.85 439.68 111.765C439.693 111.68 439.687 111.593 439.664 111.51C439.506 110.896 439.27 109.935 439.065 109.069C439.035 108.954 439.04 108.832 439.08 108.72C439.119 108.608 439.191 108.51 439.286 108.439C440.536 107.453 441.431 106.088 441.837 104.548C443.775 97.2089 435.537 92.4681 435.537 92.4681C430.466 89.5071 425.804 87.9006 426.796 85.0184C427.977 81.5691 433.096 84.3569 434.671 85.3964C434.807 85.4774 434.968 85.5045 435.122 85.4724C435.277 85.4403 435.414 85.3514 435.506 85.2231L437.9 81.3329C437.98 81.1931 438.005 81.0283 437.97 80.871C437.935 80.7136 437.843 80.575 437.711 80.4824C433.254 77.4426 431.001 78.3719 430.828 77.3324L430.434 74.7179C430.411 74.5531 430.323 74.4043 430.19 74.304C430.058 74.2036 429.891 74.1599 429.726 74.1824L425.111 74.8911C425.028 74.9039 424.949 74.9338 424.879 74.9789C424.809 75.024 424.749 75.0834 424.703 75.1531C424.657 75.2228 424.626 75.3014 424.612 75.3838C424.598 75.4661 424.602 75.5505 424.623 75.6314C425.19 77.9466 425.426 78.3561 424.859 78.6396C423.697 79.2231 422.698 80.0851 421.95 81.1486C421.203 82.2122 420.73 83.4442 420.575 84.7349C419.598 96.1536 436.813 95.0826 435.033 102.044ZM240.726 122.692C240.19 126.22 234.237 125.842 232.173 125.622C231.974 125.603 231.775 125.662 231.617 125.784C231.459 125.907 231.354 126.086 231.323 126.283L230.913 131.339C230.883 131.489 230.91 131.645 230.989 131.776C231.068 131.907 231.192 132.004 231.339 132.048C233.902 132.651 236.571 132.651 239.135 132.048C239.283 132.008 239.441 132.027 239.576 132.1C239.711 132.173 239.812 132.296 239.859 132.442L240.474 134.788C240.5 134.867 240.542 134.94 240.597 135.002C240.652 135.065 240.719 135.116 240.793 135.153C240.868 135.189 240.949 135.211 241.032 135.216C241.115 135.221 241.198 135.209 241.277 135.182C243.003 134.351 244.788 133.645 246.616 133.072C246.801 133.001 246.953 132.862 247.041 132.684C247.128 132.506 247.145 132.301 247.089 132.111C246.837 131.497 246.396 130.016 246.081 129.118C246.038 128.991 246.032 128.854 246.062 128.724C246.093 128.593 246.159 128.473 246.254 128.378C247.562 127.032 248.425 125.317 248.727 123.464C250.176 114.975 240.269 112.171 240.269 112.171C234.174 110.407 228.693 109.982 229.496 106.596C230.457 102.532 236.489 104.186 238.489 104.785C238.675 104.834 238.873 104.816 239.046 104.732C239.22 104.648 239.358 104.505 239.434 104.328L241.655 99.4769C241.693 99.4056 241.717 99.3274 241.726 99.2467C241.734 99.1661 241.726 99.0846 241.703 99.007C241.679 98.9295 241.641 98.8573 241.589 98.7946C241.538 98.732 241.474 98.6802 241.403 98.6421C238.997 97.6941 236.405 97.3115 233.827 97.5239C233.684 97.5416 233.54 97.5087 233.419 97.431C233.298 97.3533 233.209 97.2357 233.166 97.0986L232.362 94.2636C232.337 94.177 232.293 94.0969 232.234 94.0291C232.174 93.9613 232.101 93.9074 232.018 93.8713C231.935 93.8352 231.846 93.8178 231.755 93.8203C231.665 93.8228 231.577 93.8451 231.496 93.8856L226.362 95.3504C226.175 95.4152 226.02 95.5495 225.929 95.7253C225.838 95.9012 225.818 96.1053 225.873 96.2954C226.834 99.4454 227.102 99.7604 226.535 100.201C225.291 101.108 224.274 102.291 223.566 103.658C222.858 105.025 222.478 106.537 222.456 108.076C222.597 120.676 241.986 114.66 240.726 122.692ZM315.286 51.5811C316.152 52.0536 314.325 53.8806 315.286 54.2586L319.05 55.3454C319.12 55.3666 319.193 55.3731 319.265 55.3644C319.337 55.3557 319.406 55.3321 319.468 55.295C319.531 55.2579 319.584 55.2082 319.626 55.1491C319.668 55.09 319.697 55.0227 319.712 54.9516C320.263 52.8096 320.279 52.5891 320.688 52.4946C322.03 52.1661 323.239 51.4351 324.153 50.3999C328.548 45.5489 324.453 39.1859 324.453 39.1859C321.948 35.2326 319.176 32.4449 321.066 30.6179C323.334 28.4129 325.886 32.1929 326.689 33.5789C326.723 33.634 326.767 33.6819 326.82 33.7198C326.872 33.7576 326.932 33.7846 326.995 33.7993C327.058 33.814 327.123 33.8159 327.187 33.8051C327.251 33.7943 327.312 33.771 327.366 33.7364L330.674 31.6101C330.734 31.5772 330.787 31.5327 330.83 31.4792C330.873 31.4257 330.905 31.3643 330.924 31.2984C330.943 31.2325 330.949 31.1635 330.941 31.0954C330.933 31.0272 330.912 30.9613 330.879 30.9014C330.015 29.2726 328.792 27.8616 327.303 26.7749C326.91 26.4756 327.083 26.2079 327.918 24.0974C327.945 24.0348 327.958 23.967 327.957 23.8987C327.955 23.8304 327.939 23.7633 327.909 23.7019C327.879 23.6405 327.836 23.5864 327.783 23.5432C327.73 23.5 327.669 23.4687 327.603 23.4516L323.949 22.4121C323.809 22.3785 323.661 22.4009 323.538 22.4744C323.414 22.548 323.324 22.6669 323.287 22.8059L322.736 24.7431C322.706 24.856 322.641 24.9564 322.551 25.03C322.46 25.1036 322.348 25.1465 322.232 25.1526C321.112 25.2087 320.021 25.5272 319.047 26.0826C318.073 26.638 317.243 27.4147 316.625 28.3499C311.254 36.5714 324.295 41.6429 320.153 46.2576C318.326 48.3051 315.428 45.5646 314.404 44.5094C314.307 44.4151 314.177 44.3624 314.042 44.3624C313.907 44.3624 313.777 44.4151 313.68 44.5094L311.144 47.3129C311.067 47.406 311.025 47.5229 311.025 47.6436C311.025 47.7643 311.067 47.8813 311.144 47.9744C312.229 49.4791 313.646 50.7134 315.286 51.5811ZM344.739 92.6729C344.749 92.7988 344.804 92.9169 344.893 93.0062C344.983 93.0956 345.101 93.1504 345.227 93.1611C380.223 96.1694 381.72 98.0436 382.302 97.3664C382.885 96.6891 383.704 94.2164 382.586 93.9959C370.607 91.4367 358.417 89.992 346.172 89.6804C345.195 89.6804 344.66 91.6334 344.739 92.6729ZM308.892 80.1201C307.6 80.1201 313.711 81.3171 344.14 87.6644C355.794 88.3524 367.4 89.7039 378.9 91.7121C378.915 91.7173 378.93 91.7196 378.946 91.7188C378.961 91.718 378.976 91.7143 378.99 91.7077C379.004 91.7011 379.016 91.6919 379.026 91.6805C379.037 91.6691 379.045 91.6557 379.05 91.6413C379.055 91.6268 379.057 91.6114 379.057 91.5961C379.056 91.5807 379.052 91.5657 379.045 91.5518C379.039 91.5379 379.03 91.5254 379.018 91.5151C379.007 91.5048 378.994 91.4968 378.979 91.4916C361.922 83.3016 329.225 79.1909 308.892 80.1201Z" fill="#20262C"/>
<path d="M434.514 124.299C442.2 124.299 453.02 120.614 456.659 113.274C466.833 92.6889 457.163 69.1741 444.059 63.4096C439.79 61.5511 435.443 61.1259 428.072 61.8346C425.353 62.1538 422.725 63.0152 420.344 64.3679C417.964 65.7205 415.879 67.5369 414.212 69.7096C399.722 87.6961 409.913 124.299 434.514 124.299ZM409.314 83.3491C413.299 62.2284 431.585 57.5034 443.87 68.9064C462.077 85.7904 455.824 121.181 435.05 122.96C418.591 124.425 405.377 104.171 409.298 83.4751L409.314 83.3491Z" fill="#20262C"/>
<path d="M425.662 116.455C427.896 117.636 430.38 118.268 432.907 118.298C442.625 118.298 452.122 107.415 450.232 91.2237C447.854 70.4652 428.497 60.4325 417.693 73.7412C407.66 86.105 411.755 109.273 425.662 116.455ZM428.56 68.906C437.238 68.087 447.649 76.4502 449.366 91.3497C451.35 108.675 439.034 122.109 426.182 115.416C420.906 112.675 414.842 105.777 413.582 94.61C412.322 83.4432 417.425 69.9455 428.56 68.906ZM313.097 60.9522C314.634 61.5833 316.286 61.8895 317.947 61.8516C319.609 61.8136 321.245 61.4324 322.752 60.7317C338.801 53.8805 344.235 24.5067 329.76 18.4587C320.31 14.5055 310.498 24.0185 306.734 33.6102C302.718 43.8477 304.025 57.2037 313.097 60.9522ZM325.429 18.6162C334.69 18.6162 338.376 28.9167 337.005 38.5085C335.777 47.0607 330.705 55.2665 324.185 58.9835C317.664 62.7005 311.349 60.779 308.073 55.0775C300.56 41.9105 311.9 18.6162 325.429 18.6162Z" fill="#20262C"/>
<path d="M313.475 65.9451C316.283 67.2807 319.331 68.0361 322.437 68.1658C331.288 68.1658 340.36 60.5429 344.818 49.2659C349.732 36.6658 347.29 23.1523 339.132 17.7658C336.802 16.5763 334.404 15.5245 331.95 14.6158C316.987 8.37885 298.513 29.0428 301.678 50.3998C302.891 58.4638 307.175 64.1496 313.475 65.9451ZM304.655 32.7441C306.951 26.4879 311.133 21.0996 316.625 17.3248C321.712 14.0331 327.052 13.2771 331.666 15.1828C347.416 21.7191 343.857 51.9118 327.304 62.5904C310.105 73.6784 296.15 54.3216 304.655 32.7441ZM230.945 151.877C239.314 152.38 247.549 149.606 253.909 144.144C270.556 133.324 272.478 109.494 259.342 93.9328C249.483 82.2463 233.56 78.1829 220.645 84.0418C185.428 95.0511 195.744 149.026 230.945 151.877ZM236.867 82.5771C264.949 86.1681 277.25 122.85 256.523 140.978C236.237 158.665 202.973 141.514 203.43 112.423C203.729 94.3896 218.566 80.3248 236.867 82.5928V82.5771Z" fill="#20262C"/>
<path d="M223.794 139.12C226.958 140.94 230.468 142.075 234.099 142.452C237.729 142.829 241.398 142.44 244.868 141.309C259.988 136.237 266.713 117.684 257.877 102.233C249.042 86.7824 229.527 83.1756 217.384 93.6966C203.225 106.045 207.068 129.685 223.794 139.12ZM233.37 88.9874C246.27 88.9874 257.799 98.9571 260.145 112.408C264.083 134.788 240.064 150.365 221.243 136.222C217.64 133.521 214.725 130.008 212.736 125.968C210.746 121.929 209.738 117.477 209.793 112.975C210.076 99.5556 220.314 88.9874 233.37 88.9874ZM342.801 142.238C342.68 142.239 342.562 142.283 342.469 142.362C342.377 142.441 342.315 142.55 342.294 142.67C342.273 142.79 342.295 142.913 342.357 143.019C342.418 143.124 342.514 143.204 342.628 143.246C347.526 144.821 348.204 141.356 346.14 136.757C346.101 136.638 346.015 136.54 345.903 136.484C345.791 136.427 345.661 136.418 345.542 136.458C345.423 136.498 345.324 136.583 345.268 136.695C345.212 136.807 345.203 136.937 345.243 137.056C345.57 138.467 345.749 139.908 345.778 141.356C345.715 142.033 345.684 142.27 342.801 142.238ZM332.076 142.616C331.461 147.341 336.99 151.279 340.896 149.42C341 149.366 341.081 149.277 341.125 149.168C341.168 149.059 341.171 148.938 341.133 148.827C341.095 148.716 341.018 148.623 340.917 148.564C340.815 148.505 340.696 148.485 340.581 148.507C339.686 148.642 338.774 148.596 337.897 148.372C337.021 148.148 336.199 147.75 335.479 147.202C334.759 146.654 334.157 145.967 333.708 145.182C333.258 144.397 332.971 143.53 332.863 142.632C332.865 142.527 332.826 142.426 332.753 142.351C332.681 142.276 332.582 142.232 332.477 142.23C332.373 142.228 332.272 142.268 332.196 142.34C332.121 142.412 332.078 142.512 332.076 142.616ZM337.446 134.694C339.021 134.946 339.856 130.063 338.25 129.811C336.643 129.559 335.824 134.426 337.446 134.694ZM352.425 131.182C350.85 130.914 349.968 136.08 351.763 136.08C353.275 136.08 354.015 131.449 352.425 131.182ZM341.116 124.425C339.762 121.732 335.525 121.606 333.588 124.425C333.511 124.527 333.474 124.653 333.483 124.781C333.491 124.908 333.545 125.028 333.634 125.119C333.724 125.211 333.843 125.267 333.97 125.278C334.097 125.289 334.224 125.255 334.328 125.181C335.153 124.488 336.19 124.098 337.267 124.075C338.344 124.052 339.396 124.398 340.25 125.055C340.347 125.122 340.462 125.158 340.58 125.156C340.697 125.155 340.812 125.117 340.907 125.048C341.002 124.979 341.073 124.881 341.111 124.77C341.148 124.658 341.15 124.538 341.116 124.425ZM356.378 127.039C356.449 127.138 356.551 127.209 356.668 127.241C356.785 127.274 356.91 127.266 357.022 127.218C357.133 127.17 357.226 127.086 357.283 126.979C357.341 126.873 357.36 126.749 357.339 126.63C357.113 125.991 356.739 125.414 356.248 124.947C355.756 124.48 355.162 124.136 354.512 123.943C353.863 123.749 353.177 123.712 352.51 123.834C351.843 123.956 351.215 124.234 350.676 124.645C350.584 124.719 350.519 124.821 350.493 124.937C350.466 125.052 350.48 125.172 350.531 125.279C350.582 125.385 350.668 125.471 350.775 125.522C350.882 125.573 351.002 125.586 351.117 125.559C352.032 125.17 353.052 125.104 354.008 125.373C354.965 125.643 355.801 126.23 356.378 127.039ZM220.282 238.25C220.205 241.684 220.95 245.086 222.456 248.173C222.493 248.268 222.566 248.345 222.66 248.387C222.753 248.429 222.859 248.433 222.956 248.399C223.052 248.364 223.131 248.293 223.176 248.2C223.221 248.108 223.228 248.002 223.196 247.905C222.174 244.798 221.643 241.552 221.621 238.282C221.621 236.596 222.046 234.659 222.786 234.423C223.149 234.313 224.031 234.517 225.842 237.163C225.896 237.253 225.984 237.318 226.086 237.343C226.188 237.368 226.295 237.352 226.385 237.297C226.475 237.243 226.54 237.155 226.565 237.053C226.59 236.951 226.573 236.844 226.519 236.754C223.7 231.068 220.44 232.596 220.282 238.25ZM238.237 282.46C236.025 282.195 233.926 281.336 232.163 279.974C230.399 278.613 229.037 276.8 228.22 274.727C228.162 274.611 228.064 274.52 227.945 274.468C227.826 274.417 227.692 274.41 227.568 274.447C227.444 274.485 227.337 274.565 227.266 274.674C227.195 274.783 227.165 274.913 227.181 275.042C227.705 277.544 229.102 279.778 231.121 281.344C233.141 282.911 235.652 283.709 238.206 283.594C238.28 283.596 238.354 283.584 238.424 283.557C238.493 283.531 238.557 283.491 238.611 283.439C238.665 283.388 238.709 283.327 238.739 283.259C238.77 283.191 238.786 283.118 238.788 283.043C238.79 282.969 238.778 282.895 238.751 282.825C238.725 282.755 238.685 282.692 238.633 282.638C238.582 282.583 238.521 282.54 238.453 282.51C238.385 282.479 238.312 282.462 238.237 282.46ZM237.371 244.991C235.969 245.92 238.111 249.385 239.607 249.385C239.759 249.381 239.908 249.344 240.044 249.277C240.179 249.209 240.299 249.113 240.393 248.994C240.488 248.876 240.555 248.738 240.591 248.591C240.627 248.443 240.629 248.29 240.6 248.141C240.521 246.661 238.599 244.125 237.371 244.991ZM243.923 243.196C242.868 242.566 242.112 243.196 242.159 244.141C242.238 245.621 244.112 248.125 245.309 247.291C246.506 246.456 245.403 244.125 243.923 243.196ZM208.895 239.904C201.855 238.896 196.295 239.904 191.806 242.723C191.646 242.825 191.529 242.982 191.475 243.164C191.109 244.345 191.176 245.619 191.664 246.755C191.701 246.832 191.753 246.901 191.817 246.957C191.882 247.013 191.957 247.055 192.038 247.08C192.12 247.105 192.206 247.113 192.291 247.103C192.375 247.093 192.457 247.066 192.531 247.023C197.434 244.471 203.04 243.602 208.485 244.55C208.549 244.566 208.614 244.569 208.679 244.559C208.743 244.548 208.805 244.524 208.859 244.489C208.914 244.453 208.961 244.407 208.997 244.352C209.033 244.298 209.057 244.236 209.068 244.172C209.321 242.934 209.416 241.67 209.352 240.408C209.346 240.284 209.297 240.166 209.213 240.074C209.13 239.982 209.018 239.922 208.895 239.904ZM254.003 261.45C251.562 261.45 251.782 268.443 254.16 268.38C256.539 268.317 256.381 261.45 254.003 261.45ZM260.523 263.025C260.161 261.576 259.043 261.355 258.161 262.552C256.869 264.269 256.775 268.096 258.46 268.096C260.145 268.096 260.996 264.836 260.523 263.025ZM320.862 279.295H316.137C315.948 279.302 315.768 279.378 315.632 279.508C315.495 279.639 315.412 279.815 315.396 280.003L315.05 283.043C315.036 283.28 315.113 283.512 315.266 283.694C315.418 283.875 315.634 283.992 315.869 284.02C317.68 284.209 319.507 284.209 321.318 284.02C321.546 283.996 321.754 283.883 321.899 283.706C322.043 283.529 322.112 283.302 322.09 283.075L321.775 280.161C321.749 279.932 321.644 279.719 321.477 279.561C321.309 279.402 321.092 279.308 320.862 279.295ZM324.185 280.035L323.933 283.043C323.924 283.286 324.009 283.523 324.17 283.705C324.332 283.887 324.557 284 324.799 284.02C326.68 284.185 328.572 284.185 330.453 284.02C330.687 283.992 330.902 283.875 331.051 283.693C331.201 283.511 331.274 283.278 331.257 283.043C330.847 280.98 331.257 279.326 329.934 279.295C328.611 279.263 326.673 279.295 324.941 279.295C324.745 279.302 324.56 279.382 324.42 279.519C324.28 279.656 324.196 279.84 324.185 280.035ZM333.525 284.02C335.363 284.193 337.214 284.193 339.053 284.02C339.281 283.996 339.491 283.884 339.639 283.707C339.786 283.531 339.858 283.304 339.84 283.075L339.525 280.161C339.495 279.923 339.379 279.704 339.2 279.545C339.02 279.385 338.789 279.296 338.549 279.295H333.666C333.476 279.301 333.294 279.377 333.155 279.507C333.016 279.637 332.929 279.814 332.91 280.003L332.674 283.012C332.663 283.134 332.677 283.257 332.714 283.374C332.751 283.491 332.81 283.599 332.889 283.693C332.969 283.786 333.065 283.863 333.174 283.92C333.283 283.976 333.402 284.01 333.525 284.02ZM342.219 284.02C344.164 284.161 346.117 284.161 348.062 284.02C348.178 284.012 348.291 283.981 348.395 283.929C348.499 283.877 348.592 283.805 348.668 283.717C348.744 283.63 348.802 283.528 348.838 283.417C348.875 283.307 348.889 283.19 348.881 283.075L348.55 280.145C348.506 279.906 348.379 279.69 348.192 279.535C348.005 279.379 347.77 279.294 347.526 279.295H342.36C342.165 279.297 341.978 279.37 341.833 279.501C341.688 279.631 341.596 279.81 341.573 280.003L341.337 283.012C341.326 283.136 341.34 283.262 341.379 283.381C341.418 283.499 341.481 283.609 341.563 283.703C341.645 283.797 341.746 283.874 341.859 283.928C341.971 283.983 342.094 284.014 342.219 284.02ZM400.1 271.152C395.375 270.16 378.822 277.672 378.286 278.255C376.995 279.625 377.593 283.783 378.68 284.996C379.767 286.209 409.55 299.014 419.63 301.124C422.418 301.329 432.23 296.793 434.829 295.58C437.979 294.005 441.365 292.745 441.932 289.642C441.932 289.642 442.515 285.768 441.034 284.697C432.135 279.09 414.023 274.05 400.1 271.152ZM399.927 272.144C410.385 274.144 430.986 280.271 439.837 285.406C437.333 287.39 422.512 294.257 420.339 294.619C412.149 290.225 388.949 282.019 379.137 279.058C379.751 278.444 395.485 271.309 399.848 272.144H399.927ZM420.291 299.612C415.44 299.612 384.192 286.697 379.861 284.398C378.963 283.925 378.585 281.248 378.837 279.83C386.24 282.602 418.512 294.336 419.945 295.848C420.312 296.398 420.53 297.035 420.577 297.695C420.624 298.355 420.499 299.015 420.213 299.612H420.291ZM440.766 289.406C440.373 291.517 438.451 292.43 434.624 294.241C430.423 296.287 426.068 297.998 421.599 299.36C421.956 298.114 421.844 296.78 421.284 295.612C425.079 294.619 437.994 288.886 440.735 286.256C440.845 287.306 440.813 288.365 440.64 289.406H440.766Z" fill="#20262C"/>
<path d="M434.75 284.744C434.12 283.484 400.006 272.916 398.62 273.215C394.934 274.034 392.32 274.79 384.886 278.523C384.805 278.559 384.736 278.617 384.688 278.691C384.64 278.766 384.615 278.852 384.615 278.94C384.615 279.029 384.64 279.115 384.688 279.189C384.736 279.263 384.805 279.322 384.886 279.358C393.658 282.602 419.882 291.958 420.386 291.863C434.845 285.169 435.175 285.579 434.75 284.744ZM387.973 279.421C391.285 277.573 394.836 276.19 398.525 275.31C410.637 278.287 422.434 282.303 431.49 285.532C427.574 286.97 423.764 288.68 420.087 290.65C412.936 287.926 399.376 282.917 387.973 279.421Z" fill="#20262C"/>
<path d="M441.302 256.867C441.269 256.386 441.117 255.92 440.861 255.512C441.307 255.504 441.745 255.385 442.133 255.165C442.522 254.945 442.849 254.631 443.086 254.252C443.322 253.874 443.46 253.442 443.487 252.996C443.513 252.55 443.428 252.105 443.239 251.701C457.509 238.912 475.291 217.051 474.346 214.436C473.7 212.688 473.7 216.877 417.646 207.884C405.912 182.054 391.737 156.775 359.623 155.783C359.488 155.78 359.356 155.824 359.249 155.907C359.143 155.99 359.069 156.108 359.04 156.24C357.024 165.028 350.661 185.22 335.147 182.794C323.524 180.967 315.255 167.659 312.168 155.169C315.319 155.301 318.476 155.227 321.618 154.948C321.725 154.938 321.827 154.895 321.909 154.824C321.991 154.754 322.049 154.66 322.075 154.555C323.37 149.156 323.632 143.561 322.846 138.064C322.838 137.997 322.814 137.932 322.778 137.874C322.742 137.817 322.694 137.768 322.637 137.73C322.581 137.693 322.516 137.668 322.449 137.658C322.382 137.648 322.313 137.652 322.248 137.671C318.027 138.773 316.704 132.678 317.98 129.796C318.162 129.34 318.494 128.959 318.921 128.718C319.349 128.476 319.846 128.387 320.33 128.466C320.815 128.545 321.258 128.787 321.587 129.152C321.915 129.517 322.109 129.983 322.138 130.473C322.138 132.536 326.863 127.748 326.233 122.866C326.894 122.866 327.54 122.866 328.17 122.755C329.099 122.645 327.949 119.054 331.572 115.715C331.194 116.887 331.145 118.14 331.43 119.338C331.635 119.999 334.58 120.062 336.281 119.59C336.895 119.432 336.612 117.81 339.242 112.88C343.644 113.813 348.13 114.293 352.63 114.313C354.464 115.692 356.134 117.278 357.607 119.038C364.537 127.339 355.921 152.239 346.046 157.799C342.061 160.036 338.171 159.374 334.234 157.027C333.808 156.76 333.493 156.555 333.257 156.886C333.19 156.958 333.152 157.054 333.152 157.153C333.152 157.253 333.19 157.348 333.257 157.421C339.368 162.461 346.629 161.737 352.456 153.704C353.386 153.846 356.756 154.145 357.181 153.295C357.821 151.835 358.251 150.292 358.457 148.711C359.749 152.066 358.552 154.539 359.78 154.413C361.271 154.35 362.716 153.876 363.954 153.043C364.003 153 364.043 152.946 364.07 152.887C364.098 152.827 364.111 152.762 364.111 152.696C364.151 150.652 363.944 148.611 363.497 146.617C365.686 149.767 365.765 151.105 366.19 151.153C367.088 151.294 370.128 149.042 370.081 148.428C369.592 146.016 368.663 143.715 367.34 141.64C366.648 139.966 366.451 138.129 366.773 136.348C368.08 138.894 369.034 141.607 369.608 144.412C369.703 144.916 369.734 145.199 370.238 145.183C371.136 145.11 372.01 144.86 372.811 144.446C373.611 144.032 374.321 143.464 374.9 142.774C374.961 142.71 375.004 142.631 375.026 142.546C375.048 142.46 375.048 142.371 375.026 142.285C374.747 141.054 374.351 139.851 373.845 138.694C376.286 139.939 378.948 138.694 378.979 137.923C379.184 131.922 377.751 129.433 375.94 127.543C376.428 127.811 379.704 127.669 380.476 125.874C380.607 125.24 380.607 124.586 380.476 123.952C380.258 122.636 379.767 121.381 379.034 120.266C378.302 119.151 377.344 118.202 376.223 117.479C373.577 115.652 371.309 114.802 370.537 111.888C374.491 113.148 374.396 116.613 378.979 118.723C379.032 118.761 379.096 118.781 379.16 118.781C379.225 118.781 379.289 118.761 379.342 118.723C381.578 117.542 381.972 114.66 381.436 114.361C377.751 112.36 377.231 106.249 369.955 105.226C373.341 104.375 374.68 104.926 374.79 104.092C374.911 103.362 374.856 102.613 374.628 101.909C374.401 101.204 374.008 100.565 373.483 100.044C370.098 99.3292 366.595 99.4046 363.245 100.264C363.639 98.4531 363.907 97.1143 363.907 97.1143C363.907 96.7363 365.608 97.0041 342.849 95.0038C324.453 90.5308 325.618 90.6883 325.524 91.0978C325.524 91.1766 324.973 99.0673 325.24 105.052C325.429 109.1 333.257 111.51 338.171 112.612C336.88 114.43 336.043 116.531 335.73 118.739C334.54 118.652 333.345 118.652 332.155 118.739C332.241 117.483 332.42 116.236 332.69 115.006C332.816 114.361 332.863 114.156 332.69 114.014C332.139 113.573 327.571 116.329 327.634 121.889C325.902 121.889 325.288 121.716 323.87 121.621C323.628 118.386 324.519 115.168 326.39 112.518L326.5 112.36C326.533 112.32 326.558 112.274 326.573 112.224C326.588 112.174 326.594 112.121 326.589 112.069C326.583 112.017 326.568 111.967 326.544 111.921C326.519 111.875 326.486 111.834 326.445 111.801C326.405 111.768 326.358 111.743 326.308 111.728C326.259 111.713 326.206 111.708 326.154 111.713C326.102 111.718 326.052 111.733 326.006 111.758C325.96 111.783 325.919 111.816 325.886 111.856C324.646 113.266 323.736 114.936 323.224 116.742C322.711 118.549 322.609 120.447 322.925 122.299C322.943 122.409 322.996 122.511 323.075 122.59C323.154 122.669 323.256 122.721 323.366 122.74C323.996 122.834 324.642 122.881 325.288 122.913C325.076 125.264 324.227 127.514 322.831 129.418C322.615 128.85 322.246 128.354 321.765 127.984C321.284 127.614 320.709 127.385 320.106 127.323C314.215 126.709 315.239 140.08 321.886 138.742C321.886 142.049 321.886 144.144 321.649 147.814L319.555 149.011C318.711 147.041 317.592 145.201 316.231 143.545C316.197 143.508 316.156 143.478 316.11 143.458C316.064 143.438 316.014 143.427 315.964 143.427C315.913 143.427 315.863 143.438 315.817 143.458C315.771 143.478 315.73 143.508 315.696 143.545C315.108 145.881 314.953 148.304 315.239 150.696C314.019 150.698 312.812 150.446 311.695 149.956C311.109 146.506 310.998 142.993 311.365 139.513C311.375 139.414 311.356 139.314 311.308 139.227C311.26 139.139 311.187 139.068 311.098 139.024C311.008 138.979 310.908 138.963 310.809 138.977C310.71 138.991 310.618 139.036 310.546 139.104C308.302 141.146 306.487 143.614 305.206 146.365C303.844 146.044 302.643 145.244 301.82 144.112C304.151 138.206 307.663 136.867 307.805 130.473C307.812 130.382 307.792 130.292 307.747 130.213C307.702 130.135 307.635 130.071 307.554 130.03C307.473 129.99 307.382 129.974 307.292 129.986C307.202 129.997 307.117 130.035 307.049 130.095C304.939 131.775 302.945 133.596 301.08 135.544C300.08 134.614 299.401 133.389 299.143 132.048C302.986 129.307 305.931 126.803 306.356 121.889C306.356 121.779 306.356 121.464 306.167 121.354C305.978 121.243 305.947 121.354 303.71 122.929C302.35 123.764 301.145 124.83 300.151 126.079C299.115 125.001 298.549 123.557 298.576 122.062C302.639 118.692 306.262 118.471 307.049 112.612C307.061 112.542 307.054 112.469 307.028 112.402C307.002 112.336 306.958 112.277 306.902 112.234C306.845 112.19 306.777 112.162 306.706 112.154C306.635 112.146 306.563 112.157 306.498 112.187C304.005 113.305 301.708 114.815 299.694 116.66C299.037 115.783 298.565 114.78 298.308 113.715C306.466 109.888 307.915 104.659 313.286 102.832C313.727 102.69 313.711 102.359 313.444 102.186C312.656 101.713 306.813 101.446 301.6 104.848C300.897 103.703 300.541 102.379 300.576 101.036C309.774 97.5553 312.892 97.9806 318.169 98.8153C316.049 103.84 314.67 109.145 314.074 114.565C314.483 115.447 316.877 115.306 316.877 115.306C317.122 111.032 317.873 106.802 319.114 102.706C318.792 106.503 318.666 110.314 318.736 114.124C319.678 114.158 320.62 114.068 321.539 113.857C321.35 107.777 321.35 97.0986 324.5 88.6723L341.825 92.6098C341.877 92.6195 341.93 92.6172 341.981 92.6032C342.032 92.5891 342.079 92.5637 342.118 92.5288C342.158 92.4938 342.189 92.4503 342.209 92.4016C342.229 92.3529 342.238 92.3002 342.235 92.2476C342.137 91.2805 342.341 90.307 342.817 89.4598C343.117 88.9401 344.487 89.4598 306.844 81.2383C306.651 81.2025 306.451 81.2388 306.283 81.3404C306.114 81.442 305.989 81.6018 305.931 81.7896C305.206 84.1836 306.451 84.5773 306.451 84.5773L321.964 88.1053C321.62 89.7485 321.141 91.3605 320.531 92.9248C318.358 91.1766 315.129 90.2946 314.578 90.8458C313.003 92.4208 312.861 94.7991 313.318 95.1141C314.475 95.8501 315.58 96.6658 316.625 97.5553C310.766 96.3583 305.789 97.5553 299.773 100.012C299.67 100.06 299.583 100.135 299.522 100.23C299.461 100.325 299.427 100.435 299.426 100.548C299.402 102.412 300.013 104.228 301.159 105.698C301.852 106.58 304.198 103.462 310.813 102.895C307.018 104.832 304.513 109.336 298.213 112.691C297.583 113.038 297.3 113.195 297.316 113.51C297.339 114.335 297.536 115.146 297.894 115.89C298.252 116.634 298.764 117.293 299.395 117.826C300.135 118.141 299.395 117.605 305.931 113.431C304.356 118.251 301.411 117.857 297.536 121.306C297.032 121.747 297.174 124.882 299.725 127.276C299.828 127.377 299.967 127.433 300.111 127.433C300.255 127.433 300.394 127.377 300.497 127.276C301.894 125.662 303.48 124.224 305.222 122.992C303.505 129.055 297.725 130.725 297.946 131.764C297.982 132.774 298.268 133.759 298.78 134.631C299.291 135.502 300.011 136.233 300.875 136.757C301.82 137.119 301.379 136.253 306.844 131.56C306.183 137.34 301.883 138.994 300.733 144.002C300.513 144.616 302.182 146.995 305.458 147.766C306.766 148.05 305.805 145.798 310.183 140.852C309.863 143.999 309.942 147.175 310.42 150.302C310.656 151.625 314.152 151.877 315.885 151.688C316.924 151.546 315.885 151.027 316.2 145.12C319.476 151.247 317.995 151.153 321.476 149.105C321.35 150.68 321.208 152.255 321.019 153.83C313.9 153.405 311.853 154.035 311.79 153.736C311.727 153.436 311.632 152.917 311.207 152.901C267.107 151.562 237.182 191.378 229.748 234.706C223.385 226.8 216.833 228.375 214.25 234.108C193.775 231.367 178.498 240.786 175.395 258.158C173.3 269.876 175.71 278.633 183.27 286.508C182.262 298.069 184.845 298.541 189.57 299.423C192.977 300.038 196.483 299.8 199.776 298.73C200.076 298.666 200.346 298.501 200.54 298.264C200.735 298.026 200.843 297.73 200.847 297.423C202.312 297.423 205.304 297.328 206.344 296.084C206.664 295.509 206.796 294.848 206.722 294.194C211.809 294.856 209.761 293.375 210.958 297.738C211.525 299.833 211.998 300.352 213.762 300.888C217.81 302.006 231.087 302.368 232.079 297.943C234.111 298.1 239.686 298.289 240.836 295.785C241.206 294.212 241.344 292.594 241.246 290.981C250.255 288.792 256.901 283.563 260.476 275.83C278.809 274.869 292.512 270.837 302.356 263.513C306.388 270.569 310.829 269.986 308.656 264.505C312.199 268.348 315.176 266.08 312.247 260.694C313.041 261.486 314.078 261.991 315.192 262.127L320.468 272.995H317.964C317.523 272.995 317.476 273.278 317.444 273.577C317.433 273.74 317.433 273.903 317.444 274.066C317.408 274.057 317.37 274.057 317.334 274.066H312.609C311.412 274.192 310.53 276.523 309.459 279.216C307.663 283.941 307.648 285.311 307.616 286.87C307.519 288.054 307.683 289.244 308.097 290.357C308.511 291.47 309.164 292.479 310.01 293.312C311.065 294.367 352.409 294.997 353.244 293.942C354.3 292.789 355.008 291.361 355.287 289.823C355.566 288.284 355.403 286.698 354.819 285.248C354.819 285.154 350.85 275.798 350.094 275.137C348.956 274.596 347.696 274.362 346.44 274.459H346.188V273.908C346.169 273.733 346.086 273.57 345.956 273.451C345.825 273.332 345.656 273.265 345.479 273.262C343.904 273.262 342.786 273.184 341.494 273.262C340.864 273.262 340.959 274.034 340.927 274.412H339.085C339.085 274.144 339.085 273.42 338.329 273.404H333.604C333.021 273.404 333.1 274.113 333.068 274.27H331.493C331.493 274.176 331.493 273.247 330.737 273.231C329.981 273.215 328.627 273.231 327.839 273.231C327.848 273.094 327.848 272.958 327.839 272.821C327.713 271.75 321.114 258.804 320.547 257.733H386.366C400.73 259.67 410.133 260.536 426.513 261.387C428.434 264.899 432.545 264.71 433.112 262.348C435.916 263.214 437.837 262.458 437.837 259.576C438.477 259.68 439.133 259.585 439.716 259.303C440.299 259.021 440.782 258.567 441.097 258.001C470.518 258.001 469.92 258.268 469.904 257.465C469.888 256.662 470.613 256.867 441.302 256.867ZM359.843 112.581C361.173 109.024 362.226 105.369 362.993 101.65C365.734 100.453 369.97 100.642 373.089 101.209C373.59 101.895 373.861 102.722 373.861 103.572C371.693 103.568 369.559 104.109 367.655 105.147C367.608 105.17 367.567 105.203 367.535 105.244C367.502 105.285 367.479 105.332 367.466 105.383C367.324 105.903 368.002 105.934 368.537 105.997C376.837 107.021 376.412 112.864 380.822 114.943C380.518 116.04 379.95 117.046 379.168 117.873C374.821 115.148 374.837 111.4 370.049 110.911C369.994 110.908 369.94 110.917 369.889 110.938C369.838 110.959 369.793 110.991 369.757 111.032C369.721 111.073 369.694 111.122 369.679 111.175C369.664 111.227 369.661 111.283 369.671 111.337C370.222 118.345 378.806 116.471 379.735 125.512C378.823 126.102 377.766 126.429 376.68 126.457C376.401 124.78 375.636 123.221 374.48 121.975C373.323 120.73 371.827 119.851 370.175 119.448C370.114 119.427 370.049 119.422 369.986 119.432C369.922 119.442 369.862 119.468 369.811 119.507C369.759 119.546 369.718 119.597 369.691 119.655C369.664 119.713 369.652 119.777 369.655 119.842C369.787 121.275 370.225 122.664 370.94 123.914C371.655 125.164 372.629 126.245 373.798 127.087C376.648 129.654 378.097 131.67 377.94 137.608C377.411 137.882 376.831 138.042 376.237 138.078C375.643 138.113 375.048 138.022 374.491 137.812C375.152 131.512 370.805 126.898 370.411 128.362C368.758 134.489 372.538 136.442 373.845 142.191C372.982 143.028 371.882 143.578 370.695 143.766C370.011 140.516 368.723 137.422 366.899 134.647C366.869 134.576 366.818 134.515 366.754 134.472C366.689 134.43 366.614 134.407 366.537 134.407C366.46 134.407 366.384 134.43 366.32 134.472C366.255 134.515 366.205 134.576 366.175 134.647C364.316 141.167 367.009 142.191 369.12 148.176C368.343 148.853 367.479 149.425 366.553 149.877C365.261 146.207 361.528 142.301 362.017 144.443C362.565 147.041 362.944 149.671 363.151 152.318C362.239 152.757 361.259 153.034 360.253 153.137C360.438 150.896 359.818 148.662 358.504 146.837C358.471 146.779 358.423 146.731 358.364 146.698C358.306 146.665 358.24 146.647 358.174 146.648C357.339 146.648 358.331 148.066 356.205 152.365C355.233 152.582 354.233 152.635 353.244 152.523C356.766 147.063 359.273 141.013 360.646 134.662C362.883 123.559 360.19 118.771 354.346 114.187C356.536 114.219 359.15 113.872 359.843 112.581ZM375.672 127.323C373.845 125.48 371.734 124.173 370.648 120.519C371.992 121.135 373.159 122.083 374.037 123.273C374.916 124.463 375.478 125.856 375.672 127.323ZM373.42 137.891C371.955 134.899 370.522 133.324 371.057 129.402C372.841 131.855 373.679 134.869 373.42 137.891ZM313.979 94.4998C314.185 93.5529 314.611 92.6679 315.223 91.9168C316.987 92.2537 318.661 92.9565 320.137 93.9801C319.633 95.2873 319.082 96.6576 318.562 98.0908C317.509 96.3882 315.884 95.1154 313.979 94.4998ZM230.252 292.084C229.874 293.737 230.567 295.785 230.536 297.297C230.441 300.699 217.573 300.526 214.045 299.612C213.305 299.407 212.612 299.234 212.124 297.454C211.872 296.541 211.746 295.879 211.636 295.249C210.927 291.375 211.006 295.533 196.358 290.776C195.745 290.53 195.106 290.355 194.452 290.257C194.363 290.251 194.275 290.277 194.204 290.33C194.132 290.383 194.081 290.459 194.061 290.546C194.04 290.633 194.051 290.724 194.09 290.803C194.13 290.883 194.197 290.946 194.279 290.981C195.991 291.806 197.786 292.445 199.634 292.887C199.445 297.439 199.839 297.517 199.335 297.612C196.223 298.568 192.926 298.752 189.727 298.147C185.097 297.265 183.506 296.793 184.483 286.335C184.64 284.665 173.631 278.066 177.017 258.394C179.868 241.967 193.933 233.1 213.746 235.242C212.33 240.176 212.624 245.443 214.581 250.189C214.612 250.289 214.682 250.373 214.775 250.421C214.868 250.47 214.977 250.48 215.077 250.448C215.177 250.417 215.261 250.347 215.31 250.254C215.358 250.161 215.368 250.053 215.337 249.952C210.486 233.273 220.55 222.626 231.37 239.227C231.446 239.338 231.556 239.422 231.685 239.465C231.813 239.508 231.951 239.507 232.079 239.463C246.522 234.738 248.774 247.621 254.665 251.244C250.286 253.181 248.506 261.229 248.191 265.419C247.672 272.002 249.892 282.854 255.673 280.98C244.789 293.092 231.071 288.619 230.252 292.084ZM248.617 232.769C246.537 234.274 244.983 236.396 244.175 238.833C241.914 237.537 239.302 236.986 236.71 237.258C246.9 226.642 255.295 229.304 249.514 243.684C248.347 242.183 246.986 240.843 245.467 239.699C246.001 237.278 247.265 235.079 249.089 233.399C249.173 233.336 249.228 233.243 249.243 233.14C249.257 233.036 249.23 232.931 249.168 232.848C249.105 232.764 249.012 232.709 248.908 232.694C248.805 232.68 248.7 232.706 248.617 232.769ZM259.642 274.57C258.96 276.468 257.719 278.115 256.082 279.295C250.995 282.177 249.168 271.246 249.625 265.435C249.971 261.056 252.113 252.063 256.444 252.063C261.374 252.11 263.406 265.687 259.673 274.57H259.642ZM309.459 256.41C309.424 256.365 309.38 256.328 309.331 256.301C309.281 256.273 309.227 256.255 309.17 256.249C309.114 256.242 309.057 256.247 309.002 256.262C308.948 256.278 308.897 256.304 308.852 256.339C308.808 256.374 308.771 256.418 308.743 256.467C308.716 256.517 308.698 256.571 308.691 256.627C308.685 256.684 308.689 256.741 308.705 256.795C308.72 256.85 308.746 256.901 308.782 256.945C310.114 258.676 311.176 260.598 311.932 262.647C312.278 263.718 312.42 264.978 312.073 265.214C311.727 265.45 310.64 264.836 309.774 264.112C307.553 262.253 306.624 260.395 306.151 260.71C305.915 260.836 306.01 261.135 306.151 261.387C306.781 262.552 309.049 267.372 307.821 267.514C306.592 267.655 304.151 264.206 303.364 262.93C303.033 262.379 302.702 261.765 302.151 262.174C289.976 270.947 273.801 273.325 261.059 274.365C263.737 267.403 263.374 257.56 260.24 253.087C259.842 252.406 259.274 251.839 258.593 251.442C257.911 251.045 257.139 250.83 256.35 250.819C254.098 250.031 251.971 246.787 250.239 244.519C253.389 236.927 253.389 231.919 250.034 230.123H249.94C244.884 227.887 238.773 232.69 235.04 237.51C234.098 237.698 233.167 237.939 232.252 238.234C231.811 237.51 231.339 236.801 230.882 236.14C232.349 229.244 234.232 222.443 236.521 215.775C244.931 215.145 277.187 224.39 286.165 230.044C286.193 230.064 286.225 230.076 286.258 230.082C286.292 230.088 286.327 230.086 286.36 230.077C286.392 230.068 286.423 230.052 286.449 230.03C286.475 230.008 286.496 229.981 286.511 229.95C294.386 213.113 293.961 200.308 287.566 184.275C286.527 181.645 288.779 182.038 289.535 183.55C301.269 207.333 290.842 234.738 283.582 246.109C275.707 240.046 270.257 235.714 260.476 234.58C260.35 234.561 260.222 234.591 260.118 234.665C260.014 234.739 259.943 234.85 259.92 234.976C259.897 235.102 259.925 235.231 259.996 235.337C260.068 235.442 260.178 235.516 260.303 235.541C276.557 239.211 282.353 249.543 296.323 256.41C296.461 256.477 296.619 256.492 296.767 256.451C296.914 256.411 297.042 256.318 297.127 256.189C300.749 250.535 305.805 247.606 311.097 248.062C310.622 248.337 310.192 248.682 309.821 249.086C308.971 250 309.443 250.567 310.136 251.795C310.064 251.869 310.023 251.968 310.023 252.071C310.023 252.174 310.064 252.273 310.136 252.346C316.531 257.15 318.72 266.569 309.459 256.41ZM352.362 292.95C349.369 292.95 316.956 292.761 310.845 292.288C310.135 291.428 309.603 290.435 309.281 289.366C308.96 288.298 308.854 287.177 308.971 286.067C323.869 287.33 338.838 287.519 353.764 286.634C354.006 287.725 354.007 288.856 353.764 289.948C353.522 291.039 353.043 292.064 352.362 292.95ZM327.65 277.562V277.468C328.862 277.531 330.076 277.531 331.288 277.468C332.155 277.373 331.745 276.239 331.666 275.373H333.037C333.037 276.286 332.564 277.515 333.509 277.625C335.279 277.814 337.063 277.814 338.833 277.625C339.762 277.531 339.242 276.271 339.211 275.389H340.896C340.896 276.129 340.423 277.373 341.384 277.499C342.912 277.68 344.455 277.68 345.983 277.499C346.44 277.499 346.534 277.105 346.519 276.712C346.519 276.712 346.519 276.16 346.424 275.625C347.433 275.572 348.444 275.684 349.417 275.956C349.669 276.318 352.834 283.736 353.543 285.721C342.865 285.721 317.665 285.327 309.081 285.154C309.459 283.295 312.026 275.467 312.751 275.168H317.239C317.27 275.177 317.303 275.177 317.334 275.168C317.334 275.719 317.334 276.223 317.239 276.302C317.239 276.822 317.239 277.247 317.854 277.31C320.193 277.462 322.539 277.462 324.878 277.31C325.713 277.704 326.075 277.846 326.201 277.893C326.878 278.255 327.367 278.113 327.65 277.562ZM326.563 272.223C326.835 273.786 326.835 275.385 326.563 276.948C325.65 276.586 322.925 275.121 322.752 275.042C322.579 274.963 322.012 273.703 316.168 261.812C316.35 261.646 316.495 261.444 316.596 261.219C316.696 260.994 316.749 260.751 316.751 260.505C316.861 258.631 315.082 255.229 311.475 252.299C310.372 249.984 309.38 249.763 312.42 248.551C314.263 247.81 314.247 248.314 314.609 248.976C317.712 254.504 321.901 262.111 326.532 272.223H326.563ZM318.405 253.575L316.09 249.322C320.358 250.472 322.909 252.094 323.224 253.15C323.539 254.205 319.775 253.685 318.405 253.575ZM426.182 260.206C393.328 257.812 361.418 253.055 350.456 251.023C367.088 236.644 390.902 218.043 402.431 206.246C427.064 211.9 452.138 215.098 473.101 215.239C470.975 220.72 450.5 242.55 442.342 250.882C440.011 249.716 435.238 251.102 435.742 253.591C433.191 253.496 432.325 254.378 432.025 254.929C431.882 255.193 431.807 255.488 431.807 255.788C431.807 256.088 431.882 256.383 432.025 256.646C430.545 256.646 429.159 257.119 429.127 258.568C427.143 257.89 426.072 258.867 426.182 260.127V260.206ZM427.442 260.678C426.749 259.324 427.962 259.198 429.427 259.796C430.086 260.799 431.053 261.562 432.183 261.97C431.789 263.718 428.45 262.678 427.442 260.599V260.678ZM436.215 261.088C434.892 262.159 429.915 260.111 430.277 258.536C430.356 258.048 431.112 257.607 432.955 257.796C434.082 258.605 435.381 259.144 436.75 259.371C436.782 259.666 436.751 259.965 436.659 260.247C436.566 260.53 436.415 260.789 436.215 261.009V261.088ZM440.121 257.339C439.869 258.158 439.066 258.442 437.601 258.221C432.876 257.497 430.907 254.52 436.498 254.851C437.425 255.473 438.536 255.762 439.648 255.67C439.867 255.864 440.028 256.117 440.111 256.398C440.195 256.679 440.198 256.977 440.121 257.26V257.339ZM437.191 253.874C435.616 252.299 441.239 250.976 442.153 252.299C442.252 252.486 442.304 252.694 442.304 252.905C442.304 253.117 442.252 253.325 442.153 253.512C441.507 254.788 438.073 254.693 437.191 253.795V253.874Z" fill="#20262C"/>
</g>
<defs>
<linearGradient id="paint0_linear_514_3033" x1="526" y1="0.500045" x2="222.275" y2="386.039" gradientUnits="userSpaceOnUse">
<stop stop-color="white" stop-opacity="0"/>
<stop offset="1" stop-color="#CAFFE5"/>
</linearGradient>
</defs>
</svg>
