<svg width="485" height="323" viewBox="0 0 485 323" fill="none" xmlns="http://www.w3.org/2000/svg">
<mask id="mask0_514_3073" style="mask-type:alpha" maskUnits="userSpaceOnUse" x="0" y="0" width="455" height="323">
<path fill-rule="evenodd" clip-rule="evenodd" d="M228.881 0.715885C304.859 3.71802 508.5 33.5 441.5 97.0927C466.76 152.274 456.533 258.65 394 294.5C326.595 333.143 112.749 331.347 43.5 294.5C-25.9036 257.571 4.48765 157.063 30.277 97.0927C56.6726 35.7127 141.244 -2.74697 228.881 0.715885Z" fill="#F4F6F7"/>
</mask>
<g mask="url(#mask0_514_3073)">
<path fill-rule="evenodd" clip-rule="evenodd" d="M228.881 0.715885C304.859 3.71802 508.5 33.5 441.5 97.0927C466.76 152.274 456.533 258.65 394 294.5C326.595 333.143 112.749 331.347 43.5 294.5C-25.9036 257.571 4.48765 157.063 30.277 97.0927C56.6726 35.7127 141.244 -2.74697 228.881 0.715885Z" fill="url(#paint0_linear_514_3073)"/>
<path fill-rule="evenodd" clip-rule="evenodd" d="M232.089 121.915C228.939 120.954 203.156 124.356 199.612 126.419C195.848 141.697 202.762 203.437 204.022 208.933L239.995 208.004C240.342 199.468 238.294 148.154 234.451 129.254C233.191 123.001 232.246 122.261 232.089 121.915ZM233.254 121.505C239.286 130.955 241.035 199.783 240.483 208.272C240.481 208.303 240.473 208.333 240.46 208.361C240.446 208.389 240.427 208.414 240.403 208.435C240.38 208.455 240.353 208.471 240.323 208.481C240.294 208.491 240.263 208.495 240.231 208.492L203.707 209.847C203.156 209.847 203.062 209.39 202.369 204.523C200.274 189.829 194.856 140.342 198.447 126.01C198.541 125.732 198.731 125.498 198.982 125.348C201.928 123.411 230.34 119.269 232.86 120.938C232.966 120.996 233.056 121.077 233.124 121.175C233.193 121.274 233.237 121.387 233.254 121.505ZM257.635 150.028C253.524 161.274 252.076 195.404 252.643 207.201L287.151 207.705C288.3 199.483 290.679 156.911 286.521 149.194C285.812 148.028 258.911 148.548 257.635 150.028ZM287.686 148.784C291.892 157.21 289.592 199.499 288.08 208.303C288.058 208.424 287.993 208.533 287.898 208.611C287.803 208.689 287.683 208.731 287.56 208.729L252.469 207.689C252.123 207.689 252.06 207.358 251.965 203.988C251.634 191.545 252.327 161.227 256.58 149.509C256.816 148.863 257.95 148.627 258.675 148.485C264.156 147.382 281.654 146.91 286.19 147.776C286.788 147.934 287.56 148.154 287.655 148.784H287.686ZM386.785 135.334C382.989 134.215 361.239 134.767 357.931 136.216C353.474 148.579 352.419 196.633 352.812 209.8C364.151 210.888 375.559 211.067 386.927 210.335C387.888 203.342 390.376 155.21 387.919 139.586C387.771 138.117 387.388 136.682 386.785 135.334ZM387.982 134.987C392.266 143.76 389.242 202.429 387.793 210.855C387.774 210.957 387.722 211.051 387.645 211.122C387.569 211.193 387.472 211.237 387.368 211.249C375.764 211.908 364.125 211.581 352.576 210.272C351.537 209.957 351.631 150.028 356.86 135.712C357.096 135.05 358.23 134.83 358.955 134.688C364.373 133.585 381.903 133.113 386.47 133.979C387.163 134.089 388.014 134.341 388.045 134.987H387.982ZM341.63 118.639C338.48 117.284 310.681 117.835 306.681 119.631C301.326 134.2 300.381 194.758 301.105 209.863L341.205 210.256C342.48 201.31 345.851 142.768 343.032 123.899C342.916 122.07 342.44 120.283 341.63 118.639ZM342.858 118.355C348.166 128.892 343.599 201.83 342.055 210.792C342.037 210.901 341.981 210.999 341.898 211.071C341.814 211.143 341.709 211.184 341.598 211.186L300.932 210.351C300.57 210.351 300.507 209.973 300.365 204.665C299.971 188.836 300.16 133.79 305.61 119.127C305.732 118.858 305.952 118.644 306.224 118.528C309.563 116.843 340.039 115.741 342.449 117.741C342.562 117.802 342.659 117.89 342.73 117.997C342.802 118.104 342.846 118.227 342.858 118.355Z" fill="#20262C"/>
<path fill-rule="evenodd" clip-rule="evenodd" d="M210.086 133.428C207.927 133.034 205.703 133.202 203.628 133.916C203.629 135.821 203.782 137.722 204.085 139.602C206.145 139.545 208.194 139.27 210.196 138.783C210.309 138.101 210.362 137.411 210.354 136.72C210.378 135.731 210.341 134.743 210.243 133.759C210.228 133.507 210.243 133.507 210.086 133.428ZM203.187 133.759C203.187 133.759 202.935 136.909 203.014 138.736C203.093 140.311 203.093 140.831 206.574 140.453C208.047 140.319 209.5 140.018 210.905 139.555C211.204 139.366 211.267 138.941 211.33 138.437C211.44 137.523 211.614 133.397 210.952 132.751C209.566 131.459 203.203 133.034 203.187 133.759ZM311.831 129.38C311.673 131.267 311.673 133.164 311.831 135.05H312.634C314.388 135.071 316.141 134.961 317.879 134.72C318.226 133.035 318.405 131.321 318.414 129.601C317.564 129.034 312.76 128.861 311.831 129.38ZM311.343 129.207C311.343 129.207 310.776 132.357 310.681 134.137C310.587 135.917 310.681 136.295 314.099 136.247C315.593 136.266 317.084 136.107 318.54 135.775C318.855 135.602 318.981 135.208 319.092 134.657C319.296 133.727 319.863 129.632 319.249 128.908C317.989 127.459 311.453 128.388 311.343 129.207ZM329.124 129.317C328.967 131.204 328.967 133.101 329.124 134.987C329.392 135.006 329.66 135.006 329.928 134.987C331.682 135.008 333.435 134.898 335.172 134.657C335.528 132.974 335.708 131.258 335.708 129.538C334.81 128.892 330.085 128.798 329.124 129.317ZM328.652 129.16C328.343 130.791 328.117 132.436 327.975 134.09C327.975 135.665 327.975 136.232 331.392 136.2C332.886 136.204 334.375 136.045 335.834 135.728C336.165 135.554 336.275 135.161 336.385 134.594C336.59 133.664 337.157 129.569 336.543 128.845C335.283 127.459 328.746 128.341 328.652 129.16ZM328.951 146.075C328.802 147.962 328.802 149.858 328.951 151.745H329.754C331.508 151.769 333.261 151.664 334.999 151.43C335.353 149.747 335.533 148.032 335.535 146.312C334.7 145.65 329.943 145.556 328.951 146.075ZM328.479 145.902C328.17 147.533 327.944 149.178 327.801 150.832C327.723 152.407 327.801 152.99 331.219 152.942C332.713 152.955 334.203 152.796 335.661 152.47C335.991 152.297 336.102 151.903 336.212 151.352C336.417 150.422 336.984 146.327 336.369 145.603C335.109 144.122 328.51 145.083 328.51 145.902H328.479ZM328.038 164.235C327.94 166.126 327.993 168.022 328.195 169.905H328.998C330.752 169.861 332.5 169.688 334.227 169.385C334.521 167.685 334.631 165.959 334.558 164.235C333.755 163.574 329.014 163.684 328.038 164.235ZM327.549 164.078C327.549 164.078 327.108 167.228 327.077 169.039C327.045 170.85 327.077 171.181 330.573 171.008C332.068 170.962 333.553 170.745 334.999 170.362C335.314 170.173 335.409 169.779 335.503 169.212C335.676 168.283 336.07 164.156 335.503 163.463C334.117 162.109 327.628 163.259 327.549 164.078ZM311.185 182.253C311.08 184.144 311.132 186.041 311.343 187.923H312.146C313.899 187.871 315.646 187.697 317.375 187.403C317.652 185.701 317.763 183.977 317.706 182.253C316.855 181.592 312.099 181.686 311.185 182.253ZM310.697 182.096C310.455 183.74 310.297 185.396 310.224 187.057C310.224 188.632 310.224 189.199 313.721 189.026C315.211 188.981 316.691 188.764 318.131 188.38C318.446 188.191 318.556 187.797 318.651 187.23C318.808 186.301 319.218 182.174 318.651 181.481C317.217 180.064 310.713 181.277 310.65 182.096H310.697ZM311.295 199.074C311.198 200.965 311.25 202.861 311.453 204.744C311.72 204.76 311.989 204.76 312.256 204.744C314.01 204.698 315.758 204.519 317.485 204.209C317.763 202.512 317.874 200.792 317.816 199.074C317.013 198.428 312.272 198.523 311.295 199.074ZM310.807 198.932C310.807 198.932 310.366 202.082 310.335 203.878C310.303 205.673 310.335 206.036 313.831 205.862C315.325 205.809 316.809 205.592 318.257 205.217C318.572 205.028 318.666 204.618 318.761 204.067C318.934 203.138 319.328 199.011 318.761 198.318C317.375 196.885 310.886 198.098 310.807 198.932ZM327.801 181.623C327.704 183.514 327.756 185.41 327.959 187.293C328.226 187.309 328.495 187.309 328.762 187.293C330.516 187.247 332.264 187.068 333.991 186.758C334.285 185.063 334.396 183.341 334.322 181.623C333.519 181.009 328.778 181.009 327.801 181.623ZM327.313 181.481C327.313 181.481 326.872 184.631 326.841 186.427C326.809 188.222 326.841 188.585 330.337 188.411C331.831 188.358 333.315 188.141 334.763 187.766C335.078 187.577 335.172 187.183 335.267 186.616C335.44 185.687 335.834 181.56 335.267 180.867C333.881 179.434 327.392 180.662 327.313 181.481ZM327.077 199.799C326.867 201.681 326.815 203.577 326.919 205.469H327.723C329.474 205.521 331.227 205.442 332.967 205.232C333.349 203.552 333.555 201.837 333.582 200.114C332.81 199.452 328.069 199.295 327.077 199.799ZM326.589 199.625C326.589 199.625 325.974 202.775 325.848 204.539C325.722 206.303 325.754 206.681 329.235 206.697C330.725 206.734 332.215 206.602 333.676 206.303C334.007 206.13 334.117 205.736 334.259 205.185C334.464 204.256 335.094 200.161 334.495 199.436C333.235 197.94 326.715 198.806 326.589 199.625ZM311.658 145.697C311.508 147.584 311.508 149.48 311.658 151.367H312.461C314.214 151.391 315.967 151.286 317.706 151.052C318.06 149.369 318.239 147.654 318.241 145.934C317.485 145.272 312.65 145.178 311.658 145.697ZM311.185 145.524C311.185 145.524 310.602 148.674 310.508 150.454C310.413 152.234 310.508 152.612 313.926 152.564C315.42 152.585 316.911 152.426 318.367 152.092C318.698 151.919 318.808 151.525 318.934 150.974C319.123 150.044 319.69 145.949 319.092 145.225C317.816 143.744 311.28 144.784 311.185 145.524ZM310.571 163.967C310.572 165.861 310.724 167.752 311.028 169.622C311.295 169.642 311.563 169.642 311.831 169.622C313.581 169.489 315.319 169.22 317.028 168.818C317.194 167.111 317.194 165.391 317.028 163.684C316.257 163.022 311.516 163.369 310.571 163.967ZM310.083 163.841C310.083 163.841 309.799 166.991 309.862 168.818C309.925 170.645 310.004 170.96 313.469 170.614C314.951 170.484 316.415 170.188 317.832 169.732C318.147 169.527 318.225 169.133 318.288 168.566C318.414 167.621 318.603 163.495 317.926 162.833C316.54 161.479 310.114 163.022 310.083 163.841ZM260.691 157.526C260.541 159.418 260.541 161.319 260.691 163.211H261.494C263.249 163.207 265.002 163.075 266.739 162.818C267.059 161.125 267.212 159.405 267.195 157.683C266.55 157.053 261.714 156.974 260.691 157.526ZM260.218 157.368C260.218 157.368 259.683 160.518 259.604 162.314C259.525 164.109 259.604 164.456 263.053 164.377C264.549 164.367 266.039 164.187 267.495 163.841C267.81 163.668 267.92 163.259 268.03 162.723C268.219 161.794 268.739 157.667 268.109 156.959C266.817 155.51 260.313 156.565 260.218 157.384V157.368ZM275.937 156.959C275.787 158.846 275.787 160.742 275.937 162.629H276.756C278.506 162.632 280.254 162.5 281.985 162.235C282.318 160.544 282.477 158.824 282.457 157.1C281.796 156.486 276.96 156.407 275.937 156.959ZM275.448 156.785C275.448 156.785 274.929 159.935 274.85 161.731C274.85 163.306 274.85 163.889 278.299 163.794C279.79 163.793 281.276 163.613 282.725 163.259C283.056 163.085 283.166 162.676 283.276 162.14C283.465 161.211 283.969 157.085 283.276 156.376C282.063 154.927 275.543 155.982 275.448 156.785ZM275.984 173.701C275.842 175.588 275.842 177.483 275.984 179.371H276.803C278.553 179.375 280.302 179.243 282.032 178.977C282.365 177.292 282.523 175.576 282.504 173.858C281.843 173.228 277.008 173.134 275.984 173.701ZM275.496 173.543C275.496 173.543 274.976 176.693 274.897 178.473C274.818 180.253 274.897 180.631 278.346 180.536C279.837 180.532 281.321 180.358 282.772 180.017C283.103 179.828 283.213 179.434 283.323 178.883C283.512 177.969 284.016 173.843 283.323 173.134C282.111 171.669 275.606 172.724 275.496 173.543ZM259.856 174.347C259.706 176.234 259.706 178.13 259.856 180.017H260.659C262.415 180.02 264.168 179.889 265.904 179.623C266.224 177.936 266.377 176.221 266.361 174.504C265.715 173.874 260.88 173.795 259.856 174.347ZM259.383 174.189C259.383 174.189 258.848 177.339 258.769 179.119C258.69 180.899 258.769 181.277 262.218 181.182C263.714 181.177 265.204 181.003 266.66 180.662C266.975 180.473 267.085 180.08 267.195 179.528C267.384 178.599 267.904 174.488 267.274 173.78C265.983 172.315 259.478 173.37 259.383 174.189ZM260.155 191.876C260.005 193.763 260.005 195.659 260.155 197.546H260.958C262.714 197.55 264.467 197.418 266.203 197.153C266.524 195.46 266.677 193.74 266.66 192.018C266.014 191.404 261.179 191.325 260.155 191.876ZM259.683 191.703C259.683 191.703 259.147 194.853 259.068 196.649C259.068 198.224 259.068 198.806 262.518 198.712C264.009 198.71 265.495 198.531 266.943 198.176C267.274 198.003 267.384 197.594 267.495 197.058C267.684 196.129 268.203 192.002 267.495 191.294C266.282 189.845 259.777 190.9 259.683 191.703ZM275.118 191.01C274.968 192.902 274.968 194.804 275.118 196.696C275.385 196.712 275.653 196.712 275.921 196.696C277.676 196.694 279.428 196.567 281.166 196.318C281.486 194.625 281.639 192.906 281.622 191.183C280.977 190.538 276.141 190.459 275.118 191.01ZM274.645 190.853C274.645 190.853 274.11 194.003 274.031 195.798C273.952 197.594 274.031 197.94 277.48 197.861C278.971 197.852 280.456 197.672 281.906 197.326C282.237 197.153 282.347 196.743 282.457 196.192C282.646 195.278 283.166 191.152 282.457 190.443C281.26 188.994 274.74 190.049 274.645 190.853ZM362.262 144.217C362.113 146.109 362.113 148.01 362.262 149.903C364.285 149.948 366.309 149.821 368.31 149.525C368.641 147.833 368.799 146.113 368.783 144.39C368.169 143.76 363.286 143.666 362.262 144.217ZM361.774 144.059C361.491 145.697 361.291 147.347 361.176 149.005C361.176 150.58 361.176 151.147 364.625 151.068C366.116 151.059 367.601 150.879 369.051 150.533C369.381 150.359 369.476 149.95 369.586 149.399C369.775 148.469 370.295 144.359 369.681 143.65C368.389 142.185 361.869 143.209 361.774 144.059ZM361.443 161.038C361.286 162.925 361.286 164.821 361.443 166.708C363.466 166.761 365.49 166.634 367.491 166.33C367.809 164.642 367.962 162.928 367.948 161.211C367.365 160.534 362.467 160.534 361.443 161.038ZM360.971 160.88C360.971 160.88 360.435 164.03 360.357 165.81C360.278 167.59 360.357 167.968 363.806 167.873C365.296 167.87 366.781 167.696 368.232 167.354C368.562 167.165 368.673 166.771 368.783 166.22C368.972 165.29 369.492 161.18 368.862 160.471C367.586 158.959 361.05 160.061 360.971 160.88ZM360.719 177.481C360.569 179.373 360.569 181.274 360.719 183.167C362.747 183.212 364.776 183.086 366.783 182.789C367.1 181.096 367.253 179.376 367.239 177.654C366.641 177.024 361.743 176.93 360.719 177.481ZM360.231 177.323C360.231 177.323 359.711 180.473 359.632 182.269C359.553 184.064 359.632 184.411 363.081 184.332C364.572 184.324 366.057 184.144 367.507 183.797C367.838 183.623 367.948 183.214 368.058 182.678C368.247 181.749 368.767 177.623 368.058 176.914C366.861 175.465 360.325 176.52 360.231 177.323ZM360.609 192.837C360.451 194.729 360.451 196.631 360.609 198.523C362.632 198.568 364.655 198.441 366.657 198.145C366.982 196.453 367.135 194.733 367.113 193.01C366.531 192.38 361.585 192.286 360.609 192.837ZM360.136 192.68C360.136 192.68 359.601 195.83 359.522 197.625C359.443 199.421 359.522 199.767 362.971 199.688C364.462 199.68 365.947 199.5 367.397 199.153C367.728 198.98 367.838 198.57 367.948 198.035C368.137 197.09 368.657 192.979 368.027 192.27C366.751 190.821 360.215 191.876 360.136 192.68ZM375.272 192.648C375.114 194.535 375.114 196.431 375.272 198.318C377.295 198.363 379.318 198.237 381.32 197.94C381.637 196.253 381.79 194.538 381.777 192.821C381.194 192.191 376.296 192.034 375.272 192.648ZM374.799 192.491C374.799 192.491 374.264 195.641 374.185 197.42C374.106 199.2 374.185 199.578 377.634 199.484C379.125 199.48 380.61 199.306 382.06 198.964C382.391 198.775 382.501 198.381 382.611 197.83C382.8 196.901 383.32 192.79 382.69 192.081C381.414 190.616 374.878 191.672 374.799 192.491ZM375.634 176.599C375.484 178.486 375.484 180.382 375.634 182.269C377.657 182.314 379.68 182.187 381.682 181.891C382.012 180.205 382.171 178.49 382.155 176.772C381.54 176.142 376.658 176.048 375.634 176.599ZM375.146 176.441C374.863 178.073 374.663 179.719 374.547 181.371C374.547 182.946 374.547 183.529 377.997 183.434C379.487 183.43 380.972 183.256 382.422 182.915C382.753 182.726 382.848 182.332 382.958 181.781C383.147 180.851 383.667 176.741 383.052 176.032C381.761 174.567 375.24 175.622 375.146 176.441ZM377.335 160.392C377.185 162.279 377.185 164.175 377.335 166.062C379.358 166.107 381.381 165.981 383.383 165.684C383.714 163.993 383.872 162.273 383.856 160.55C383.304 159.92 378.422 159.825 377.335 160.392ZM376.847 160.219C376.564 161.856 376.365 163.507 376.248 165.164C376.248 166.739 376.248 167.322 379.698 167.228C381.188 167.223 382.673 167.049 384.123 166.708C384.454 166.519 384.549 166.109 384.659 165.574C384.848 164.645 385.368 160.534 384.753 159.825C383.525 158.36 377.004 159.416 376.91 160.219H376.847ZM377.493 143.65C377.343 145.537 377.343 147.433 377.493 149.32C379.516 149.365 381.539 149.238 383.541 148.942C383.866 147.25 384.019 145.53 383.997 143.807C383.415 143.209 378.516 143.083 377.493 143.65ZM377.02 143.477C377.02 143.477 376.485 146.627 376.406 148.422C376.327 150.218 376.406 150.564 379.855 150.485C381.351 150.476 382.841 150.296 384.297 149.95C384.612 149.777 384.722 149.367 384.832 148.832C385.021 147.902 385.541 143.776 384.911 143.067C383.635 141.634 377.099 142.673 377.02 143.477ZM205.077 150.092C205.025 152.002 205.125 153.914 205.377 155.809C207.436 155.8 209.489 155.578 211.503 155.147C211.639 154.468 211.708 153.777 211.708 153.084C211.774 152.035 211.774 150.983 211.708 149.934C211.661 149.304 206.227 149.336 205.077 150.092ZM204.636 149.966C204.636 149.966 204.306 153.116 204.353 154.927C204.4 156.738 204.353 157.022 207.849 156.738C209.329 156.643 210.793 156.379 212.212 155.951C212.511 155.762 212.59 155.305 212.653 154.848C212.795 153.935 213.063 149.808 212.433 149.147C211.078 147.776 204.668 149.194 204.636 149.966ZM211.787 167.401C209.719 167.268 207.65 167.636 205.755 168.472C205.901 170.367 206.201 172.248 206.652 174.095C208.697 173.873 210.713 173.44 212.669 172.803C212.734 172.117 212.734 171.426 212.669 170.74C212.624 169.773 212.514 168.81 212.338 167.858C212.291 167.48 212.291 167.448 211.787 167.401ZM205.298 168.393C205.298 168.393 205.298 171.543 205.534 173.354C205.723 174.929 205.802 175.433 209.204 174.788C210.662 174.535 212.088 174.123 213.456 173.559C213.74 173.339 213.771 172.913 213.787 172.409C213.787 171.496 213.677 167.354 212.968 166.771C211.488 165.542 205.282 167.621 205.298 168.409V168.393ZM214.134 185.734C212.055 185.533 209.959 185.835 208.023 186.616C208.099 188.517 208.336 190.409 208.731 192.27C210.785 192.111 212.817 191.742 214.795 191.168C214.852 190.481 214.852 189.791 214.795 189.104C214.776 188.108 214.697 187.114 214.559 186.128C214.606 186.017 214.669 185.876 214.134 185.734ZM207.566 186.537C207.566 186.537 207.471 189.687 207.645 191.498C207.786 193.073 207.818 193.593 211.267 193.073C212.735 192.868 214.177 192.503 215.567 191.987C215.835 191.782 215.882 191.341 215.929 190.837C215.929 189.923 215.929 185.781 215.283 185.183C213.834 183.923 207.566 185.813 207.566 186.584V186.537ZM220.859 132.184C220.873 134.078 221.031 135.968 221.331 137.838C223.354 137.721 225.362 137.426 227.332 136.956C227.506 135.244 227.506 133.518 227.332 131.806C226.655 131.255 221.835 131.585 220.859 132.184ZM220.371 132.058C220.371 132.058 220.103 135.208 220.182 137.035C220.26 138.862 220.308 139.177 223.788 138.815C225.272 138.68 226.735 138.379 228.151 137.917C228.466 137.712 228.529 137.287 228.608 136.736C228.718 135.806 228.891 131.664 228.198 131.003C226.797 129.68 220.402 131.286 220.371 132.089V132.058ZM228.183 148.375C226.232 148.08 224.239 148.231 222.355 148.816C222.315 150.712 222.426 152.608 222.686 154.486H223.489C225.243 154.397 226.986 154.165 228.702 153.793C228.923 152.228 228.981 150.645 228.876 149.068C228.844 148.595 229.049 148.532 228.183 148.375ZM221.883 148.69C221.883 148.69 221.536 151.84 221.568 153.651C221.599 155.462 221.662 155.793 225.127 155.51C226.618 155.421 228.093 155.156 229.521 154.722C229.836 154.533 229.915 154.124 230.01 153.572C230.136 152.627 230.419 148.485 229.758 147.824C228.356 146.438 221.898 147.934 221.851 148.69H221.883ZM228.939 166.251C226.968 166.07 224.982 166.334 223.127 167.023C223.208 168.917 223.434 170.802 223.804 172.661C225.816 172.462 227.808 172.093 229.758 171.559C229.892 169.985 229.861 168.401 229.663 166.834C229.6 166.424 229.805 166.346 228.939 166.251ZM222.639 166.928C222.639 166.928 222.465 170.078 222.639 171.905C222.812 173.732 222.843 174.047 226.308 173.48C227.788 173.298 229.242 172.944 230.64 172.425C230.939 172.22 231.002 171.811 231.049 171.244C231.128 170.299 231.159 166.157 230.466 165.527C228.954 164.282 222.639 166.125 222.639 166.928ZM224.765 183.923C224.615 185.815 224.615 187.716 224.765 189.608C226.689 189.655 228.614 189.523 230.514 189.215H230.813C231.124 187.527 231.267 185.812 231.238 184.096C230.577 183.387 225.773 183.371 224.765 183.923ZM224.277 183.765C224.277 183.765 223.773 186.915 223.71 188.711C223.647 190.506 223.71 190.868 227.175 190.758C228.666 190.735 230.151 190.544 231.6 190.191C231.931 190.002 232.026 189.608 232.136 189.057C232.325 188.128 232.797 184.001 232.136 183.293C230.86 181.828 224.371 182.978 224.277 183.765Z" fill="#20262C"/>
<path fill-rule="evenodd" clip-rule="evenodd" d="M395.92 95.5334C389.022 91.5959 334.385 60.7889 331.046 59.1509C330.304 58.7363 329.509 58.4237 328.683 58.2216C327.297 58.2216 311.358 66.6321 268.188 89.2649C263.321 84.4296 226.576 49.6221 218.26 41.8416C220.07 39.262 221.576 36.4821 222.749 33.5571C222.778 33.4031 222.755 33.2437 222.684 33.1041C222.612 32.9644 222.497 32.8524 222.355 32.7854C219.52 30.8481 197.328 26.8949 193.596 29.5251C192.698 30.1551 191.422 33.1161 190.446 34.4549C188.871 36.5969 191.517 44.5034 192.336 47.0549C192.016 47.9215 191.88 48.8452 191.937 49.7672C191.994 50.6893 192.242 51.5893 192.666 52.4099C192.96 53.2501 193.202 54.1074 193.391 54.9771C192.808 54.8511 192.225 54.6779 191.926 54.9771C187.721 60.1904 155.544 88.0521 145.605 93.2654C145.658 91.797 145.584 90.3268 145.385 88.8711C145.385 88.5719 145.117 88.5089 144.881 88.4144C145.18 87.2804 145.495 86.0676 145.779 85.0439C147.354 84.7761 148.44 84.2249 150.063 83.8941C150.925 83.6936 151.729 83.2944 152.41 82.7284C153.09 82.1624 153.63 81.4451 153.984 80.6339C154.567 79.2006 154.095 78.0194 154.315 76.5546C154.315 76.2081 155.622 75.4836 154.945 74.0346C154.679 73.3362 154.259 72.7064 153.717 72.1919C153.317 71.8812 152.933 71.55 152.567 71.1996C153.496 70.8531 154.142 70.3491 153.827 69.3726C152.865 67.6746 151.814 66.029 150.677 64.4429C150.222 63.7506 149.912 62.9739 149.763 62.1591C149.259 60.2849 149.858 60.5841 149.637 59.0091C150.463 58.5766 151.118 57.8771 151.496 57.0246C151.536 56.9355 151.557 56.8388 151.557 56.7411C151.557 56.6434 151.536 56.5468 151.496 56.4576C151.796 56.351 152.081 56.2082 152.346 56.0324C153.559 55.2291 153.15 54.2369 152.11 53.2604C154.236 51.2916 149.511 46.7399 139.857 48.5354C138.926 48.8389 138.016 49.2019 137.132 49.6221C136.192 49.2712 135.188 49.1262 134.187 49.1969C132.166 49.4052 130.204 49.9986 128.406 50.9451C127.052 51.6696 125.115 53.9534 125.445 55.5756C124.93 55.6599 124.437 55.8474 123.996 56.1269C121.382 58.0484 120.185 61.6394 122.421 64.0019C122.301 64.2583 122.211 64.5279 122.154 64.8051C121.831 65.7782 121.744 66.8139 121.901 67.827C122.057 68.8402 122.451 69.8017 123.051 70.6326C123.877 71.6508 124.906 72.4861 126.072 73.0853C127.238 73.6846 128.515 74.0347 129.824 74.1134C129.77 74.3136 129.743 74.5202 129.745 74.7276C129.745 75.5151 129.351 77.2949 130.359 77.8776L130.722 78.0036C130.312 79.5786 129.871 81.2639 129.509 82.7286C128.139 82.2246 127.934 82.0671 127.713 82.3349C126.991 83.0922 126.41 83.9722 125.997 84.9336C121.067 83.5161 107.049 101.077 101.71 120.686C98.4184 132.987 94.8904 168.834 98.5602 172.204C99.1197 172.717 99.7383 173.161 100.403 173.527C99.5052 184.647 103.411 196.349 108.955 206.02C114.31 215.438 125.792 289.132 130.06 292.834C130.538 293.128 131.077 293.311 131.635 293.369C131.011 296.112 131.158 298.974 132.06 301.638C132.234 302.173 133.005 302.441 133.635 302.614C137.526 303.764 149.259 304.426 153.323 303.197C154.142 302.945 155.071 302.488 155.04 301.622C154.835 296.188 145.086 296.897 143.511 296.251C143.542 295.387 143.653 294.528 143.841 293.684C144.438 293.67 145.031 293.58 145.605 293.416C150.441 291.29 161.072 210.067 162.395 175.906C164.037 175.546 165.57 174.801 166.868 173.732C169.656 173.732 173.861 172.393 175.026 169.826C175.184 169.366 175.218 168.873 175.127 168.395C175.036 167.917 174.822 167.471 174.507 167.101C181.878 162.849 186.933 156.549 187.248 148.044C187.363 144.042 186.674 140.058 185.221 136.327C183.768 132.596 181.582 129.195 178.791 126.325C173.936 121.728 167.645 118.946 160.977 118.45C160.489 116.654 159.985 114.922 159.402 113.315C166.229 111.394 172.414 107.673 177.31 102.542C188.871 90.5879 198.51 76.2869 202.242 60.1589C203.613 58.8831 205.392 57.1034 207.156 55.1189C215.535 62.9939 259.935 104.983 264.14 109.22C264.486 109.551 264.959 109.22 265.4 109.063C266.361 108.622 325.675 77.8934 326.683 77.4681C334.983 79.4526 378.564 105.818 388.581 111.394C388.656 111.425 388.736 111.441 388.817 111.441C388.898 111.441 388.978 111.425 389.053 111.394C389.415 111.283 389.053 111.866 394.251 102.353C395.085 101.66 396.062 97.1556 396.251 96.0531C396.245 95.9454 396.211 95.8411 396.153 95.7501C396.096 95.6591 396.015 95.5844 395.92 95.5334ZM193.391 52.0791C192.21 48.7086 192.651 46.3934 196.116 45.6689C196.937 45.4439 197.784 45.3326 198.636 45.3381C199.061 45.4641 199.99 45.8894 199.927 46.0469C199.893 46.1281 199.832 46.195 199.754 46.2359C198.917 46.708 198.015 47.0531 197.076 47.2596C196.855 47.2749 196.638 47.3226 196.431 47.4014C195.708 47.536 195.018 47.8088 194.399 48.2046C193.627 48.9134 194.005 50.2364 194.745 50.9609C195.974 52.1736 197.895 51.3074 199.47 50.6931C201.045 50.0789 203.25 49.1181 203.786 49.6851C204.321 50.2521 201.628 51.6224 200.982 52.8351C200.494 53.7486 200.982 55.5599 200.762 57.1979C198.982 56.5836 195.895 55.5284 194.068 55.0086C193.901 54.0194 193.675 53.0411 193.391 52.0791ZM202.841 48.3621C198.714 49.6064 197.092 50.8821 195.848 50.4411C195.618 50.3333 195.421 50.1678 195.275 49.9607C195.128 49.7537 195.038 49.5122 195.013 49.2599C194.887 48.6141 196.021 48.4881 196.793 48.1259C197.565 47.7636 198.368 48.1259 199.833 47.2754C200.25 47.077 200.576 46.7281 200.746 46.2989C201.918 45.8121 203.13 45.4274 204.369 45.1491L206.967 45.9051L205.566 47.4801L202.841 48.3621ZM152 103.645C151.905 102.511 151.26 102.07 150.425 102.385C149.59 102.7 148.173 103.786 148.141 103.613C148.11 103.44 148.141 103.613 148.236 103.613C147.385 102.999 124.926 87.2646 123.76 86.3511C123.986 85.9693 124.336 85.6766 124.752 85.5218C125.167 85.367 125.623 85.3595 126.044 85.5006C132.304 87.6056 138.265 90.512 143.778 94.1474C153.339 100.447 155.985 104.763 159.387 116.875C158.158 115.3 156.945 113.63 155.685 112.15C153.244 109.252 152.535 109.189 152.11 108.165C151.932 106.665 151.895 105.152 152 103.645ZM148.85 62.3954C149.013 63.3046 149.355 64.1721 149.858 64.9469C150.834 66.5219 152.74 69.1206 152.882 69.6719C153.024 70.2231 152.016 70.2074 151.307 70.5696C149.637 70.1759 148.629 71.2784 147.338 71.3886C146.503 71.3886 145.763 71.2626 145.038 71.2784C143.81 71.2784 144.456 71.5619 143.054 71.5619C142.125 71.5619 140.912 71.4674 140.628 71.5619C140.077 71.5619 139.195 71.9714 138.423 72.0816C137.652 72.1919 137.541 71.9871 137.368 71.7036C136.329 69.9081 134.88 63.2459 134.092 62.5529L133.21 61.8126C132.452 61.2487 131.899 60.4522 131.635 59.5446C131.635 59.0721 131.84 58.6626 132.612 58.4736C134.596 57.9854 136.344 58.8516 138.313 59.2454C141.463 59.9069 145.7 60.5526 148.755 59.3556C148.866 60.5369 148.346 60.4581 148.834 62.3954H148.85ZM130.58 65.7659C131.304 65.8604 132.155 66.1754 132.344 66.8841C132.344 67.6559 132.344 69.4829 132.249 70.3491C130.974 70.3491 129.761 68.7741 129.099 67.5141C128.438 66.2541 129.477 65.6084 130.564 65.7659H130.58ZM132.564 74.6961L132.911 74.5229C132.816 76.1753 132.816 77.8317 132.911 79.4841C133.368 81.9254 133.698 82.9964 136.659 84.0516C139.222 85.0312 141.974 85.4189 144.708 85.1856L143.952 87.9891C143.385 87.7529 134.061 84.2091 130.47 82.8704C130.926 80.8229 131.383 78.8069 132.549 74.6961H132.564ZM128.139 82.9334C128.611 83.1381 144.125 89.1074 144.597 89.2334C144.897 90.7916 145.065 92.3721 145.101 93.9584C139.351 90.2053 133.121 87.2439 126.579 85.1541C126.981 84.3418 127.502 83.5934 128.123 82.9334H128.139ZM143.29 293.653C143.055 294.481 142.902 295.33 142.833 296.188C139.227 296.472 135.604 296.472 131.997 296.188C131.967 295.237 132.004 294.284 132.108 293.338C135.816 293.733 139.55 293.838 143.274 293.653H143.29ZM173.955 169.228C173.136 171.039 170.349 172.094 168.396 172.456C165.387 173.039 162.631 171.795 159.906 170.314L165.34 165.589C165.62 165.904 165.925 166.193 166.254 166.456C166.978 166.975 167.671 166.629 168.317 166.015C169.53 164.865 169.892 163.306 171.026 163.715C171.157 163.763 171.271 163.849 171.355 163.96C171.439 164.072 171.489 164.206 171.498 164.345C170.853 165.589 168.931 167.889 170.727 168.661C171.253 168.788 171.803 168.782 172.326 168.641C172.848 168.501 173.328 168.231 173.719 167.857C173.871 168.063 173.97 168.302 174.008 168.555C174.047 168.807 174.023 169.065 173.94 169.306L173.955 169.228ZM137.447 158.959C139.457 161.111 141.936 162.771 144.692 163.81C149.952 167.101 154.756 169.7 156.93 170.834C142.755 170.425 129.367 164.991 127.902 150.674C130.77 153.778 133.97 156.557 137.447 158.959ZM150.535 135.948C152.315 134.231 155.26 133.759 157.638 133.491C157.528 137.491 157.638 140.106 157.859 144.185L156.457 143.886C154.814 141.42 152.849 139.185 150.614 137.239C150.535 137.003 150.535 136.562 150.535 135.948ZM158.914 145.524C162.537 146.264 167.718 147.304 168.726 150.658C169.734 154.013 167.151 156.171 164.001 157.368C158.41 145.492 159.229 150.107 158.977 145.524H158.914ZM164.442 158.25C168.159 156.911 170.868 154.171 169.75 150.375C168.632 146.579 163.135 145.256 158.93 144.406C158.725 140.61 158.489 136.326 158.331 133.381C164.994 132.877 166.332 135.113 166.663 134.546C166.692 134.496 166.7 134.436 166.685 134.38C166.67 134.324 166.634 134.276 166.584 134.247C164.023 132.962 161.154 132.417 158.3 132.672C158.3 131.349 158.19 130.42 158.19 130.136C158.19 130.078 158.166 130.022 158.125 129.98C158.084 129.939 158.028 129.916 157.969 129.916C157.911 129.916 157.855 129.939 157.813 129.98C157.772 130.022 157.749 130.078 157.749 130.136C157.749 130.861 157.749 131.711 157.654 132.719C155.174 132.722 152.741 133.397 150.614 134.672C150.614 132.546 150.74 129.349 150.614 125.569C158.284 123.726 167.514 125.128 173.388 130.813C175.541 132.978 177.237 135.553 178.376 138.386C179.515 141.219 180.074 144.251 180.019 147.304C179.736 155.037 173.892 160.408 166.695 163.321C166.427 162.518 165.639 160.644 164.505 158.25H164.442ZM186.76 147.934C186.414 157.384 179.736 163.904 171.294 167.763C171.089 167.763 171.057 167.653 171.105 167.464C171.262 166.519 172.569 165.085 172.522 164.408C172.498 164.076 172.381 163.758 172.184 163.49C171.987 163.222 171.718 163.015 171.409 162.893C171.099 162.771 170.761 162.739 170.434 162.801C170.108 162.863 169.805 163.016 169.561 163.243C168.994 163.715 167.986 165.967 167.025 166.125C166.663 166.125 166.254 165.747 165.765 165.306C166.931 164.314 166.962 164.329 167.01 164.109C174.475 160.959 180.271 155.462 180.57 147.304C180.655 144.174 180.117 141.058 178.986 138.138C177.856 135.218 176.157 132.551 173.987 130.294C168.018 124.309 158.631 122.734 150.661 124.529C150.661 122.781 150.567 121.379 150.472 119.804C159.78 118.04 170.947 119.899 178.161 126.876C180.938 129.626 183.131 132.909 184.609 136.527C186.087 140.146 186.818 144.025 186.76 147.934ZM150.535 118.67C150.362 115.898 150.078 113 149.653 110.102C149.653 110.044 149.63 109.988 149.589 109.946C149.547 109.905 149.491 109.882 149.433 109.882C149.374 109.882 149.318 109.905 149.277 109.946C149.235 109.988 149.212 110.044 149.212 110.102C151.086 124.435 149.212 137.05 150.078 137.759C156.378 142.941 162.82 156.218 165.923 163.747L158.426 170.236C150.047 165.92 131.651 155.368 126.737 147.241C123.659 142.331 121.314 136.998 119.775 131.412C117.066 121.033 119.067 113.882 118.043 113.929C118.013 113.929 117.984 113.935 117.957 113.947C117.929 113.96 117.905 113.978 117.886 114C117.866 114.023 117.852 114.049 117.844 114.078C117.835 114.106 117.834 114.136 117.838 114.166C117.964 117.662 117.035 123.379 119.067 131.601C120.682 137.823 123.305 143.74 126.831 149.115C127.414 162.298 136.974 169.117 150.157 171.165C153.747 171.711 157.384 171.88 161.009 171.669C165.151 174.016 166.159 173.134 165.151 173.701C155.701 178.851 107.774 180.001 98.9224 171.826C95.5519 168.85 99.0484 133.759 102.608 120.922C105.884 109.078 115.003 92.0369 123.398 86.6661C129.414 91.3911 146.708 103.66 147.606 104.479C148.503 105.298 149.905 103.424 150.756 103.361C151.118 103.361 150.456 107.11 150.96 108.527C151.464 109.945 152.315 109.976 154.725 112.843C156.158 114.528 157.497 116.418 158.914 118.198C156.069 118.011 153.212 118.181 150.409 118.702L150.535 118.67ZM176.838 101.944C172.075 107.033 166.04 110.758 159.355 112.732C158.276 108.954 156.624 105.363 154.457 102.085C151.97 99.0278 149.027 96.3716 145.731 94.2104V93.7221C155.985 88.7609 187.39 62.0961 192.777 55.7489C195.749 56.5092 198.673 57.4454 201.534 58.5524C197.88 75.1056 188.335 89.6586 176.712 101.975L176.838 101.944ZM388.754 109.992C379.682 104.842 335.062 77.9879 326.888 76.2396C326.325 76.3191 325.787 76.5236 325.313 76.8381C323.344 77.7989 265.652 107.929 264.833 108.338C260.391 104.101 215.598 62.1749 207.235 54.4259H206.873C205.298 56.2056 203.723 57.8121 202.416 59.1509C202.589 58.2846 202.794 58.0956 201.282 57.4814C201.644 55.8119 201.282 53.9219 201.644 53.2919C202.179 52.4099 204.038 51.5751 204.636 50.5986C204.806 50.3595 204.881 50.0658 204.846 49.7747C204.811 49.4836 204.669 49.2159 204.447 49.0236C206.022 48.5354 206.022 48.5669 206.148 48.4094C206.274 48.2519 207.849 46.3461 208.07 46.0311C208.12 45.9687 208.154 45.8953 208.17 45.817C208.186 45.7388 208.183 45.6578 208.161 45.5809C208.14 45.504 208.1 45.4333 208.046 45.3747C207.992 45.316 207.924 45.2711 207.849 45.2436C206.628 44.9015 205.386 44.6332 204.132 44.4404C200.447 45.6374 200.982 45.8106 200.825 45.6374C200.359 44.993 199.667 44.5486 198.888 44.3931C197.857 44.3084 196.82 44.4207 195.832 44.7239C194.68 44.9211 193.618 45.4715 192.792 46.2989C192.131 44.2356 189.768 36.6284 191.013 34.8801C192.257 33.1319 200.289 33.8879 202.479 34.1399C207.872 34.6947 213.203 35.7493 218.402 37.2899C218.851 37.4258 219.281 37.6218 219.678 37.8726C219.158 39.4476 214.953 44.6609 213.85 45.9366C213.77 46.0189 213.726 46.1291 213.726 46.2438C213.726 46.3584 213.77 46.4686 213.85 46.5509C269.526 99.3134 265.825 97.0454 266.786 96.7619C269.148 95.9901 322.572 67.1834 327.14 65.7659C331.518 67.0259 389.053 99.7386 392.943 101.991L388.754 109.992Z" fill="#20262C"/>
<path fill-rule="evenodd" clip-rule="evenodd" d="M298.459 61.797C301.741 58.5277 304.189 54.5179 305.598 50.1051C307.007 45.6923 307.335 41.0056 306.555 36.4395C304.98 26.454 298.113 17.9962 290.805 14.5312C286.637 12.7512 282.234 11.5841 277.732 11.0662C274.227 10.8381 270.707 11.2002 267.322 12.1372C257.714 15.6967 252.186 19.6342 247.697 28.8322C245.896 33.6343 245.076 38.749 245.287 43.8735C248.878 70.365 281.434 78.2872 298.459 61.797ZM248.611 29.2732C252.879 20.2327 258.265 16.3425 267.511 12.7357C270.789 11.7958 274.199 11.3969 277.606 11.5545C282.051 12.0831 286.387 13.2999 290.458 15.1612C297.42 18.5947 303.94 26.832 305.452 36.6127C306.172 40.9979 305.832 45.4916 304.462 49.719C303.093 53.9464 300.732 57.7851 297.577 60.915C281.26 76.7122 249.934 69.1837 246.406 43.7317C246.203 38.8152 246.952 33.9059 248.611 29.2732Z" fill="#20262C"/>
<path fill-rule="evenodd" clip-rule="evenodd" d="M294.616 58.1588C297.333 55.4387 299.358 52.1073 300.523 48.4436C301.687 44.7799 301.957 40.8905 301.31 37.1011C300.681 33.2705 299.175 29.6372 296.91 26.4845C294.645 23.3317 291.683 20.7448 288.253 18.9256C284.807 17.4624 281.168 16.5024 277.449 16.0748C274.549 15.8795 271.637 16.1723 268.834 16.9411C260.959 19.8548 256.328 23.1151 252.595 30.7853C251.092 34.7711 250.406 39.0187 250.579 43.2751C253.54 65.2936 280.504 71.8928 294.616 58.1588ZM253.493 31.2421C257.021 23.7451 261.463 20.5478 269.07 17.5868C271.763 16.802 274.568 16.4668 277.37 16.5946C281.032 17.038 284.602 18.0475 287.954 19.5871C291.22 21.4022 294.028 23.9416 296.16 27.0104C298.292 30.0792 299.693 33.5957 300.255 37.2901C300.854 40.8948 300.586 44.5904 299.474 48.0712C298.362 51.5521 296.438 54.7184 293.86 57.3083C280.315 70.4123 254.674 64.0021 251.776 43.1333C251.58 39.0962 252.163 35.059 253.493 31.2421Z" fill="#20262C"/>
<path fill-rule="evenodd" clip-rule="evenodd" d="M276.126 39.7785C276.63 51.024 276.724 51.5437 277.071 55.7962C275.696 55.7823 274.323 55.6876 272.96 55.5127C271.162 55.4106 269.423 54.8346 267.92 53.8432C267.451 53.5576 267.053 53.17 266.754 52.7092C266.55 52.347 265.51 52.7092 267.589 54.2842C269.143 55.3837 270.955 56.0619 272.85 56.253C274.273 56.4855 275.709 56.6327 277.149 56.694C277.275 58.269 277.417 59.6865 277.449 60.222C277.462 60.2762 277.494 60.3242 277.538 60.3586C277.582 60.3929 277.637 60.4115 277.693 60.4115C277.749 60.4115 277.803 60.3929 277.847 60.3586C277.891 60.3242 277.923 60.2762 277.937 60.222V56.7098C284.001 56.5208 289.812 52.347 288.3 46.047C287.166 41.322 282 39.9832 277.275 38.8177C277.055 34.0927 276.819 28.8637 276.661 25.3357C278.003 25.1902 279.358 25.2166 280.693 25.4145C284.268 25.9657 284.662 27.2887 285.009 26.7847C285.032 26.7641 285.051 26.7386 285.064 26.7101C285.077 26.6816 285.083 26.6507 285.083 26.6194C285.083 26.5881 285.077 26.5572 285.064 26.5286C285.051 26.5001 285.032 26.4747 285.009 26.454C282.526 24.9091 279.602 24.228 276.693 24.5167C276.693 22.9417 276.567 21.7447 276.582 21.3667C276.582 21.2999 276.556 21.2358 276.508 21.1886C276.461 21.1413 276.397 21.1147 276.33 21.1147C276.263 21.1147 276.199 21.1413 276.152 21.1886C276.105 21.2358 276.078 21.2999 276.078 21.3667C276.078 22.2645 276.078 23.3512 275.968 24.5167C273.752 24.5875 271.588 25.2043 269.668 26.3122C266.912 28.1392 265.038 32.4547 267.195 35.4157C268.959 37.9672 273.149 39.0382 276.126 39.7785ZM287.151 46.3462C288.505 51.7642 283.245 55.4497 277.937 55.7962C277.795 47.9212 277.842 49.4962 277.417 40.0462C281.418 41.1015 286.095 42.4087 287.072 46.3462H287.151ZM267.778 30.5962C269.07 27.021 272.109 25.8712 275.968 25.4775C275.842 30.5332 276.141 38.4082 276.157 38.5815C270.928 37.227 265.888 35.5575 267.699 30.5332L267.778 30.5962ZM144.235 60.5685C142.282 60.7417 141.447 62.2537 141.778 62.4427C142.109 62.6317 142.912 61.7812 144.33 61.6553C145.226 61.5784 146.127 61.5784 147.023 61.6553C147.889 61.5293 146.172 60.3952 144.235 60.5685ZM146.976 63.7973C146.979 63.6524 146.936 63.5102 146.853 63.3916C146.769 63.273 146.65 63.1842 146.513 63.1384C146.375 63.0926 146.227 63.0921 146.089 63.1369C145.951 63.1818 145.831 63.2697 145.747 63.3877C145.416 63.876 145.873 64.6162 145.968 65.1675C145.968 65.3471 146.039 65.5194 146.166 65.6464C146.293 65.7734 146.465 65.8447 146.645 65.8447C146.824 65.8447 146.997 65.7734 147.124 65.6464C147.251 65.5194 147.322 65.3471 147.322 65.1675C147.246 64.7017 147.13 64.2433 146.976 63.7973Z" fill="#20262C"/>
</g>
<defs>
<linearGradient id="paint0_linear_514_3073" x1="448" y1="0.499859" x2="144.275" y2="386.039" gradientUnits="userSpaceOnUse">
<stop stop-color="white" stop-opacity="0"/>
<stop offset="1" stop-color="#CAFFE5"/>
</linearGradient>
</defs>
</svg>
