<svg width="478" height="316" viewBox="0 0 478 316" fill="none" xmlns="http://www.w3.org/2000/svg">
<mask id="mask0_514_3021" style="mask-type:alpha" maskUnits="userSpaceOnUse" x="16" y="1" width="425" height="290">
<path fill-rule="evenodd" clip-rule="evenodd" d="M221.881 1.21588C297.859 4.21802 410.286 44.6966 434.5 97.5927C459.76 152.774 406.691 232.482 344.158 268.332C276.753 306.975 181.942 291.969 112.693 255.122C43.2892 218.192 -2.51236 157.563 23.277 97.5927C49.6726 36.2127 134.244 -2.24697 221.881 1.21588Z" fill="#F4F6F7"/>
</mask>
<g mask="url(#mask0_514_3021)">
<path fill-rule="evenodd" clip-rule="evenodd" d="M221.881 1.21588C297.859 4.21802 410.286 44.6966 434.5 97.5927C459.76 152.774 406.691 232.482 344.158 268.332C276.753 306.975 181.942 291.969 112.693 255.122C43.2892 218.192 -2.51236 157.563 23.277 97.5927C49.6726 36.2127 134.244 -2.24697 221.881 1.21588Z" fill="url(#paint0_linear_514_3021)"/>
<path d="M317.273 139.427C318.633 140.097 320.121 140.462 321.636 140.498C321.721 140.488 321.804 140.462 321.878 140.42C321.953 140.378 322.019 140.322 322.071 140.254C322.124 140.187 322.163 140.11 322.186 140.027C322.208 139.945 322.214 139.858 322.203 139.773C322.077 138.781 320.959 139.632 317.856 138.198L318.014 137.033C318.092 136.702 317.699 136.167 317.273 136.324C316.848 136.482 316.738 136.986 316.612 137.899C316.486 138.813 316.423 139.002 317.273 139.427ZM152.875 143.9C154.77 143.385 156.55 142.513 158.12 141.333C158.734 140.86 158.529 139.758 158.356 139.128C158.307 138.964 158.199 138.825 158.053 138.736C157.907 138.647 157.734 138.615 157.566 138.647C157.398 138.678 157.248 138.77 157.143 138.905C157.039 139.041 156.989 139.21 157.001 139.38C157.031 139.721 157.095 140.059 157.19 140.388C153.458 143.112 152.009 142.435 152.229 143.538C152.278 143.664 152.369 143.769 152.487 143.835C152.605 143.901 152.742 143.924 152.875 143.9ZM148.591 140.986C151.741 140.986 150.67 139.128 149.819 139.411L148.607 139.6C147.567 134.67 148.402 133.631 147.504 133.599C147.369 133.591 147.235 133.635 147.132 133.724C147.029 133.812 146.965 133.937 146.953 134.072C146.842 136.019 146.985 137.973 147.378 139.884C147.551 140.734 147.866 140.986 148.591 140.986ZM240.051 138.277C240.949 138.277 245.674 137.253 246.477 137.127C247.658 136.923 249.06 136.56 249.155 135.285C249.155 134.497 248.588 133.584 247.942 134.056C247.808 134.151 247.708 134.287 247.66 134.444C247.612 134.6 247.617 134.769 247.674 134.922C247.91 135.537 247.406 135.489 239.799 137.143C239.659 137.186 239.541 137.281 239.467 137.407C239.394 137.534 239.371 137.684 239.402 137.826C239.434 137.969 239.519 138.095 239.639 138.179C239.759 138.262 239.906 138.297 240.051 138.277ZM136.463 99.7212C136.81 100.115 137.66 99.7212 137.408 99.1227C135.833 95.2797 132.935 90.9957 131.108 86.7747C130.825 86.0975 130.258 84.9477 129.707 84.8847C129.638 84.875 129.567 84.8846 129.503 84.9124C129.439 84.9402 129.384 84.9851 129.344 85.0422C128.998 85.5147 129.502 86.822 129.738 87.3732C130.463 88.9325 133.975 96.8705 136.463 99.7212ZM187.525 93.0747C187.555 93.1977 187.616 93.3108 187.702 93.4028C187.789 93.4948 187.899 93.5625 188.02 93.5991C188.141 93.6357 188.269 93.64 188.392 93.6116C188.516 93.5832 188.629 93.523 188.722 93.437C190.022 92.2529 191.204 90.9447 192.25 89.531C196.975 104.651 196.975 105.186 197.715 105.186C197.821 105.184 197.926 105.158 198.021 105.111C198.116 105.064 198.2 104.997 198.268 104.915C198.335 104.833 198.384 104.737 198.411 104.635C198.438 104.532 198.442 104.425 198.424 104.32C196.66 98.7447 194.801 93.2952 193.195 87.7355C193.159 87.5973 193.083 87.4729 192.976 87.3778C192.87 87.2826 192.738 87.2211 192.596 87.2009C192.455 87.1807 192.311 87.2028 192.182 87.2643C192.053 87.3257 191.945 87.4239 191.872 87.5465C190.968 88.9691 189.911 90.2893 188.722 91.484C187.777 87.1685 185.572 77.309 185.572 77.309C185.532 77.1503 185.431 77.0138 185.291 76.9296C185.151 76.8454 184.983 76.8204 184.824 76.8601C184.665 76.8998 184.529 77.0009 184.444 77.1412C184.36 77.2815 184.335 77.4495 184.375 77.6082C184.91 80.0495 187.194 91.988 187.525 93.0747ZM105.483 175.006C100.412 172.581 95.8915 170.092 90.694 167.352C89.686 166.816 88.993 168.659 90.568 169.084C95.1058 171.917 99.9446 174.236 104.995 175.999C105.625 176.172 106.066 175.353 105.483 175.006ZM109.515 138.639C109.624 138.735 109.758 138.796 109.902 138.813C110.046 138.829 110.191 138.802 110.318 138.734C111.358 138.23 110.019 136.986 110.523 129.504C123.296 144.924 122.588 144.53 123.123 144.53C123.234 144.537 123.345 144.512 123.442 144.458C123.539 144.404 123.619 144.324 123.672 144.226C123.725 144.129 123.749 144.018 123.741 143.907C123.733 143.796 123.694 143.69 123.627 143.601C121.627 141.081 112.87 130.197 110.539 127.236C110.451 127.125 110.334 127.042 110.2 126.996C110.066 126.949 109.922 126.942 109.785 126.975C109.647 127.009 109.522 127.08 109.424 127.183C109.326 127.285 109.259 127.413 109.232 127.551C108.912 130.428 108.859 133.328 109.074 136.214C104.349 131.977 99.829 127.488 95.0567 123.362C94.9123 123.246 94.7315 123.185 94.5463 123.189C94.3611 123.193 94.1833 123.262 94.0442 123.385C93.905 123.507 93.8133 123.674 93.7854 123.857C93.7574 124.04 93.7949 124.228 93.8912 124.386C95.7497 127.268 106.239 135.663 109.515 138.639ZM233.751 80.2227C233.751 80.3773 233.813 80.5255 233.922 80.6348C234.031 80.7441 234.179 80.8055 234.334 80.8055C234.489 80.8055 234.637 80.7441 234.746 80.6348C234.855 80.5255 234.917 80.3773 234.917 80.2227C235.187 74.4377 234.944 68.6401 234.192 62.8977C234.176 62.7462 234.116 62.6027 234.02 62.4845C233.924 62.3663 233.796 62.2785 233.65 62.2318C233.505 62.1852 233.35 62.1816 233.203 62.2215C233.056 62.2614 232.924 62.3431 232.822 62.4567C232.113 63.3702 233.814 66.2525 233.751 80.2227ZM276.371 107.58C288.357 87.3575 287.711 88.3655 287.616 88.0032C287.348 87.0897 286.592 87.5307 280.529 89.3577C282.104 83.7665 284.072 77.7972 285.38 72.143C285.407 71.9602 285.365 71.7738 285.261 71.6205C285.158 71.4672 285.001 71.3582 284.821 71.3147C284.642 71.2713 284.452 71.2966 284.29 71.3858C284.129 71.4749 284.006 71.6214 283.947 71.7965C282.167 78.0965 280.403 84.2547 278.702 90.3027C278.674 90.4278 278.679 90.5577 278.715 90.6804C278.752 90.8031 278.819 90.9145 278.91 91.0043C279.002 91.094 279.114 91.1591 279.237 91.1934C279.361 91.2277 279.491 91.2301 279.615 91.2005C279.615 91.2005 283.789 89.909 285.474 89.3577L275.41 107.045C275.351 107.171 275.341 107.316 275.384 107.449C275.427 107.581 275.518 107.693 275.64 107.761C275.762 107.829 275.906 107.848 276.041 107.815C276.177 107.781 276.295 107.698 276.371 107.58ZM388.983 153.775C388.164 153.381 373.013 162.8 372.855 162.91C372.304 163.304 372.855 164.281 373.422 163.981C374.336 163.572 388.81 155.523 389.298 154.657C389.336 154.579 389.357 154.493 389.361 154.407C389.366 154.32 389.353 154.233 389.324 154.151C389.294 154.069 389.249 153.994 389.191 153.929C389.132 153.865 389.062 153.812 388.983 153.775ZM348.884 135.773C348.884 135.773 364.067 124.197 366.902 121.992C367.516 121.503 366.902 120.417 366.177 120.495C363.319 120.564 360.473 120.885 357.672 121.456C361.738 117.119 365.338 112.368 368.414 107.281C368.934 106.431 367.673 105.549 367.169 106.415C363.7 112.075 359.57 117.304 354.869 121.992C354.365 122.48 354.68 123.677 355.499 123.567C358.279 122.859 361.113 122.385 363.972 122.149C363.972 122.149 351.939 131.835 348.222 134.907C348.16 135.007 348.129 135.124 348.135 135.242C348.141 135.361 348.182 135.474 348.254 135.568C348.326 135.662 348.424 135.732 348.537 135.769C348.649 135.805 348.77 135.807 348.884 135.773ZM327.165 90.1767C336.835 73.5132 338.52 71.0877 336.898 70.6782C336.205 70.505 336.236 70.568 326.078 89.5782C326.03 89.7184 326.033 89.8708 326.087 90.0088C326.14 90.1468 326.241 90.2616 326.37 90.333C326.5 90.4044 326.651 90.4279 326.796 90.3993C326.941 90.3707 327.072 90.2919 327.165 90.1767Z" fill="#20262C"/>
<path d="M371.8 192.977C365.374 172.707 349.136 157.114 327.212 150.216C327.197 149.814 327.155 149.414 327.086 149.019C333.071 146.404 334.41 137.411 333.087 129.583C334.236 127.709 337.292 118.07 335.04 119.393L330.929 121.819C330.346 120.244 329.669 118.779 328.944 117.33C329.102 114.81 326.802 110.305 322.755 107.36C319.038 104.651 312.643 102.226 303.319 106.1C296.043 109.124 287.837 115.802 286.593 125.504C285.018 138.104 289.191 144.215 281.395 155.917C272.781 152.017 263.598 149.518 254.195 148.515C254.195 147.809 254.148 147.104 254.053 146.404C258.069 144.373 258.92 137.758 259.093 135.6C263.818 131.505 264.369 123.346 260.668 123.157C261.619 117.312 261.983 111.387 261.755 105.47C261.55 101.8 259.975 100.981 259.251 100.824C258.739 100.727 258.211 100.776 257.727 100.966C257.242 101.155 256.82 101.477 256.51 101.895C255.329 99.485 253.061 99.7843 251.785 101.611C251.66 100.963 251.334 100.37 250.853 99.917C250.373 99.4639 249.762 99.1733 249.107 99.0862C248.453 98.9992 247.787 99.1201 247.205 99.4319C246.623 99.7437 246.153 100.231 245.863 100.824C245.558 100.174 245.066 99.6288 244.45 99.2587C243.835 98.8886 243.123 98.71 242.405 98.7454C241.688 98.7809 240.997 99.0289 240.421 99.4578C239.845 99.8868 239.409 100.477 239.169 101.155C237.594 97.7368 233.578 98.5243 232.68 101.989C231.499 99.3275 228.27 99.3433 227.152 102.43C224.207 100.257 221.892 102.43 221.419 106.006C221.133 112.085 221.386 118.178 222.175 124.213C216.836 123.016 220.994 135.521 224.175 135.82C224.727 140.545 226.68 145.743 230.475 147.003C230.475 147.633 230.381 148.279 230.381 148.909C220.197 150.535 210.397 154.01 201.464 159.162C196.55 155.697 185.619 150.988 175.114 151.854C173.211 147.832 171.778 143.604 170.846 139.254C170.153 135.458 171.933 133.962 171.917 130.686C173.956 126.576 174.464 121.875 173.35 117.424C168.389 101.674 138.417 107.659 139.267 124.953C139.377 126.922 139.551 128.89 139.724 130.418C136.023 131.536 136.574 131.804 137.598 136.309C138.149 138.766 138.779 140.797 141.362 140.262C142.543 145.381 145.52 153.555 152.544 153.555C152.97 153.555 152.544 153.287 152.938 155.933C135.314 163.603 113.185 177.983 107.452 203.183C106.066 209.263 105.231 217.894 109.2 224.414C113.563 231.675 121.281 232.132 126.825 231.769C125.527 238.899 125.109 246.162 125.58 253.394C125.583 253.495 125.614 253.593 125.669 253.678C125.724 253.763 125.801 253.831 125.892 253.875C125.983 253.919 126.084 253.937 126.185 253.927C126.286 253.917 126.381 253.88 126.462 253.819C127.313 253.315 125.643 252.78 128.305 231.659C143.142 230.289 157.285 223.91 170.358 217.201C172.515 218.776 174.657 220.351 176.878 221.768C178.704 225.46 181.502 228.584 184.971 230.804C188.44 233.024 192.448 234.256 196.566 234.368C196.172 240.998 196.172 247.646 196.566 254.276C196.571 254.356 196.593 254.434 196.63 254.506C196.667 254.577 196.718 254.641 196.779 254.692C196.841 254.743 196.913 254.782 196.989 254.805C197.066 254.828 197.147 254.836 197.227 254.827C198.582 254.701 196.833 254.024 197.904 234.352C211.008 234.352 221.766 225.8 232.554 219.264C245.249 225.076 276.371 235.896 292.83 232.777C293.586 239.487 293.475 245.85 294.121 252.339C294.142 252.455 294.203 252.561 294.294 252.637C294.384 252.712 294.499 252.754 294.617 252.754C294.735 252.754 294.85 252.712 294.941 252.637C295.031 252.561 295.093 252.455 295.113 252.339C295.527 245.708 295.258 239.053 294.31 232.478C305.729 229.769 312.738 221.721 314.596 209.215C315.352 208.711 316.171 208.144 317.022 207.499C326.771 211.389 346.947 220.855 356.806 221.201C356.349 228.525 355.704 236.258 355.593 243.85C355.615 243.978 355.682 244.094 355.781 244.178C355.881 244.262 356.007 244.308 356.137 244.308C356.267 244.308 356.393 244.262 356.492 244.178C356.592 244.094 356.658 243.978 356.68 243.85C356.901 241.755 358.334 223.879 358.255 221.154C374.037 220.792 376.525 207.877 371.8 192.977ZM259.408 125.662C259.833 125.095 260.07 124.433 260.684 124.622C262.889 125.268 261.125 130.749 259.282 133.19C259.44 130.686 259.487 128.15 259.408 125.662ZM221.813 125.662C222.317 125.662 222.254 125.882 223.388 126.103L224.018 133.883C221.687 131.725 220.002 125.693 221.813 125.693V125.662ZM331.244 124.087C331.311 123.865 331.463 123.679 331.667 123.57C331.87 123.461 332.109 123.437 332.331 123.504C332.552 123.571 332.738 123.723 332.847 123.926C332.956 124.13 332.98 124.369 332.913 124.591C332.362 126.544 331.937 127.961 331.575 129.316C331.481 129.484 331.35 129.629 331.192 129.738C331.033 129.847 330.852 129.918 330.661 129.946C329.275 129.993 330.756 125.504 331.244 124.055V124.087ZM304.737 130.387C305.634 129.709 306.721 130.576 306.894 130.591C308.375 131.536 310.044 130.166 309.619 129.772L309.304 129.52C308.139 128.607 305.745 126.717 306.249 125.425C306.627 124.449 308.17 124.591 309.178 124.543C309.214 124.542 309.249 124.533 309.281 124.516C309.312 124.5 309.34 124.476 309.361 124.447C309.382 124.418 309.397 124.385 309.403 124.35C309.41 124.315 309.408 124.279 309.399 124.244C309.241 123.74 309.052 123.236 308.863 122.669C314.815 119.717 321.342 118.104 327.984 117.944C328.661 119.519 329.244 121.015 329.763 122.496C327.795 123.614 325.558 124.843 325.038 127.079C324.57 127.021 324.095 127.069 323.648 127.218C323.201 127.368 322.794 127.617 322.455 127.945C319.983 124.969 309.745 125.221 307.682 125.299C305.02 125.41 312.045 130.78 313.982 132.292C320.487 137.348 324.739 133.867 323.117 129.253C323.344 128.974 323.643 128.762 323.982 128.64C324.32 128.518 324.685 128.49 325.038 128.56C325.097 128.859 325.192 129.15 325.322 129.426C325.244 129.387 325.157 129.367 325.07 129.367C324.982 129.367 324.896 129.387 324.818 129.426C324.172 129.835 324.818 130.387 326.298 133.017C326.116 133.203 325.921 133.376 325.716 133.537C325.117 133.978 325.637 135.899 327.637 133.537C327.936 133.174 327.369 132.119 326.739 131.19C327.5 131.708 328.411 131.958 329.329 131.901C330.247 131.844 331.121 131.483 331.811 130.875C332.499 135.103 332.109 139.437 330.677 143.475C329.102 147.334 325.149 147.554 325.952 149.019C326.16 154.211 325.737 159.41 324.692 164.501C320.644 163.619 312.675 153.744 309.493 149.161C309.823 145.331 309.329 141.475 308.044 137.852C306.989 136.025 304.894 135.19 304.343 133.127C304.128 132.667 304.05 132.154 304.12 131.651C304.19 131.148 304.404 130.676 304.737 130.292V130.387ZM328.614 127.756C328.44 128.276 328.33 129.001 327.763 129.001C327.196 129.001 326.913 128.339 326.976 127.772C327.039 127.205 327.196 125.898 327.795 125.551C327.91 125.494 328.036 125.465 328.165 125.465C328.293 125.465 328.42 125.494 328.535 125.551C329.275 125.756 328.881 126.859 328.614 127.662V127.756ZM320.124 131.379C319.951 131.804 319.778 132.576 319.274 132.812C319.186 132.855 319.089 132.878 318.99 132.878C318.892 132.878 318.795 132.855 318.707 132.812C317.762 132.466 318.801 128.953 319.652 128.276C319.726 128.2 319.818 128.145 319.92 128.114C320.021 128.084 320.128 128.079 320.232 128.101C320.336 128.123 320.432 128.171 320.512 128.24C320.593 128.309 320.654 128.397 320.691 128.497C321.022 129.221 320.219 131.048 320.124 131.284V131.379ZM316.675 129.851C316.47 130.261 316.376 130.639 315.84 130.639C315.714 130.647 315.588 130.625 315.473 130.574C315.358 130.522 315.257 130.443 315.179 130.344C315.101 130.244 315.049 130.127 315.027 130.003C315.005 129.878 315.014 129.751 315.053 129.631C315.226 129.111 315.415 127.93 316.045 127.615C316.145 127.568 316.253 127.543 316.363 127.541C316.473 127.538 316.582 127.558 316.684 127.599C316.786 127.641 316.878 127.703 316.955 127.781C317.032 127.859 317.092 127.953 317.132 128.056C317.352 128.575 316.99 129.284 316.675 129.851ZM308.8 150.043C313.273 157.76 325.054 168.943 325.968 165.194C326.998 160.744 327.474 156.184 327.385 151.618C348.963 159.241 363.61 173.211 369.989 192.064C365.372 189.86 360.298 188.78 355.184 188.914C354.963 183.732 347.86 173.715 345.135 170.707C344.584 170.092 343.56 170.88 344.159 171.494C348.244 176.12 351.371 181.511 353.357 187.354C345.639 181.543 330.094 173.431 308.784 180.109C303.256 170.673 295.183 162.982 285.49 157.918C292.465 153.356 300.487 150.646 308.8 150.043ZM226.664 114.511C236.135 111.925 246.087 111.639 255.691 113.676C255.529 116.345 255.614 119.023 255.943 121.677H255.66C254.352 115.66 245.973 113.802 243.154 120.102C241.714 119.613 240.153 119.613 238.713 120.102C235.988 114.432 228.097 116.259 226.648 121.866H226.349C226.68 119.429 226.785 116.967 226.664 114.511ZM248.084 127.473C248.367 126.67 250.919 120.716 252.573 120.543C252.71 120.541 252.846 120.572 252.969 120.633C253.093 120.695 253.2 120.785 253.281 120.895C253.363 121.006 253.417 121.135 253.439 121.271C253.461 121.407 253.45 121.546 253.407 121.677C252.001 123.68 250.748 125.786 249.659 127.977C249.265 128.953 247.722 128.575 248.084 127.473ZM245.8 125.268C245.611 125.74 244.761 126.024 244.461 125.473C244.162 124.921 244.887 122.827 246.934 119.755C247.454 118.984 247.942 118.606 248.367 118.669C248.506 118.708 248.632 118.781 248.736 118.881C248.84 118.98 248.918 119.104 248.963 119.241C249.008 119.377 249.019 119.523 248.995 119.665C248.97 119.807 248.912 119.94 248.824 120.055C247.625 121.674 246.611 123.423 245.8 125.268ZM232.098 127.882C232.775 126.402 233.531 124.906 234.255 123.441C234.333 123.299 234.447 123.182 234.585 123.099C234.724 123.017 234.882 122.974 235.043 122.974C235.204 122.974 235.362 123.017 235.501 123.099C235.639 123.182 235.753 123.299 235.83 123.441C235.929 123.59 235.982 123.766 235.982 123.945C235.982 124.124 235.929 124.299 235.83 124.449C235.137 125.819 234.429 127.252 233.673 128.638C233.074 129.426 231.625 128.827 232.098 127.882ZM230.192 125.898L230.097 126.008C229.609 126.717 228.381 126.26 228.711 125.362C229.621 122.942 230.782 120.625 232.176 118.448C232.854 117.629 234.224 118.338 233.751 119.299C232.633 121.535 231.263 123.63 230.192 125.898ZM224.569 126.04C225.577 125.614 225.861 124.465 226.144 123.472L226.475 123.378C226.392 124.47 226.527 125.569 226.87 126.609C227.213 127.65 227.759 128.612 228.475 129.442C229.325 130.276 230.389 130.858 231.55 131.122C232.711 131.387 233.922 131.323 235.049 130.94C236.176 130.556 237.175 129.866 237.933 128.948C238.691 128.03 239.179 126.92 239.343 125.74C239.18 127.257 239.111 128.782 239.138 130.308C239.138 131.253 238.917 132.434 240.083 132.513H241.658C242.477 132.513 242.697 131.095 241.752 131.08H240.587C240.495 128.273 240.648 125.464 241.044 122.685C241.154 121.913 240.036 121.803 239.878 122.527C239.185 125.914 239.878 123.976 239.264 121.472C240.364 121.078 241.566 121.078 242.666 121.472C242.319 122.735 242.251 124.058 242.466 125.349C242.68 126.641 243.173 127.871 243.91 128.953C244.471 129.68 245.182 130.278 245.995 130.707C246.807 131.135 247.702 131.384 248.62 131.436C249.537 131.488 250.454 131.343 251.31 131.01C252.166 130.676 252.94 130.163 253.581 129.505C255.128 127.778 255.951 125.522 255.88 123.205H256.179C256.368 124.575 256.652 126.465 258.101 126.355C257.943 131.741 258.416 140.971 254.148 144.341C253.596 144.782 252.966 145.286 252.888 145.79C252.69 147.459 252.69 149.145 252.888 150.814C253.344 155.177 245.706 163.808 241.752 167.494C234.129 157.13 231.94 156.106 231.956 147.019C231.956 146.105 231.846 145.963 231.216 145.648C224.837 142.561 225.42 133.663 224.569 126.04ZM230.46 150.295C230.633 155.13 234.429 161.666 241.122 168.706C242.477 170.47 254.447 155.776 254.211 152.594V149.932C286.451 153.728 309.556 172.282 313.242 197.293C299.854 194.662 282.939 197.749 280.072 198.301C278.843 190.468 276.526 182.845 273.189 175.652C273.133 175.512 273.023 175.4 272.884 175.341C272.746 175.282 272.589 175.281 272.449 175.337C272.309 175.393 272.197 175.503 272.138 175.642C272.079 175.781 272.078 175.937 272.134 176.077C275.03 183.176 277.143 190.57 278.434 198.127C270.15 189.402 257.55 185.527 239.988 186.315C229.418 186.805 218.918 188.297 208.63 190.772C209.453 185.969 211.413 181.433 214.347 177.542C214.412 177.425 214.431 177.288 214.402 177.157C214.373 177.027 214.298 176.911 214.19 176.832C214.082 176.753 213.949 176.716 213.815 176.728C213.682 176.74 213.558 176.8 213.465 176.896C210.156 180.985 207.983 185.875 207.165 191.071C195.746 193.81 184.657 197.776 174.09 202.9C175.539 172.045 204.063 155.508 230.46 150.295ZM162.152 121.126C162.136 122.621 162.225 124.116 162.42 125.599C156.75 125.74 147.741 127.945 141.031 130.024C140.858 128.638 140.464 126.118 140.448 124.622C147.199 121.404 154.732 120.191 162.152 121.126ZM157.143 129.583C153.993 134.938 154.671 135.883 153.615 135.883C153.497 135.89 153.379 135.869 153.27 135.821C153.162 135.773 153.066 135.699 152.992 135.607C152.918 135.514 152.867 135.405 152.844 135.289C152.821 135.172 152.826 135.052 152.859 134.938C154.293 129.52 155.663 128.512 156.356 128.386C156.507 128.355 156.664 128.371 156.806 128.43C156.948 128.489 157.07 128.59 157.155 128.718C157.239 128.847 157.284 128.998 157.282 129.153C157.279 129.307 157.231 129.457 157.143 129.583ZM152.277 130.765C151.694 131.725 151.552 133.064 150.702 132.859C149.851 132.655 150.465 130.733 150.969 129.709C151.473 128.686 151.914 128.67 152.214 128.749C152.382 128.794 152.532 128.892 152.642 129.028C152.753 129.163 152.817 129.33 152.828 129.505C152.766 129.968 152.575 130.405 152.277 130.765ZM140.559 133.915C140.385 134.324 140.37 135.584 139.519 135.584C139.354 135.59 139.191 135.541 139.056 135.444C138.922 135.347 138.825 135.208 138.779 135.049C138.695 133.947 139.046 132.856 139.755 132.009C139.902 131.878 140.086 131.797 140.281 131.777C140.476 131.757 140.672 131.8 140.842 131.899C141.22 132.151 141.141 132.812 140.559 133.867V133.915ZM141.141 137.584C142.575 132.434 143.394 131.678 143.882 131.568C143.982 131.545 144.087 131.55 144.184 131.583C144.282 131.617 144.368 131.677 144.433 131.757C144.647 132.005 144.755 132.328 144.732 132.655L142.653 138.025C142.589 138.226 142.447 138.392 142.259 138.488C142.072 138.584 141.854 138.602 141.653 138.537C141.453 138.472 141.286 138.331 141.19 138.143C141.094 137.956 141.077 137.738 141.141 137.537V137.584ZM142.716 139.963C145.74 139.081 146.717 139.333 146.386 134.734C146.276 133.426 146.024 130.45 147.347 130.497C148.418 130.497 148.449 135.474 150.04 137.017C151.631 138.561 153.694 137.474 155.427 137.017C160.152 135.726 159.112 133.71 158.766 127.457L162.735 127.142C164.514 136.372 166.908 129.457 168.515 128.418C169.539 127.772 170.421 129.19 170.61 130.276C170.972 132.607 169.035 135.159 169.444 138.577C170.372 143.523 171.961 148.323 174.169 152.846C170.72 159.398 160.813 165.446 156.403 167.84C154.545 161.099 154.387 152.248 153.253 152.279C148.024 152.311 144.591 148.357 142.653 139.915L142.716 139.963ZM153.08 157.445C153.363 159.823 154.529 170.045 156.23 169.195C160.514 167.179 173.555 158.611 175.413 153.098C178.17 153.728 186.769 152.059 200.125 160.107C190.269 165.994 182.361 174.647 177.382 184.992C164.64 183.417 148.875 181.448 135.629 188.441C139.677 178.897 142.102 177.952 140.952 177.196C140.893 177.155 140.826 177.127 140.755 177.112C140.684 177.098 140.611 177.099 140.541 177.113C140.47 177.128 140.403 177.157 140.344 177.198C140.285 177.239 140.235 177.292 140.196 177.353C139.787 177.967 134.038 187.465 133.896 189.402C131.676 190.756 126.935 194.221 125.517 196.946C119.727 197.059 114.085 198.794 109.232 201.955C114.02 183.417 129.156 168.029 153.017 157.398L153.08 157.445ZM112.24 226.225C106.224 219.925 107.515 209.389 108.759 203.608C124.131 193.513 144.449 197.828 169.176 216.46C160.86 220.02 124.525 238.967 112.24 226.225ZM127.108 196.915C139.614 183.07 157.695 183.952 176.736 186.299C171.854 197.56 171.429 209.451 175.508 219.154C161.333 208.538 144.591 196.867 127.108 196.867V196.915ZM197.794 233.14C182.28 233.14 173.949 219.516 174.169 204.396C196.219 194.489 215.481 189.418 236.586 187.953C255.864 186.614 268.842 190.126 277.347 198.978C235.799 208.286 218.647 233.092 197.794 233.092V233.14ZM293.05 231.407C277.631 234.888 252.1 225.784 233.956 218.524C262.873 201.451 288.892 195.009 313.446 198.836C315.384 216.429 308.139 227.989 293.05 231.407ZM314.895 207.562C315.713 198.454 313.788 189.311 309.367 181.306C326.283 176.928 340.568 179.479 352.979 189.087C336.678 190.3 320.25 203.025 314.88 207.562H314.895ZM357.735 219.799C348.096 219.799 327.81 210.349 318.471 206.538C328.456 198.978 340.284 190.961 354.522 190.394C360.084 190.05 365.632 191.267 370.54 193.906C374.761 208.144 372.651 219.705 357.72 219.799H357.735Z" fill="#20262C"/>
</g>
<defs>
<linearGradient id="paint0_linear_514_3021" x1="441" y1="0.999992" x2="137.275" y2="386.539" gradientUnits="userSpaceOnUse">
<stop stop-color="white" stop-opacity="0"/>
<stop offset="1" stop-color="#CAFFE5"/>
</linearGradient>
</defs>
</svg>
