<svg width="201" height="200" viewBox="0 0 201 200" fill="none" xmlns="http://www.w3.org/2000/svg">
<path d="M117.88 151.074C117.694 150.116 117.293 149.212 116.706 148.432C116.119 147.652 115.362 147.016 114.493 146.572C113.624 146.128 112.665 145.888 111.689 145.869C110.713 145.851 109.745 146.055 108.86 146.466C101.777 149.279 104.827 160.339 112.688 158.873C113.544 158.708 114.359 158.375 115.085 157.892C115.811 157.409 116.434 156.787 116.917 156.061C117.401 155.335 117.735 154.52 117.9 153.664C118.065 152.808 118.058 151.928 117.88 151.074ZM111.551 157.999C103.544 157.367 104.551 146.889 111.327 146.779C118.713 146.657 119.136 157.48 111.551 157.999Z" fill="#20262C"/>
<path d="M107.923 152.399C107.913 153.291 108.251 154.151 108.866 154.798C109.48 155.445 110.322 155.827 111.213 155.863C111.673 155.885 112.133 155.812 112.564 155.649C112.995 155.485 113.388 155.236 113.719 154.915C114.049 154.594 114.31 154.208 114.486 153.782C114.662 153.356 114.748 152.899 114.74 152.438C114.755 147.914 108.082 148.044 107.923 152.399ZM109.796 154.444C109.301 154.092 108.948 153.574 108.8 152.985C108.652 152.396 108.719 151.773 108.989 151.229C109.259 150.684 109.714 150.254 110.273 150.015C110.831 149.776 111.457 149.744 112.037 149.925C112.52 150.069 112.949 150.354 113.268 150.744C113.588 151.134 113.784 151.61 113.83 152.112C113.87 152.598 113.771 153.086 113.545 153.518C113.319 153.95 112.975 154.309 112.553 154.553C112.131 154.797 111.648 154.917 111.161 154.898C110.673 154.878 110.202 154.721 109.8 154.444H109.796Z" fill="#20262C"/>
<path fill-rule="evenodd" clip-rule="evenodd" d="M99.2449 111.945C104.349 113.226 109.178 114.326 113.48 115.199C115.221 115.553 116.815 115.85 118.27 116.121C130.989 118.492 133.056 118.877 129.832 137.648C129.813 137.758 129.785 137.93 129.75 138.144C129.583 139.167 129.256 141.159 128.996 142.087C128.887 142.475 128.861 142.768 128.843 142.979C128.812 143.323 128.801 143.446 128.482 143.398C126.81 143.144 125.676 143.005 124.651 142.88C122.27 142.589 120.472 142.369 113.882 140.946C112.986 140.752 112.106 140.53 111.253 140.314C107.291 139.312 103.902 138.455 102.053 141.308C101.248 142.551 97.496 155.187 98.348 157.239C99.074 158.989 99.972 160.346 103.248 161.584C109.603 163.773 116.132 165.423 122.764 166.514C122.817 166.523 122.858 166.526 122.883 166.547C122.981 166.632 122.829 167.008 122.156 169.203C121.831 170.262 121.52 171.281 121.221 172.26C115.315 191.588 114.06 195.696 104.056 193.713C103.068 193.517 102.101 193.328 101.146 193.14C92.2482 191.396 84.4357 189.865 70.684 185.383C54.184 180.005 40.268 173.732 31.999 169.092C21.8808 163.414 22.6772 157.401 25 139.863C25.3518 137.207 25.7387 134.285 26.128 131.061C26.1339 131.011 26.1249 130.97 26.1414 130.949C26.2174 130.849 26.8317 131.162 31.9 132.948C33.5244 133.521 34.1402 133.534 34.5323 133.837C35.1797 134.337 35.2172 135.627 38.176 141.527C39.012 143.195 43.862 152.248 45.859 155.021C47.283 156.998 55.634 158.921 57.989 159.438C58.5546 159.562 58.5631 159.637 58.5837 159.818C58.5853 159.833 58.587 159.847 58.589 159.863C58.6029 159.985 58.6146 160.096 58.6257 160.201C58.7271 161.158 58.7799 161.657 60.038 166.321C60.2848 167.236 60.5011 167.704 60.6222 167.967C60.7704 168.288 60.776 168.3 60.52 168.445L60.4998 168.456C59.4758 169.039 58.8536 169.392 58.642 170.661C58.4981 171.291 58.5517 171.951 58.7955 172.55C59.0392 173.149 59.4613 173.658 60.0045 174.009C60.5477 174.36 61.1857 174.535 61.8319 174.511C62.4781 174.487 63.1012 174.264 63.6167 173.874C64.1321 173.483 64.515 172.944 64.7132 172.328C64.9115 171.713 64.9156 171.051 64.725 170.433C64.5344 169.815 64.1583 169.271 63.6477 168.874C63.1371 168.477 62.5169 168.247 61.871 168.215C61.6689 168.203 61.5331 168.197 61.4292 168.137C60.9926 167.882 61.1203 166.659 59.255 159.938C59.1453 159.545 59.2154 159.372 59.1624 159.254C59.0224 158.942 58.021 159.016 50.549 156.438C49.6672 156.134 48.9995 155.913 48.489 155.745C46.9695 155.242 46.8433 155.201 46.609 154.792C46.117 153.935 34.781 133.913 35.732 134.184C41.6868 135.884 42.3917 135.97 42.6431 136.354C42.695 136.433 42.7276 136.525 42.783 136.646C43.265 137.704 46.239 143.365 47.783 145.819C48.099 146.323 48.3249 146.649 48.4763 146.869C48.7801 147.308 48.7839 147.314 48.613 147.441C48.1457 147.8 47.7929 148.288 47.5973 148.844C47.4016 149.4 47.3717 150.001 47.511 150.574C47.6504 151.147 47.9531 151.667 48.3823 152.071C48.8115 152.475 49.3488 152.746 49.929 152.851C53.954 153.431 54.821 147.746 51.22 146.922C49.662 146.565 49.4059 147.128 49.1999 147.11C48.9017 147.084 48.7085 145.842 44.82 138.831C43.9583 137.276 43.536 136.671 43.6547 136.534C43.7641 136.407 44.3331 136.679 45.441 136.972C50.4375 138.293 50.952 138.205 51.1588 138.418C51.2108 138.471 51.2434 138.543 51.323 138.662C52.8282 140.908 53.2876 141.612 53.7765 142.296C54.2656 142.979 54.7842 143.642 56.409 145.805C56.5626 146.009 56.707 146.204 56.8446 146.389C57.8324 147.72 58.4691 148.578 59.618 149.105C67.1621 152.584 68.7032 152.038 69.4108 152.58C69.7341 152.828 69.8834 153.303 70.352 154.493C72.0829 158.887 72.5848 159.445 72.4752 159.62C72.4459 159.667 72.3733 159.686 72.269 159.743C71.5942 160.136 71.0622 160.733 70.7504 161.449C70.4387 162.165 70.3634 162.962 70.5356 163.723C70.7078 164.485 71.1185 165.172 71.7079 165.684C72.2973 166.196 73.0347 166.507 73.8129 166.571C74.591 166.635 75.3694 166.449 76.0347 166.04C76.7 165.632 77.2175 165.022 77.5121 164.298C77.8067 163.575 77.863 162.777 77.6727 162.02C77.4824 161.263 77.0555 160.586 76.454 160.088C76.0055 159.706 75.4699 159.44 74.8944 159.314C74.319 159.188 73.7213 159.205 73.154 159.364C73.018 159.384 72.9848 159.262 72.865 158.824C72.6678 158.102 72.2359 156.521 70.724 153.298C70.611 152.904 70.3988 152.545 70.1077 152.256C69.8166 151.967 69.4562 151.757 69.061 151.647C65.5217 150.384 64.1376 149.871 63.4131 149.603C62.7825 149.369 62.6516 149.321 62.034 149.124C59.27 148.251 59.127 148.068 58.845 147.676C57.5871 145.924 55.8697 143.589 54.4327 141.634C53.3702 140.19 52.461 138.953 52.004 138.315C51.5601 137.695 51.5323 137.687 48.9465 136.994C46.5869 136.361 42.0971 135.158 33.217 132.396C33.192 132.396 27.8 130.706 26.317 130.052C26.7085 126.736 26.803 126.782 27.05 126.901C27.0711 126.911 27.0934 126.922 27.117 126.931C37.7619 131.038 47.3475 133.34 52.0567 134.471C53.5303 134.825 54.5264 135.064 54.928 135.208C55.299 135.341 56.6768 137.231 58.2368 139.371C59.5067 141.114 60.8974 143.021 61.964 144.282C62.5326 144.953 62.8147 145.057 67.0792 146.624C67.42 146.749 67.7862 146.884 68.18 147.029C76.9077 150.242 77.9166 150.412 77.9352 150.657C77.9389 150.707 77.9015 150.76 77.88 150.843C77.7311 151.509 77.7627 152.202 77.9716 152.851C78.1804 153.501 78.559 154.082 79.068 154.536C79.5771 154.99 80.1981 155.3 80.867 155.434C81.5359 155.567 82.2284 155.52 82.8727 155.296C83.5171 155.072 84.09 154.68 84.5322 154.161C84.9743 153.642 85.2697 153.014 85.3878 152.342C85.5059 151.67 85.4424 150.979 85.2039 150.34C84.9653 149.701 84.5604 149.137 84.031 148.707C83.3195 148.137 82.4307 147.835 81.5194 147.854C80.6081 147.872 79.7321 148.209 79.044 148.807C78.3186 149.42 78.2864 149.807 78.1099 149.891C77.7109 150.082 76.5746 148.731 65.031 144.976C64.1366 144.685 63.7253 144.674 63.3762 144.521C62.6052 144.183 62.1381 143.152 57.44 136.876C56.703 135.893 56.3541 135.348 55.8751 134.965C54.8919 134.179 53.3607 134.079 46.799 132.29C46.49 132.206 27.939 126.59 27.005 126.236C27.0135 126.156 27.021 126.076 27.0284 125.996C27.0464 125.803 27.0645 125.609 27.097 125.418C27.4022 123.63 27.438 123.252 27.5683 123.216C27.6062 123.205 27.6521 123.224 27.715 123.245C28.3532 123.46 29.1591 123.741 30.0394 124.049C32.3666 124.863 35.2142 125.858 36.859 126.277C38.7692 126.763 40.1473 127.147 41.1765 127.434C43.9918 128.219 44.198 128.276 45.549 127.706C51.2938 125.282 51.7507 124.125 52.4276 123.977C53.0692 123.837 53.9086 124.605 59.636 126.06C60.9157 126.468 62.2329 126.747 63.568 126.893C63.6197 126.896 63.6509 126.891 63.6781 126.899C63.8687 126.954 63.869 127.659 69.362 136.384C69.7395 136.98 71.0328 137.364 72.4052 137.771C72.8507 137.904 73.3045 138.039 73.738 138.184C79.3545 140.055 80.3078 139.862 80.4884 140.151C80.5304 140.219 80.5307 140.312 80.538 140.463C80.5534 141.3 80.8596 142.106 81.404 142.743C81.9483 143.379 82.6971 143.806 83.5219 143.951C84.3467 144.096 85.1962 143.95 85.9249 143.537C86.6536 143.124 87.2161 142.471 87.516 141.689C89.133 137.298 82.788 134.689 80.827 139.034C80.7426 139.222 80.7217 139.353 80.6451 139.414C80.3538 139.648 79.2575 138.876 70.817 136.378C69.95 136.122 69.49 135.31 68.886 134.223C66.7719 130.422 65.6165 128.617 65.0458 127.725C64.5205 126.904 64.4905 126.857 64.664 126.74C64.9668 126.535 65.4918 126.249 66.3178 125.799C66.992 125.433 67.8668 124.957 68.985 124.326C70.1884 123.646 71.0063 123.159 71.5813 122.816C72.8669 122.05 72.9387 122.007 73.392 122.153C80.1828 124.341 83.2546 125.004 84.628 125.3C85.6757 125.526 85.735 125.539 85.703 125.853C85.633 126.54 85.7821 127.231 86.129 127.827C86.4759 128.424 87.0027 128.895 87.634 129.174C88.2978 129.464 89.0399 129.523 89.7409 129.34C90.442 129.158 91.0612 128.744 91.499 128.167C91.9369 127.59 92.1678 126.882 92.1548 126.158C92.1417 125.434 91.8854 124.735 91.427 124.174C90.9318 123.526 90.2028 123.097 89.3958 122.98C88.5888 122.862 87.7677 123.064 87.108 123.544C86.3109 124.182 86.0885 124.593 85.9695 124.814C85.8646 125.008 85.8401 125.053 85.573 124.973C85.256 124.882 84.1776 124.54 82.7836 124.099C79.5916 123.088 74.7441 121.552 73.588 121.297C72.309 121.014 65.257 125.348 64.266 126.105C63.8715 126.406 63.8343 126.395 60.9464 125.564C60.2844 125.374 59.4724 125.14 58.472 124.857C58.344 124.821 53.644 123.485 53.302 123.341C52.6145 123.053 52.2913 123.231 50.5904 124.169C50.1489 124.412 49.6146 124.707 48.957 125.058C46.517 126.359 45.7284 126.758 45.3325 126.959C45.0824 127.086 44.9889 127.133 44.735 127.278C44.6846 127.307 44.6452 127.334 44.6032 127.357C44.2401 127.552 43.6788 127.377 34.169 124.5C28.7557 122.863 27.684 122.733 27.6159 122.398C27.5859 122.251 27.751 122.064 27.825 121.69C27.9728 120.946 27.9268 120.48 28.1356 120.281C28.6726 119.768 30.895 121.021 42.434 123.863C42.5391 123.889 42.6183 123.909 42.6985 123.914C43.1192 123.941 43.5671 123.536 47.94 121.171C51.5741 119.205 51.5928 119.213 51.8293 119.308C51.8429 119.313 51.8572 119.319 51.873 119.325C54.7267 120.211 57.6279 120.936 60.563 121.497C60.8643 121.562 61.1179 121.626 61.339 121.681C62.168 121.889 62.5402 121.982 63.257 121.611C71.9934 117.082 72.8283 115.767 73.2093 115.888C73.2914 115.914 73.3524 116.006 73.467 116.148C73.8613 116.651 74.4045 117.016 75.0188 117.191C75.6331 117.366 76.2871 117.342 76.8872 117.123C77.4872 116.904 78.0027 116.501 78.3598 115.972C78.7169 115.442 78.8974 114.813 78.8754 114.175C78.8534 113.536 78.6301 112.921 78.2374 112.417C77.8446 111.913 77.3027 111.547 76.6889 111.37C76.0752 111.192 75.4211 111.214 74.8204 111.431C74.2196 111.648 73.7028 112.049 73.344 112.578C72.7127 113.42 72.8132 114.211 72.8814 114.749C72.9234 115.08 72.9532 115.315 72.791 115.404C63.9988 120.263 63.3355 121.082 62.6317 121.119C62.498 121.126 62.3628 121.104 62.17 121.077C60.9218 120.901 55.4549 119.46 54.4234 119.188C54.336 119.165 54.2805 119.151 54.262 119.146C51.4625 118.417 51.3354 118.483 50.6581 118.834C50.6149 118.857 50.5695 118.88 50.521 118.905C45.0638 121.671 43.9594 122.868 42.7396 123C41.2033 123.166 39.484 121.643 28.653 119.436C28.5188 119.408 28.4214 119.411 28.3663 119.365C28.2232 119.243 28.3664 118.784 28.895 116.57C30.844 107.786 33.5752 99.1935 37.056 90.8961C38.5 87.6161 39.798 86.4681 48.056 86.5221C54.8708 86.5706 63.3209 87.6452 72.1071 89.2407C72.0962 88.9043 72.0925 88.5675 72.096 88.2305C66.1712 87.1316 60.7256 86.3433 56.44 86.0851C55.8702 86.0507 55.064 86.011 54.4223 85.9794C53.8873 85.9531 53.4667 85.9324 53.393 85.9251C51.7094 85.7492 50.0162 85.6824 48.324 85.7251C48.1415 85.7251 47.9572 85.7247 47.7714 85.7244C43.7622 85.7168 39.0612 85.7079 37.189 89.1771C30.98 100.677 26.329 121.461 24.559 135.418C24.3924 136.732 24.2301 137.988 24.0746 139.192C20.8182 164.397 20.5813 166.231 48.064 178.107C59.9897 183.236 72.2928 187.439 84.864 190.679C91.449 192.451 103.591 194.679 103.912 194.686C104.037 194.69 104.264 194.719 104.571 194.758C106.429 194.998 111.195 195.614 113.612 193.139C113.861 192.884 114.597 192.962 115.578 193.066C117.709 193.291 120.996 193.639 122.968 190.966C125.354 187.732 128.599 176.898 129.754 173.007C130.192 171.53 130.466 170.458 130.666 169.677C131.138 167.83 131.195 167.608 132.023 167.491C134.144 167.191 135.458 165.077 136.148 163.04C138.048 157.428 140.17 149.966 140.109 144.04C140.091 142.273 139.179 141.526 138.542 141.005C138.154 140.688 137.868 140.454 137.949 140.124C138.7 137.099 140.144 125.962 140.6 121.892C142.121 108.46 136.806 106.562 129.25 103.863C128.743 103.682 128.226 103.497 127.7 103.305C127.7 103.305 121.246 101.019 116.769 99.5049C116.617 99.7999 116.46 100.091 116.297 100.377C121.282 102.018 128.449 104.405 129.865 104.918C133.358 106.179 136.841 107.724 138.398 110.188C139.454 111.858 139.589 112.98 139.797 114.707C139.818 114.884 139.84 115.067 139.864 115.257C140.484 120.226 137.248 138.142 136.146 143.27H136.14C136.038 143.744 136.016 144.006 135.875 144.128C135.656 144.318 135.15 144.176 133.62 143.977C133.618 143.977 133.646 143.846 133.698 143.602C134.254 141.017 137.55 125.691 136.493 116.859C136.412 115.659 136.092 114.488 135.55 113.415C135.008 112.342 134.256 111.389 133.338 110.612C130.326 108.106 126.412 106.781 122.709 105.529C122.261 105.377 121.815 105.227 121.375 105.075C120.177 104.663 117.736 103.911 114.582 102.98C113.111 104.92 111.365 106.594 109.414 107.962C117.099 110.115 122.909 111.734 123.946 111.999C125.119 112.299 125.398 113.028 123.275 112.678C121.278 112.348 116.946 111.257 108.109 108.813C105.43 110.434 102.422 111.508 99.2449 111.945ZM72.4132 92.347C65.5685 91.0323 58.6864 89.9061 51.722 89.5481C39.273 88.9071 40.045 90.7481 46.788 94.0881C55.9644 98.6279 68.3593 103.079 80.8477 106.858C79.903 106.091 79.0166 105.25 78.1973 104.343C76.8545 102.855 75.7091 101.207 74.7855 99.4389C69.0714 97.7768 62.7511 95.8127 61.549 94.9501C61.5053 94.92 61.4737 94.8753 61.4599 94.8241C61.4461 94.7729 61.4508 94.7184 61.4734 94.6704C61.496 94.6223 61.5349 94.5839 61.5831 94.5619C61.6314 94.5398 61.6859 94.5357 61.737 94.5501C61.737 94.5501 66.8326 95.9871 74.1109 98.0372C73.8706 97.4928 73.6505 96.9386 73.4514 96.3759C72.9867 95.0629 72.6399 93.7146 72.4132 92.347ZM124.672 185.013C125.643 182.126 129.725 169.581 129.9 167.843H129.906C129.927 167.639 129.809 167.622 128.775 167.473C128.605 167.448 128.41 167.42 128.187 167.387C127.904 167.343 127.78 167.282 127.705 167.32C127.627 167.359 127.603 167.504 127.511 167.887C126.717 171.172 122.197 187.055 119.861 188.711C119.368 189.063 118.805 189.307 118.211 189.426C117.616 189.545 117.003 189.537 116.412 189.402C116.112 189.332 116.009 189.571 115.799 190.058C115.607 190.503 115.326 191.155 114.722 191.968C114.526 192.231 114.858 192.246 116.442 192.319C116.875 192.338 117.401 192.362 118.036 192.397C118.194 192.382 118.348 192.37 118.498 192.357C120.946 192.154 122.308 192.041 124.672 185.013ZM139.161 147.107C139.191 146.73 139.219 146.367 139.305 145.833H139.311C139.494 145.053 139.456 144.237 139.2 143.478C138.944 142.719 138.482 142.046 137.864 141.536C137.748 141.418 137.705 141.5 137.671 141.608C137.64 141.681 137.613 141.756 137.591 141.833C137.273 143.437 137.147 143.869 137.272 143.962C137.327 144.004 137.432 143.979 137.591 143.959C138.414 143.859 138.435 144.647 137.491 144.859C136.254 145.136 133.328 144.873 128.328 144.325C120.607 143.478 115.275 142.242 111.509 141.369C104.745 139.801 103.034 139.405 101.614 144.539C101.572 144.69 101.521 144.873 101.463 145.083C100.766 147.589 99.0024 153.925 99.031 155.798C98.899 158.147 100.625 159.577 102.831 160.413C112.575 164.106 128.73 166.799 131.356 166.523C134.516 166.186 135.392 162.905 136.182 159.942C136.253 159.676 136.323 159.414 136.394 159.156C138.945 149.887 139.06 148.41 139.161 147.107ZM62.2746 169.174C61.9521 169.103 61.6181 169.101 61.295 169.17L61.3 169.171C60.9911 169.208 60.6926 169.306 60.422 169.46C60.1514 169.613 59.914 169.819 59.7237 170.065C59.5334 170.311 59.3939 170.593 59.3135 170.894C59.233 171.194 59.2131 171.508 59.255 171.816C60.166 174.986 64.191 174.245 64.083 171.263C64.0588 170.934 63.9644 170.613 63.806 170.323C63.6476 170.033 63.429 169.781 63.1649 169.583C62.9007 169.384 62.5972 169.245 62.2746 169.174ZM50.381 152.225C53.818 152.154 53.329 147.282 50.429 147.554C49.8134 147.564 49.2258 147.813 48.7909 148.249C48.3561 148.685 48.1083 149.273 48.1 149.889C48.1001 150.499 48.3387 151.085 48.7649 151.521C49.1911 151.958 49.7711 152.21 50.381 152.225ZM74.061 160.08C70.428 160.046 70.065 165.72 74.182 165.84C74.9199 165.809 75.6183 165.498 76.1347 164.97C76.6511 164.442 76.9466 163.737 76.961 162.999C76.9708 162.615 76.9026 162.232 76.7606 161.875C76.6186 161.518 76.4056 161.193 76.1346 160.92C75.8636 160.647 75.5402 160.432 75.1838 160.288C74.8274 160.143 74.4455 160.073 74.061 160.08ZM79.4515 149.531C78.9033 150.085 78.5953 150.833 78.594 151.612C78.6166 152.382 78.9325 153.113 79.477 153.658C80.0215 154.202 80.7534 154.518 81.523 154.54C81.9192 154.548 82.313 154.476 82.6807 154.328C83.0483 154.18 83.3823 153.96 83.6625 153.679C83.9428 153.399 84.1634 153.065 84.3113 152.698C84.4592 152.33 84.5312 151.936 84.523 151.54C84.5028 150.761 84.1767 150.021 83.6153 149.481C83.0539 148.94 82.3022 148.643 81.523 148.652C80.7438 148.662 79.9996 148.977 79.4515 149.531ZM84.12 143.079C87.426 143.243 88.112 137.978 84.185 137.599C83.8252 137.595 83.468 137.661 83.134 137.795C82.7999 137.929 82.4955 138.127 82.238 138.379C81.9806 138.63 81.7752 138.93 81.6335 139.26C81.4919 139.591 81.4168 139.947 81.4125 140.306C81.4082 140.666 81.4749 141.023 81.6086 141.358C81.7424 141.692 81.9406 141.996 82.1921 142.253C82.4435 142.511 82.7431 142.716 83.0739 142.858C83.4047 143 83.7602 143.075 84.12 143.079ZM88.6812 123.74C88.2495 123.788 87.84 123.957 87.5 124.227C87.1711 124.467 86.9097 124.787 86.7415 125.158C86.5733 125.528 86.504 125.936 86.5402 126.341C86.5764 126.747 86.717 127.136 86.9483 127.471C87.1795 127.805 87.4936 128.075 87.8598 128.252C88.226 128.429 88.632 128.509 89.0381 128.483C89.4442 128.457 89.8366 128.326 90.177 128.103C90.5175 127.88 90.7945 127.573 90.9809 127.211C91.1674 126.849 91.257 126.446 91.241 126.039C91.2423 125.605 91.1209 125.179 90.8908 124.81C90.6607 124.442 90.3312 124.146 89.9403 123.957C89.5493 123.767 89.1129 123.692 88.6812 123.74ZM74.2398 112.661C73.8139 113.08 73.5643 113.646 73.542 114.243H73.544C73.561 114.844 73.8123 115.414 74.2442 115.831C74.676 116.249 75.2542 116.481 75.855 116.478C76.91 116.657 78.098 115.413 78.076 114.243C78.0405 113.659 77.7932 113.107 77.3803 112.692C76.9674 112.277 76.4172 112.027 75.833 111.988C75.2356 112.001 74.6657 112.241 74.2398 112.661Z" fill="#20262C"/>
<path d="M95.7498 64.0067C122.75 65.0007 128.961 98.7647 107.192 110.142C103.794 111.93 100.023 112.892 96.1836 112.951C92.3445 113.009 88.5456 112.163 85.0947 110.48C81.6438 108.796 78.638 106.324 76.3209 103.262C74.0038 100.201 72.4405 96.636 71.7578 92.8577C68.9598 77.5437 81.4618 63.4807 95.7498 64.0067ZM94.6348 112.126C107.225 112.844 118.435 103.655 119.498 89.6617C119.78 75.6617 109.579 65.6067 97.1928 64.8417C94.0771 64.6543 90.9551 65.0849 88.0064 66.1085C85.0578 67.1321 82.3406 68.7287 80.0112 70.8064C77.6818 72.884 75.7863 75.4017 74.4335 78.2146C73.0808 81.0276 72.2976 84.0802 72.129 87.197C71.9604 90.3137 72.4097 93.4331 73.4511 96.3755C74.4924 99.318 76.1053 102.026 78.197 104.343C80.2886 106.659 82.8177 108.54 85.6387 109.876C88.4597 111.211 91.5171 111.976 94.6348 112.126Z" fill="#20262C"/>
<path d="M85.1717 105.41C80.7545 102.699 77.5731 98.3676 76.3076 93.3418C75.0421 88.3159 75.793 82.9944 78.3997 78.5149C87.7387 62.4629 111.775 66.9149 114.932 84.8849C118 102.361 99.2287 114.064 85.1717 105.41ZM76.8217 92.6839C77.569 95.8448 79.1025 98.7658 81.28 101.176C83.4576 103.586 86.2085 105.407 89.2777 106.47C107.141 112.53 121.912 92.0869 110.726 76.9959C98.9647 61.1309 72.3427 71.9469 76.8217 92.6839Z" fill="#20262C"/>
<path d="M89.5999 98.1638C86.2469 97.9848 86.5719 98.2168 86.9809 93.8188C87.3389 89.9558 88.0809 90.3928 85.4649 91.0038C83.9849 91.3498 83.6929 91.4869 83.7289 90.6319C83.746 89.0764 83.9535 87.5289 84.3469 86.0239C84.3682 85.8969 84.4247 85.7783 84.5102 85.6819C84.5956 85.5856 84.7064 85.5153 84.8299 85.4789C88.0299 84.2479 88.4029 84.7689 88.5229 84.2189C90.7439 74.0388 91.0229 73.8188 92.1439 73.7638C94.0176 73.6745 95.8949 73.6963 97.7659 73.8289C98.4219 73.8749 98.5429 74.2758 98.5169 74.4058C97.5329 79.2668 97.0169 81.2708 97.0169 81.6698C97.5429 81.6408 96.5339 81.8029 100.853 80.7569C101.453 80.6119 101.502 81.2259 101.396 81.8409C100.418 87.4899 101.556 86.2758 96.3529 88.0688C95.9039 88.2238 95.5819 88.1748 95.4959 88.7928C95.3499 89.8498 95.0839 90.5188 95.0139 91.2458C94.9319 92.0878 94.5599 91.2978 106.006 91.6028C107.455 91.6408 107.179 92.1358 106.731 94.0818C105.723 98.4518 106.023 97.9428 103.624 98.0818C98.9547 98.3765 94.2723 98.4039 89.5999 98.1638ZM105.287 97.1329C105.475 96.4659 106.362 93.3328 106.497 92.6528C106.61 92.0818 106.965 92.2188 103.091 92.0528C102.748 92.0378 100.532 92.1748 96.8149 92.2068C93.4209 92.2368 94.3809 92.6898 94.9199 88.4969C95.0109 87.7849 95.3589 87.7159 97.3199 87.0489C100.827 85.8559 99.7199 86.5658 100.186 85.0308C100.536 83.8818 100.579 82.6818 100.813 81.5138C100.929 80.9368 99.6729 81.7139 96.8589 82.5229C95.8449 82.8139 96.1199 82.3978 97.6069 76.1378C98.0069 74.4478 98.0899 74.4529 97.6729 74.4239C97.3999 74.4049 94.5949 74.3748 94.3219 74.3728C91.1719 74.3528 91.6849 74.2728 91.1359 76.1978C88.1889 86.5528 90.5759 84.3588 86.1359 85.6918C85.0669 86.0138 84.7469 85.1168 84.3999 89.8438C84.3809 90.1118 84.1779 90.3608 84.3059 90.6438C87.7149 89.8838 88.1439 89.5438 88.0739 90.3788C87.9739 91.5568 87.6599 93.7218 87.4999 94.8788C87.1459 97.4328 87.1139 97.3188 87.8429 97.3578C95.5179 97.7608 105.127 97.7119 105.289 97.1329H105.287Z" fill="#20262C"/>
<path d="M60.6999 22.9558C92.4549 24.9018 92.7589 66.0238 65.9499 71.5558C62.3204 72.3542 58.5567 72.3146 54.9448 71.4401C51.3329 70.5657 47.9679 68.8793 45.1055 66.5092C42.2432 64.1391 39.9588 61.1477 38.426 57.7622C36.8933 54.3768 36.1524 50.6865 36.2599 46.9718C36.3369 41.7198 38.4789 35.3718 42.3599 31.3718C48.1519 25.3858 52.3999 23.5238 60.6999 22.9558ZM60.7509 71.3378C63.9579 71.373 67.1382 70.7513 70.096 69.5111C73.0537 68.2708 75.7263 66.4383 77.9491 64.1263C80.172 61.8143 81.898 59.0717 83.021 56.0675C84.144 53.0633 84.6401 49.861 84.4789 46.6578C84.2967 42.0032 82.7498 37.505 80.0307 33.7228C77.3117 29.9406 73.5404 27.0414 69.1863 25.3861C64.8322 23.7307 60.0875 23.3923 55.5425 24.4128C50.9975 25.4334 46.853 27.7678 43.6246 31.1258C40.3962 34.4837 38.2265 38.7168 37.3854 43.2984C36.5444 47.88 37.0691 52.6078 38.8944 56.8934C40.7196 61.1791 43.7648 64.8334 47.651 67.4017C51.5371 69.9699 56.0927 71.3387 60.7509 71.3378Z" fill="#20262C"/>
<path d="M77.7124 37.5745C80.2428 42.0756 80.9433 47.378 79.6686 52.3818C78.3939 57.3856 75.2419 61.7066 70.8664 64.4485C57.7134 72.6165 41.0534 62.7705 40.6564 49.2405C39.9994 26.6855 67.5754 19.9915 77.7124 37.5745ZM64.4094 66.1915C74.5144 63.6575 79.6294 55.5915 79.6704 47.3005C79.7304 35.0005 67.0094 25.4385 55.3524 29.0365C50.3394 30.5845 45.7394 33.4315 43.1894 39.0155C35.7054 55.3985 51.0584 69.5385 64.4094 66.1915Z" fill="#20262C"/>
<path d="M64.3683 59.7659C62.9512 59.6206 61.5611 59.2787 60.2383 58.7499C59.9583 58.6129 60.1083 58.6989 59.2923 60.6229C58.8923 61.5619 58.5143 62.7059 57.7233 62.3849C54.0823 60.9069 54.3533 61.6019 56.0793 57.2359C56.1593 57.0359 55.8393 56.9919 55.6793 56.9199C55.4703 56.8199 55.5123 56.7839 54.7133 58.5569C53.8633 60.4439 53.9433 60.6989 53.3623 60.5789C53.0243 60.5099 51.0543 59.6139 50.7453 59.4589C50.2623 59.2179 50.2453 59.0939 50.3783 58.6189C50.6878 57.5731 51.0918 56.5575 51.5853 55.5849C51.7553 55.2439 51.8853 55.4529 47.8293 53.7379C46.2943 53.0889 46.6203 52.7719 48.0943 49.6379C48.4033 48.9809 48.5773 49.1539 50.9653 50.0869C52.9653 50.8679 51.0993 51.1299 53.6593 45.4999C53.9223 44.9209 55.4713 41.3269 56.5593 38.9079C56.6673 38.6669 56.8663 38.8319 54.0493 37.5199C53.4963 37.2619 53.4313 37.0859 53.5883 36.4199C53.8743 35.4083 54.2983 34.4408 54.8483 33.5449C55.1033 33.0839 55.1893 32.9359 57.6003 33.8539C60.0673 34.7939 59.9093 35.0949 60.0863 34.6049C61.4603 30.7989 61.2593 31.1199 63.2993 31.8989C63.8836 32.088 64.4493 32.3304 64.9893 32.6229C65.2973 32.8659 65.2253 32.6949 63.8063 36.4849C63.7163 36.7269 64.4803 36.9669 64.5303 36.7049C64.7415 35.9195 65.0302 35.1571 65.3923 34.4289C65.8863 33.2199 66.1173 33.1189 66.5753 33.1929C67.5666 33.4059 68.5035 33.8208 69.3273 34.4119C69.6153 34.7339 69.4483 35.3199 69.2763 35.7999C68.2823 38.5769 68.2573 38.2649 68.6273 38.4119C75.4853 41.1379 73.5663 47.4759 70.0463 48.8419C69.7093 48.9729 69.3373 48.9749 69.5463 49.2069C71.2543 51.0719 71.9363 52.7069 70.9413 55.2239C69.3323 59.2989 66.4253 59.5819 64.3683 59.7659ZM68.8873 57.2659C71.4873 54.6229 71.1143 50.8349 68.8073 49.2709C68.3633 48.9709 68.5273 48.6619 68.7613 48.5999C69.3673 48.5327 69.9488 48.3226 70.4578 47.9869C70.9668 47.6512 71.3889 47.1995 71.6893 46.6689C72.7833 44.7559 72.9283 42.2489 71.3373 40.6579C70.344 39.8358 69.2152 39.1928 68.0013 38.7579C67.5453 38.5459 67.6423 38.3169 67.8253 37.8699C69.3743 34.0869 69.6533 34.9699 66.5993 33.7899C66.2733 33.6649 66.3783 33.6649 65.2853 36.1899C64.7783 37.3629 64.7523 37.6549 64.4003 37.4649C62.8813 36.6479 62.7263 37.6649 64.3633 33.2649C64.5123 32.8649 64.7193 33.0219 62.1723 32.1249C61.7723 31.9849 61.9313 31.7589 60.8563 34.2979C60.4223 35.3239 60.4433 35.7779 59.7143 35.4639C54.8553 33.3709 55.3583 33.4849 55.1913 33.9019C53.8743 37.1889 53.6503 36.7549 54.6793 37.1919C57.6433 38.4519 57.5333 38.1919 57.0793 39.1919C52.2603 49.6989 52.8063 51.3509 51.9793 51.0419C47.7213 49.4579 48.7073 49.5609 48.2663 50.5719C47.9423 51.3159 47.6723 52.0839 47.3733 52.8379C47.2923 53.0439 46.9393 52.8129 51.7953 54.8489C52.4693 55.1309 52.2433 55.2729 51.6123 56.8489C50.7413 59.0209 50.7073 58.9249 51.1563 59.1109C54.5853 60.5339 52.8443 60.5659 55.2113 56.3519C55.3113 56.1679 55.4113 56.1269 56.5413 56.6519C56.8283 56.7849 56.7123 57.1329 56.5413 57.5599C55.1093 61.1339 55.1653 60.7499 55.5753 60.9219C58.0513 61.9609 57.9573 61.9739 58.1323 61.5859C59.7673 57.9599 59.3323 58.7129 59.5683 58.2499C60.0823 57.1989 64.8613 61.3519 68.8873 57.2679V57.2659Z" fill="#20262C"/>
<path d="M65.7997 52.2295C65.8727 53.6135 64.1457 55.1565 62.2947 54.7955C60.427 54.427 58.6117 53.8301 56.8897 53.0185C56.4527 52.8135 56.3747 52.6485 56.5107 52.1715C56.7883 50.9948 57.1871 49.85 57.7007 48.7555C58.2087 47.7895 58.4787 46.6935 59.0907 46.8605C60.2148 47.1716 61.3112 47.5753 62.3687 48.0675C64.4117 49.0085 65.6797 49.9525 65.7997 52.2295ZM62.6867 54.2985C63.0878 54.2633 63.4811 54.1665 63.8527 54.0115C64.1427 53.9298 64.4082 53.7779 64.6257 53.5693C64.8431 53.3608 65.0059 53.1019 65.0997 52.8155C66.1157 49.7645 62.3927 48.6765 59.3997 47.5295C59.0347 47.3895 58.9667 47.6375 58.7907 48.0125C58.1481 49.3955 57.5842 50.8138 57.1017 52.2605C57.0587 52.3885 57.0817 52.4195 57.1907 52.4605C60.7597 53.8985 59.8837 53.7545 62.6867 54.2985Z" fill="#20262C"/>
<path d="M65.032 45.7163C64.132 45.8303 62.377 45.0873 60.781 44.4873C59.886 44.1513 59.981 43.8353 60.069 43.5223C60.4473 42.1692 60.9819 40.8647 61.662 39.6353C61.862 39.2613 61.993 39.2203 62.432 39.3353C63.2462 39.5895 64.0292 39.9347 64.766 40.3643C66.314 41.1163 67.275 41.7643 67.516 42.7293C67.6402 43.0984 67.6679 43.4931 67.5964 43.8758C67.5249 44.2586 67.3567 44.6167 67.1077 44.9161C66.8588 45.2155 66.5373 45.4462 66.174 45.5863C65.8107 45.7263 65.4175 45.7711 65.032 45.7163ZM67.099 43.5873C67.1274 43.2677 67.0762 42.9461 66.9498 42.6511C66.8235 42.3562 66.626 42.0972 66.375 41.8973C65.7351 41.3941 65.0249 40.9875 64.267 40.6903C62.094 39.8353 62.242 39.6553 62.051 40.1503C60.651 43.7943 60.427 43.6853 60.844 43.8603C62.412 44.5143 65.703 46.0253 66.616 44.7053C66.8828 44.3878 67.0507 43.9992 67.099 43.5873Z" fill="#20262C"/>
<path d="M138.295 28.3203C138.3 31.8966 137.483 35.4262 135.906 38.6363C134.329 41.8464 132.036 44.651 129.203 46.8334C126.369 49.0159 123.072 50.5176 119.566 51.2227C116.06 51.9278 112.439 51.8173 108.982 50.8998C105.525 49.9822 102.326 48.2822 99.6313 45.9311C96.9364 43.58 94.8182 40.6408 93.4402 37.3406C92.0623 34.0403 91.4616 30.4675 91.6846 26.8981C91.9076 23.3287 92.9483 19.8584 94.7262 16.7553C106.344 -3.82366 138.273 4.24434 138.295 28.3203ZM115.005 5.83234C99.9931 5.66134 88.5192 20.8153 93.5722 35.5793C98.9002 51.1483 118.718 55.9333 130.2 44.9933C145.826 30.1063 134.651 6.05734 115.005 5.83234Z" fill="#20262C"/>
<path d="M114.775 9.53778C118.508 9.54109 122.156 10.6489 125.261 12.7217C128.365 14.7945 130.787 17.7396 132.221 21.1861C133.655 24.6325 134.037 28.4263 133.319 32.0895C132.601 35.7527 130.815 39.1215 128.187 41.7717C125.558 44.4219 122.203 46.235 118.546 46.9826C114.889 47.7302 111.092 47.3789 107.634 45.9729C104.176 44.5669 101.212 42.1691 99.1143 39.0815C97.0165 35.9939 95.8791 32.3545 95.8456 28.6218C95.7919 26.114 96.2438 23.621 97.1741 21.2915C98.1045 18.962 99.4944 16.8437 101.26 15.0628C103.027 13.2819 105.134 11.8749 107.456 10.9257C109.778 9.97647 112.267 9.50445 114.775 9.53778ZM102.409 15.0378C99.1427 17.9907 97.0632 22.0323 96.5599 26.4071C96.0565 30.7818 97.1638 35.1901 99.6746 38.8078C109.527 52.9918 132.461 46.9838 132.891 28.2378C133.228 13.5568 114.476 4.13978 102.409 15.0358V15.0378Z" fill="#20262C"/>
<path d="M116.636 43.2791C114.389 42.2101 110.189 39.0301 107.55 36.8651C105.738 35.3781 105.996 35.4711 106.182 35.1221C106.967 33.6429 107.963 32.2865 109.141 31.0961C109.441 30.7961 109.75 30.9071 110.471 31.3961C111.746 32.214 112.971 33.1069 114.14 34.0701C117.39 36.5701 114.858 35.9471 120.696 29.8631C121.42 29.1091 124.557 32.2231 125.133 32.8271C125.199 32.8746 125.253 32.9358 125.293 33.0065C125.332 33.0772 125.356 33.1557 125.362 33.2365C125.368 33.3172 125.356 33.3983 125.327 33.4741C125.299 33.5499 125.254 33.6185 125.196 33.6751C123.814 35.5931 118.558 42.2311 116.636 43.2791ZM124.554 33.4421C124.865 33.0511 125.033 33.4031 121.174 30.3241C120.933 30.1311 121.174 29.9241 116.588 35.8761C116.104 36.5041 116.356 36.4101 113.688 34.3931C109.232 31.0201 109.488 31.4071 109.319 31.6251C109.15 31.8431 108.433 32.7941 106.78 35.0961C106.525 35.4511 106.38 35.1961 109.056 37.1961C110.389 38.1961 115.356 42.0161 116.889 42.7281C116.645 42.7331 117.785 41.9521 124.554 33.4421Z" fill="#20262C"/>
<path d="M123.652 20.5257C123.763 21.5657 121.506 24.0087 120.695 24.9357C120.362 25.3167 120.381 25.3957 119.869 25.0357C113.628 20.6857 114.2 20.3557 113.849 20.5357C112.613 22.5323 111.224 24.4291 109.692 26.2087C108.922 27.1717 109.212 27.1197 104.734 23.9087C104.286 23.5877 104.134 23.7647 106.516 20.6237C107.204 19.7157 109.828 16.4157 110.429 15.7237C112.888 12.8797 112.814 13.1287 113.292 13.3827C116.411 15.0477 122.836 19.3497 123.652 20.5257ZM123.186 20.7647C123.08 20.6147 123.286 20.7647 121.994 19.7797C119.197 17.5984 116.223 15.6534 113.103 13.9647C112.678 13.7187 112.95 13.5017 110.656 16.3927C104.471 24.1867 105.156 23.5337 105.504 23.7927C109.004 26.3627 108.886 26.4327 109.125 26.0927C109.573 25.4627 108.002 27.7087 112.092 22.1167C113.7 19.9167 113.592 19.7057 113.97 19.9687C115.076 20.7307 120.082 24.6397 120.229 24.6327C120.376 24.6257 123.007 21.0687 123.186 20.7647Z" fill="#20262C"/>
<path d="M107.356 29.1714C106.531 30.7664 105.445 32.2129 104.145 33.4514C104.037 33.5526 103.898 33.6127 103.75 33.6211C103.603 33.6295 103.457 33.5857 103.339 33.4974C102.142 32.7418 101.047 31.8372 100.078 30.8054C99.6117 30.3764 99.5467 30.2054 102.33 26.2894C102.361 26.2196 102.408 26.1577 102.466 26.108C102.525 26.0583 102.593 26.0222 102.667 26.0021C102.741 25.982 102.818 25.9785 102.894 25.9919C102.969 26.0053 103.04 26.0351 103.103 26.0794C104.753 26.746 106.213 27.8078 107.356 29.1714ZM102.931 26.6224C102.531 26.9964 100.326 30.1554 100.481 30.3904C100.552 30.4984 102.849 32.3904 102.943 32.4714C103.67 33.0714 103.743 33.1154 103.889 32.9274C106.812 29.0654 106.873 29.3604 106.439 29.0274C105.084 27.9984 103.25 26.7984 102.931 26.6224Z" fill="#20262C"/>
<path d="M130.23 26.1522C129.581 27.6163 128.682 28.9568 127.575 30.1142C127.353 30.3442 127.198 30.5452 126.928 30.4012C125.492 29.6569 124.201 28.6612 123.116 27.4612C123.036 27.401 122.982 27.3117 122.967 27.2124C122.951 27.1132 122.975 27.0119 123.034 26.9302C123.707 25.4754 124.653 24.1639 125.822 23.0672C126.229 22.6852 126.333 22.6432 126.809 22.9542C128.164 23.7641 129.331 24.8545 130.23 26.1522ZM129.643 26.1672C128.594 25.1434 127.48 24.1887 126.307 23.3092C125.317 24.4871 124.398 25.7226 123.555 27.0092C123.369 27.2672 123.522 27.1882 124.28 27.7572C127.188 29.9412 127.095 30.0322 127.28 29.7462C128.285 28.2202 129.486 26.4252 129.643 26.1672Z" fill="#20262C"/>
<path d="M114.373 24.6458C115.853 25.3293 117.195 26.2783 118.332 27.4458C118.573 27.7188 118.573 27.7708 118.366 28.0708C115.604 32.0628 115.426 31.8358 114.948 31.4958C110.916 28.6288 110.983 28.8388 111.599 27.8758C112.132 27.0408 113.451 25.0418 114.373 24.6458ZM115.421 31.1318C115.573 30.9418 115.874 30.4798 116.181 30.0728C118.073 27.5648 118.081 27.8328 117.656 27.5308C114.171 25.0528 114.411 25.0778 114.173 25.3798C113.447 26.2988 112.573 27.3958 112 28.1558C111.758 28.4758 111.65 28.3658 113.111 29.4428C113.166 29.4878 115.174 30.9708 115.421 31.1318Z" fill="#20262C"/>
<path d="M152.499 46.4095C179.509 45.9725 187.52 79.3425 166.377 91.8655C163.079 93.832 159.364 94.9938 155.534 95.2567C151.703 95.5195 147.865 94.876 144.329 93.3784C140.794 91.8807 137.661 89.5711 135.185 86.6366C132.709 83.7021 130.959 80.2255 130.077 76.4885C126.472 61.3515 138.199 46.6405 152.499 46.4095ZM153.938 94.5155C166.549 94.5635 177.256 84.7955 177.573 70.7655C177.112 56.7815 166.389 47.2705 153.982 47.1655C150.86 47.1425 147.764 47.7372 144.873 48.9153C141.982 50.0934 139.352 51.8317 137.136 54.0301C134.919 56.2285 133.159 58.8437 131.957 61.725C130.755 64.6063 130.135 67.6969 130.132 70.8188C130.129 73.9408 130.743 77.0326 131.94 79.9161C133.137 82.7996 134.892 85.418 137.105 87.6206C139.317 89.8231 141.944 91.5662 144.833 92.7497C147.721 93.9332 150.816 94.5337 153.938 94.5165V94.5155Z" fill="#20262C"/>
<path d="M144.134 88.3131C139.578 85.841 136.17 81.6844 134.639 76.7321C133.108 71.7799 133.575 66.4252 135.941 61.8131C144.419 45.2901 168.649 48.4621 172.758 66.2351C176.755 83.5261 158.632 96.2081 144.134 88.3131ZM135.134 76.0481C136.049 79.1637 137.736 81.9979 140.038 84.2879C142.34 86.5779 145.183 88.2496 148.304 89.1481C166.467 94.2481 180.132 73.0481 168.156 58.5791C155.561 43.3631 129.548 55.5781 135.13 76.0481H135.134Z" fill="#20262C"/>
<path d="M163.69 72.663C163.731 73.185 162.822 73.422 152.828 76.4C151.768 76.716 144.063 68.433 143.85 68.084C143.555 67.599 143.65 67.545 144.91 66.09C147.327 63.29 151.869 58.22 154.742 55.971C157.356 53.926 157.317 53.471 157.75 54.378C160.151 59.423 163.193 70.373 163.69 72.663ZM154.066 66.018C154.666 65.98 154.406 66.448 155.254 62.73C157.225 54.083 157.059 55.006 156.992 54.745C156.217 54.957 145.132 66.394 144.748 67.297C144.954 67.35 150.204 66.266 154.066 66.018ZM162.935 71.732C162.862 71.217 157.706 55.288 157.501 55.124C157.356 55.324 157.443 55.315 157.38 55.592C154.827 66.935 154.663 65.936 155.785 66.58C160.693 69.399 162.809 72.188 162.935 71.732ZM154.399 66.573C153.713 66.349 144.743 67.901 144.499 67.968C144.62 68.248 146.609 70.044 148.433 71.86C152.333 75.741 152.325 75.91 152.496 75.649C152.577 75.548 154.09 67.558 154.399 66.573ZM153.049 75.809C155.958 74.918 155.742 74.738 162.975 72.651C163.32 72.551 163.315 72.618 160.202 70.346C156.561 67.689 156.37 67.573 155.227 66.836C154.795 66.558 154.979 66.292 153.807 71.756C152.871 76.117 152.932 75.637 153.047 75.809H153.049Z" fill="#20262C"/>
<path d="M143.31 69.5813C143.689 69.8873 150.245 76.8583 151.662 78.1553C151.924 78.3953 162.148 74.6803 162.708 74.6503C163.208 74.6233 162.794 75.1643 162.452 75.5333C156.278 82.1973 155.489 82.6603 151.435 85.9403C150.155 86.9753 149.955 87.3883 149.608 86.6523C147.03 81.3314 144.852 75.8262 143.09 70.1823C142.954 69.8183 143.134 69.7263 143.31 69.5813ZM150.51 85.9233C154.211 82.8614 157.756 79.6159 161.132 76.1993C161.603 75.7333 162.044 75.3263 161.373 75.5573C151.609 78.9163 152.008 78.5283 151.891 79.0713C150.312 86.4293 150.378 85.6913 150.51 85.9233ZM144.017 71.0753C143.974 71.2053 149.482 85.3563 149.917 85.8943C150.001 85.6283 150.26 83.9773 150.574 82.4593C151.335 78.7683 151.551 78.8193 151.235 78.5033C144.651 71.9163 144.618 71.5103 144.017 71.0753Z" fill="#20262C"/>
</svg>
