<svg width="201" height="200" viewBox="0 0 201 200" fill="none" xmlns="http://www.w3.org/2000/svg">
<path d="M42.4278 34.7877C42.8278 39.0457 46.7508 39.7577 48.5728 37.9417C48.6418 37.8727 48.7658 37.7927 48.6648 37.6927C48.4558 37.4827 47.6188 38.4817 46.0498 38.0667C45.4729 37.9819 44.9302 37.7407 44.4806 37.3692C44.0311 36.9978 43.6919 36.5103 43.4998 35.9597C41.9408 31.9427 44.0468 37.3457 50.1998 32.6477C50.2378 32.6187 50.2328 32.5307 50.2478 32.4697C50.1828 32.4597 50.1078 32.4177 50.0548 32.4387C46.8618 33.7167 46.4598 34.2467 42.9408 33.5867C42.2368 33.4567 42.3808 34.2877 42.4278 34.7877Z" fill="#20262C"/>
<path d="M45.0991 30.4373C45.6676 30.4286 46.2316 30.3363 46.7731 30.1633C49.2541 29.5703 47.9731 26.1633 46.6261 24.0013C46.3381 23.5383 45.8081 23.6853 46.0611 24.3133C46.5771 25.3697 46.9858 26.4752 47.2811 27.6133C47.6451 29.3003 46.3921 29.4253 45.7261 29.6133C44.1051 30.0783 44.1401 29.8223 44.0531 30.0423C43.9661 30.2623 44.8501 30.4243 45.0991 30.4373Z" fill="#20262C"/>
<path d="M39.3785 26.1142C39.721 25.645 40.1958 25.2889 40.7422 25.0917C41.2885 24.8944 41.8813 24.865 42.4445 25.0072C42.7905 25.0862 42.5655 24.6002 42.3355 24.4302C41.4415 23.7732 38.7685 24.6012 38.7635 26.1302C38.7195 26.5412 39.1675 26.4812 39.3785 26.1142Z" fill="#20262C"/>
<path d="M49.2569 23.5872C49.6206 23.4613 50.0144 23.4513 50.3839 23.5588C50.7535 23.6663 51.0805 23.8859 51.3199 24.1872C51.8199 24.6452 51.3609 22.6602 49.5749 22.7982C48.9609 22.7582 48.0119 23.0262 47.9699 23.6352C47.9279 24.2442 48.5909 23.7232 49.2569 23.5872Z" fill="#20262C"/>
<path fill-rule="evenodd" clip-rule="evenodd" d="M106.672 47.468C106.385 48.2682 106.151 48.9201 106.126 49.4536C105.976 52.7211 107.034 57.3122 108.248 62.5827C109.678 68.7871 111.325 75.933 111.473 82.9696C111.592 84.2294 111.558 85.4989 111.373 86.7506C110.695 93.0016 107.032 97.7306 103.541 99.5016C99.9394 101.231 95.8741 101.745 91.9553 100.967C94.8501 107.631 97.1979 114.297 98.9635 120.292C98.7311 120.648 98.5019 121.006 98.2755 121.368C92.2916 100.356 80.2051 76.486 66.7993 62.2846C66.1763 61.6245 65.5069 60.9488 64.9917 60.4288C64.5104 59.943 64.1636 59.593 64.1153 59.5186C63.4853 58.5716 67.9683 60.8006 78.4703 75.8856C78.7923 76.3482 78.9864 76.6731 79.1167 76.8913C79.3711 77.3174 79.3823 77.336 79.6283 77.1766C80.1933 76.8076 84.8193 72.7766 86.4723 71.0766C86.9342 70.6024 87.3674 70.1017 87.8011 69.6004C88.0726 69.2866 88.3442 68.9726 88.6233 68.6646C88.7163 68.5616 88.7233 68.4996 88.6233 68.4136C88.5097 68.3119 88.3947 68.2089 88.2783 68.1046L88.0253 67.8779L88.0236 67.8763C79.7299 60.4419 64.7506 47.0145 50.6963 48.9206C50.5331 48.9424 50.6142 49.0537 50.7536 49.2449C50.9669 49.5377 51.3168 50.0179 51.1353 50.6506C49.5983 55.9766 44.2193 58.6966 38.4193 55.1386C37.0943 54.3124 35.9251 53.2594 34.9653 52.0276C34.7473 51.9696 28.3993 53.4526 21.7993 59.8096C16.8523 64.5656 11.9553 72.8296 9.79926 82.2296C8.60891 87.6125 8.04649 93.1152 8.12326 98.6276C8.11726 99.2516 23.7763 99.1076 33.3493 96.7866C36.4499 96.0205 39.4888 95.0231 42.4403 93.8026C42.6714 93.7084 42.6682 93.6988 42.3931 92.8631C42.3206 92.6429 42.2292 92.3653 42.1183 92.0136C38.5957 80.8491 36.7661 76.5829 36.0257 74.8562C35.5698 73.7933 35.5267 73.6927 35.7553 73.5376C35.8373 73.4816 36.2813 74.2156 36.3473 74.3476C39.1341 79.8782 39.7573 81.7964 41.5737 87.3875L41.5778 87.4002C41.7045 87.79 41.8369 88.1977 41.9763 88.6256C42.1053 89.0236 43.3673 93.5386 43.3403 93.6016C43.3141 93.6631 43.2919 93.7272 43.2696 93.7915C43.1872 94.0292 43.1038 94.2694 42.8173 94.3906C42.1389 94.7654 41.4405 95.1029 40.7253 95.4016L40.7166 95.4051C40.6603 95.4272 40.6163 95.4445 40.5864 95.4754C40.4784 95.5874 40.5556 95.878 40.9119 97.2189C41.0487 97.734 41.2268 98.4043 41.4513 99.2786C41.7276 100.355 41.953 101.24 42.1382 101.967C42.5551 103.604 42.7684 104.441 42.8993 104.851C43.0103 105.133 43.2013 105.097 43.5263 104.887C48.9322 101.393 53.8254 99.1805 57.6679 97.4431L57.6691 97.4426C58.8941 96.8887 60.0123 96.3831 61.0063 95.8996C69.6141 91.7054 70.3161 89.6068 71.0423 87.436C71.2964 86.6763 71.5534 85.9079 72.1533 85.0376C72.5883 84.4036 73.1583 84.0556 73.4883 84.7136C73.6759 85.5466 73.7545 86.4004 73.7223 87.2536C73.8578 87.1797 74.3239 86.6529 74.8747 86.0305C75.6493 85.1552 76.5914 84.0907 77.0163 83.8306C77.6623 83.4346 78.0093 83.9906 77.6793 85.2236C77.5641 85.6598 77.4137 86.0859 77.2293 86.4976C77.2093 86.5236 77.2403 86.5506 77.2653 86.5316C77.4834 86.3593 77.7092 86.115 77.9389 85.8665C78.4767 85.2846 79.0355 84.6801 79.5653 84.9246C79.8373 85.0496 79.9013 85.5706 79.6013 86.4766C79.3288 87.1629 78.9695 87.8115 78.5323 88.4066C78.5113 88.4296 78.5393 88.4616 78.5673 88.4416C78.7861 88.3114 78.9944 88.1723 79.1904 88.0415C79.8684 87.5889 80.3984 87.2351 80.7033 87.6866C81.0083 88.1376 80.6103 88.8476 80.4823 89.0716C80.1833 89.539 79.8321 89.9708 79.4353 90.3586C79.4321 90.3631 79.4297 90.3681 79.4284 90.3734C79.4274 90.3771 79.4269 90.381 79.427 90.3849C79.4271 90.3911 79.4284 90.3971 79.4309 90.4026C79.4323 90.4056 79.434 90.4084 79.436 90.411C79.4417 90.4185 79.4497 90.424 79.4587 90.4266C79.4629 90.4279 79.4673 90.4284 79.4716 90.4284C79.4766 90.4283 79.4816 90.4274 79.4863 90.4256C80.2203 90.0986 80.7243 90.0906 80.7863 90.7556C80.7657 91.0764 80.681 91.3898 80.5372 91.6774C80.3935 91.9649 80.1936 92.2207 79.9493 92.4296C78.9489 93.3662 77.8766 94.2228 76.7423 94.9916C75.7894 95.7291 74.8855 96.5278 74.0363 97.3826C72.8566 98.4913 69.5085 102.803 65.5898 107.848C60.5444 114.345 54.553 122.059 51.0259 125.725C50.4332 125.803 49.8286 125.884 49.2174 125.967C50.3464 124.961 51.4088 123.881 52.3973 122.733C53.3923 121.588 66.3203 105.633 70.0203 101.022C71.0709 99.6495 72.2064 98.3446 73.4203 97.1146C74.2924 96.2182 75.2304 95.3882 76.2263 94.6316C77.3178 93.8904 78.3656 93.0868 79.3643 92.2246C79.7892 91.8507 80.2633 91.4335 80.2773 90.9696C80.2903 90.5194 79.6685 90.8628 79.0395 91.2102C78.7519 91.369 78.4629 91.5286 78.2323 91.6136C78.2076 91.6227 78.1807 91.633 78.1523 91.6439C77.8903 91.7441 77.4999 91.8933 77.5613 91.6136C77.6175 91.356 78.0477 90.9273 78.5657 90.4111C78.9686 90.0095 79.4248 89.5548 79.7993 89.0866C80.0573 88.7646 80.4273 88.1556 80.0993 88.1556C79.3459 88.5076 78.6402 88.9538 77.9993 89.4836C77.6263 89.7406 77.1163 89.7516 77.5053 89.0656C77.6452 88.8194 77.8068 88.5525 77.9747 88.2752C78.3264 87.6942 78.7056 87.0677 78.9703 86.4916C79.4303 85.4896 79.2183 85.2946 78.6583 85.8726C78.557 85.9765 78.4326 86.1056 78.3031 86.2399L78.3022 86.2408C77.9894 86.5651 77.647 86.9202 77.5283 87.0276C75.5473 88.8225 76.0852 87.6342 76.6785 86.3236C77.0763 85.445 77.4989 84.5114 77.2043 84.3846C77.03 84.3098 76.4157 85.0554 75.7175 85.9028C74.5967 87.2631 73.2598 88.8858 73.1803 87.7976C73.1359 87.1834 73.1413 86.8786 73.1466 86.5871C73.1503 86.3797 73.1538 86.1791 73.1393 85.8786C73.0663 84.3936 72.2893 85.9406 71.7513 87.3226C71.7227 87.3962 71.6946 87.4685 71.6671 87.5398L71.6017 87.7089C70.4497 90.6929 70.0406 91.7526 62.4003 96.0396C62.0129 96.2569 60.6338 96.9376 58.7802 97.8525L58.7794 97.8529C53.1167 100.648 43.0273 105.628 43.2533 106.259L43.265 106.292V106.293C43.3368 106.497 43.633 107.342 43.5313 107.381C43.4777 107.406 43.4168 107.41 43.3602 107.393C43.3037 107.375 43.2556 107.338 43.2253 107.287C41.7964 104.905 41.005 101.296 40.4549 98.7876C40.0729 97.0459 39.8072 95.8347 39.5253 95.9326C29.6303 99.3706 22.5993 99.7146 13.1373 99.7706C12.7423 99.7726 12.8483 102.095 13.4203 105.514C13.4445 105.659 13.4697 105.811 13.496 105.97C14.1479 109.908 15.527 118.237 19.9393 124.551C23.3994 129.504 28.444 131.986 33.7028 132.204C33.7617 132.578 33.8244 132.97 33.8908 133.376C30.283 133.312 26.9633 132.26 24.3993 130.437C20.4746 127.946 18.0758 123.418 17.1098 121.595C16.8741 121.15 16.7238 120.866 16.6573 120.812C16.4093 121.653 16.3213 130.685 16.3093 133.385C16.2799 139.52 16.3477 139.531 16.8018 139.601C16.8262 139.605 16.8517 139.609 16.8783 139.614C22.9872 140.688 29.1561 141.379 35.3488 141.683C35.4069 141.999 35.4657 142.317 35.5251 142.637C31.5822 142.449 27.2409 142.133 23.8643 141.605C22.1189 141.333 20.8853 141.123 20.0122 140.974L20.0086 140.973H20.007C17.9215 140.618 17.8981 140.614 17.8643 140.944C16.7713 151.56 17.9523 161.174 20.2293 171.735C20.0652 171.787 19.8914 171.831 19.7236 171.873C19.6286 171.897 19.5355 171.921 19.4473 171.945C18.5172 168.432 17.7904 164.869 17.2703 161.272C16.2254 154.48 16.2325 147.568 17.2913 140.779C17.3235 140.594 17.1262 140.552 16.8729 140.498C16.5209 140.424 16.0607 140.326 15.9583 139.789C15.2485 136.065 15.6153 128.677 15.8568 123.81C15.9842 121.245 16.0767 119.38 15.9583 119.124C14.3993 115.47 13.3148 111.632 12.7313 107.702C11.9766 103.289 11.9381 101.348 11.921 100.491C11.9078 99.8282 11.9075 99.8125 11.5993 99.8016C10.8679 99.7762 10.2714 99.7627 9.78392 99.7517C7.7208 99.7051 7.61222 99.7027 7.50626 99.0256C6.59326 93.1676 8.22226 79.9736 13.0793 70.4916C20.0662 56.8369 28.8152 53.365 32.6976 51.8243C33.9606 51.323 34.7086 51.0262 34.7133 50.6496C34.5945 47.8868 34.2013 45.1426 33.5393 42.4576C33.5191 42.3838 33.3942 42.2451 33.1859 42.0137C32.1165 40.8259 28.8479 37.1955 26.2533 27.3576C26.1767 27.0671 26.1575 26.8826 26.1439 26.7512C26.1166 26.4881 26.1114 26.4377 25.7113 26.1756C21.4493 23.3676 21.8713 16.7086 26.0713 14.5086C26.2208 14.4301 26.2019 14.4 26.1104 14.2542C25.9851 14.0548 25.7238 13.6387 25.5713 12.5856C25.4927 11.4652 25.6919 10.3426 26.1513 9.31764C26.1803 9.23064 26.3243 9.16064 26.4293 9.13064C26.608 9.08037 26.6639 9.23881 26.8015 9.62816C26.9156 9.95134 27.0859 10.4336 27.4293 11.0876C27.6467 10.1529 27.9677 9.24527 28.3863 8.38164C28.4753 8.17864 28.5693 8.04864 28.8173 8.10164C29.0536 8.15264 29.1889 8.91545 29.3097 9.59607C29.4281 10.2634 29.5325 10.8518 29.7043 10.6126C32.8319 6.25257 37.2473 6.92736 41.25 7.53907C44.5741 8.04708 47.6136 8.51158 49.3943 6.01264C49.6507 5.65247 49.8457 5.35395 50.0009 5.11641C50.4036 4.49994 50.538 4.29418 50.7813 4.48764C52.4128 5.78343 51.8363 9.89522 51.7901 10.2247L51.7888 10.2343L51.7873 10.2456C52.2875 10.0088 52.932 8.81137 53.3332 8.06578C53.4911 7.77249 53.6113 7.54911 53.6703 7.48164C53.7183 7.43296 53.776 7.39493 53.8397 7.37004C53.9034 7.34514 53.9716 7.33393 54.0399 7.33714C54.1082 7.34035 54.175 7.3579 54.2361 7.38865C54.2972 7.41941 54.3511 7.46267 54.3943 7.51564C54.8263 8.2897 55.0295 9.17056 54.9803 10.0556C54.9923 12.6456 53.3113 14.8876 51.5013 16.7406C51.3105 16.936 51.3887 17.0508 51.6062 17.3702C51.9165 17.826 52.5104 18.6981 53.0113 20.8146C53.3571 22.002 53.6326 23.2088 53.8363 24.4286C54.5354 28.0779 54.5608 31.8242 53.9113 35.4826C53.2593 38.5916 51.3943 42.6996 48.5823 43.8526C48.5481 43.8607 48.5161 43.8762 48.4886 43.8981C48.4611 43.9201 48.4389 43.9478 48.4235 43.9794C48.4081 44.011 48.3999 44.0456 48.3995 44.0808C48.3991 44.1159 48.4066 44.1507 48.4213 44.1826C48.6098 44.6098 48.7322 45.0599 48.8547 45.5102C49.0083 46.0752 49.162 46.6404 49.4463 47.1606C49.5279 47.3099 49.5951 47.4376 49.6524 47.5464C49.8336 47.8906 49.9158 48.0467 50.0424 48.104C50.147 48.1513 50.2821 48.1314 50.5289 48.095C50.9684 48.0301 51.7622 47.9129 53.3693 48.0306C66.4683 48.9896 74.7423 55.2536 85.4253 64.4896C86.7722 65.6542 87.853 66.7256 88.7572 67.622C88.929 67.7924 89.0946 67.9564 89.2543 68.1136C89.265 68.1241 89.2756 68.1342 89.2862 68.144C89.3002 68.1571 89.3141 68.1696 89.3277 68.1818C89.5607 68.3918 89.687 68.5056 88.7793 69.6856C88.3289 70.2683 88.0186 70.6286 87.8181 70.8615C87.5835 71.1338 87.499 71.232 87.5156 71.3081C87.525 71.351 87.5665 71.3868 87.6315 71.4428C87.6485 71.4575 87.6672 71.4737 87.6873 71.4916C89.7392 73.3236 90.2703 73.8917 90.4381 74.0712C90.4949 74.1319 90.51 74.1481 90.5284 74.1537C90.5351 74.1557 90.5422 74.1564 90.5519 74.1573C90.5566 74.1577 90.5618 74.1581 90.5678 74.1588C90.5719 74.1593 90.5764 74.1599 90.5813 74.1606C91.7085 70.9447 93.2286 67.1541 94.6834 63.5262C96.8037 58.2387 98.7857 53.2966 99.2103 50.9836C99.3304 50.3276 99.2474 50.0496 98.9824 49.1628C98.9408 49.0236 98.8947 48.8695 98.8443 48.6966C98.7161 48.258 98.5054 47.4723 98.3136 46.5855L98.9591 46.7717C99.2741 48.1047 99.6331 49.2866 99.7193 49.5704C99.7302 49.6063 99.7368 49.6282 99.7383 49.6336C99.9549 50.1575 99.9684 50.7433 99.7763 51.2766C98.0573 57.373 96.1605 61.8529 94.5329 65.6969C91.9756 71.7367 90.0829 76.2069 90.5883 82.9116C90.6048 83.1112 90.6098 83.3115 90.6033 83.5116C90.5926 83.5346 90.5756 83.5539 90.5542 83.5675C90.5329 83.5811 90.5081 83.5883 90.4828 83.5883C90.4575 83.5883 90.4327 83.5811 90.4114 83.5675C90.39 83.5539 90.373 83.5346 90.3623 83.5116C90.0796 82.9332 89.9148 82.3043 89.8773 81.6616C89.6545 79.4334 89.8151 77.1836 90.3523 75.0096C90.3568 74.9851 90.361 74.9637 90.3647 74.9448C90.3794 74.8699 90.3862 74.8353 90.3753 74.8077C90.3659 74.7839 90.3435 74.7653 90.3016 74.7307L90.2763 74.7096C89.1917 73.7979 88.6568 73.2995 88.0923 72.7734C87.8569 72.5541 87.616 72.3296 87.3283 72.0686L87.293 72.0365C87.1776 71.9311 87.1039 71.8638 87.0238 71.855C86.8822 71.8394 86.7205 72.0063 86.2731 72.4681C85.5128 73.2527 83.9276 74.8888 80.2143 77.9276C80.0033 78.0996 79.9533 78.1726 80.2143 78.5926C84.515 85.4453 88.3008 92.6081 91.5403 100.022C101.86 102.323 110.506 96.3486 110.742 83.9356C110.705 83.3448 110.671 82.7816 110.639 82.2369C110.318 76.8384 110.104 73.2581 107.482 62.5786C106.924 60.3036 105.766 54.9516 105.566 52.7926C105.41 51.708 105.38 50.6091 105.476 49.5176C105.477 48.7579 105.769 47.9355 106.113 46.969C106.595 45.6115 107.178 43.9696 107.198 41.8176L107.199 41.7078L107.201 41.5367C107.21 40.6206 107.213 40.37 107.032 40.3526C106.834 40.3336 106.537 40.6416 106.302 41.6876L105.448 44.3876C105.388 44.6136 105.233 44.6686 105.103 44.6136C104.897 44.5265 104.968 44.289 105.196 43.5208C105.279 43.2404 105.384 42.8889 105.503 42.4486L105.517 42.3982C105.642 41.9393 106.097 40.2723 106.158 39.3173C106.291 38.981 106.421 38.6439 106.55 38.3061C106.751 38.7057 106.739 39.3827 106.706 39.8416C107.549 39.4896 107.766 40.1626 107.813 41.0736C107.959 43.8805 107.219 45.9434 106.672 47.468ZM97.8376 163.526C97.8019 164.036 97.7647 164.545 97.7263 165.053C97.9519 165.112 98.1826 165.15 98.4153 165.166C98.4652 164.729 98.5257 164.166 98.5902 163.496C98.3412 163.506 98.0903 163.516 97.8376 163.526ZM102.685 47.5622C102.576 47.7292 102.54 47.7035 102.503 47.6775C102.492 47.6701 102.481 47.6626 102.469 47.6596C102.331 47.6268 102.193 47.5969 102.054 47.5683L102.061 47.6086C102.075 47.6889 102.119 47.7608 102.184 47.8091C102.25 47.8574 102.332 47.8783 102.413 47.8674C102.493 47.8565 102.567 47.8146 102.617 47.7507C102.66 47.6966 102.683 47.6304 102.685 47.5622ZM33.503 41.3594C33.8794 41.8229 34.0483 42.0308 34.1993 42.5086C35.086 45.3093 35.2637 48.0717 35.3794 49.8696C35.4497 50.9612 35.4971 51.6972 35.6663 51.8706C41.4433 57.8396 47.9853 57.1476 50.6023 50.6156C50.6972 50.3787 50.5802 50.2375 50.3176 49.9207C49.8331 49.3363 48.8532 48.1542 47.7943 44.6706C47.5591 43.8983 47.9255 43.6808 48.3809 43.4104C48.5877 43.2877 48.8128 43.154 49.0083 42.9526C52.8938 38.9489 53.1472 35.6337 53.5302 30.6218C53.5522 30.3335 53.5747 30.0396 53.5983 29.7396C53.6903 28.5696 52.8583 20.8436 51.0583 17.5066C50.9153 17.2429 50.8827 17.272 50.5936 17.5295C50.3873 17.7133 50.0503 18.0135 49.4493 18.4066C45.8849 20.7366 41.0293 20.6087 37.1967 20.5077L36.8493 20.4986C36.5956 20.4922 36.4251 20.4686 36.305 20.452C36.1787 20.4346 36.1081 20.4248 36.0548 20.4507C35.987 20.4836 35.9472 20.574 35.8568 20.7793C35.8123 20.8804 35.7556 21.0092 35.6773 21.1726C34.9416 22.2951 33.9009 23.1843 32.6773 23.7356C32.6574 23.7439 32.6401 23.7502 32.6252 23.7557C32.5921 23.7679 32.5703 23.7758 32.5574 23.7911C32.5332 23.82 32.5404 23.8751 32.5609 24.034C32.6032 24.361 32.7023 25.1273 32.7023 27.0086C32.7023 28.405 32.6709 28.3724 32.0175 27.6945C31.9522 27.6268 31.8806 27.5524 31.8023 27.4726C29.1873 24.8066 27.4793 31.2236 32.5023 33.4176C33.1294 33.6911 32.9293 34.3262 32.5311 35.5902L32.5023 35.6816C32.09 36.9893 31.5555 37.4021 31.2696 37.6229C31.095 37.7577 31.0131 37.821 31.1083 37.9726C32.3686 39.9627 33.0719 40.8286 33.503 41.3594Z" fill="#20262C"/>
<path d="M98.9999 48.8303C99.1329 48.8591 99.2517 48.9332 99.3359 49.0402C99.5948 49.1603 99.8675 49.2479 100.148 49.3012C100.103 49.1012 100.507 49.2682 101.935 49.5792C102.641 49.7332 102.745 49.4122 102.772 50.0192C102.796 50.5502 102.848 50.9952 103.164 51.0652C103.888 51.2252 102.719 49.3652 105.582 44.8252C105.979 44.3506 106.336 43.8431 106.647 43.3082C106.934 42.6262 108.241 39.2752 109.855 34.5432C110.452 32.8267 110.914 31.0659 111.236 29.2772C111.317 28.8132 110.493 28.2562 110.211 28.1412C108.154 27.3032 104.283 25.5982 100.701 25.5812C100.263 25.5087 99.8139 25.5993 99.4383 25.8357C99.0627 26.0722 98.7869 26.4381 98.6629 26.8642C95.4999 35.5242 93.2089 46.0132 93.9799 46.7802C94.5679 47.3652 96.3129 47.9543 98.9999 48.8303ZM95.4149 45.4642C96.4269 39.2191 98.0539 33.0892 100.272 27.1642C100.424 26.7642 100.255 26.8182 102.072 27.1472C102.361 27.2002 102.348 27.3022 102.342 28.4642C102.342 28.9802 102.625 28.9812 104.253 29.6392C105.347 30.0822 105.492 30.2002 105.82 29.8702C106.931 28.7512 106.969 28.7102 107.109 28.7592C109.584 29.6152 109.394 29.5242 109.287 29.9242C108.178 33.9799 106.788 37.9538 105.129 41.8173C102.517 48.3832 102.619 47.6952 102.47 47.6592C101.865 47.5152 101.248 47.4262 100.654 47.2592C95.0309 45.6402 95.2799 45.7262 95.4149 45.4642Z" fill="#20262C"/>
<path d="M103.876 35.87C104.07 35.4872 104.305 35.1265 104.576 34.794C104.624 34.93 104.599 34.776 104.607 35.2C104.615 35.624 104.897 35.984 105.099 35.7C105.449 34.8202 105.605 33.8755 105.557 32.93C105.464 32.303 104.978 32.277 104.626 32.572C102.657 34.227 102.851 34.049 102.705 34.246C102.505 34.515 102.815 34.819 103.088 34.738C103.325 34.668 103.327 34.538 103.63 34.474C103.517 34.805 102.558 36.18 101.724 37.839C101.563 38.159 101.569 37.399 101.147 36.707C100.847 36.224 100.447 36.033 100.002 36.627C98.9799 38.1517 98.1723 39.8099 97.6023 41.555C97.4413 42.055 97.7243 42.348 98.2303 42.633C98.8593 42.986 98.4383 42.113 100.266 38.433C100.429 38.105 100.524 38.77 100.76 39.283C101.899 41.75 101.499 40.421 103.876 35.87Z" fill="#20262C"/>
<path d="M119.978 6.1626C119.905 6.1766 119.811 6.1626 119.769 6.2126C112.263 12.6866 108.731 19.9956 109.037 20.5126C109.725 21.6676 109.36 19.6126 113.577 14.0386C120.857 4.4206 119.83 7.2376 119.978 6.1626Z" fill="#20262C"/>
<path d="M116.794 30.4575C117.039 30.9155 117.585 29.8705 124.004 28.2125C132.793 25.9415 133.579 26.5065 133.804 26.0365C131.323 25.3935 115.908 28.8005 116.794 30.4575Z" fill="#20262C"/>
<path d="M98.6871 20.2084C95.5871 14.7684 95.46 6.02832 95.322 6.02832C94.954 6.02832 95.077 10.4974 95.45 12.6944C96.927 21.4074 99.0491 20.8444 98.6871 20.2084Z" fill="#20262C"/>
<path d="M114.111 42.4884C113.793 42.6144 113.935 42.9964 114.262 42.9594C118.185 42.5104 127.462 44.7844 127.488 44.7774C128.727 44.3834 116.642 41.4914 114.111 42.4884Z" fill="#20262C"/>
<path d="M87.3409 34.0334C89.4329 35.5334 89.4559 35.3874 89.9619 35.3994C90.0234 35.4104 90.0868 35.3983 90.1399 35.3655C90.193 35.3326 90.2321 35.2812 90.2496 35.2213C90.2671 35.1613 90.2618 35.097 90.2347 35.0407C90.2076 34.9844 90.1607 34.9401 90.1029 34.9164C84.7649 32.0334 82.9439 27.8784 82.2029 27.8044C83.4924 30.1963 85.2379 32.3124 87.3409 34.0334Z" fill="#20262C"/>
<path fill-rule="evenodd" clip-rule="evenodd" d="M40.6941 167.971C21.3615 170.853 8.37974 174.216 6.09612 175.354H6.06811C3.9146 176.431 7.14863 175.589 8.78557 175.162C9.03678 175.097 9.25038 175.041 9.40112 175.004C18.0506 172.869 28.9978 170.783 40.9476 169.013C40.8677 168.693 40.7831 168.345 40.6941 167.971ZM81.6828 164.716C84.4169 164.549 87.1321 164.411 89.8151 164.304C103.116 163.773 112.858 163.805 117.293 163.819C119.033 163.825 119.956 163.828 119.956 163.793C120.166 163.823 120.38 163.807 120.584 163.747C120.576 163.726 120.574 163.706 120.571 163.687C120.536 163.449 120.516 163.318 112.284 163.289C108.208 163.275 103.802 163.283 99.1724 163.338C99.1692 163.465 99.1133 163.477 98.8941 163.485C93.7839 163.671 87.8637 164.098 81.6828 164.716Z" fill="#20262C"/>
<path d="M130.328 81.1622C131.198 78.7252 132.978 76.7532 132.592 76.5382C132.325 76.3892 132.132 76.6142 131.94 76.8712C131.182 77.8842 129.529 80.4282 129.51 81.6832C129.389 83.3572 132.019 83.6672 132.672 83.0622C133.438 82.3532 129.599 83.2002 130.328 81.1622Z" fill="#20262C"/>
<path d="M136.517 71.1616C135.889 71.2336 135.234 71.7746 135.594 72.1786C135.826 72.4376 136.136 71.9106 136.584 71.9686C137.797 71.9306 138.441 73.9016 138.676 74.1596C139.48 73.2006 138 70.9896 136.517 71.1616Z" fill="#20262C"/>
<path d="M131.125 70.7371C131.511 71.0931 131.361 70.3701 131.299 70.2101C130.826 68.9831 128.199 69.3371 127.567 70.9941C127.436 71.3421 127.881 71.7061 128.126 71.3191C128.764 70.3101 130.3 69.8311 131.125 70.7371Z" fill="#20262C"/>
<path d="M132.08 88.1663C132.496 88.948 133.914 88.3433 133.496 87.2248C133.027 85.9653 131.4 86.8879 132.08 88.1663Z" fill="#20262C"/>
<path d="M136.386 76.1554C135.947 75.9805 135.573 76.6552 135.568 77.178C135.56 77.9336 136.037 77.9436 136.311 77.5778C136.585 77.2119 136.842 76.3383 136.386 76.1554Z" fill="#20262C"/>
<path d="M128.771 74.8876C128.198 75.2874 128.171 76.3519 128.63 76.3869C128.705 76.4037 128.784 76.3974 128.855 76.3686C128.926 76.3399 128.987 76.2901 129.03 76.226C129.643 75.3054 129.1 74.6597 128.771 74.8876Z" fill="#20262C"/>
<path d="M136.413 166.83C136.407 167.771 137.891 167.876 137.901 166.895C137.917 166.791 137.911 166.685 137.883 166.584C137.855 166.482 137.806 166.388 137.739 166.307C137.672 166.226 137.589 166.159 137.495 166.112C137.401 166.066 137.298 166.039 137.193 166.034C137.088 166.03 136.983 166.047 136.886 166.086C136.788 166.124 136.699 166.183 136.626 166.258C136.552 166.333 136.495 166.423 136.458 166.521C136.422 166.62 136.406 166.725 136.413 166.83Z" fill="#20262C"/>
<path fill-rule="evenodd" clip-rule="evenodd" d="M192.88 146.453C184.418 125.739 176.934 112.97 162.274 106.362C160.253 105.452 153.499 102.692 148.146 102.115C147.881 102.086 147.856 101.993 147.799 101.777C147.743 101.566 147.655 101.239 147.284 100.74C146.788 100.07 146.36 99.978 146.081 99.9181C145.861 99.8707 145.735 99.8434 145.742 99.566C145.805 97.297 145.983 95.034 146.257 92.781C146.273 92.6517 146.286 92.54 146.297 92.4429C146.345 92.0226 146.362 91.8774 146.439 91.7807C146.48 91.7297 146.537 91.6922 146.625 91.6349C146.711 91.5792 146.825 91.5048 146.981 91.381C148.829 89.9164 150.171 89.0473 151.205 88.3769C152.953 87.2449 153.826 86.6797 154.781 84.771C155.439 83.4565 155.376 82.4948 155.324 81.691C155.284 81.0775 155.25 80.556 155.547 80.04C155.936 79.3655 156.344 78.7228 156.748 78.0877C157.866 76.3298 158.947 74.6294 159.466 72.472C160.025 70.151 157.573 68.913 155.266 68.316C155.115 68.2771 154.971 68.2412 154.833 68.207C153.561 67.8904 152.907 67.7277 153.215 66.751C153.365 66.2721 153.544 65.8266 153.718 65.3942C154.122 64.3874 154.498 63.4518 154.415 62.334C154.24 60.07 152.136 59.151 150.305 59.145C149.427 59.2091 148.555 59.3287 147.692 59.503C146.97 59.7079 146.26 59.9509 145.564 60.231C145.854 59.5148 146.057 58.766 146.167 58.001C146.72 54.132 140.31 52.838 136.602 55.151C135.692 55.7196 135.243 56.1721 135.001 56.4168C134.757 56.6626 134.722 56.6986 134.634 56.432C134.294 55.5285 133.711 54.7364 132.95 54.1427C132.188 53.5491 131.278 53.1768 130.319 53.067C124.5 52.541 120.277 61.357 125.552 65.375C125.846 65.5988 125.59 66.3844 125.116 67.835C124.425 69.9484 123.273 73.4734 122.692 78.729C121.975 85.216 123.107 90.203 129.101 92.775C129.121 92.7834 129.139 92.7896 129.156 92.7953C129.184 92.8047 129.208 92.8129 129.228 92.8275C129.362 92.928 129.268 93.3326 128.529 96.5101C128.364 97.2159 128.168 98.0585 127.936 99.065C127.871 99.3458 127.844 99.3515 127.215 99.4862C127.111 99.5084 126.991 99.534 126.852 99.565C125.494 100.049 124.314 100.933 123.466 102.099C123.258 102.444 122.464 102.657 121.229 102.99C117.832 103.904 111.095 105.718 104 113.624C100.011 118.07 96.9761 123.045 94.1721 128.763C94.2622 129.193 94.3519 129.632 94.4411 130.079C99.7953 118.922 107.022 108.185 118.621 104.506L119.322 104.283C122.112 103.396 122.662 103.221 122.538 103.483C120.602 107.567 120.838 112.639 121.685 114.418C122.303 115.707 123.152 114.665 124.318 113.233C125.193 112.158 126.246 110.864 127.514 110.172C127.705 110.072 127.832 110.172 127.847 110.409L127.863 110.655C128.074 113.979 128.769 124.901 130.1 123.082C131.469 121.213 132.991 118.56 134.258 116.354C135.647 113.933 136.727 112.051 136.957 112.331C138.069 113.688 138.535 115.142 138.909 116.311C139.336 117.644 139.644 118.605 140.657 118.625C142.895 118.671 148.036 111.431 148.227 104.631C148.289 104.06 148.259 103.483 148.139 102.922C148.118 102.851 148.12 102.765 148.271 102.792C168.122 106.381 178.017 116.274 186.623 134.105C186.899 134.677 187.19 135.273 187.49 135.889L187.491 135.89C191.824 144.773 198.244 157.935 192.954 165.337C191.784 167.003 190.233 168.366 188.431 169.312C178.531 174.112 158.015 172.227 146.848 171.112C144.555 170.884 143.237 170.807 142.467 170.762C141.487 170.705 141.394 170.699 141.305 170.499C141.223 170.313 141.135 170.129 141.047 169.944C140.89 169.615 140.733 169.284 140.605 168.942C138.871 164.185 140.234 158.028 140.856 157.693C142.397 156.764 144.047 156.027 145.767 155.498C155.602 152.182 160.785 151.311 163.296 150.889C165.426 150.531 165.633 150.496 165.124 149.566C165.085 149.495 165.058 149.45 165.033 149.411C164.889 149.177 164.845 149.107 163.124 144.641L162.941 144.167C159.084 134.177 157.108 129.059 160.284 119.289C160.751 117.826 161.34 116.405 162.046 115.041C162.052 115.032 162.06 115.023 162.067 115.014V115.013C162.11 114.959 162.158 114.898 162.078 114.82C161.633 114.386 160.716 116.551 160.276 117.59C160.228 117.703 160.186 117.802 160.151 117.883C159.207 120.111 158.573 122.457 158.267 124.857C157.721 127.85 157.864 130.928 158.686 133.857C160.256 139.318 162.201 144.664 164.509 149.857C164.64 150.112 164.635 150.113 163.711 150.255C163.184 150.337 162.359 150.464 161.09 150.711C158.422 151.23 140.212 155.259 140.055 157.98C140.002 158.231 139.917 158.474 139.802 158.704C139.744 158.866 139.59 158.887 139.187 158.945C138.828 158.996 138.272 159.074 137.412 159.304C136.243 159.614 135.696 159.853 135.407 159.979C135.088 160.119 135.082 160.122 134.901 159.932C134.015 159.001 129.94 154.952 129.474 156.165C129.459 156.203 129.443 156.241 129.426 156.278C129.353 156.444 129.283 156.604 129.374 156.806C129.425 156.921 129.455 157.051 129.486 157.181C129.511 157.288 129.537 157.396 129.574 157.498C129.762 158.04 129.971 158.362 130.122 158.595C130.242 158.781 130.326 158.911 130.335 159.051C130.18 159.051 129.762 158.841 129.218 158.567C128.155 158.032 126.608 157.253 125.581 157.316C125.033 157.35 124.581 157.963 125.401 158.892C126.037 159.608 126.387 159.904 126.676 160.15C126.887 160.329 127.066 160.481 127.301 160.748C126.168 160.589 125.649 160.49 125.287 160.421C124.992 160.365 124.802 160.329 124.47 160.296C122.652 160.115 121.541 161.429 126.295 163.179C126.436 163.231 126.564 163.292 126.693 163.354C126.755 163.383 126.816 163.413 126.879 163.441C125.827 163.376 124.772 163.391 123.723 163.485C123.103 163.545 122.789 164.169 123.19 164.545C123.872 165.344 125.822 165.899 126.993 166.233C127.473 166.37 127.823 166.469 127.9 166.533C127.794 166.631 127.706 166.673 127.608 166.719C127.533 166.755 127.451 166.794 127.351 166.864C125.632 168.058 131.163 169.364 134.269 168.086C134.571 167.961 134.575 167.981 134.634 168.249C134.657 168.352 134.688 168.493 134.748 168.676C134.961 169.335 135.511 169.383 135.822 169.411C135.889 169.416 135.944 169.421 135.983 169.431C137.312 169.797 138.667 170.063 140.036 170.226C140.593 170.289 140.744 170.531 140.897 170.777C141.027 170.986 141.16 171.199 141.548 171.304C141.624 171.324 168.809 174.332 179.894 172.493C187.746 171.193 194.562 168.501 195.38 160.507C195.714 155.688 194.856 150.861 192.88 146.453ZM97.4316 148.54C101.608 135.448 108.346 122.205 114.534 114.163C114.728 113.852 115.16 114.22 114.901 114.464C109.442 121.685 101.991 136.726 97.7158 150.663C97.6241 149.967 97.5293 149.258 97.4316 148.54ZM135.918 112.269C134.019 114.847 132.207 118.161 131.068 120.245C130.45 121.375 130.03 122.143 129.9 122.238C129.557 120.737 129.357 119.207 129.3 117.668C129.065 115.053 128.845 113.378 128.709 112.342C128.511 110.834 128.491 110.681 128.864 110.953C131.597 112.942 134.759 112.003 135.422 111.806H135.423C135.493 111.785 135.535 111.773 135.546 111.773C135.582 111.774 135.616 111.774 135.648 111.774C135.96 111.778 136.106 111.78 136.136 111.841C136.163 111.894 136.098 111.994 135.975 112.182C135.957 112.209 135.938 112.238 135.918 112.269ZM145.091 98.037C144.963 99.619 144.986 100.671 145.001 101.404C145.018 102.207 145.027 102.63 144.822 102.95C138.847 112.231 127.386 115.283 127.322 105.138C127.314 103.799 127.742 102.242 128.278 100.296C128.823 98.3162 129.479 95.934 129.899 92.969C129.965 92.5054 129.534 92.3143 128.845 92.0093C127.654 91.4812 125.692 90.6118 124.206 87.397C121.728 82.0387 124.303 73.0219 126.004 67.0621L126.006 67.0571C126.102 66.7188 126.196 66.3904 126.286 66.073C126.351 65.8423 126.444 65.8696 126.729 65.9541C127.072 66.0553 127.692 66.2385 128.874 66.159C129.513 66.116 130.041 66.0274 130.49 65.952C131.566 65.7714 132.191 65.6666 132.808 66.447C134.929 69.13 135.608 69.587 138.928 68.958C139.302 68.8876 139.503 68.8138 139.632 68.7666C139.735 68.7287 139.792 68.708 139.853 68.72C140.156 69.4356 140.609 70.0778 141.182 70.603C142.09 71.3985 142.908 71.7368 143.621 72.0319C144.971 72.59 145.947 72.9935 146.448 76.043C146.622 77.1052 146.686 78.014 146.736 78.7121C146.825 79.9614 146.866 80.5362 147.396 80.109C147.64 79.9075 147.933 79.7736 148.245 79.7207C148.557 79.6679 148.877 79.698 149.174 79.808C149.471 79.9179 149.733 80.104 149.935 80.3474C150.138 80.5908 150.272 80.8831 150.326 81.195C150.438 83.151 148.968 85.332 147.212 84.633C146.338 84.2849 146.296 84.9601 146.222 86.141C146.202 86.4695 146.179 86.8373 146.135 87.233C145.828 89.9941 145.642 91.639 145.529 92.6457C145.377 93.9898 145.353 94.1966 145.343 94.4041C145.341 94.4418 145.34 94.4796 145.338 94.5242C145.327 94.8104 145.306 95.3791 145.091 98.037ZM134.368 167.568C133.364 167.832 132.332 167.972 131.294 167.986C130.572 167.959 128.013 167.823 127.76 167.298C128.241 167.028 128.552 166.908 128.752 166.831C129.043 166.719 129.101 166.697 129.112 166.432C129.122 166.196 128.458 166.021 127.545 165.781C126.348 165.467 124.721 165.039 123.617 164.212C122.988 163.74 127.454 163.967 128.25 164.012C128.532 164.012 128.719 163.695 128.586 163.606C128.387 163.472 127.752 163.212 126.993 162.902C125.351 162.23 123.127 161.319 123.475 160.934C123.861 160.507 125.67 160.944 127.222 161.318C128.506 161.628 129.614 161.895 129.597 161.597C129.59 161.575 129.578 161.556 129.562 161.54C129.546 161.524 129.527 161.512 129.505 161.505C128.483 161.205 123.887 157.321 126.174 157.89C127.274 158.163 128.554 158.837 129.564 159.367C130.461 159.84 131.144 160.199 131.296 160.064C131.473 159.908 131.399 159.797 131.182 159.476C130.92 159.086 130.449 158.388 129.963 156.925C129.527 155.61 132.191 158.164 133.8 159.707C134.128 160.021 134.412 160.293 134.617 160.482C134.932 160.772 134.844 161.13 134.681 161.796C134.445 162.76 134.052 164.367 134.487 167.343C134.507 167.482 134.508 167.547 134.368 167.568ZM137.604 169.205C135.736 168.747 135.429 168.671 135.338 168.489C135.321 168.452 135.311 168.412 135.3 168.364C135.298 168.354 135.296 168.344 135.293 168.334C134.731 165.841 134.793 163.248 135.473 160.784C135.55 160.438 137.03 160.102 138.376 159.795C138.779 159.704 139.169 159.615 139.507 159.529C139.543 159.84 139.464 160.359 139.367 161C139.195 162.127 138.967 163.629 139.207 165.036C139.274 166.623 139.618 168.187 140.223 169.656C140.24 169.715 140.246 169.777 140.242 169.838C140.194 169.839 140.147 169.835 140.1 169.826H140.105C139.055 169.562 138.239 169.361 137.604 169.205Z" fill="#20262C"/>
<path d="M131.181 172.444C131.189 172.28 131.138 172.119 131.036 171.99C130.934 171.861 130.789 171.774 130.627 171.744C124.151 169.684 117.519 168.148 110.797 167.151C102.618 165.83 102.062 166.543 102.118 165.937C102.171 165.369 100.818 139.353 95.9756 122.121C95.2476 119.529 95.1906 120.021 93.6946 119.98C81.0596 119.627 48.0666 122.062 29.5686 126.366C29.3501 126.435 29.1613 126.576 29.0329 126.766C28.9046 126.956 28.8442 127.184 28.8616 127.412C29.3146 130.252 31.5546 153.059 37.7166 174.312C39.1626 179.3 39.5266 178.99 40.5876 179.702C51.9676 187.332 72.1976 195.815 72.0066 194.629C71.822 193.359 71.7521 192.075 71.7976 190.792C71.7976 190.641 71.8456 190.476 72.0066 190.492C72.1156 190.492 72.2166 190.649 72.3066 190.741C72.3735 191.079 72.4119 191.422 72.4216 191.767C72.7536 194.851 72.7126 194.967 73.2956 194.82C87.9027 191.159 102.315 186.759 116.476 181.637C126.431 177.886 129.15 176.468 130.16 175.693C130.86 175.155 130.991 174.916 131.102 174.471C131.213 173.801 131.239 173.12 131.181 172.444ZM63.6286 122.392C64.4826 122.392 64.4556 123.577 63.5226 123.592C62.9406 123.609 62.7206 122.393 63.6286 122.392ZM33.2116 128.686C33.1526 128.144 53.0686 125.298 58.8626 124.808C74.0906 123.521 76.6486 123.347 91.8516 122.695C92.9186 122.649 92.6006 121.804 93.6966 126.589C96.2616 137.777 98.6086 156.96 99.1646 163.189C99.1886 163.457 99.1796 163.473 98.8946 163.484C82.0826 164.096 56.5046 167.311 41.7146 171.408C41.0346 171.6 34.0476 136.4 33.2116 128.686ZM118.752 176.355C100.441 182.915 72.6316 189.722 72.0406 189.516C51.1586 182.249 39.5566 176.287 39.5406 176.274C40.4276 175.484 55.5476 171.974 90.6756 167.593C100.276 166.393 100.399 166.632 105.103 167.036C113.496 167.758 129.142 171.43 129.795 172.12C128.6 172.81 120.024 175.9 118.752 176.355Z" fill="#20262C"/>
<path d="M68.0042 128.035C71.4138 128.18 74.7054 129.324 77.4701 131.325C80.2347 133.326 82.3502 136.095 83.5537 139.288C84.7573 142.482 84.9956 145.958 84.2392 149.286C83.4827 152.614 81.7649 155.646 79.2992 158.005C76.8335 160.364 73.7287 161.947 70.3709 162.556C67.013 163.165 63.5503 162.774 60.413 161.43C57.2758 160.087 54.6026 157.852 52.7256 155.002C50.8487 152.152 49.8509 148.813 49.8562 145.4C49.9252 135.915 56.9292 127.893 68.0042 128.035ZM67.1542 162.242C79.0012 162.342 87.5112 150.053 82.7452 138.934C76.9572 125.434 58.5452 125.467 52.3332 137.482C50.9734 140.046 50.2984 142.917 50.3734 145.818C50.4484 148.719 51.2709 151.552 52.7614 154.042C54.2519 156.532 56.3598 158.595 58.8813 160.031C61.4027 161.468 64.2523 162.229 67.1542 162.242Z" fill="#20262C"/>
<path d="M88.5246 126.187C87.0323 127.283 85.6428 128.513 84.3736 129.861C83.7126 130.51 83.3066 131.074 82.4436 131.981C82.2436 132.189 81.5436 132.054 82.7436 130.755C84.3017 128.843 86.2161 127.252 88.3806 126.07C88.4806 126.016 88.5136 126.162 88.5246 126.187Z" fill="#20262C"/>
<path d="M45.6274 129.379C46.8895 129.723 48.0317 130.41 48.9274 131.363C50.9444 133.357 51.5274 133.828 51.2274 134.068C50.6574 134.531 47.7744 130.388 45.5984 129.607C45.5448 129.58 45.495 129.547 45.4504 129.507L45.6274 129.379Z" fill="#20262C"/>
<path d="M48.9922 153.688C48.5732 154.148 44.6182 156.259 42.6542 157.663C42.6012 157.701 42.4652 157.663 42.5222 157.563C43.2072 156.402 47.8522 153.656 48.6552 153.41C48.6966 153.398 48.7404 153.396 48.7827 153.404C48.825 153.413 48.8646 153.432 48.8979 153.459C48.9312 153.487 48.9572 153.522 48.9737 153.562C48.9901 153.602 48.9965 153.645 48.9922 153.688Z" fill="#20262C"/>
<path d="M43.9348 140.094C42.0058 139.383 41.5058 139.406 41.2988 139.165C41.3508 139.121 41.4078 139.04 41.4558 139.044C43.6389 139.364 45.7623 140.007 47.7558 140.952C48.0388 141.062 48.0618 141.418 47.6768 141.438C46.392 141.102 45.1397 140.652 43.9348 140.094Z" fill="#20262C"/>
<path d="M92.3822 137.531C92.1732 137.74 92.5522 137.573 90.9822 137.862C86.6252 138.662 86.1152 139.169 85.9492 138.762C85.6422 138.01 91.7592 137.109 92.3822 137.531Z" fill="#20262C"/>
<path d="M87.6701 148.96C93.5421 150.45 93.6821 151.426 92.4831 150.915C90.5161 150.078 86.9581 149.595 87.0761 149.188C87.1671 148.875 87.4041 148.96 87.6701 148.96Z" fill="#20262C"/>
<path d="M54.727 160.359C54.505 160.969 54.059 161.318 51.434 164.148C50.696 164.948 50.95 164.815 50.718 164.815C50.737 164.091 54.066 160.332 54.432 160.254C54.52 160.235 54.629 160.319 54.727 160.359Z" fill="#20262C"/>
<path d="M84.5343 156.919C87.0283 157.912 89.4803 160.236 87.1763 158.925C84.1883 157.225 84.0593 157.26 84.5343 156.919Z" fill="#20262C"/>
<path d="M74.2752 185.807C91.9472 182.107 118.242 172.777 118.36 173.107C118.537 173.599 115.078 174.707 112.966 175.407C101.656 179.281 90.154 182.569 78.5052 185.258C73.3522 186.481 74.8052 186.697 70.5052 185.214C67.5972 184.214 54.8332 179.657 52.1842 178.114C47.4002 175.329 100.108 168.371 100.645 168.262C101.77 168.034 102.645 168.362 112.667 170.69C115.387 171.321 118.562 172.274 118.585 172.28C118.914 172.398 119.232 172.729 118.538 172.604C116.9 172.311 110.816 170.478 101.517 168.746C100.381 168.534 51.7342 176.184 52.6112 177.777C52.6202 177.8 69.6612 184.7 74.2752 185.807Z" fill="#20262C"/>
<path d="M71.6428 145.928V142.865H73.0495V139.62H69.8042V147.616H66.6897V136.309L72.3322 136.294C74.5045 136.288 76.2687 138.047 76.2687 140.22V145.928H71.6428Z" fill="#20262C"/>
<path d="M65.0802 142.807V145.934H63.5229V149.114H69.8042V152.294H63.68C61.8732 152.294 60.4084 150.829 60.4084 149.022V142.807H65.0802Z" fill="#20262C"/>
</svg>
