<svg width="85" height="85" viewBox="0 0 85 85" fill="none" xmlns="http://www.w3.org/2000/svg">
<g clip-path="url(#clip0_578_3980)">
<path d="M17.8192 14.7847C17.9892 16.5944 19.6564 16.897 20.4308 16.1252C20.4601 16.0959 20.5128 16.0619 20.4699 16.0194C20.3811 15.9301 20.0253 16.3547 19.3585 16.1783C19.1133 16.1423 18.8827 16.0398 18.6916 15.8819C18.5006 15.724 18.3564 15.5168 18.2748 15.2828C17.6122 13.5756 18.5072 15.8719 21.1223 13.8752C21.1384 13.8629 21.1363 13.8255 21.1427 13.7996C21.115 13.7953 21.0832 13.7775 21.0606 13.7864C19.7036 14.3296 19.5328 14.5548 18.0372 14.2743C17.738 14.2191 17.7992 14.5722 17.8192 14.7847Z" fill="#20262C"/>
<path d="M18.9545 12.9357C19.1961 12.932 19.4358 12.8928 19.6659 12.8193C20.7204 12.5672 20.1759 11.1193 19.6035 10.2004C19.4811 10.0036 19.2558 10.0661 19.3634 10.333C19.5826 10.782 19.7563 11.2518 19.8819 11.7355C20.0366 12.4525 19.504 12.5056 19.221 12.5855C18.5321 12.7831 18.5469 12.6743 18.51 12.7678C18.473 12.8613 18.8487 12.9302 18.9545 12.9357Z" fill="#20262C"/>
<path d="M16.5232 11.0986C16.6688 10.8992 16.8706 10.7478 17.1028 10.664C17.335 10.5802 17.5869 10.5677 17.8263 10.6281C17.9733 10.6617 17.8777 10.4551 17.7799 10.3829C17.4 10.1036 16.264 10.4555 16.2618 11.1054C16.2431 11.28 16.4335 11.2545 16.5232 11.0986Z" fill="#20262C"/>
<path d="M20.7216 10.0244C20.8762 9.9709 21.0436 9.96665 21.2006 10.0123C21.3577 10.058 21.4967 10.1514 21.5984 10.2794C21.8109 10.4741 21.6158 9.63044 20.8568 9.68909C20.5958 9.67209 20.1925 9.78599 20.1746 10.0448C20.1568 10.3036 20.4386 10.0822 20.7216 10.0244Z" fill="#20262C"/>
<path fill-rule="evenodd" clip-rule="evenodd" d="M45.1231 20.1738C45.0011 20.5139 44.9017 20.7909 44.891 21.0177C44.8273 22.4064 45.2769 24.3576 45.7929 26.5975C46.4006 29.2344 47.1006 32.2714 47.1635 35.262C47.2141 35.7974 47.1996 36.3369 47.121 36.8689C46.8329 39.5256 45.2761 41.5354 43.7924 42.2881C42.2616 43.0229 40.5338 43.2413 38.8684 42.9107C40.0986 45.7429 41.0965 48.5759 41.8468 51.1238C41.7481 51.2751 41.6507 51.4273 41.5544 51.5811C39.0113 42.651 33.8745 32.5064 28.1771 26.4708C27.9123 26.1903 27.6278 25.9031 27.4088 25.6821C27.2043 25.4757 27.0569 25.3269 27.0364 25.2953C26.7686 24.8928 28.6739 25.8401 33.1372 32.2513C33.2741 32.4479 33.3566 32.586 33.4119 32.6787C33.5201 32.8598 33.5248 32.8677 33.6294 32.7999C33.8695 32.6431 35.8356 30.9299 36.5381 30.2074C36.7344 30.0059 36.9185 29.7931 37.1028 29.5801C37.2182 29.4467 37.3336 29.3132 37.4523 29.1823C37.4918 29.1386 37.4948 29.1122 37.4523 29.0757C37.404 29.0325 37.3551 28.9887 37.3056 28.9443L37.1981 28.848L37.1974 28.8473C33.6726 25.6877 27.3064 19.9811 21.3333 20.7911C21.2639 20.8004 21.2984 20.8477 21.3576 20.929C21.4483 21.0534 21.597 21.2575 21.5199 21.5264C20.8666 23.7899 18.5806 24.9459 16.1156 23.4338C15.5524 23.0827 15.0555 22.6351 14.6476 22.1116C14.555 22.087 11.8571 22.7172 9.05205 25.419C6.94958 27.4403 4.86835 30.9525 3.95205 34.9475C3.44615 37.2352 3.20713 39.5739 3.23975 41.9166C3.2372 42.1818 9.89228 42.1206 13.9608 41.1342C15.2786 40.8086 16.5701 40.3847 17.8245 39.866C17.9227 39.826 17.9213 39.8219 17.8044 39.4667C17.7736 39.3731 17.7348 39.2551 17.6876 39.1057C16.1905 34.3608 15.4129 32.5476 15.0983 31.8138C14.9045 31.362 14.8862 31.3193 14.9834 31.2534C15.0182 31.2296 15.2069 31.5415 15.235 31.5976C16.4193 33.9481 16.6842 34.7634 17.4562 37.1396L17.4579 37.145C17.5118 37.3106 17.568 37.4839 17.6273 37.6658C17.6821 37.8349 18.2185 39.7538 18.207 39.7806C18.1958 39.8067 18.1864 39.834 18.1769 39.8613C18.1419 39.9623 18.1065 40.0644 17.9847 40.1159C17.6964 40.2752 17.3996 40.4186 17.0956 40.5456L17.0919 40.5471C17.068 40.5565 17.0493 40.5638 17.0366 40.5769C16.9907 40.6245 17.0235 40.748 17.1749 41.3179C17.233 41.5368 17.3087 41.8217 17.4042 42.1933C17.5216 42.6506 17.6174 43.0267 17.6961 43.3357C17.8733 44.0314 17.9639 44.3871 18.0196 44.5614C18.0667 44.6812 18.1479 44.6659 18.286 44.5767C20.5835 43.0917 22.6631 42.1516 24.2962 41.4132L24.2967 41.413C24.8173 41.1776 25.2926 40.9627 25.715 40.7572C29.3733 38.9747 29.6717 38.0828 29.9803 37.1602C30.0883 36.8373 30.1975 36.5108 30.4525 36.1409C30.6374 35.8714 30.8796 35.7235 31.0199 36.0032C31.0996 36.3572 31.133 36.7201 31.1193 37.0827C31.1769 37.0513 31.375 36.8274 31.6091 36.5629C31.9383 36.1909 32.3387 35.7384 32.5193 35.6279C32.7938 35.4596 32.9413 35.6959 32.8011 36.2199C32.7521 36.4053 32.6882 36.5864 32.6098 36.7614C32.6013 36.7724 32.6145 36.7839 32.6251 36.7758C32.7178 36.7026 32.8138 36.5988 32.9114 36.4932C33.1399 36.2458 33.3774 35.9889 33.6026 36.0928C33.7182 36.146 33.7454 36.3674 33.6179 36.7524C33.5021 37.0441 33.3494 37.3198 33.1636 37.5727C33.1547 37.5825 33.1666 37.5961 33.1785 37.5876C33.2714 37.5322 33.36 37.4731 33.4433 37.4175C33.7314 37.2252 33.9567 37.0748 34.0863 37.2667C34.2159 37.4584 34.0467 37.7601 33.9923 37.8553C33.8653 38.054 33.716 38.2375 33.5474 38.4023C33.546 38.4042 33.545 38.4063 33.5444 38.4086C33.544 38.4102 33.5438 38.4118 33.5438 38.4135C33.5439 38.4161 33.5444 38.4187 33.5455 38.421C33.5461 38.4223 33.5468 38.4235 33.5477 38.4246C33.5501 38.4278 33.5535 38.4301 33.5573 38.4312C33.5591 38.4318 33.561 38.432 33.5628 38.432C33.5649 38.4319 33.567 38.4315 33.569 38.4308C33.881 38.2918 34.0952 38.2884 34.1215 38.571C34.1128 38.7074 34.0768 38.8406 34.0157 38.9628C33.9546 39.085 33.8696 39.1937 33.7658 39.2825C33.3406 39.6805 32.8849 40.0446 32.4028 40.3713C31.9978 40.6848 31.6137 41.0242 31.2528 41.3875C30.7514 41.8587 29.3285 43.691 27.663 45.8351C25.5187 48.5963 22.9724 51.8748 21.4734 53.4328C21.2215 53.466 20.9645 53.5004 20.7047 53.5357C21.1846 53.1081 21.6361 52.6491 22.0562 52.1612C22.4791 51.6746 27.9735 44.8937 29.546 42.9341C29.9925 42.3509 30.4751 41.7963 30.991 41.2736C31.3616 40.8926 31.7603 40.5399 32.1835 40.2183C32.6474 39.9033 33.0927 39.5618 33.5172 39.1953C33.6978 39.0364 33.8993 38.8591 33.9052 38.662C33.9107 38.4706 33.6465 38.6166 33.3791 38.7642C33.2569 38.8317 33.1341 38.8995 33.0361 38.9357C33.0256 38.9395 33.0141 38.9439 33.0021 38.9486C32.8907 38.9911 32.7248 39.0545 32.7509 38.9357C32.7748 38.8262 32.9576 38.644 33.1778 38.4246C33.349 38.2539 33.5429 38.0607 33.7021 37.8617C33.8117 37.7248 33.969 37.466 33.8296 37.466C33.5094 37.6156 33.2094 37.8053 32.9371 38.0304C32.7785 38.1396 32.5618 38.1443 32.7271 37.8528C32.7866 37.7481 32.8552 37.6347 32.9266 37.5169C33.0761 37.2699 33.2372 37.0037 33.3497 36.7588C33.5452 36.333 33.4551 36.2501 33.2171 36.4957C33.1741 36.5399 33.1212 36.5948 33.0662 36.6519L33.0658 36.6522C32.9328 36.7901 32.7873 36.941 32.7369 36.9866C31.895 37.7495 32.1236 37.2444 32.3757 36.6874C32.5448 36.314 32.7244 35.9172 32.5992 35.8633C32.5251 35.8316 32.264 36.1484 31.9673 36.5086C31.4909 37.0867 30.9228 37.7764 30.889 37.3139C30.8701 37.0528 30.8724 36.9233 30.8747 36.7994C30.8762 36.7113 30.8777 36.626 30.8716 36.4983C30.8405 35.8672 30.5103 36.5246 30.2817 37.112C30.2695 37.1433 30.2576 37.174 30.2459 37.2043L30.2181 37.2762C29.7285 38.5444 29.5546 38.9947 26.3075 40.8167C26.1428 40.9091 25.5567 41.1984 24.7689 41.5872L24.7686 41.5874C22.3619 42.7751 18.074 44.8916 18.17 45.1598L18.175 45.1738V45.1742C18.2055 45.2609 18.3314 45.6201 18.2882 45.6366C18.2654 45.6473 18.2395 45.649 18.2154 45.6417C18.1914 45.6341 18.171 45.6184 18.1581 45.5967C17.5508 44.5843 17.2145 43.0505 16.9807 41.9846C16.8183 41.2444 16.7054 40.7296 16.5856 40.7712C12.3802 42.2324 9.39205 42.3786 5.3707 42.4024C5.20283 42.4032 5.24788 43.3901 5.49098 44.8432C5.50126 44.9048 5.51197 44.9694 5.52315 45.037C5.80021 46.7106 6.38633 50.2504 8.26155 52.9339C9.7321 55.0389 11.876 56.0938 14.111 56.1864C14.1361 56.3454 14.1627 56.512 14.1909 56.6845C12.6576 56.6573 11.2468 56.2102 10.1571 55.4354C8.48905 54.3768 7.46957 52.4524 7.05902 51.6776C6.95884 51.4885 6.89497 51.3678 6.8667 51.3448C6.7613 51.7022 6.7239 55.5408 6.7188 56.6883C6.70631 59.2957 6.73512 59.3004 6.92812 59.3301C6.93849 59.3318 6.94932 59.3335 6.96063 59.3357C9.55691 59.7921 12.1787 60.0858 14.8106 60.215C14.8353 60.3493 14.8603 60.4844 14.8855 60.6204C13.2098 60.5405 11.3647 60.4062 9.92968 60.1818C9.18788 60.0662 8.6636 59.977 8.29253 59.9137L8.29101 59.9132H8.29033C7.40399 59.7624 7.39404 59.7607 7.37968 59.9009C6.91515 64.4127 7.41708 68.4987 8.3848 72.9871C8.31506 73.0092 8.2412 73.0279 8.16988 73.0457C8.12951 73.0559 8.08994 73.0661 8.05245 73.0763C7.65716 71.5833 7.34827 70.069 7.12723 68.5403C6.68315 65.6537 6.68616 62.7161 7.13615 59.8308C7.14984 59.7522 7.06599 59.7343 6.95833 59.7114C6.80873 59.6799 6.61315 59.6383 6.56963 59.41C6.26796 57.8273 6.42385 54.6874 6.52649 52.619C6.58064 51.5288 6.61995 50.7362 6.56963 50.6274C5.90705 49.0745 5.44614 47.4433 5.19815 45.7731C4.87741 43.8975 4.86104 43.0726 4.85378 42.7084C4.84817 42.4269 4.84804 42.4202 4.71705 42.4156C4.40621 42.4048 4.15269 42.399 3.94553 42.3944C3.06871 42.3746 3.02256 42.3735 2.97753 42.0858C2.5895 39.5961 3.28183 33.9887 5.34605 29.9588C8.31548 24.1556 12.0338 22.68 13.6838 22.0252C14.2206 21.8122 14.5385 21.686 14.5405 21.526C14.49 20.3518 14.3229 19.1855 14.0416 18.0444C14.033 18.013 13.9799 17.9541 13.8914 17.8557C13.4369 17.3509 12.0477 15.808 10.945 11.6269C10.9124 11.5034 10.9043 11.425 10.8985 11.3692C10.8869 11.2573 10.8847 11.2359 10.7147 11.1245C8.9033 9.93112 9.08265 7.10105 10.8677 6.16605C10.9312 6.13269 10.9232 6.1199 10.8843 6.05793C10.831 5.97319 10.72 5.79634 10.6552 5.34878C10.6217 4.87261 10.7064 4.3955 10.9017 3.95989C10.914 3.92291 10.9752 3.89316 11.0198 3.88041C11.0958 3.85905 11.1195 3.92639 11.178 4.09186C11.2265 4.22921 11.2989 4.43417 11.4448 4.71212C11.5372 4.31488 11.6736 3.92913 11.8515 3.56209C11.8894 3.47581 11.9293 3.42056 12.0347 3.44309C12.1351 3.46476 12.1926 3.78896 12.244 4.07822C12.2943 4.36184 12.3387 4.61191 12.4117 4.51025C13.7409 2.65723 15.6175 2.94402 17.3186 3.204C18.7313 3.4199 20.0231 3.61731 20.7799 2.55526C20.8889 2.40219 20.9718 2.27532 21.0377 2.17437C21.2089 1.91237 21.266 1.82492 21.3694 1.90714C22.0628 2.45785 21.8178 4.20536 21.7981 4.34539L21.7976 4.34947L21.797 4.35427C22.0095 4.25363 22.2834 3.74472 22.454 3.42785C22.5211 3.3032 22.5722 3.20826 22.5972 3.17959C22.6176 3.1589 22.6421 3.14274 22.6692 3.13216C22.6963 3.12158 22.7253 3.11681 22.7543 3.11818C22.7833 3.11954 22.8117 3.127 22.8377 3.14007C22.8637 3.15314 22.8866 3.17153 22.9049 3.19404C23.0885 3.52301 23.1749 3.89738 23.154 4.27353C23.1591 5.37428 22.4447 6.32713 21.6754 7.11465C21.5943 7.1977 21.6275 7.24649 21.72 7.38223C21.8519 7.57595 22.1043 7.94659 22.3172 8.8461C22.4641 9.35074 22.5812 9.86363 22.6678 10.382C22.9649 11.933 22.9757 13.5252 22.6997 15.08C22.4226 16.4013 21.6299 18.1472 20.4348 18.6372C20.4203 18.6407 20.4067 18.6473 20.395 18.6566C20.3833 18.6659 20.3739 18.6777 20.3673 18.6911C20.3608 18.7046 20.3573 18.7193 20.3571 18.7342C20.357 18.7492 20.3602 18.7639 20.3664 18.7775C20.4465 18.9591 20.4985 19.1504 20.5506 19.3417C20.6159 19.5819 20.6812 19.8221 20.802 20.0431C20.8367 20.1066 20.8653 20.1609 20.8896 20.2071C20.9666 20.3534 21.0016 20.4197 21.0554 20.4441C21.0998 20.4642 21.1572 20.4557 21.2621 20.4403C21.4489 20.4127 21.7863 20.3629 22.4693 20.4129C28.0364 20.8205 31.5528 23.4827 36.0931 27.408C36.6655 27.9029 37.1249 28.3583 37.5092 28.7392C37.5822 28.8117 37.6526 28.8814 37.7204 28.9482C37.725 28.9526 37.7295 28.9569 37.734 28.9611C37.7399 28.9667 37.7458 28.972 37.7516 28.9772C37.8506 29.0664 37.9043 29.1148 37.5186 29.6163C37.3271 29.8639 37.1953 30.017 37.11 30.116C37.0103 30.2318 36.9744 30.2735 36.9815 30.3058C36.9855 30.3241 37.0031 30.3393 37.0307 30.3631C37.038 30.3693 37.0459 30.3762 37.0545 30.3838C37.9265 31.1624 38.1522 31.4039 38.2235 31.4802C38.2477 31.506 38.2541 31.5128 38.2619 31.5152C38.2648 31.5161 38.2678 31.5164 38.2719 31.5167C38.2739 31.5169 38.2761 31.5171 38.2787 31.5174C38.2804 31.5176 38.2823 31.5179 38.2844 31.5181C38.7635 30.1514 39.4095 28.5404 40.0278 26.9985C40.9289 24.7513 41.7713 22.6509 41.9517 21.6679C42.0028 21.3891 41.9675 21.271 41.8549 20.8941C41.8372 20.8349 41.8176 20.7694 41.7962 20.6959C41.7417 20.5095 41.6521 20.1756 41.5706 19.7987L41.845 19.8779C41.9788 20.4444 42.1314 20.9467 42.1681 21.0673C42.1727 21.0826 42.1755 21.0919 42.1761 21.0942C42.2682 21.3168 42.2739 21.5658 42.1923 21.7924C41.4617 24.3834 40.6556 26.2874 39.9638 27.9211C38.877 30.488 38.0726 32.3878 38.2874 35.2373C38.2944 35.3222 38.2965 35.4073 38.2938 35.4923C38.2892 35.5021 38.282 35.5103 38.2729 35.5161C38.2638 35.5219 38.2533 35.5249 38.2425 35.5249C38.2318 35.5249 38.2212 35.5219 38.2122 35.5161C38.2031 35.5103 38.1959 35.5021 38.1913 35.4923C38.0712 35.2465 38.0011 34.9792 37.9852 34.7061C37.8905 33.7591 37.9588 32.8029 38.1871 31.879C38.189 31.8686 38.1908 31.8595 38.1923 31.8514C38.1986 31.8196 38.2015 31.8049 38.1969 31.7932C38.1929 31.7831 38.1833 31.7751 38.1655 31.7604L38.1548 31.7515C37.6938 31.364 37.4665 31.1522 37.2266 30.9286C37.1265 30.8354 37.0242 30.74 36.9019 30.629L36.8869 30.6154C36.8378 30.5706 36.8065 30.542 36.7725 30.5383C36.7123 30.5316 36.6436 30.6026 36.4534 30.7988C36.1303 31.1323 35.4566 31.8276 33.8784 33.1191C33.7888 33.1922 33.7675 33.2232 33.8784 33.4017C35.7062 36.3141 37.3152 39.3583 38.692 42.5091C43.078 43.487 46.7525 40.948 46.8528 35.6725C46.8371 35.4214 46.8227 35.1821 46.8091 34.9506C46.6726 32.6562 46.5817 31.1346 45.4673 26.5958C45.2302 25.6289 44.738 23.3543 44.653 22.4367C44.5867 21.9758 44.574 21.5088 44.6148 21.0449C44.6152 20.722 44.7393 20.3725 44.8855 19.9617C45.0904 19.3848 45.3381 18.687 45.3466 17.7724L45.3471 17.7257L45.3479 17.653C45.3517 17.2636 45.353 17.1571 45.2761 17.1497C45.1919 17.1417 45.0657 17.2726 44.9658 17.7171L44.6029 18.8646C44.5774 18.9607 44.5115 18.984 44.4563 18.9607C44.3687 18.9237 44.3989 18.8227 44.4958 18.4962C44.5311 18.3771 44.5757 18.2277 44.6263 18.0405L44.6322 18.0191C44.6853 17.8241 44.8787 17.1156 44.9046 16.7097C44.9612 16.5668 45.0164 16.4236 45.0712 16.28C45.1567 16.4498 45.1516 16.7375 45.1375 16.9326C45.4958 16.783 45.588 17.069 45.608 17.4562C45.6701 18.6491 45.3556 19.5258 45.1231 20.1738ZM41.3683 69.4983C41.3532 69.715 41.3373 69.9313 41.321 70.1472C41.4169 70.1723 41.515 70.1885 41.6139 70.1953C41.6351 70.0095 41.6608 69.7703 41.6882 69.4855C41.5824 69.4898 41.4757 69.494 41.3683 69.4983ZM43.4286 20.2138C43.3823 20.2848 43.367 20.2739 43.3513 20.2628C43.3466 20.2597 43.3419 20.2565 43.3368 20.2552C43.2782 20.2413 43.2195 20.2286 43.1604 20.2164L43.1634 20.2335C43.1694 20.2677 43.1881 20.2982 43.2157 20.3188C43.2437 20.3393 43.2786 20.3482 43.313 20.3435C43.347 20.3389 43.3785 20.3211 43.3997 20.2939C43.418 20.2709 43.4278 20.2428 43.4286 20.2138ZM14.0261 17.5776C14.1861 17.7746 14.2579 17.863 14.3221 18.066C14.6989 19.2563 14.7744 20.4304 14.8236 21.1945C14.8535 21.6584 14.8736 21.9712 14.9455 22.0449C17.4008 24.5817 20.1811 24.2876 21.2933 21.5115C21.3337 21.4108 21.2839 21.3508 21.1723 21.2162C20.9664 20.9678 20.55 20.4654 20.0999 18.9849C20 18.6567 20.1557 18.5642 20.3492 18.4493C20.4371 18.3972 20.5328 18.3403 20.6159 18.2547C22.2672 16.5532 22.3749 15.1442 22.5377 13.0142C22.547 12.8916 22.5566 12.7667 22.5666 12.6392C22.6057 12.142 22.2521 8.85843 21.4871 7.4402C21.4264 7.32813 21.4125 7.3405 21.2896 7.44993C21.202 7.52805 21.0587 7.65563 20.8033 7.8227C19.2884 8.81295 17.2248 8.75859 15.5959 8.71567L15.4483 8.7118C15.3405 8.70908 15.268 8.69905 15.217 8.692C15.1633 8.6846 15.1333 8.68044 15.1106 8.69144C15.0818 8.70543 15.0649 8.74385 15.0265 8.8311C15.0076 8.87406 14.9835 8.92881 14.9502 8.99825C14.6375 9.47531 14.1952 9.85322 13.6752 10.0875C13.6667 10.0911 13.6594 10.0937 13.6531 10.0961C13.639 10.1013 13.6297 10.1046 13.6242 10.1111C13.614 10.1234 13.617 10.1468 13.6257 10.2143C13.6437 10.3533 13.6858 10.679 13.6858 11.4785C13.6858 12.072 13.6725 12.0582 13.3948 11.7701C13.367 11.7413 13.3366 11.7097 13.3033 11.6757C12.192 10.5427 11.4661 13.2699 13.6008 14.2024C13.8673 14.3186 13.7823 14.5885 13.6131 15.1257L13.6008 15.1646C13.4256 15.7203 13.1984 15.8958 13.0769 15.9896C13.0027 16.0469 12.9679 16.0738 13.0084 16.1382C13.544 16.984 13.8429 17.352 14.0261 17.5776Z" fill="#20262C"/>
<path d="M41.8624 20.7527C41.9189 20.7649 41.9694 20.7965 42.0052 20.8419C42.1152 20.893 42.2311 20.9302 42.3503 20.9529C42.3311 20.8679 42.5028 20.9388 43.1097 21.071C43.4098 21.1365 43.454 21 43.4655 21.258C43.4757 21.4837 43.4978 21.6728 43.6321 21.7026C43.9398 21.7706 43.4429 20.9801 44.6597 19.0506C44.8284 18.8489 44.9802 18.6332 45.1123 18.4058C45.2343 18.116 45.7898 16.6918 46.4757 14.6807C46.7295 13.9512 46.9258 13.2029 47.0627 12.4427C47.0971 12.2455 46.7469 12.0087 46.627 11.9599C45.7528 11.6037 44.1076 10.8791 42.5853 10.8719C42.3992 10.8411 42.2083 10.8796 42.0487 10.98C41.889 11.0805 41.7718 11.236 41.7191 11.4171C40.3749 15.0976 39.4012 19.5555 39.7289 19.8814C39.9788 20.1301 40.7204 20.3804 41.8624 20.7527ZM40.3387 19.3221C40.7688 16.668 41.4603 14.0628 42.403 11.5446C42.4676 11.3746 42.3957 11.3976 43.168 11.5374C43.2908 11.5599 43.2853 11.6033 43.2827 12.0971C43.2827 12.3164 43.403 12.3169 44.0949 12.5965C44.5598 12.7848 44.6215 12.8349 44.7609 12.6947C45.233 12.2191 45.2492 12.2017 45.3087 12.2225C46.3606 12.5863 46.2798 12.5476 46.2343 12.7176C45.763 14.4413 45.1723 16.1302 44.4672 17.7722C43.3571 20.5627 43.4004 20.2703 43.3371 20.255C43.08 20.1938 42.8178 20.156 42.5653 20.085C40.1755 19.3969 40.2814 19.4335 40.3387 19.3221Z" fill="#20262C"/>
<path d="M50.7779 2.61877C50.7469 2.62472 50.7069 2.61877 50.6891 2.64002C47.499 5.39148 45.9979 8.4978 46.128 8.71753C46.4204 9.2084 46.2652 8.33503 48.0575 5.96608C51.1515 1.87842 50.715 3.07565 50.7779 2.61877Z" fill="#20262C"/>
<path d="M49.4248 12.9443C49.5289 13.139 49.7609 12.6948 52.489 11.9902C56.2243 11.025 56.5584 11.2651 56.654 11.0654C55.5996 10.7921 49.0482 12.2401 49.4248 12.9443Z" fill="#20262C"/>
<path d="M41.7296 8.58829C40.4121 6.27629 40.3581 2.56177 40.2994 2.56177C40.143 2.56177 40.1953 4.46111 40.3538 5.39484C40.9815 9.09786 41.8834 8.85859 41.7296 8.58829Z" fill="#20262C"/>
<path d="M48.2843 18.0572C48.1492 18.1107 48.2095 18.2731 48.3485 18.2573C50.0158 18.0665 53.9585 19.033 53.9696 19.03C54.4961 18.8625 49.36 17.6334 48.2843 18.0572Z" fill="#20262C"/>
<path d="M36.9074 14.464C37.7965 15.1015 37.8062 15.0394 38.0213 15.0445C38.0474 15.0492 38.0744 15.0441 38.0969 15.0301C38.1195 15.0161 38.1361 14.9943 38.1436 14.9688C38.151 14.9433 38.1487 14.916 38.1372 14.8921C38.1257 14.8681 38.1058 14.8493 38.0812 14.8393C35.8126 13.614 35.0386 11.8481 34.7237 11.8167C35.2717 12.8332 36.0136 13.7326 36.9074 14.464Z" fill="#20262C"/>
<path fill-rule="evenodd" clip-rule="evenodd" d="M17.0824 71.3873C8.86603 72.6121 3.34879 74.0414 2.37825 74.525H2.36635C1.45111 74.9828 2.82557 74.6249 3.52127 74.4434C3.62803 74.4158 3.71881 74.392 3.78288 74.3763C7.4589 73.4689 12.1115 72.5824 17.1901 71.8301C17.1562 71.6941 17.1202 71.5462 17.0824 71.3873ZM34.5026 70.0039C35.6646 69.9329 36.8185 69.8743 37.9588 69.8288C43.6117 69.6031 47.7521 69.6167 49.637 69.6227C50.3765 69.6252 50.7687 69.6265 50.7687 69.6116C50.858 69.6244 50.9489 69.6176 51.0356 69.5921C51.0322 69.5831 51.0314 69.5746 51.0301 69.5666C51.0152 69.4654 51.0067 69.4097 47.5081 69.3974C45.7758 69.3915 43.9033 69.3949 41.9357 69.4182C41.9343 69.4722 41.9105 69.4773 41.8174 69.4807C39.6456 69.5598 37.1295 69.7412 34.5026 70.0039Z" fill="#20262C"/>
<path d="M59.7533 17.9453C59.7533 18.1914 59.8332 18.0137 60.4414 16.9512C60.7538 16.3592 61.1886 15.8402 61.7164 15.4285C62.4113 14.9185 63.8588 15.9223 63.878 16.4438C63.889 16.7557 63.793 16.4349 62.7594 18.2203C61.7819 19.9084 63.291 17.5008 66.0489 17.1663C66.5164 17.1093 66.7153 17.9279 66.8296 18.2254C67.0506 18.8013 67.1364 19.4235 66.7021 19.5199C65.9779 19.7089 65.2834 19.9978 64.6387 20.3784C65.1262 20.4715 67.8687 21.2374 68.8462 22.33C68.8101 22.9468 68.6533 23.5505 68.3851 24.107C68.1824 24.4895 68.2002 24.0887 65.8857 23.1231C65.83 23.1061 65.8172 23.1231 65.8614 23.1656C67.2499 24.5145 68.1229 27.0331 68.1271 27.042C68.1972 27.1937 68.2032 27.2545 68.0846 27.3569C67.6052 27.6877 67.0587 27.9082 66.4841 28.0025C66.4339 28.0145 66.3816 28.0129 66.3323 27.998C66.2835 27.983 66.2388 27.9553 66.204 27.9175C66.0914 27.8287 66.0395 27.1997 65.4755 25.8473C65.2732 25.2841 64.9927 24.7522 64.6421 24.2672C64.5839 24.339 64.6056 24.4312 64.6795 24.5851C64.8155 24.869 65.9813 27.3518 65.7106 27.5278C64.6855 28.1942 65.3935 27.5465 64.6957 29.6256C64.6268 29.8304 65.0025 29.9142 65.1185 30.6732C65.2609 31.6035 64.9358 32.6707 64.0484 32.8543C63.7084 32.9244 63.4696 32.6975 63.5053 32.8705C63.6051 33.355 64.2605 39.421 64.4917 39.4962C64.9167 39.6335 72.6542 40.6322 74.7393 46.0629C75.2399 47.3668 75.1184 49.0936 74.8298 50.4621C74.282 53.0631 74.5705 50.5594 74.5187 54.8867C74.4337 61.8903 73.3848 64.3477 75.5336 73.5991C76.1847 76.4011 76.3679 76.2825 74.7852 75.8834C74.5212 75.8167 74.6577 75.7887 74.5676 77.1236C74.2416 80.555 72.6699 83.7485 70.1497 86.1004C68.5432 87.6173 67.6979 88.4983 67.0196 88.8519C66.9133 88.9071 66.836 88.8638 66.9103 88.7376C68.2907 86.3967 74.0125 83.7544 74.0661 75.7725C74.0661 75.6497 67.0778 74.061 62.77 73.265C53.502 71.548 46.4683 71.463 45.9825 71.65C43.5757 72.5731 39.4774 74.5621 36.9368 75.8966C35.0163 76.8669 33.183 78.0008 31.4573 79.286C29.3531 80.7569 27.891 82.9771 27.3705 85.491C27.2651 85.7226 26.877 85.7239 27.0266 84.8535C27.6773 81.071 30.8244 78.8878 34.0986 76.8873C35.2079 76.2098 39.1187 74.2098 39.9998 73.8107C45.9217 71.1256 45.1342 71.7563 45.1525 71.0712C45.3951 62.0799 48.5452 52.344 48.6957 51.6346C48.7739 51.267 48.507 51.7111 42.1813 47.5925C40.8825 46.7471 40.8591 46.7973 41.03 46.5223C42.0453 44.8886 42.05 45.0939 41.7916 44.915C38.2394 42.4534 35.0256 39.6981 35.7349 35.4307C36.3545 31.6856 42.7555 25.3845 45.1929 22.9998C45.7292 22.4754 48.6779 19.5892 49.6129 18.8238C50.907 17.7643 51.3439 17.4948 52.0579 17.3197C53.1629 17.0481 53.0655 17.2934 53.1442 17.1225C53.3881 16.6826 53.7617 16.3282 54.2135 16.1072C54.3044 16.0694 54.4022 16.0519 54.5008 16.0557C54.5989 16.0595 54.6954 16.0846 54.783 16.1293C55.7388 16.5297 56.6066 17.1141 57.3368 17.8493C57.2862 17.1282 57.1902 16.4111 57.0491 15.7022C56.9662 15.3035 56.9734 15.3464 57.0822 15.2772C57.6611 14.9202 59.2603 14.8007 59.5119 15.6367C59.6475 16.3995 59.7283 17.171 59.7533 17.9453ZM45.702 70.9522C45.702 71.6385 52.7685 69.6487 75.3776 75.6391C75.5701 75.6901 75.5812 75.6964 75.4452 75.1639C73.3172 66.8122 73.4077 66.465 74.0975 54.1311C74.1825 52.6436 74.1766 52.9462 73.6372 54.33C71.9725 58.6025 68.9431 62.9027 68.3991 63.833C68.366 63.8734 68.3235 63.9048 68.2754 63.9248C68.2274 63.9452 68.1747 63.9533 68.1229 63.9486C68.071 63.9439 68.0209 63.9265 67.9771 63.898C67.9333 63.87 67.8972 63.8313 67.8717 63.7858C67.3243 62.5244 67.3617 62.6545 67.0072 61.889C66.9494 61.7645 66.9082 61.8933 66.5342 62.1249C62.6098 65.0506 59.1418 64.2321 57.296 63.394C55.667 62.6179 54.3877 61.2596 53.7111 59.5868C52.2427 56.2259 52.1985 47.235 52.2019 43.5805C52.2083 37.3296 52.8934 37.2939 52.6567 37.191C52.6142 37.1723 47.9018 35.2194 47.8491 35.4315C47.2265 37.9437 43.1099 44.1083 41.4813 46.462C41.3487 46.6532 41.1927 46.4832 42.9718 47.6048C44.9693 48.8653 45.1928 48.9941 46.549 49.7893C49.0276 51.2428 48.7909 51.1918 48.844 51.0099C50.2712 45.9197 50.4854 45.7658 50.5708 45.7824C51.051 45.8831 45.7024 60.6786 45.702 70.9522ZM53.0859 53.6317C53.6138 57.7772 53.8595 59.104 55.041 60.7258C56.5782 62.8321 59.4648 63.847 61.8333 63.5236C64.0811 63.2167 65.5733 62.096 66.6617 61.3323C66.674 61.3268 66.6847 61.3187 66.6936 61.3085C66.7021 61.2983 66.7085 61.286 66.7119 61.2732C66.7153 61.26 66.7161 61.2464 66.7136 61.2333C66.711 61.2201 66.7059 61.2078 66.6978 61.1967C59.8978 47.0914 59.0844 50.4816 54.9763 38.3547C54.9096 38.1575 54.8488 37.8893 55.7953 37.3691C56.2743 37.106 56.8523 36.9441 57.0644 36.6921C57.1795 36.5544 57.1069 36.4371 56.9301 36.4451C56.6763 36.4874 56.4252 36.5454 56.1787 36.6185C55.9976 36.6517 55.9849 36.4677 56.2377 36.2292C56.596 35.9346 56.9849 35.6794 57.398 35.4681C57.4588 35.4345 57.5391 35.4043 57.5195 35.3189C57.4456 35.1064 57.0461 35.2802 56.9088 35.369C56.3801 35.6389 56.1077 35.8616 55.9521 35.9122C55.8302 35.9517 55.8276 35.8098 55.8497 35.7809C56.0291 35.6135 56.2348 35.4761 56.4579 35.3741C56.7261 35.2041 56.8663 35.1404 56.7363 34.9967C56.5892 34.8344 55.9551 35.3542 55.4562 35.528C55.4005 35.5475 55.3117 35.4715 55.3622 35.4077C55.5127 35.2636 55.6793 35.1376 55.8591 35.0324C55.9866 34.9572 55.8773 34.882 55.7422 34.8824C55.3546 34.957 54.9895 35.1203 54.6755 35.3597C52.9912 36.4286 52.8267 37.8485 52.7069 39.1711C52.3745 42.8546 52.6818 50.4548 53.0859 53.6317ZM74.7027 48.1267C74.7329 47.3649 74.6003 46.6054 74.3138 45.8988C74.0274 45.1923 73.5939 44.5548 73.0418 44.0288C71.9071 42.839 70.5301 41.9062 69.0043 41.2935C67.6269 40.6483 66.1687 40.1908 64.6693 39.9335C64.4432 39.8855 64.7607 39.7882 63.6948 42.2753C63.0573 43.7662 61.7661 46.2741 60.4512 47.2134C59.6352 47.796 59.4563 47.6762 59.5612 47.8347C61.4104 50.6257 61.339 50.627 61.3798 50.4748C61.6038 49.6431 64.5877 45.1449 66.1305 43.8559C66.5049 43.5426 67.023 43.3599 66.1844 44.2549C65.6217 44.8563 64.3467 46.3311 61.6616 50.8735C61.4916 51.1586 63.461 53.636 64.4789 55.7805C65.1555 57.206 65.983 58.2583 67.2049 61.1262C68.2121 63.4909 68.1356 63.4522 68.2202 63.326C71.1093 59.0148 74.5531 53.2964 74.7027 48.1267ZM41.9352 44.4662C42.1902 44.6268 42.0704 44.9494 43.6777 42.3412C44.9672 40.3132 46.1495 38.2191 47.2197 36.0673C47.2962 35.9177 47.3153 35.9883 46.0667 35.4753C45.8508 35.3865 45.3055 37.0338 44.6335 37.4792C44.4155 37.6241 44.9948 36.5233 45.0237 36.4702C47.2107 32.4042 46.9541 31.5632 48.6613 25.8949C48.7463 25.614 48.4088 25.5027 48.1411 24.8856C48.0922 24.7729 48.0867 24.6858 48.2163 24.4997C48.6115 23.85 49.0841 23.2505 49.6235 22.7147C49.836 22.5447 49.7935 22.5319 50.0089 22.0903C50.3222 21.4469 50.3889 21.3976 50.2639 21.4137C50.1037 21.4337 49.9057 21.531 49.833 21.3398C49.6528 20.9701 49.6086 20.5488 49.7081 20.1498C49.7293 20.0125 49.8207 19.4655 49.9431 19.4026C50.578 19.096 51.2601 18.8999 51.961 18.8229C52.0294 18.7775 51.9329 18.6835 51.9482 18.6529C51.9635 18.6223 51.972 18.576 51.9945 18.5679C52.2593 18.4562 52.3269 19.2445 52.3583 19.528C52.414 20.0265 52.6597 20.0839 52.7672 19.8744C52.8666 19.5143 52.865 19.1337 52.7621 18.7745C52.7366 18.6189 52.7358 18.531 52.828 18.477C52.8858 18.4443 52.992 18.582 53.2445 19.2917C53.5063 20.0287 53.797 19.6887 53.746 19.2917C53.7005 19.017 53.6376 18.7455 53.5581 18.4787C53.5475 18.4587 53.5454 18.4354 53.5522 18.4138C53.5585 18.3923 53.5738 18.3743 53.5938 18.3637C53.6134 18.3532 53.6367 18.351 53.6584 18.3576C53.6801 18.3643 53.6979 18.3792 53.7086 18.3992C53.9738 18.7151 54.2173 19.0487 54.437 19.3975C54.5785 19.5986 54.8472 19.7116 54.899 19.4719C54.9186 19.3814 54.9326 19.3716 54.6393 18.6844C54.5603 18.4987 54.2925 18.1429 54.6164 18.2857C54.8408 18.3848 54.9202 18.5951 55.1748 18.981C55.3448 19.236 55.4035 19.2305 55.5225 19.151C55.8246 18.9479 55.2607 17.7107 54.8025 17.672C51.4076 17.3839 52.5411 16.2989 43.2277 25.5112C41.0045 27.7101 36.774 32.8212 36.3087 35.225C36.1015 36.1992 36.1237 37.2082 36.3733 38.1724C36.6227 39.1366 37.0932 40.0296 37.7468 40.781C38.9424 42.2204 40.3555 43.4638 41.9356 44.4662H41.9352ZM57.3066 43.0356C57.2318 43.8325 58.9182 46.7331 59.2693 47.3502C59.2735 47.364 59.2812 47.3764 59.2918 47.3863C59.302 47.3963 59.3147 47.4034 59.3288 47.4071C59.3428 47.4107 59.3572 47.4108 59.3713 47.4072C59.3853 47.4037 59.398 47.3966 59.4087 47.3868C59.5502 47.3103 59.6989 47.2469 59.8392 47.1675C61.7092 46.105 63.8036 41.1886 64.1317 40.1919C64.2316 39.8885 63.8805 38.9229 63.3153 34.0222C63.1644 32.7149 63.0853 32.2138 63.4487 32.2827C63.6268 32.3163 63.824 32.5853 64.1547 32.3677C65.2172 31.6673 64.6374 29.6154 63.7611 29.7595C63.2889 29.8372 63.2158 30.2852 63.0037 30.5759C62.6803 31.0196 62.3875 30.0353 62.223 29.5134C62.1737 29.357 61.4019 29.6757 61.4023 29.2469C61.4023 28.575 60.6174 23.2604 60.0326 23.5787C59.9939 23.5995 60.0513 23.7606 60.1086 23.9187C60.4588 24.9774 60.6883 26.0724 60.7925 27.1827C60.8078 27.3127 60.7925 27.3421 60.6713 27.3973C60.2123 27.5572 59.7087 27.5308 59.2688 27.3238C58.9713 27.209 59.0393 27.2477 58.7163 25.8524C58.1154 23.2493 57.851 23.197 57.9462 23.6909C58.4388 26.2349 58.5145 26.2409 58.1791 26.2868C57.7567 26.3437 57.3279 26.3305 56.9101 26.2477C56.5782 26.181 56.4375 26.1691 56.3661 25.8958C56.2862 25.5906 56.1404 24.923 55.7137 23.4227C55.6529 23.2102 55.5437 23.2893 55.5395 23.3377C55.5263 23.4614 55.556 25.3182 55.6245 25.9927C55.678 26.5248 53.4187 26.8304 53.4417 25.6795C53.4566 24.951 53.4876 24.2128 53.5003 24.0317C53.5224 23.7109 53.4812 23.7427 53.1552 24.5137C51.9499 27.3612 52.1667 26.3191 52.3303 29.0956C52.3439 29.326 52.539 31.2784 52.7128 32.2648C52.8598 33.4081 53.2279 34.5118 53.7965 35.5144C53.8458 35.5939 53.8475 35.5922 53.9194 35.5356C55.1863 34.5416 55.7018 34.8272 55.8008 34.5981C56.0312 34.0673 57.7737 34.0286 58.4235 34.3826C58.5778 34.4666 58.6938 34.6067 58.7478 34.7739C58.8022 34.9411 58.7899 35.1226 58.7138 35.2811C58.557 35.616 58.1337 35.9849 57.038 35.967C56.8833 36.0337 56.7443 36.1323 56.63 36.2564C56.6151 36.3176 57.1192 36.0864 57.3568 36.3801C57.3971 36.44 57.4154 36.5119 57.4095 36.5838C57.4035 36.6557 57.3733 36.7234 57.3236 36.7758C56.9054 37.3211 55.8739 37.4558 56.12 37.5442C56.8361 37.8039 56.7524 37.766 56.9313 37.8226C57.262 37.9237 57.3002 42.6948 57.307 43.0356H57.3066ZM51.9329 27.6557C51.5288 28.4632 51.7162 28.9766 51.0829 28.5771C50.74 28.3676 50.4458 28.0876 50.2197 27.7556C49.4998 26.6659 52.2113 23.0415 51.5279 23.8031C49.3498 26.2349 49.8577 26.6888 48.9533 26.0484C48.1436 28.7361 47.7632 31.7259 46.2332 34.9874C46.1542 35.1574 46.2243 35.0809 46.6021 35.2581C47.5044 35.6806 47.4067 35.7226 47.5074 35.5297C47.6714 35.2156 47.694 34.9347 47.9983 35.0061C48.898 35.2139 52.2019 36.5786 52.7944 36.8268C52.9984 36.9118 52.9291 36.5718 53.4897 36.0002C53.6941 35.7911 52.6431 35.1102 52.2712 32.0553C52.0502 30.5991 51.9372 29.1286 51.9329 27.6557ZM62.4304 24.5638C63.2902 26.96 63.5656 28.5792 63.1916 29.0425C62.7241 29.6222 62.4691 28.9426 62.8167 30.0697C62.9209 30.4097 63.0964 29.0255 64.3331 29.4671C64.4819 29.5202 64.4181 29.5946 64.6493 28.3952C64.702 28.1228 64.7696 27.9944 64.6442 28.0212C64.4088 28.0917 64.1602 28.1062 63.9184 28.0637C63.7569 28.0284 63.6668 27.5635 63.4934 26.9562C63.2647 25.9723 62.9009 25.0248 62.413 24.1405C62.4568 24.1405 62.2736 24.1299 62.4296 24.5638H62.4304ZM56.8574 39.7954C56.8289 39.3147 56.8863 38.928 56.7329 38.8655C56.3584 38.7134 55.3844 38.2875 55.259 38.2705C55.2734 38.4023 56.4434 41.4304 57.0015 42.6578C57.0427 42.4223 57.0355 42.8741 56.8574 39.7954ZM57.1642 34.3682C56.5799 34.3605 56.0975 34.5169 55.99 34.7082C56.1272 34.7634 56.1068 34.8782 56.16 34.8697C56.324 34.8442 56.8047 34.5722 56.9713 34.9122C57.0372 35.0469 57.0367 35.0439 57.1812 35.0324C57.5008 34.9687 57.6407 35.0686 57.7108 35.2309C57.8047 35.4485 57.6836 35.5603 57.5408 35.65C58.1077 35.6644 58.6335 35.2441 58.5 34.8425C58.4133 34.5849 58.1468 34.3809 57.1621 34.3682H57.1642ZM56.7715 38.3266C56.7737 38.238 56.7643 38.1496 56.7431 38.0635C56.7159 38.0062 56.5306 38.0385 55.7541 37.7988C55.661 37.7699 55.6381 37.7877 55.5977 37.8294C55.4919 37.936 55.3988 37.9373 55.5339 37.9994C56.9488 38.636 56.7647 38.622 56.7694 38.3266H56.7715ZM51.363 21.1141C50.7846 21.2739 50.7586 21.265 50.7144 21.3534C50.3783 22.0257 50.4344 21.9365 50.4395 21.9947C50.7888 21.7318 51.1173 21.4425 51.4225 21.1294L51.363 21.1141Z" fill="#20262C"/>
<path d="M55.3212 32.0143C54.9884 31.0024 55.6939 29.4218 55.8737 29.5608C55.9889 29.6504 55.3616 30.8111 55.6187 31.7674C55.8474 32.6131 56.6783 32.2055 56.9107 32.0525C57.5482 31.6318 57.1844 32.5834 56.2838 32.6548C56.0747 32.6722 55.8657 32.6184 55.691 32.5021C55.5163 32.3859 55.3858 32.214 55.3212 32.0143Z" fill="#20262C"/>
<path d="M56.7993 27.6324C57.1325 26.5401 58.4105 27.3888 58.6693 28.2082C58.6803 28.2431 58.725 28.2801 58.6761 28.3209C58.4857 28.4811 57.8622 27.711 57.5384 27.5695C57.1601 27.4046 57.1644 27.952 56.9089 27.8245C56.8737 27.8072 56.8439 27.7796 56.8244 27.7453C56.8048 27.711 56.7963 27.6717 56.7993 27.6324Z" fill="#20262C"/>
<path d="M54.8175 27.3149C54.8252 27.5699 54.7542 27.4046 54.3598 27.3701C54.0704 27.3446 54.0087 27.5699 53.8107 27.8776C53.2858 28.6932 52.7312 27.9469 53.1732 27.8903C53.3249 27.8708 53.3585 27.799 53.5871 27.3935C53.8906 26.8546 54.5625 26.6974 54.8175 27.3149Z" fill="#20262C"/>
<path d="M57.5657 29.9153C57.5584 29.9421 57.5449 29.9668 57.5257 29.9871C57.5066 30.0074 57.4828 30.0227 57.4569 30.0317C57.4306 30.0407 57.4025 30.0431 57.3749 30.0388C57.3473 30.0344 57.3214 30.0234 57.2993 30.0067C57.2415 29.9516 57.202 29.8802 57.1863 29.8021C57.1702 29.724 57.1782 29.6428 57.2097 29.5695C57.3414 29.3554 57.6511 29.5874 57.5657 29.9153Z" fill="#20262C"/>
<path d="M54.513 29.6171C54.5355 29.6346 54.6039 29.6596 54.6243 29.7085C54.8133 30.146 54.3966 30.2301 54.3503 30.0254C54.2806 29.7149 54.2946 29.6095 54.513 29.6171Z" fill="#20262C"/>
<path d="M53.9859 75.7261C52.693 76.4125 47.1757 79.0722 44.179 81.0484C39.433 84.179 38.6472 85.9644 38.3654 85.8454C38.1827 85.7685 38.4407 85.2988 38.5133 85.1824C40.7233 81.6362 51.4988 76.084 53.8473 75.5774C54.0556 75.5323 54.1491 75.6399 53.9859 75.7261Z" fill="#20262C"/>
<path d="M49.8653 15.8742C49.802 16.666 47.8861 14.3416 46.3803 10.7347C46.3701 10.71 46.3897 10.6722 46.3956 10.6407C46.5155 10.6722 46.334 10.376 47.8831 12.9952C49.3936 15.5516 49.6715 15.4369 49.8653 15.8742Z" fill="#20262C"/>
<path d="M54.3806 8.18037C54.5561 7.85397 54.5217 9.04864 54.5327 9.49532C54.6305 13.4079 55.0211 13.5226 54.7546 13.5562C53.99 13.6522 54.2531 8.41752 54.3806 8.18037Z" fill="#20262C"/>
<path d="M44.6116 19.9241C41.7407 19.1141 40.7951 17.4476 41.2311 17.6771C42.2826 18.535 43.5032 19.1613 44.813 19.5148C45.0051 19.5692 45.5729 19.7112 45.5134 19.8867C45.4675 20.0219 45.1964 20.089 44.6116 19.9241Z" fill="#20262C"/>
<path d="M73.2057 14.3524C73.2172 14.3495 73.2295 14.3509 73.2401 14.3563C73.2508 14.3617 73.2588 14.3708 73.2631 14.3818C73.2678 14.3928 73.2682 14.4051 73.2644 14.4163C73.2605 14.4275 73.2525 14.437 73.2423 14.4429C72.2057 14.9954 67.9378 16.8352 67.9298 16.8386C67.9 16.8612 67.8626 16.871 67.8256 16.8659C67.7887 16.8609 67.7555 16.8414 67.7326 16.8117C67.71 16.7819 67.7003 16.7445 67.7054 16.7076C67.7105 16.6706 67.73 16.6372 67.7598 16.6147C68.3531 16.052 72.1632 14.6469 73.2057 14.3524Z" fill="#20262C"/>
<path d="M65.8305 8.5849C66.0179 8.64312 63.9699 11.1289 62.8763 12.9569C62.7246 13.2119 62.6383 13.3394 62.5176 13.2888C61.8546 13.004 65.1743 9.22665 65.7085 8.64652C65.751 8.60062 65.7995 8.57512 65.8305 8.5849Z" fill="#20262C"/>
<path d="M75.2356 24.8432C75.678 24.9324 75.6959 24.9282 75.6976 24.9766C75.7044 25.1942 73.8361 24.9086 72.519 24.7565C70.564 24.5312 70.431 24.6443 70.4199 24.4692C70.38 23.8236 74.6419 24.7233 75.2356 24.8432Z" fill="#20262C"/>
<path d="M67.8931 32.7003C67.5577 32.6592 67.2352 32.546 66.9479 32.3685C66.6601 32.1909 66.4145 31.9533 66.2275 31.6718C65.9886 31.3131 66.9572 31.5669 67.3712 31.6786C67.7447 31.7439 68.0805 31.9458 68.313 32.2452C68.4443 32.4832 68.1884 32.7322 67.8931 32.7003ZM66.5692 31.7454C67.0622 32.3476 67.9517 32.5291 67.9963 32.3829C68.0303 32.2719 67.879 32.1704 67.7898 32.1198C67.44 31.9132 66.4651 31.5983 66.5692 31.7454Z" fill="#20262C"/>
<path d="M61.9625 35.5696C61.2863 35.2079 60.6556 33.9214 60.8813 33.7591C61.0266 33.6541 61.0806 33.737 61.7661 34.2665C62.3309 34.7026 62.7143 34.9941 62.6926 35.3741C62.6799 35.627 62.3399 35.771 61.9625 35.5696ZM62.4151 35.3426C62.4576 35.091 61.9824 34.7744 61.8286 34.6371C61.6089 34.4215 61.3721 34.2234 61.1214 34.0447C61.044 34.0115 61.2914 34.7183 61.9289 35.2241C62.2804 35.5054 62.4083 35.383 62.4151 35.3426Z" fill="#20262C"/>
<path d="M51.2137 31.7737C51.507 31.5944 51.6217 31.8137 51.5537 32.0096C51.4301 32.359 51.1547 33.2379 50.5784 33.4946C50.1313 33.6935 49.8333 33.1903 50.3459 32.5375C50.5873 32.2333 50.8814 31.9746 51.2137 31.7737ZM50.4598 33.2111C50.8457 32.9528 51.1279 32.5662 51.2562 32.1197C51.2855 32.0215 51.2239 32.0224 51.1712 32.0772C50.8576 32.3252 50.5936 32.63 50.3926 32.9756C50.3093 33.1932 50.3879 33.2425 50.4598 33.2111Z" fill="#20262C"/>
<path d="M55.5391 73.2885C55.5425 73.2188 55.5208 73.1504 55.4775 73.0956C55.4341 73.0408 55.3725 73.0038 55.3036 72.991C52.5513 72.1155 49.7327 71.4627 46.8759 71.039C44.9672 70.7307 44.0354 70.6831 43.587 70.6602C43.2187 70.6413 43.1766 70.6392 43.1873 70.5231C43.2098 70.2817 42.6348 59.2249 40.577 51.9013C40.3164 50.9734 40.2581 50.9754 39.8663 50.9887C39.7929 50.9912 39.7078 50.9941 39.6075 50.9913C34.2377 50.8413 20.2156 51.8762 12.354 53.7054C12.2611 53.7347 12.1809 53.7946 12.1263 53.8754C12.0718 53.9561 12.0461 54.053 12.0535 54.1499C12.0813 54.3241 12.1249 54.675 12.187 55.175C12.5555 58.1405 13.5759 66.3533 15.8169 74.0824C16.3612 75.9599 16.5448 76.0713 16.8929 76.2824C16.9378 76.3097 16.9855 76.3386 17.0371 76.3732C21.8736 79.6159 30.4713 83.2212 30.3902 82.7172C30.3117 82.1774 30.282 81.6317 30.3013 81.0864C30.3013 81.0223 30.3217 80.9521 30.3902 80.9589C30.4254 80.9589 30.4587 80.9976 30.4894 81.0333C30.4991 81.0445 30.5085 81.0554 30.5177 81.0648C30.5461 81.2084 30.5624 81.3542 30.5665 81.5008C30.5781 81.608 30.5885 81.7067 30.5982 81.7977C30.7065 82.8188 30.7105 82.8557 30.938 82.7983C37.146 81.2424 43.271 79.3724 49.2895 77.1956C53.5204 75.6014 54.6759 74.9987 55.1052 74.6694C55.4027 74.4407 55.4584 74.3391 55.5055 74.15C55.5527 73.8653 55.5638 73.5758 55.5391 73.2885ZM26.8295 52.0164C27.1925 52.0164 27.181 52.5201 26.7844 52.5264C26.5371 52.5337 26.4436 52.0169 26.8295 52.0164ZM13.9023 54.6914C13.8772 54.461 22.3415 53.2515 24.8039 53.0432C31.2759 52.4963 32.363 52.4223 38.8243 52.1452C38.9771 52.1386 39.0631 52.0935 39.1277 52.1143C39.2549 52.1554 39.2996 52.452 39.6084 53.8002C40.6985 58.5551 41.696 66.7078 41.9323 69.3552C41.9425 69.4691 41.9387 69.4759 41.8175 69.4805C34.6724 69.7406 23.8018 71.107 17.516 72.8482C17.227 72.9298 14.2576 57.9698 13.9023 54.6914Z" fill="#20262C"/>
<path d="M55.5391 73.2885C55.5425 73.2188 55.5208 73.1504 55.4775 73.0956C55.4341 73.0408 55.3725 73.0038 55.3036 72.991C52.5513 72.1155 49.7327 71.4627 46.8759 71.039C44.9672 70.7307 44.0354 70.6831 43.587 70.6602C43.2187 70.6413 43.1766 70.6392 43.1873 70.5231C43.2098 70.2817 42.6348 59.2249 40.577 51.9013C40.3164 50.9734 40.2581 50.9754 39.8663 50.9887C39.7929 50.9912 39.7078 50.9941 39.6075 50.9913C34.2377 50.8413 20.2156 51.8762 12.354 53.7054C12.2611 53.7347 12.1809 53.7946 12.1263 53.8754C12.0718 53.9561 12.0461 54.053 12.0535 54.1499C12.0813 54.3241 12.1249 54.675 12.187 55.175C12.5555 58.1405 13.5759 66.3533 15.8169 74.0824C16.3612 75.9599 16.5448 76.0713 16.8929 76.2824C16.9378 76.3097 16.9855 76.3386 17.0371 76.3732C21.8736 79.6159 30.4713 83.2212 30.3902 82.7172C30.3117 82.1774 30.282 81.6317 30.3013 81.0864C30.3013 81.0223 30.3217 80.9521 30.3902 80.9589C30.4254 80.9589 30.4587 80.9976 30.4894 81.0333C30.4991 81.0445 30.5085 81.0554 30.5177 81.0648C30.5461 81.2084 30.5624 81.3542 30.5665 81.5008C30.5781 81.608 30.5885 81.7067 30.5982 81.7977C30.7065 82.8188 30.7105 82.8557 30.938 82.7983C37.146 81.2424 43.271 79.3724 49.2895 77.1956C53.5204 75.6014 54.6759 74.9987 55.1052 74.6694C55.4027 74.4407 55.4584 74.3391 55.5055 74.15C55.5527 73.8653 55.5638 73.5758 55.5391 73.2885ZM26.8295 52.0164C27.1925 52.0164 27.181 52.5201 26.7844 52.5264C26.5371 52.5337 26.4436 52.0169 26.8295 52.0164ZM13.9023 54.6914C13.8772 54.461 22.3415 53.2515 24.8039 53.0432C31.2759 52.4963 32.363 52.4223 38.8243 52.1452C38.9771 52.1386 39.0631 52.0935 39.1277 52.1143C39.2549 52.1554 39.2996 52.452 39.6084 53.8002C40.6985 58.5551 41.696 66.7078 41.9323 69.3552C41.9425 69.4691 41.9387 69.4759 41.8175 69.4805C34.6724 69.7406 23.8018 71.107 17.516 72.8482C17.227 72.9298 14.2576 57.9698 13.9023 54.6914Z" stroke="white"/>
<path d="M28.6892 54.4145C30.1383 54.4761 31.5373 54.9623 32.7123 55.8127C33.8872 56.6632 34.7863 57.84 35.2978 59.197C35.8093 60.5545 35.9106 62.0318 35.5891 63.4462C35.2676 64.8606 34.5375 66.1492 33.4896 67.1517C32.4417 68.1543 31.1222 68.8271 29.6951 69.0859C28.268 69.3447 26.7963 69.1786 25.463 68.6074C24.1297 68.0366 22.9936 67.0867 22.1958 65.8755C21.3982 64.6642 20.9741 63.2451 20.9763 61.7946C21.0057 57.7635 23.9824 54.3541 28.6892 54.4145ZM28.328 68.9525C33.363 68.995 36.9797 63.7721 34.9542 59.0466C32.4943 53.3091 24.6692 53.3231 22.0291 58.4295C21.4512 59.5192 21.1643 60.7393 21.1962 61.9723C21.228 63.2052 21.5776 64.4092 22.2111 65.4675C22.8445 66.5257 23.7404 67.4025 24.812 68.0128C25.8836 68.6235 27.0947 68.9469 28.328 68.9525Z" fill="#20262C"/>
<path d="M37.4103 53.6293C36.7761 54.0951 36.1855 54.6178 35.6461 55.1907C35.3652 55.4666 35.1926 55.7063 34.8259 56.0918C34.7409 56.1802 34.4434 56.1228 34.9534 55.5707C35.6156 54.7581 36.4292 54.0819 37.3491 53.5796C37.3916 53.5566 37.4056 53.6187 37.4103 53.6293Z" fill="#20262C"/>
<path d="M19.1791 54.9857C19.7155 55.1319 20.2009 55.4238 20.5816 55.8289C21.4388 56.6763 21.6866 56.8765 21.5591 56.9785C21.3168 57.1753 20.0915 55.4145 19.1667 55.0826C19.144 55.0711 19.1228 55.0571 19.1038 55.0401L19.1791 54.9857Z" fill="#20262C"/>
<path d="M20.6091 65.3173C20.431 65.5128 18.7501 66.4099 17.9154 67.0066C17.8929 67.0228 17.8351 67.0066 17.8593 66.9641C18.1504 66.4707 20.1246 65.3037 20.4658 65.1991C20.4834 65.194 20.502 65.1932 20.52 65.1966C20.538 65.2004 20.5548 65.2085 20.569 65.2199C20.5831 65.2318 20.5942 65.2467 20.6012 65.2637C20.6082 65.2807 20.6109 65.299 20.6091 65.3173Z" fill="#20262C"/>
<path d="M18.4597 59.5398C17.6399 59.2376 17.4274 59.2474 17.3394 59.1449C17.3615 59.1262 17.3857 59.0918 17.4061 59.0935C18.3339 59.2295 19.2364 59.5028 20.0836 59.9044C20.2039 59.9512 20.2137 60.1025 20.05 60.111C19.504 59.9682 18.9718 59.7769 18.4597 59.5398Z" fill="#20262C"/>
<path d="M39.0499 58.4503C38.961 58.5392 39.1221 58.4682 38.4549 58.591C36.6031 58.931 36.3864 59.1465 36.3158 58.9735C36.1854 58.6539 38.7851 58.271 39.0499 58.4503Z" fill="#20262C"/>
<path d="M37.0471 63.3075C39.5427 63.9408 39.6022 64.356 39.0927 64.1388C38.2567 63.7831 36.7445 63.5774 36.7947 63.4044C36.8334 63.2714 36.9341 63.3075 37.0471 63.3075Z" fill="#20262C"/>
<path d="M23.0463 68.1523C22.952 68.4116 22.7624 68.5599 21.6468 69.7626C21.3332 70.1026 21.4411 70.0461 21.3425 70.0461C21.3506 69.7384 22.7654 68.1408 22.921 68.1077C22.9584 68.0996 23.0047 68.1353 23.0463 68.1523Z" fill="#20262C"/>
<path d="M35.7145 66.6902C36.7745 67.1122 37.8166 68.0999 36.8374 67.5427C35.5675 66.8202 35.5126 66.8351 35.7145 66.6902Z" fill="#20262C"/>
<path d="M31.7474 79.0223C31.6339 78.9768 28.8913 77.6156 28.5177 77.418C28.9011 77.2446 31.4254 76.6905 31.8283 76.5911C31.9846 76.5527 31.8624 76.524 34.0411 77.7199C34.9296 78.2076 34.8009 78.1332 34.8688 78.2056C34.7719 78.2698 31.855 79.0047 31.7474 79.0223Z" fill="white"/>
<path d="M35.8759 75.784C36.8049 76.1394 37.7051 76.5659 38.5683 77.0601C38.6314 77.0968 38.6898 77.1378 38.6831 77.2204C38.6764 77.303 38.5901 77.3156 38.527 77.3356C37.1592 77.7166 36.6835 77.8399 35.5367 78.0726C35.3346 78.1137 35.4885 78.1407 32.7506 76.6485C32.6914 76.6164 32.5942 76.6004 32.6007 76.5203C32.6088 76.4216 32.7148 76.4341 32.7855 76.4198C33.8658 76.1966 34.7564 75.9533 35.8759 75.784Z" fill="white"/>
<path d="M29.0953 75.091C29.2775 75.1685 31.4222 76.2524 31.5375 76.3706C31.4382 76.4328 31.634 76.3695 30.7151 76.5888C27.9981 77.2368 28.2691 77.3011 28.055 77.1919C26.0411 76.1711 25.4732 75.956 25.3655 75.8235C25.4713 75.7388 28.8344 75.1268 29.0953 75.091Z" fill="white"/>
<path d="M36.0951 75.5243C35.7377 75.4099 33.5654 74.4436 33.5108 74.3969C33.5847 74.3637 33.2848 74.4075 35.7966 74.0434C37.8273 73.7488 37.7314 73.7385 37.9524 73.8354C38.6117 74.1249 39.2333 74.4941 39.8035 74.9337C39.5793 75.0579 37.8295 75.2598 36.0951 75.5243Z" fill="white"/>
<path d="M42.1848 76.4055C41.2331 76.6801 40.2672 76.9029 39.2914 77.0728C39.1821 77.0895 39.2372 77.0364 37.2442 76.0684C36.3393 75.6288 36.1115 75.7927 39.2125 75.33C39.9705 75.217 40.1501 75.1165 40.4891 75.2895C40.7134 75.4042 42.4157 76.3083 42.1848 76.4055Z" fill="white"/>
<path d="M42.8333 76.1971C42.4107 76.0509 42.8136 76.2808 40.9503 75.2335C40.5446 75.0059 41.1139 75.0059 42.0484 74.7985C44.6827 74.2137 43.8689 74.21 45.2724 74.8152C45.3766 74.86 46.2806 75.3106 46.2482 75.3988C46.2322 75.4367 46.2053 75.4691 46.1707 75.4918C46.1362 75.5146 46.0958 75.5262 46.0545 75.5259C42.6122 76.2776 43.2576 76.1494 42.8333 76.1971Z" fill="white"/>
<path d="M25.0338 75.6801C24.8068 75.5929 23.4794 74.9603 23.1399 74.7667C22.3844 74.3367 24.8858 74.179 25.9167 74.0247C26.8046 73.892 26.3564 73.7258 28.6248 74.8505C28.804 74.9385 28.8001 74.8972 25.0338 75.6801Z" fill="white"/>
<path d="M32.9431 74.4775C33.0319 74.5129 35.3721 75.4913 35.465 75.5914C35.3403 75.6605 33.4063 75.9932 32.1467 76.2709C32.0264 76.2973 32.2283 76.3164 29.7596 75.0576C29.7432 75.0495 29.734 75.0266 29.7207 75.0118C29.8315 74.9556 32.652 74.4871 32.9431 74.4775Z" fill="white"/>
<path d="M33.0424 74.2074C32.4307 74.0058 32.0428 73.7695 31.0379 73.433C30.6485 73.3028 31.0578 73.2935 34.437 72.8756C35.1977 72.782 35.2554 72.7483 35.4308 72.815C37.5713 73.6321 37.4655 73.5855 36.9349 73.66C32.5524 74.2762 33.0956 74.2028 33.0424 74.2074Z" fill="white"/>
<path d="M41.6007 73.2321C41.7087 73.2725 43.8294 74.0926 43.8838 74.1627C43.715 74.2658 43.0555 74.3016 40.497 74.8712C40.3181 74.9108 40.3357 74.8581 39.0833 74.1364C38.0509 73.5406 37.7995 73.7631 41.0772 73.2939C41.2429 73.2699 41.4108 73.255 41.6007 73.2321Z" fill="white"/>
<path d="M31.9325 74.3886C29.0056 74.8434 29.3728 74.8532 28.9363 74.6471C27.0743 73.767 27.3585 73.9479 27.265 73.8444C27.3391 73.8039 27.0272 73.8587 29.5848 73.503C30.4042 73.3895 29.9427 73.2294 32.3914 74.2354C32.5775 74.3115 32.1488 74.3551 31.9325 74.3886Z" fill="white"/>
<path d="M49.0349 74.7719C48.8168 74.9468 46.9713 75.3021 46.8997 75.3074C46.828 75.3126 47.0236 75.3558 45.0824 74.4531C44.3873 74.1295 45.0062 74.2004 47.0742 73.8513C47.2943 73.8143 48.7828 74.5739 49.0349 74.7719Z" fill="white"/>
<path d="M39.1155 72.3304C39.4852 72.4514 40.896 72.9348 41.128 73.0488C40.9444 73.1669 39.0788 73.3197 37.9499 73.5104C37.8241 73.5313 37.8956 73.523 36.7671 73.0549C36.4536 72.9245 36.062 72.78 36.0469 72.7668C35.8563 72.5999 38.7687 72.3998 39.1155 72.3304Z" fill="white"/>
<path d="M44.7471 72.8153C45.233 72.9687 46.6983 73.5901 46.7425 73.6175C46.9312 73.7302 46.4867 73.6794 44.5222 74.0514C44.3663 74.0814 44.4834 74.125 42.4003 73.2525C42.3516 73.2323 42.2575 73.2409 42.2636 73.1561C42.2653 73.1191 44.5304 72.8164 44.7471 72.8153Z" fill="white"/>
<path d="M41.7664 73.0005C41.7579 72.9998 39.8461 72.3178 39.873 72.2756C39.8998 72.2335 39.7148 72.2282 42.2722 72C42.9778 72.1424 43.6651 72.3638 44.321 72.6604C44.239 72.7095 41.8427 72.9897 41.7664 73.0005Z" fill="white"/>
<mask id="mask0_578_3980" style="mask-type:alpha" maskUnits="userSpaceOnUse" x="21" y="54" width="15" height="15">
<rect x="21.5" y="57" width="12" height="12" transform="rotate(-10.589 21.5 57)" fill="#D9D9D9"/>
</mask>
<g mask="url(#mask0_578_3980)">
<path d="M29.4215 66.7224C29.2904 66.7469 29.1609 66.7456 29.033 66.7187C28.905 66.6918 28.7834 66.6424 28.6683 66.5707L23.9868 63.3639C23.8783 63.2824 23.7884 63.1869 23.717 63.0773C23.6457 62.9677 23.5978 62.8474 23.5733 62.7163C23.5488 62.5853 23.5496 62.4537 23.5758 62.3216C23.6019 62.1896 23.6517 62.0701 23.7249 61.9631L26.9318 57.2816C27.0117 57.1649 27.1068 57.073 27.2172 57.0057C27.3275 56.9385 27.4482 56.8926 27.5793 56.8681C27.7103 56.8436 27.8415 56.8424 27.9728 56.8644C28.1041 56.8865 28.224 56.9383 28.3325 57.0198L33.014 60.2266C33.1291 60.2983 33.2207 60.3914 33.2887 60.5058C33.3568 60.6203 33.403 60.7431 33.4275 60.8741C33.452 61.0052 33.4529 61.1343 33.43 61.2615C33.4072 61.3887 33.3558 61.5106 33.2759 61.6273L30.069 66.3088C29.9958 66.4158 29.9023 66.5053 29.7886 66.5774C29.6749 66.6495 29.5526 66.6979 29.4215 66.7224ZM28.5923 62.2867C28.7315 62.2607 28.8395 62.1917 28.916 62.0799C28.9926 61.9681 29.0179 61.8426 28.9919 61.7033L28.6244 59.7374C28.5983 59.5981 28.5294 59.4902 28.4176 59.4136C28.3058 59.337 28.1802 59.3118 28.041 59.3378C27.9017 59.3638 27.7938 59.4327 27.7172 59.5446C27.6406 59.6564 27.6154 59.7819 27.6414 59.9212L28.0089 61.8871C28.0349 62.0264 28.1039 62.1343 28.2157 62.2109C28.3275 62.2875 28.453 62.3127 28.5923 62.2867ZM28.8679 63.7612C29.0072 63.7351 29.1151 63.6662 29.1917 63.5544C29.2683 63.4426 29.2936 63.317 29.2675 63.1778C29.2415 63.0385 29.1726 62.9306 29.0608 62.854C28.9489 62.7774 28.8234 62.7522 28.6842 62.7782C28.5449 62.8042 28.437 62.8731 28.3604 62.985C28.2838 63.0968 28.2585 63.2223 28.2846 63.3616C28.3106 63.5008 28.3795 63.6087 28.4913 63.6853C28.6031 63.7619 28.7287 63.7872 28.8679 63.7612Z" fill="#20262C"/>
</g>
</g>
<defs>
<clipPath id="clip0_578_3980">
<rect width="85" height="85" fill="white"/>
</clipPath>
</defs>
</svg>
