<svg width="85" height="85" viewBox="0 0 85 85" fill="none" xmlns="http://www.w3.org/2000/svg">
<path d="M55.9367 17.9484C56.742 16.699 57.643 15.5135 58.6307 14.4026C58.723 14.3448 58.867 14.4523 58.788 14.5603C57.3035 16.6922 55.9426 18.9074 54.7114 21.1949C50.699 28.6571 51.2136 28.9805 50.9191 28.9975C49.9102 29.0566 52.5868 23.0025 55.9367 17.9484Z" fill="#20262C"/>
<path d="M65.7723 31.6833C65.7817 30.8716 71.3964 25.8421 77.1861 22.3295C77.2061 22.312 77.232 22.303 77.2588 22.3046C77.2852 22.3062 77.3098 22.3182 77.3277 22.338C77.4318 22.4557 76.7633 22.5964 69.9327 28.373C66.8047 31.019 65.7626 32.5121 65.7723 31.6833Z" fill="#20262C"/>
<path d="M72.5368 42.8642C72.2185 42.8795 72.1522 42.6551 72.3077 42.4711C73.3485 41.2386 82.5379 39.3287 82.6012 39.5212C82.6267 39.5985 82.5655 39.6206 82.5026 39.6389C76.61 41.3478 72.8075 42.8145 72.5368 42.8642Z" fill="#20262C"/>
<path d="M20.2346 29.8579C20.2346 30.0883 20.1028 30.169 19.9422 30.0853C19.5516 29.8822 20.1101 29.9264 13.7521 22.7753C11.3691 20.0948 10.5059 19.3039 10.2921 19.0502C10.1918 18.9312 10.2216 18.8802 10.4026 18.9954C11.63 19.7655 19.2745 27.2098 20.2346 29.8579Z" fill="#20262C"/>
<path d="M12.144 39.6974C12.1359 40.3298 11.5337 39.7718 9.65856 38.7883C3.18198 35.3883 2.48455 35.4351 2.39105 35.073C2.75358 35.0097 11.5256 38.3106 12.144 39.6974Z" fill="#20262C"/>
<path d="M30.1506 3.00178C40.7118 -0.743316 50.8591 8.03846 49.4949 19.1246C47.868 32.3485 31.2585 36.9512 23.4232 26.1541C17.1498 17.5096 21.4151 6.09961 30.1506 3.00178ZM46.7834 9.20679C40.2898 -1.03657 24.3948 1.35958 21.5379 13.4003C21.2406 14.5787 21.0946 15.7902 21.1035 17.0055C21.1142 17.0905 21.073 17.2312 21.0777 17.2984C21.2757 20.0779 21.6012 22.0724 23.5001 25.1222C25.0562 27.5109 27.309 29.3636 29.9532 30.429C32.5975 31.4945 35.5054 31.7212 38.2829 31.0786C47.0779 29.1703 52.591 18.3681 46.7834 9.20764V9.20679Z" fill="#20262C"/>
<path d="M39.3158 26.294C37.3562 28.249 37.7374 28.4551 36.1504 27.7887C34.0578 26.9602 32.1348 25.7551 30.4767 24.2332C29.2909 23.1176 27.8591 21.7138 27.0342 20.2412C26.0048 18.4001 24.919 16.3397 24.3813 14.3005C23.8055 12.1147 23.8662 12.3612 24.8272 11.5087C29.5374 7.33221 39.4399 6.07463 44.0248 8.56683C44.3555 8.72451 44.1948 9.08448 44.3929 10.1117C44.9794 13.1696 43.3423 22.2748 39.3158 26.294ZM36.3132 7.85751C36.201 7.86218 35.9201 7.90851 35.5907 7.93996C31.4019 8.34328 27.6857 9.58003 24.4017 12.419C24.2249 12.572 24.3592 12.558 25.0596 14.8951C26.0554 17.8451 27.6432 20.5607 29.7257 22.8753C32.2256 25.5265 34.099 26.4508 37.0293 27.6298C37.2554 27.7207 37.2741 27.7428 37.507 27.4942C39.5611 25.3021 43.1277 21.7261 44.0146 13.1407C44.1625 12.0051 44.1511 10.8543 43.9798 9.72198C43.8999 8.86816 43.987 8.81716 43.7958 8.76871C42.7494 8.50393 41.3027 7.64203 36.3132 7.85751Z" fill="#20262C"/>
<path d="M38.4413 9.65569C39.7295 9.63763 41.0172 9.72288 42.2918 9.91069C43.1388 9.94809 42.3904 14.1025 42.2769 14.9355C41.5854 20.0202 39.1238 23.319 37.4952 25.773C37.1127 26.3476 37.0702 26.3501 36.8454 26.2405C33.946 24.8383 31.4243 22.7628 29.4908 20.1872C28.1733 18.3758 26.1333 14.7289 26.1295 13.0842C26.1278 12.5478 32.2019 9.60469 38.4413 9.65569ZM38.4277 10.0131C36.9024 10.0312 35.3816 10.1849 33.8836 10.4725C29.8801 11.2839 26.2123 12.8194 26.3845 13.3035C26.8469 14.6052 27.155 16.5335 30.167 20.3398C32.7063 23.5519 36.9172 26.2222 37.1242 25.8724C38.5365 23.4924 40.449 20.4945 41.1689 17.8195C41.8179 15.4076 41.8256 15.5245 41.9458 14.771C42.1664 13.3838 42.4588 11.4377 42.3283 10.351C42.2875 10.0297 42.6573 10.1147 38.4277 10.0131Z" fill="#20262C"/>
<path d="M38.4816 17.488C38.839 17.7796 39.2806 18.6742 38.5866 19.7082C38.2164 20.2607 37.0141 20.8302 36.9996 20.8706C36.9852 20.911 36.9996 20.8829 37.2232 21.7206C37.2912 21.9756 37.2746 22.0334 37.0107 22.1209C36.3596 22.336 36.2691 21.9798 35.9805 21.4473C35.8934 21.2858 35.9945 21.3117 35.1522 21.6084C35.0132 21.6573 35.0485 21.6432 35.2508 22.364C35.3103 22.5765 35.3188 22.7079 35.0808 22.7946C35.008 22.8339 34.9281 22.8583 34.8458 22.8665C34.7635 22.8748 34.6803 22.8665 34.6012 22.8422C34.5222 22.818 34.4486 22.7782 34.385 22.7253C34.3214 22.6724 34.269 22.6074 34.2308 22.534C33.9099 22.0355 34.0586 21.939 33.7917 22.0104C32.7955 22.2786 32.7917 22.2939 32.7084 22.1282C32.3884 21.4936 32.3982 21.3632 32.6927 21.2675C33.5894 20.9777 33.592 21.0189 33.5635 20.9275C31.7386 15.037 32.2643 14.5474 31.9324 14.6205C31.1563 14.7905 31.0131 14.8959 30.8903 14.6694C30.7581 14.4255 30.7793 14.0281 31.0441 13.9329C32.0097 13.5852 31.9035 13.7977 31.8843 13.5389C31.8325 12.8377 31.7003 12.2809 32.3565 12.0047C32.6115 11.898 32.8159 11.8206 32.8878 12.0812C33.2732 13.476 32.8737 13.391 33.6307 13.2712C33.8725 13.2321 33.9099 13.2325 33.9069 13.1437C33.8814 12.4747 33.4194 11.5805 34.6549 11.218C34.7518 11.1895 34.8326 11.2528 34.8674 11.3791C35.3876 13.2584 34.8674 13.0825 35.8079 13.1343C36.0881 13.1554 36.3646 13.2117 36.6307 13.3018C36.9926 13.4262 37.3151 13.6441 37.5657 13.9333C37.9287 14.3243 38.0273 15.1233 37.3061 15.9584C36.9434 16.2854 36.5451 16.5706 36.1186 16.8084C36.2946 16.8641 37.5696 16.7447 38.4816 17.488ZM34.4076 17.6155C34.4076 17.5972 34.4241 17.6023 34.2915 17.6019C33.9282 17.6019 33.9979 17.332 34.7259 20.3869C34.7918 20.6632 34.7153 20.6079 35.5546 20.2722C40.1 18.4523 37.0566 17.3333 34.4076 17.6159V17.6155ZM35.4815 14.0634C34.7899 14.0727 34.1008 14.1485 33.4237 14.2899C33.2962 14.3065 33.3361 14.3536 33.5036 15.1582C33.5036 15.1671 33.7798 16.4897 33.8249 16.6673C33.8699 16.845 33.7709 16.8331 35.017 16.2653C35.5227 16.0151 35.9941 15.7008 36.4195 15.3303C36.8343 14.9941 36.8301 14.1522 35.4815 14.0638V14.0634Z" fill="#20262C"/>
<path d="M32.7269 36.0584C33.793 36.0551 34.8574 36.1445 35.908 36.3253C37.9977 36.7032 37.4805 37.1269 37.7848 36.9144C38.2894 36.3998 38.9049 36.0074 39.5842 35.7669C45.9295 33.1378 54.6799 35.1961 57.331 35.2624C61.9461 35.3776 63.1301 34.1799 63.4234 34.8077C67.9377 44.4815 73.0105 60.5274 75.7033 71.4733C75.8308 71.9935 74.7624 71.7623 74.8601 71.9833C75.0616 72.4435 74.8363 73.5694 74.6629 74.0658C74.6421 74.1431 74.5958 74.2107 74.532 74.2587C74.4679 74.3067 74.3897 74.3318 74.3098 74.3301C73.7318 74.3688 56.6191 77.3655 48.4566 78.5036C44.7544 79.0196 19.4244 82.0779 15.8879 82.5165C12.6299 82.9211 12.4582 83.0027 12.2181 82.6601C11.3154 81.3719 11.1981 81.6227 11.031 75.8342C10.7446 66.0001 11.286 51.1659 11.456 48.5738C11.7421 44.15 11.5359 43.7518 12.2589 43.6438C12.5181 43.5818 12.7837 43.5512 13.0502 43.552C13.1352 43.5597 13.1467 43.518 13.1552 43.4441C13.3707 41.5605 12.9529 42.5367 15.9602 41.8933C20.194 40.9876 22.3399 39.0632 26.269 37.5672C26.3612 37.5319 26.4428 37.4745 26.5316 37.4308C26.9989 37.2288 27.481 37.0633 27.9737 36.9356C31.0354 35.9709 32.7269 36.0159 32.7269 36.0584ZM53.9472 68.5348C47.8399 68.4651 45.1429 71.0976 43.2525 72.3853C43.1675 72.4435 43.5121 73.6739 43.7718 75.8737C45.3086 74.1129 47.2789 72.784 49.4876 72.019C54.7882 70.1617 66.8846 72.7325 75 71.4609C76.0744 71.2909 63.525 34.8718 63.015 35.1353C62.2925 35.5085 60.9622 35.6551 60.1492 35.7354C54.4665 36.2952 50.1791 33.7583 41.765 35.7308C40.378 35.9613 39.0694 36.5307 37.9552 37.3883C37.8634 37.452 37.8545 37.2799 38.365 40.0284C38.4313 40.3854 42.2711 37.118 53.3437 38.1809C53.8868 38.2332 54.8511 38.4282 56.7649 38.5804C58.0935 38.7364 59.4365 38.7248 60.7625 38.5455C61.4493 38.4975 61.6265 38.5001 61.7217 38.4771C62.0069 38.4087 62.0978 38.5621 62.3787 39.1954C65.4812 46.1994 69.7737 60.5397 71.9191 67.885C71.9761 68.0792 71.7415 68.2033 71.5439 68.253C66.9373 69.4112 56.4398 68.5633 53.9472 68.5348ZM15.7247 47.369C15.7562 45.5678 15.7026 45.564 16.1123 45.4794C22.5804 44.1411 26.844 40.8894 31.771 39.9684C34.1238 39.5277 34.9292 39.7449 36.5646 39.8635C36.9979 39.9176 37.4265 40.0041 37.8468 40.1223C37.7348 39.6342 37.675 39.1355 37.6683 38.6348C37.6414 38.3256 37.5968 38.0183 37.5349 37.7142C37.4499 37.254 37.3152 37.2391 36.9293 37.0517C36.1247 36.6615 33.7872 36.6237 33.3695 36.605C26.7055 36.3113 20.9595 41.8831 14.4714 42.6285C13.59 42.7301 13.6108 42.6829 13.6099 42.7985C13.5929 45.1917 13.0528 57.9132 13.3337 69.2284C13.6167 80.6129 13.5432 79.6099 14.3354 79.4352C16.1663 79.0319 15.7842 79.1432 16.4523 79.0166C20.3198 78.2835 28.8096 74.2141 33.9173 73.5906C37.4958 73.1533 38.883 73.8664 40.8206 74.6344C41.7254 74.9995 42.5793 75.4793 43.3613 76.0628C43.346 75.5554 43.3013 75.0492 43.2278 74.5469C42.8394 72.1992 43.1904 72.455 41.5644 71.7117C39.5843 70.8069 36.9692 70.6258 34.8633 70.8689C32.5845 71.1311 32.4566 71.0687 28.6464 72.2357C26.2703 72.9633 17.9241 76.0216 16.3835 76.0216C15.8412 76.0216 15.7804 68.2628 15.7392 67.5216C15.4085 61.5967 15.7247 47.3792 15.7247 47.369ZM12.7387 82.6061C14.8875 82.2933 42.3999 78.7612 42.3986 78.7114C42.3943 78.5393 41.8095 78.1785 41.4572 77.4432C41.4185 77.3629 41.3816 77.2771 41.2728 77.2885C36.9246 77.7399 16.5909 80.9053 16.0524 81.0043C11.8071 81.7842 12.0723 81.5696 12.2499 81.9019C12.5857 82.5296 12.6095 82.6248 12.7383 82.6061H12.7387ZM74.3782 73.1609C74.3782 73.0194 75.5125 72.6879 45.924 76.6268C45.7965 76.6438 45.839 76.7118 45.7272 77.076C45.6295 77.5155 45.4289 77.9252 45.1424 78.2724C44.989 78.6073 71.719 74.3029 72.8524 74.1406C74.6795 73.8792 74.3722 74.2472 74.3778 73.1609H74.3782ZM29.6222 62.635C29.6333 62.7663 29.5725 62.7421 31.0179 62.3834C33.987 61.6464 34.2832 61.5215 36.7686 61.3553C36.8821 61.3476 36.863 61.4611 36.5672 59.1151C36.3368 57.2876 36.3462 56.6701 36.2378 56.6765C33.879 56.9098 31.5581 57.4334 29.3277 58.2358C29.0697 58.3259 29.2397 58.0722 29.6222 62.635ZM64.7175 68.3933C64.9644 68.3848 65.0575 68.4188 65.0388 68.3011C65.0108 68.1311 65.2573 69.1825 64.1119 64.6839C63.9563 64.0715 63.9032 63.8985 63.8284 63.893C62.5785 63.8007 57.6659 63.9104 56.8754 63.8717C56.7054 63.8636 56.6629 63.4697 57.4849 67.8629C57.5503 68.2144 57.2775 68.1438 59.7765 68.2632C60.6796 68.3066 60.8173 68.5225 64.7184 68.3933H64.7175ZM48.7273 64.3894C48.6079 64.4195 48.613 64.3783 48.8076 65.5288C49.3746 68.8829 49.2445 68.1795 49.3304 68.511C53.3058 67.386 57.1772 68.3151 57.1147 67.9908C56.6357 65.5058 57.2473 68.7426 56.345 63.9886C56.3025 63.7578 56.2668 63.8662 55.7339 63.8772C53.5387 63.9227 50.6815 63.8938 48.7282 64.3894H48.7273ZM52.5621 54.8128C46.2224 54.9263 47.0549 55.3007 47.1021 55.6293C47.2181 56.4448 47.3082 56.9077 47.562 58.3493C47.76 59.4704 47.7252 59.4929 47.8382 59.4759C48.2454 59.416 50.4328 58.9689 51.7962 58.8316C54.8205 58.5278 55.3399 58.8554 55.2838 58.5554C55.1002 57.5745 54.9621 56.9714 54.7389 55.8779C54.5239 54.8239 54.5689 54.7776 54.4287 54.7844C53.7228 54.8154 54.3798 54.7822 52.5629 54.8128H52.5621ZM56.0598 63.2848C56.2502 63.2848 56.2035 63.2716 56.1657 63.0723C55.3611 58.838 55.4857 59.2222 55.2362 59.2324C53.5052 59.2269 51.7767 59.362 50.0678 59.6366C47.7987 60.0051 47.8769 60.0191 47.8854 60.1075C47.8973 60.2375 48.3142 62.6065 48.3954 63.0935C48.5811 64.1985 48.2394 63.6588 50.0236 63.5538C50.3143 63.5368 51.0223 63.4484 51.4528 63.4263C52.0053 63.3974 52.9357 63.3723 52.9884 63.3685C54.0092 63.2699 55.036 63.2419 56.0607 63.2848H56.0598ZM37.6726 70.327C38.1936 70.327 38.0878 70.6033 37.8069 68.5522C37.5162 66.4272 37.5311 66.2513 37.4184 66.2262C36.7136 66.1931 36.0072 66.2241 35.3079 66.3184C33.7043 66.4748 32.1175 66.7719 30.5657 67.2058C30.1186 67.3138 30.1169 67.3372 30.1352 67.4698C30.6248 71.0198 30.4442 71.1452 30.658 71.0967C32.9398 70.5782 35.2582 70.0988 37.6734 70.327H37.6726ZM22.2659 60.9422C22.6616 64.9525 22.3785 64.8182 22.7096 64.717C24.2638 64.241 25.0696 63.9652 29.153 62.8445C29.323 62.7977 29.2448 62.7782 29.1033 61.3094C29.1033 61.3 28.7986 58.5278 28.7965 58.5184C28.7744 58.3344 28.9992 58.4279 23.2094 60.2766C22.971 60.3527 22.7372 60.4466 22.5005 60.5253C22.2638 60.6039 22.2595 60.6047 22.2659 60.9422ZM63.406 63.326C63.7094 63.326 63.7647 63.3545 63.7315 63.2304C63.539 62.5049 63.7863 63.414 62.7 59.3629C62.615 59.0403 62.7 59.2843 61.1441 59.2061C58.4177 59.0696 56.3671 59.1916 55.9612 59.1869C55.8176 59.1869 55.8682 59.0951 56.4712 62.2933C56.7594 63.8233 56.2876 63.1135 58.7297 63.34C59.5045 63.4136 58.1721 63.3222 63.4051 63.3247L63.406 63.326ZM42.7875 69.6037C43.1233 71.7963 43.0757 72.0126 43.2036 71.8919C44.8751 70.5017 46.7744 69.4116 48.8183 68.6704C49.0172 68.5964 48.9883 68.9658 48.3406 65.4485C48.1676 64.5096 48.1956 64.4901 48.0324 64.5283C45.0234 65.2317 44.2321 65.8191 42.5665 66.6334C42.3399 66.7439 42.3255 66.5909 42.7867 69.6037H42.7875ZM22.94 69.7312C23.0577 70.6573 23.1656 72.3726 23.3152 73.4508C23.3522 73.7156 26.3021 72.3509 30.2113 71.2221C30.3549 71.1796 30.315 71.1044 30.2508 70.6636C30.0285 69.1273 30.0404 69.0414 29.8101 67.5072C29.7752 67.2751 27.6298 68.1251 24.8737 68.8927C22.6548 69.511 22.9417 69.3457 22.9408 69.7316L22.94 69.7312ZM29.8628 63.1012C29.6048 63.1637 29.6813 62.9019 30.0413 66.5934C30.0948 67.1459 30.0124 66.5475 34.2577 65.9491C35.2798 65.805 36.3103 65.7294 37.3424 65.7234C37.4342 65.7234 37.4784 65.9993 37.0219 62.6354C36.9441 62.0608 36.9399 62.0914 36.8944 61.8555C35.0571 61.8746 32.3142 62.5079 29.8636 63.1016L29.8628 63.1012ZM22.2107 59.9825C22.217 60.1066 22.3173 60.0739 22.4427 60.0195C23.2226 59.6795 22.5821 60.0501 28.598 57.9621C28.8262 57.883 28.7633 58.0896 28.513 55.4121C28.3502 53.6632 28.4025 53.7304 28.2669 53.7758C24.5567 55.0194 26.2749 54.6033 22.1248 56.0143C21.8188 56.118 22.0224 56.1541 22.2115 59.983L22.2107 59.9825ZM69.9348 63.5024C69.0444 63.6286 68.1477 63.7051 67.2488 63.7323C64.2313 63.8857 64.3558 63.7842 64.4047 63.9729C64.604 64.7447 65.2883 67.4579 65.4621 68.2152C65.5208 68.4702 65.6058 68.3665 66.0146 68.3427C66.5097 68.3134 70.2077 68.0546 71.3632 67.8824C71.6182 67.8442 71.6582 68.12 70.8333 65.5203C70.1248 63.2856 70.2782 63.5028 69.9357 63.5028L69.9348 63.5024ZM49.7953 50.2607C49.7953 50.2921 49.3423 50.2462 48.9215 50.2755C48.454 50.3078 47.5666 50.4234 47.3125 50.4485C46.0451 50.5726 46.1816 50.477 46.2772 51.0061C46.9997 55.0011 46.8637 54.8005 47.0422 54.7674C51.0444 54.0313 54.4453 54.3891 54.3904 54.1396C53.4414 49.8391 53.6539 50.1319 53.4091 50.1319C49.9874 50.1332 52.0049 50.2611 49.7962 50.2611L49.7953 50.2607ZM23.0513 73.5672C22.9463 73.1482 22.7394 71.5026 22.6352 70.6649C22.4984 69.568 22.5838 69.5599 22.4253 69.6147C17.0108 71.4422 16.4086 71.2833 16.4192 71.5532C16.5892 75.8121 16.4256 75.5605 16.7477 75.5112C18.2505 75.2813 22.937 73.6867 23.0513 73.5672ZM35.8825 53.2008C35.7376 51.9352 35.84 51.9611 35.6198 51.9721C35.4422 51.9811 34.6997 52.0418 34.5293 52.0733C30.8233 52.7609 30.9529 52.7992 28.9006 53.534C28.7166 53.6003 28.7778 53.48 29.0166 56.3454C29.1475 57.9179 29.0867 57.7955 29.2533 57.739C31.1029 57.1108 34.2705 56.2349 36.0895 56.1537C36.2773 56.1456 36.245 56.3756 35.8825 53.2008ZM22.5902 65.3711C22.8541 68.1761 22.8499 68.8038 22.866 68.902C22.9 69.1069 22.5685 69.1179 28.391 67.3376C29.7387 66.9249 29.7663 66.9768 29.7468 66.8531C29.734 66.7715 29.3834 63.9078 29.3426 63.5011C29.3018 63.0944 29.4276 63.2661 27.5019 63.7357C26.9396 63.873 26.7318 63.9316 23.4738 64.9627C22.5808 65.2445 22.5613 65.2653 22.5902 65.3711ZM35.0567 47.8186C32.4876 48.1429 31.9049 48.0766 28.6575 49.4175C28.4174 49.5169 28.459 49.4634 28.513 50.1973C28.7361 53.2106 28.6677 53.0691 28.8254 53.013C32.9415 51.5446 35.1851 51.6904 35.6364 51.5556C35.7588 51.5195 35.6602 51.3045 35.5557 50.2781C35.2747 47.5275 35.3529 47.8263 35.0567 47.8199V47.8186ZM46.4153 55.4015C42.9341 56.138 41.7577 56.7219 41.0535 56.8163C40.8962 56.8371 40.9183 56.532 41.6289 61.5363C41.6774 61.8797 41.7207 61.2465 45.2589 60.1695C47.1714 59.5877 47.2734 59.7093 47.239 59.4895C47.134 58.8219 47.239 59.4432 46.9627 57.943C46.5228 55.5664 46.556 55.3254 46.4153 55.4027V55.4015ZM57.0348 54.2297C58.5172 54.2106 59.9069 54.2956 61.1972 54.2297C61.3906 54.22 61.4425 54.5646 60.3145 50.5203C60.2843 50.4115 60.2465 50.3049 60.2121 50.1973C59.6562 50.1638 59.099 50.1667 58.5435 50.2054C58.2596 50.2275 57.9702 50.1859 57.6829 50.1825C53.849 50.137 54.0704 50.0907 54.0929 50.2165C54.1031 50.2785 54.6454 52.8974 54.8737 54.1239C54.8987 54.2671 54.7823 54.2586 57.0348 54.2297ZM61.8645 58.6922C62.3643 58.6922 62.5521 58.7968 62.5088 58.6157C62.4493 58.3675 62.7213 59.3999 62.012 56.7457C61.4293 54.5659 61.5054 54.775 61.3456 54.7759C54.6731 54.8184 54.9995 54.7448 55.0386 54.9114C55.4491 56.6777 55.6374 58.6446 55.8584 58.6391C59.7488 58.5431 59.7148 58.6922 61.8632 58.6922H61.8645ZM40.8907 56.4436C40.9277 56.7041 41.2592 56.1218 44.6086 55.291C46.6236 54.7912 46.454 55.0674 46.3448 54.4626C46.3367 54.4201 45.6886 50.8314 45.6809 50.7809C45.6571 50.6206 45.5993 50.6708 45.0366 50.7936C40.2804 51.834 40.8945 52.0142 40.4593 52.0291C40.1644 52.0401 40.2961 52.2403 40.8894 56.4448L40.8907 56.4436ZM34.8238 44.0425C34.8034 43.875 34.9012 43.915 33.8187 43.966C31.9372 44.1135 30.0872 44.5346 28.3273 45.2159C28.1866 45.2678 28.142 45.1194 28.2491 46.5581C28.4514 49.281 28.3481 48.491 28.4191 48.859C28.448 49.0073 28.4369 48.859 29.8921 48.3465C31.5451 47.7625 33.2765 47.4302 35.0282 47.3609C35.3172 47.2806 35.2607 47.6541 34.8238 44.0425ZM21.7092 60.7939C21.4376 60.8287 21.5489 60.8729 18.6917 61.7357C16.0788 62.524 16.188 62.2882 16.199 62.5784C16.3639 66.9202 16.2173 66.7953 16.3491 66.7409C17.4065 66.3057 21.9786 64.9516 21.988 64.9495C22.138 64.9185 22.0521 64.842 21.9952 64.1369C21.9807 63.9775 21.7929 60.9447 21.7092 60.7939ZM49.5017 42.3166C47.9555 42.3467 46.4123 42.4555 44.8772 42.6425C44.7021 42.6723 44.7472 42.5125 45.2232 45.0999C45.4017 46.071 45.3558 46.0068 45.5564 45.9881L47.3053 45.7994C52.9884 45.167 52.7669 46.3944 52.4193 44.9418C52.2365 44.1768 51.9599 42.9596 51.8349 42.4849C51.7945 42.3323 52.0049 42.3297 49.5017 42.3166ZM21.7597 51.2883C21.7597 51.5858 21.7415 51.6309 21.8783 51.5858C22.6312 51.3712 23.3674 51.1022 24.0811 50.7804C28.0527 48.9878 28.0391 49.2079 28.0077 48.9746C28.0077 48.9487 27.8334 46.4977 27.833 46.4896C27.7425 45.4565 27.8258 45.4271 27.7055 45.4769C25.028 46.6074 24.3595 46.8369 21.7767 47.7782C21.5863 47.8475 21.5379 47.4931 21.7597 51.2883ZM69.6301 63.1484C70.0976 63.0731 70.0763 63.1182 70.0249 62.9571C68.6972 58.7891 68.795 58.9987 68.6772 59.0127C65.5747 59.382 64.9402 59.1104 63.2568 59.2354C63.2253 59.2354 63.182 59.2851 63.2079 59.382C64.3193 63.516 64.1782 63.3286 64.3274 63.3298C65.6223 63.3396 68.2051 63.3787 69.6292 63.1484H69.6301ZM48.0295 63.8177C47.6797 61.8627 48.2692 65.1722 47.3788 60.2278C47.3567 60.1054 47.287 60.1666 46.8688 60.2856C45.1756 60.7161 43.5126 61.2592 41.892 61.912C41.555 62.0395 41.8151 61.9176 41.9948 63.6363C42.0624 64.2806 42.2324 66.426 42.399 66.3138C45.3048 64.3762 47.8123 64.0145 48.0286 63.8177H48.0295ZM68.2688 58.6361C68.6037 58.6115 68.6437 58.6786 68.5973 58.5341C68.3538 57.7649 67.4379 54.9552 67.1311 54.1277C67.0924 54.024 67.1676 54.0466 65.9343 54.3662C65.6185 54.4482 65.3444 54.4329 64.9891 54.5128C64.0626 54.6513 63.1272 54.7232 62.19 54.7278C61.89 54.738 61.8972 54.4044 62.9189 58.2324C63.1021 58.9192 62.8076 58.7169 64.4914 58.7424C65.7507 58.8214 67.0151 58.7862 68.268 58.6361H68.2688ZM16.1922 61.8372C16.1922 61.972 17.0316 61.8398 20.064 60.807C21.8129 60.212 21.7249 60.3102 21.6994 60.1224C21.6412 59.6927 21.6662 59.8096 21.6144 59.0977C21.3972 55.9875 21.5149 56.2442 21.237 56.3042C19.9442 56.7487 18.6255 57.1138 17.2883 57.3977C16.1213 57.6812 16.1327 57.5817 16.1332 57.7577C16.1387 58.7836 16.1697 59.7212 16.1922 61.8372ZM45.615 46.5062C45.431 46.5377 45.4633 46.3698 46.0035 49.4421C46.1284 50.1548 46.1348 50.1221 46.213 50.114C49.4617 49.689 48.3899 49.8106 53.3284 49.6771C53.5693 49.6703 53.4699 49.7978 52.7308 46.3422C52.6437 45.932 46.672 46.3247 45.6155 46.5058L45.615 46.5062ZM16.3835 70.7486C16.3835 70.9658 16.4948 70.9331 16.6861 70.8727C17.9139 70.4873 17.4961 70.7189 22.1261 69.2667C22.7751 69.0631 22.3416 69.3376 22.1261 65.4842C22.1261 65.3919 22.2536 65.3567 20.5612 65.8862C16.2445 67.2415 16.3172 67.1612 16.3274 67.3839C16.3197 67.3971 16.3601 67.6674 16.3835 70.7486ZM44.034 38.8622C43.8959 38.8834 43.9414 38.7801 44.6082 41.8996C44.7502 42.5622 45.8165 41.529 51.5625 41.8002C51.7206 41.8078 51.6925 41.8852 51.055 39.3148C50.8583 38.5213 50.885 38.4886 50.735 38.4941C48.4948 38.3906 46.2496 38.514 44.034 38.8622ZM60.8785 50.1837C60.686 50.1837 60.7442 50.004 61.8207 54.1031C61.8632 54.2612 61.8853 54.2306 62.3418 54.1906C63.4757 54.2123 64.6087 54.1248 65.7256 53.9293C67.1217 53.6938 66.993 53.71 66.9534 53.5931C65.4889 49.2955 65.7762 49.7885 65.4209 49.8531C63.9168 50.0732 62.3987 50.1837 60.8785 50.1837ZM44.9019 46.6137C44.8364 46.5317 41.9557 47.2784 41.5486 47.3915C41.4483 47.4195 41.3561 47.4824 41.2549 47.5041C40.7915 47.6104 40.3345 47.7434 39.8864 47.9023C39.7164 47.9601 39.6314 48.0065 39.6488 48.1051C40.2863 52.1451 40.1699 51.8213 40.2978 51.7639C43.4471 50.3537 45.329 50.3389 45.581 50.1272C45.5453 50.1735 45.0209 46.7646 44.9019 46.615V46.6137ZM57.7305 45.8997C59.0191 45.8436 59.0055 45.8917 58.96 45.7166C58.875 45.4038 58.5537 44.3736 58.246 43.34C57.878 42.1045 58.2711 42.4224 56.7611 42.439C56.5715 42.4411 56.3811 42.4088 56.1912 42.4092C55.9153 42.4092 55.6387 42.4373 55.3692 42.4398C52.2059 42.4704 52.2773 42.2792 52.3317 42.5061C53.1316 45.8271 53.0683 45.6957 53.1817 45.7064C54.3815 45.8194 54.6123 45.796 57.7305 45.8997ZM16.0558 51.0847C16.038 51.0847 16.0337 50.9347 16.0907 53.0474C16.0958 53.2395 15.9848 53.2229 17.6343 52.8081C21.5923 51.8119 21.2102 51.8361 21.2102 51.6207C21.2102 51.6113 21.1116 48.0868 21.1116 48.0779C21.1044 47.9406 19.2595 48.8004 16.2335 49.4379C16.0044 49.4884 16.0558 49.2883 16.0558 51.0847ZM33.9704 40.192C33.9704 40.2141 33.8178 40.1831 33.6491 40.2013C31.0094 40.4882 30.6818 40.6068 28.1883 41.5371C27.9805 41.6145 27.9592 41.651 27.9664 41.7258C28.0514 42.6413 28.068 43.3833 28.1505 44.6473C28.17 44.9448 28.3345 44.3311 32.2925 43.6965C34.899 43.2783 34.7575 43.6502 34.7244 43.2363C34.7167 43.1377 34.582 41.9366 34.5799 41.9209C34.3397 39.9727 34.4566 40.192 33.9704 40.192ZM21.7984 52.6415C21.8086 52.6415 21.9353 55.3309 21.9391 55.4525C21.9446 55.6072 21.954 55.6127 22.6021 55.3734C25.8882 54.1596 26.4696 53.7852 28.1386 53.2684C28.3511 53.2029 28.306 53.2408 28.2389 52.2628C28.0451 49.4336 28.0714 49.6508 27.9524 49.7022C21.1562 52.6572 21.7984 51.6997 21.7984 52.6415ZM38.1061 66.1858C37.8511 66.1858 37.9131 65.8106 38.4597 70.2361C38.4882 70.4686 38.475 70.3576 39.472 70.5986C42.2928 71.2786 42.7297 72.0547 42.725 71.7508C42.725 71.7419 42.13 67.6087 42.0097 67.4111C42.0722 67.2794 41.9876 67.1599 41.9749 67.0354C41.966 66.9513 41.93 66.8722 41.8722 66.8106C41.8143 66.7485 41.7379 66.7073 41.6544 66.6929C40.2795 66.3422 40.2132 66.3784 38.1061 66.1858ZM39.5086 47.1518C39.5566 47.5071 39.5409 47.6214 39.6743 47.5615C41.1593 46.893 42.9822 46.5436 44.771 46.1326C44.8785 46.108 44.8441 46.1773 44.5729 44.7182C44.1849 42.6289 44.2814 42.7377 44.0549 42.7972C42.4034 43.1423 40.781 43.6145 39.2022 44.2091C38.9897 44.2847 39.0951 44.0663 39.5107 47.1518H39.5086ZM21.2497 52.5297C21.2434 52.3172 21.2497 52.3172 21.0513 52.3942C20.182 52.7129 19.2961 52.9845 18.3976 53.208C16.2373 53.803 16.0741 53.633 16.0873 53.857C16.0873 53.8872 16.0873 53.7214 16.097 55.9251C16.1034 57.2047 16.063 57.1486 16.2381 57.1151C17.7681 56.8091 19.8596 56.2336 21.2344 55.8175C21.523 55.73 21.3581 55.9608 21.2497 52.5297ZM40.7912 58.9897C40.7912 58.9804 40.4848 56.9098 40.3531 56.8898C39.1469 56.7092 38.9531 56.6348 38.5298 56.6977C38.4716 56.7062 38.0925 56.6233 37.8498 56.6229C37.5098 56.6229 37.1698 56.6501 36.8298 56.6561C36.7321 56.6561 36.6993 56.4657 37.1056 59.5924C37.3555 61.5142 37.2191 61.3481 37.4822 61.3485C38.6485 61.286 39.818 61.3761 40.9608 61.6175C41.0139 61.6273 41.0739 61.541 41.1227 61.6294C41.2872 61.6324 41.0382 61.3481 40.7929 58.9927L40.7912 58.9897ZM58.4403 49.7179C60.122 49.7107 60.1173 49.7604 60.0638 49.5722C59.0676 46.0289 59.139 46.2045 59.0013 46.2147L57.5006 46.2997C57.3731 46.3052 57.2456 46.2699 57.1151 46.2712C52.6195 46.3137 54.8779 46.275 53.2978 46.2572C53.1137 46.2572 53.3517 46.5853 53.9497 49.5407C53.9807 49.6958 53.6288 49.7413 58.442 49.7209L58.4403 49.7179ZM65.3435 49.4795C65.6198 49.4434 65.7112 49.8017 64.423 46.2283C64.239 45.7183 64.247 45.6673 64.1174 45.7259C63.4761 45.8819 62.8229 45.9843 62.1645 46.0323C59.9159 46.2618 59.6099 46.0867 59.6728 46.3009C60.7127 49.8565 60.5653 49.7201 60.7514 49.7179C62.709 49.6967 65.5505 49.4825 65.3452 49.4825L65.3435 49.4795ZM21.5791 47.3469C21.5791 47.4676 21.5498 47.4144 23.3429 46.7863C24.9519 46.2227 25.0004 46.0757 27.623 44.9694C27.8071 44.8916 27.7323 44.8534 27.6919 43.9328C27.6392 42.7152 27.6698 42.9201 27.6001 41.8792C27.5937 41.7874 28.2418 41.5541 21.4801 44.3158C21.2978 44.3901 21.5608 45.0353 21.5791 47.3469ZM59.9618 45.8428C59.9618 45.8759 62.3243 45.7123 62.9062 45.6107C63.2338 45.5538 63.5568 45.4701 63.8837 45.3982C64.2237 45.3209 64.2764 45.8912 62.9151 41.9923C62.845 41.7917 63.0451 42.0628 60.9941 42.2171C58.6991 42.3897 58.4866 42.3089 58.5146 42.4186C58.7182 43.2354 58.9464 43.847 59.4875 45.6911C59.5423 45.8832 59.6983 45.8428 59.9618 45.8428ZM37.5077 61.8117C37.3577 61.8117 37.3687 61.7548 37.469 62.5619C37.9051 66.0643 37.8375 65.7179 37.9867 65.7239C39.6726 65.7927 39.0492 65.709 41.8635 66.2228C41.753 65.236 41.7551 65.5471 41.6434 64.7298C41.2541 61.8763 41.5044 62.1449 41.0331 62.0604C39.8658 61.8895 38.6874 61.8066 37.5077 61.8117ZM44.1059 42.2116C43.6299 39.8499 43.6384 39.7598 43.5177 39.4623C43.4267 39.237 43.5423 38.9306 43.3336 38.9697C41.3518 39.3399 41.6366 39.254 39.3479 40.1452C38.4979 40.4755 38.4261 40.4389 38.4533 40.5872C39.0547 43.8648 38.9209 43.9447 39.1087 43.8398C41.4568 42.5516 43.754 42.5235 44.1059 42.2116ZM57.0611 42.0369C57.8342 41.9817 57.8631 42.0203 57.8121 41.8444C57.7611 41.6684 57.9868 42.4394 57.2596 40.0377C56.9621 39.0475 56.9999 39.053 56.8346 39.0415C56.5426 39.022 55.7925 38.9353 55.4483 38.9072C51.0954 38.554 51.2943 38.4469 51.3479 38.6577C52.183 41.9574 52.109 41.8121 52.3398 41.838C53.2837 41.9434 54.1388 41.9409 57.0611 42.0369ZM36.3151 51.9683C36.1133 51.9683 36.1842 51.6649 36.6658 55.9837C36.6823 56.1346 36.6381 56.1091 37.4941 56.1473C38.4519 56.0666 39.4163 56.1673 40.3365 56.4448C40.3523 56.4448 40.4308 56.6395 40.1525 54.6802C39.7551 51.8842 39.8643 52.1787 39.5745 52.1481C38.0831 51.9917 39.217 51.9594 36.3151 51.9683ZM16.0545 48.862C16.0545 49.035 16.0503 49.026 16.8272 48.8225C20.118 47.9597 20.3938 47.8025 20.9986 47.6121C21.1919 47.5513 21.1108 47.4501 21.0224 44.6196C21.013 44.3221 20.7916 44.7046 19.4044 45.0799C19.3942 45.0799 17.103 45.8062 16.1825 45.7599C16.015 45.7506 16.0647 46.1484 16.0545 48.862ZM35.9679 47.785C35.6538 47.785 35.7036 47.6452 35.8353 48.8526C35.8353 48.8628 36.1196 51.4651 36.1881 51.5301C36.2565 51.5952 38.0389 51.474 39.6063 51.7001C39.7474 51.7201 39.7632 51.9577 39.3063 49.307C39.0513 47.8267 39.1112 47.9304 38.9438 47.9181C37.4758 47.8076 37.1184 47.7829 35.9679 47.785ZM59.2197 41.9897C59.2197 41.9808 60.8487 41.9137 61.1059 41.8805C63.0128 41.6332 62.7982 41.6714 62.7387 41.4899C62.6792 41.3085 62.139 39.9638 61.8182 38.8715C61.7786 38.7368 61.6958 38.9353 60.9622 39.0139C60.2036 39.0955 60.1713 39.1235 59.9494 39.1274C59.6035 39.1329 57.9596 39.1529 57.5869 39.1078C57.4347 39.0895 57.4288 38.948 58.3353 41.8223C58.4173 42.0828 58.5771 41.9443 58.8185 41.9532C58.9473 41.9587 59.0833 41.9778 59.2197 41.9897ZM38.6382 44.4824C38.6029 44.2495 38.4984 44.3323 38.2038 44.2558C37.3594 44.099 36.5053 44 35.6475 43.9583C35.1608 43.9188 35.2314 43.5945 35.4634 45.5432C35.7405 47.87 35.409 47.2389 36.8315 47.2857C37.5566 47.3103 38.7891 47.513 38.9714 47.5407C39.0173 47.2049 39.0798 47.4153 38.6382 44.4832V44.4824ZM38.3199 42.5503C37.9977 40.5192 38.4746 40.3964 34.8706 40.1924C34.789 40.1877 34.7605 40.2188 34.7741 40.2999C35.273 43.2749 35.0503 43.4628 35.3402 43.4551C35.7592 43.4517 36.1778 43.4828 36.5918 43.5474C37.2368 43.5707 37.8752 43.6851 38.4882 43.8874C38.58 43.9146 38.5421 43.9541 38.3199 42.5512V42.5503ZM45.2002 76.7501C45.1543 76.6765 45.1174 76.7501 44.969 76.7603C43.9937 76.8261 43.0247 76.963 42.0696 77.1708C41.9234 77.2048 41.9766 77.2728 42.334 77.7424C43.7637 79.6231 45.3898 77.0565 45.2002 76.7509V76.7501Z" fill="#20262C"/>
<path d="M47.5955 52.8817C47.533 52.9378 47.4366 53.0049 47.3758 52.948C47.315 52.891 47.2725 52.8311 47.3137 52.7474C47.5424 52.2867 48.2186 51.6296 48.7056 51.6424C49.1927 51.6551 49.1965 52.1809 49.2772 52.5022C49.9951 51.8961 50.2713 51.4316 50.7987 52.0925C50.9479 51.925 51.2917 51.5774 51.4571 51.4239C51.5153 51.3568 51.5918 51.3083 51.6772 51.2845C51.7626 51.2603 51.8536 51.262 51.9382 51.2892C52.0223 51.3164 52.0971 51.3678 52.1528 51.4371C52.2085 51.5064 52.2425 51.5905 52.2505 51.6789C52.2739 51.7712 52.208 51.8914 52.3746 51.888C52.4669 51.888 52.4975 51.9378 52.4669 52.0206C52.4303 52.1205 52.3823 52.2153 52.3241 52.3041C52.2969 52.3509 52.2573 52.3891 52.2097 52.4146C52.1621 52.4401 52.1086 52.452 52.0546 52.4486C52.0006 52.4456 51.9488 52.4274 51.9046 52.3968C51.86 52.3657 51.8251 52.3232 51.8039 52.2735C51.6105 51.9297 51.84 51.8863 50.925 52.7929C50.6793 53.036 50.4056 52.9603 50.3351 52.7312C50.1791 52.2259 50.4932 52.2416 49.2938 53.2523C49.2492 53.2944 49.1935 53.3224 49.1336 53.3335C49.0732 53.3449 49.0112 53.3386 48.9547 53.3152C48.8977 53.2922 48.8488 53.2536 48.814 53.2034C48.7787 53.1533 48.7587 53.0942 48.7562 53.033C48.7923 51.8349 48.712 51.8842 47.5955 52.8817Z" fill="#20262C"/>
<path d="M31.264 54.4769C30.8423 54.8254 30.4999 55.2602 30.2598 55.7519C30.1446 55.9992 29.8824 55.9091 30.06 55.414C30.2863 54.887 30.6276 54.417 31.0588 54.0387C31.1167 53.9826 31.1904 53.9448 31.27 53.9312C31.3497 53.9176 31.4317 53.9282 31.5051 53.9618C31.5786 53.9954 31.6402 54.0506 31.6819 54.1195C31.7236 54.1887 31.7434 54.2691 31.7388 54.3498C31.7609 54.5674 31.712 54.8046 31.8238 54.7017C32.1 54.4437 32.1578 54.2886 32.4613 54.3116C32.6827 54.3281 32.7137 54.6091 32.8293 54.4879C33.1664 54.1224 33.5433 53.796 33.953 53.5143C34.3028 53.2482 34.928 53.377 34.5395 53.9571C34.5126 53.9758 34.48 53.9847 34.4473 53.9818C34.3997 53.8815 34.3432 53.9248 34.2883 53.9673C33.0282 54.9367 33.0915 55.2559 32.7362 55.3664C32.5879 55.4123 32.4188 55.3452 32.3406 55.0264C32.2785 54.7748 31.9725 55.4761 31.5794 55.5942C30.9874 55.7723 31.3303 54.7459 31.264 54.4769Z" fill="#20262C"/>
<path d="M47.9781 47.5097C48.2726 47.4905 48.4307 47.7222 48.5306 48.0005C48.5765 48.128 48.6156 48.0197 49.2667 47.6155C49.7767 47.2989 49.9255 47.8565 50.0576 47.7481C50.4333 47.44 50.9106 47.4208 51.7151 47.332C51.8949 47.3125 52.1091 47.3159 51.9931 47.4667C50.9705 48.1926 50.6688 47.9236 50.3862 48.2415C50.2769 48.3796 50.1439 48.4969 49.993 48.5875C49.738 48.6725 49.6008 48.5875 49.5438 48.3537C49.4673 48.0388 49.6101 48.0137 48.9382 48.4595C48.8557 48.5152 48.7695 48.5641 48.6794 48.6062C48.5888 48.6478 48.4856 48.6521 48.3916 48.6176C48.2981 48.5836 48.2221 48.5135 48.1796 48.4234C47.9955 47.9512 47.9377 47.9725 47.7903 48.0384C46.9828 48.3983 46.7545 48.9589 46.5578 48.8556C46.1974 48.6644 47.3045 47.5097 47.9781 47.5097Z" fill="#20262C"/>
<path d="M48.8325 40.6609C48.3403 40.6975 48.464 40.3485 48.2315 40.4289C47.563 40.6601 47.3016 40.9665 47.0874 40.6129C46.8966 40.2984 47.0989 40.0527 46.0526 40.5891C45.6276 40.8058 45.5307 41.0991 45.4027 41.0566C45.3105 41.0281 45.2302 40.7799 45.4554 40.5402C45.7619 40.177 46.175 39.9195 46.6361 39.8041C46.784 39.7482 46.9472 39.7475 47.0955 39.8022C47.2438 39.8568 47.3675 39.9631 47.4436 40.1016C47.4971 40.2423 47.5354 40.1229 48.2175 39.8934C48.7182 39.7255 48.6693 40.1909 49.0305 40.0867C49.3336 40.0047 49.6553 40.031 49.9409 40.1611C50.2622 40.357 49.2073 40.6329 48.8325 40.6609Z" fill="#20262C"/>
<path d="M32.8597 42.4539C32.5779 42.4594 32.4959 42.2019 32.3132 42.2983C31.8771 42.5274 31.4177 42.8432 31.2766 42.3702C31.2014 42.1152 31.2269 42.0994 31.0309 42.1857C30.4687 42.4648 29.9714 42.8589 29.5711 43.3421C29.4181 43.4518 29.3161 43.238 29.3649 43.1007C29.5991 42.4683 30.6076 41.7752 31.1219 41.6366C31.2306 41.6153 31.3434 41.6299 31.4431 41.6784C31.5428 41.7268 31.624 41.8065 31.6744 41.9052C31.7343 42.0051 31.7335 42.003 31.8287 41.9549C32.1053 41.8155 32.4623 41.6226 32.7003 41.79C33.1814 42.13 33.4513 41.9728 33.3017 42.215C33.2527 42.2875 33.1869 42.347 33.11 42.3886C33.033 42.4302 32.9471 42.4526 32.8597 42.4539Z" fill="#20262C"/>
<path d="M27.4803 51.6546C27.4378 51.7668 27.4034 51.9291 27.3103 51.8692C27.1437 51.7591 26.4603 52.1922 26.1356 52.5696C25.6915 53.0851 25.8857 52.8671 25.7446 53.0188C25.4896 53.2951 25.2155 53.1604 25.1573 52.8565C25.1415 52.774 25.1339 52.7171 25.0655 52.7902C24.717 53.1642 24.4212 53.4761 24.3289 53.545C24.1819 53.6551 23.9099 53.709 23.8291 53.4438C23.7174 53.0758 23.7628 52.8713 23.6349 52.9614C23.1844 53.2798 22.6434 54.0949 22.4789 54.0274C22.0662 53.8574 23.7305 51.6898 24.1118 52.7141C24.2044 52.9631 24.204 52.9619 24.388 52.7694C24.5249 52.6257 24.6706 52.4931 24.8066 52.3444C24.9426 52.1956 25.278 52.0681 25.4628 52.2377C25.6477 52.4073 25.5563 52.3312 26.0795 51.8603C26.4 51.5721 27.0625 51.1803 27.3775 51.4922C27.4184 51.5419 27.453 51.5964 27.4803 51.6546Z" fill="#20262C"/>
<path d="M56.5536 48.8445C56.1069 48.8445 56.1635 48.5895 56.1244 48.0162C56.1171 47.9074 56.1244 47.8066 56.0232 47.8317C55.5986 48.0417 55.2225 48.3379 54.9182 48.7009C54.5412 49.142 54.1991 48.2572 55.7465 47.3625C55.8286 47.3017 55.9246 47.2639 56.0258 47.2516C56.1273 47.2397 56.2298 47.2541 56.3237 47.2941C56.4176 47.3336 56.4992 47.3969 56.5613 47.4781C56.6229 47.5589 56.6628 47.6545 56.6764 47.7556C56.7121 48.0251 56.7147 48.0995 56.8116 48.0315C57.1792 47.7739 57.685 47.3561 58.2842 47.3774C58.5256 47.3855 58.8431 47.4462 58.6667 47.612C58.4903 47.7569 58.2923 47.8729 58.0798 47.9562C57.3122 48.2559 57.0866 48.6834 56.5536 48.8445Z" fill="#20262C"/>
<path d="M25.2808 44.9371C24.9744 44.9664 24.991 44.6621 24.8095 44.8449C24.6435 45.0357 24.4626 45.2125 24.2685 45.3744C24.2291 45.4046 24.1822 45.4237 24.1328 45.4301C24.0834 45.4361 24.0334 45.4284 23.9878 45.4084C23.9424 45.388 23.9031 45.3562 23.8743 45.3158C23.8454 45.275 23.828 45.2278 23.8239 45.1781C23.7814 44.915 23.801 44.7391 23.6867 44.8275C23.2508 45.1254 22.8758 45.5036 22.5817 45.9422C22.4206 46.213 22.0564 45.8594 22.6131 45.2197C24.1699 43.425 24.1214 44.7858 24.3038 44.6213C24.5928 44.3604 24.8562 44.116 25.1996 44.289C25.3191 44.3489 25.2808 44.289 26.1576 43.7365C26.3831 43.595 26.6289 43.4891 26.8865 43.422C26.9379 43.4258 26.9891 43.433 27.0395 43.4441C26.9001 43.68 25.5167 44.9805 25.2808 44.9371Z" fill="#20262C"/>
<path d="M41.1578 41.1751C41.2075 41.2728 41.2211 41.2758 41.3103 41.2176C41.7808 40.912 41.7927 41.201 42.0596 41.0527C42.8132 40.6353 43.3627 40.7127 43.1872 40.8687C41.3915 42.4412 42.1671 41.102 41.2976 41.8925C41.259 41.9357 41.2087 41.9667 41.1528 41.9817C41.0969 41.9967 41.0379 41.995 40.9829 41.977C40.9279 41.959 40.8794 41.9253 40.8433 41.8801C40.8071 41.8349 40.785 41.7801 40.7795 41.7225C40.7447 41.5725 40.7646 41.354 40.6393 41.425C39.5959 42.0234 39.6482 42.3902 39.4429 42.3256C38.8815 42.1471 40.6945 40.2707 41.1578 41.1751Z" fill="#20262C"/>
<path d="M56.7375 40.5162C56.4549 41.2285 56.8225 40.245 55.0375 40.8693C54.0728 41.2068 54.6206 40.2743 54.2678 40.3377C53.8586 40.3794 53.4637 40.5125 53.1127 40.727C52.7931 40.9607 52.5283 40.2391 53.7727 39.9241C54.1318 39.8332 54.7222 39.6364 54.9223 40.2216C54.9937 40.4295 55.2177 40.1392 55.9173 40.1366C56.0822 40.1366 56.4319 40.055 56.6538 40.333C56.6878 40.391 56.7158 40.4524 56.7375 40.5162Z" fill="#20262C"/>
<path d="M17.79 46.4671C17.9923 46.4879 18.1139 46.5635 18.2116 46.9159C18.2503 47.0553 18.2397 46.9584 18.6995 46.5478C18.9186 46.3026 19.1978 46.1186 19.5096 46.014C19.666 45.9486 19.9125 46.1062 19.802 46.2099C18.4326 47.499 18.0076 48.1101 17.7909 47.0383C17.7225 46.7008 17.0807 47.6817 16.8861 47.578C16.538 47.3919 17.2184 46.8258 17.5257 46.5801C17.6077 46.5295 17.6968 46.4913 17.79 46.4671Z" fill="#20262C"/>
<path d="M60.7708 40.8688C60.7708 41.3503 60.3522 40.4863 59.3781 40.9317C58.9765 41.1148 58.8082 40.5789 59.4703 40.3435C59.9782 40.1624 60.7704 40.2338 60.7708 40.8688Z" fill="#20262C"/>
<path d="M37.1376 42.0976C37.1234 42.1634 37.1053 42.2283 37.0832 42.2918C37.0769 42.3199 37.0629 42.3456 37.0426 42.366C37.0224 42.3865 36.9968 42.4007 36.9687 42.4072C36.9407 42.4136 36.9114 42.412 36.8843 42.4025C36.8571 42.393 36.8333 42.376 36.8154 42.3534C36.6454 42.1987 36.7028 42.0487 36.4894 42.1295C36.286 42.1966 36.1025 42.3135 35.9556 42.4695C35.761 42.6025 35.6445 42.2863 35.8082 42.087C36.2132 41.5948 37.0211 41.302 37.121 41.9773C37.1333 42.0653 37.1027 42.0908 37.1376 42.0976Z" fill="#20262C"/>
</svg>
