<svg width="85" height="85" viewBox="0 0 85 85" fill="none" xmlns="http://www.w3.org/2000/svg">
<path d="M39.3932 82.8728C37.5436 82.8686 35.7782 82.9289 33.7106 82.4903C31.9613 82.1197 29.4155 80.6203 27.7155 78.3313C26.3245 76.4558 25.939 75.5403 21.4625 52.8853C19.8683 44.8154 17.9724 32.7862 17.0425 22.4587C16.4075 15.393 16.2945 13.923 16.892 12.1737C17.3247 10.9063 17.4343 10.1337 18.6452 8.45789C19.0035 7.87874 19.5332 7.42544 20.1607 7.16079C28.9285 3.43907 45.2128 1.8024 51.8028 2.1781C55.4323 2.38465 56.128 2.5317 57.0248 3.7557C60.6279 8.67294 64.4232 31.4708 65.3182 37.5351C67.4122 51.7174 67.7582 61.4677 68.3306 69.1802C68.5767 72.4952 68.8938 75.5033 66.5231 77.1553C63.9995 78.914 50.6222 82.9 39.3932 82.8728ZM39.3048 82.4194C39.3048 82.4351 41.1727 82.4355 43.3538 82.2715C53.3065 81.5226 65.2201 77.8782 66.5886 76.6109C69.1284 74.2594 67.9218 71.6312 66.9239 55.1416C66.4071 46.5991 63.8783 28.7657 60.412 14.5001C59.7835 11.9136 57.9016 3.72552 55.5267 3.01662C51.0136 1.66895 37.3158 3.40635 32.1691 4.26569C28.7843 4.73918 25.4597 5.57308 22.2521 6.75322C21.3163 7.0661 20.4204 7.48757 19.5827 8.00909C19.4911 8.06783 19.4202 8.15402 19.3804 8.25538C19.3406 8.3567 19.3337 8.46805 19.3609 8.57349C19.7242 13.0521 19.74 15.5295 20.5934 23.536C22.8425 44.5956 28.2965 68.8028 29.0547 71.7446C31.685 81.9438 30.141 82.4194 39.3048 82.4194Z" fill="#20262C"/>
<path d="M33.9386 76.865C33.5527 76.8399 33.129 76.7864 32.7061 76.7936C31.5403 76.8144 25.8411 51.1236 22.6191 26.8378C21.1274 15.591 21.3016 13.5914 21.1843 13.2429C21.138 13.1052 21.1924 12.7652 21.3849 12.7006C28.0868 10.4545 49.0733 8.51437 56.0607 8.21602C56.3697 8.20284 56.5949 8.23217 56.688 8.53052C63.0298 28.8383 65.2012 49.9332 66.4838 70.9103C66.534 71.7284 67.3763 71.816 56.0594 74.4246C45.7408 76.8038 37.4984 76.6703 33.9386 76.865ZM66.222 71.3328C66.1795 71.0506 64.9572 51.1542 62.397 35.3289C60.3919 22.9448 56.5295 8.54242 56.2906 8.56664C56.0518 8.59087 57.0297 8.53519 54.5906 8.62784C42.963 9.06942 24.4934 12.01 21.5681 12.9318C21.4113 12.9811 21.4342 12.9841 21.5027 13.6543C24.9626 47.5693 32.3108 76.4438 32.9033 76.4629C48.1446 76.9551 66.2683 71.6371 66.222 71.3328Z" fill="#20262C"/>
<path d="M36.3689 7.6132C32.9689 7.6132 38.5317 5.79845 42.9564 6.0067C43.4897 6.03177 43.701 6.5167 42.0307 6.86307C38.7387 7.54477 36.3727 7.67057 36.3689 7.6132Z" fill="#20262C"/>
<path d="M47.5253 79.7669C46.8763 79.5544 46.5214 79.1426 46.9078 78.5841C48.0731 76.8994 55.0125 75.8488 56.1702 77.0588C57.7151 78.6717 50.2202 80.642 47.5253 79.7669ZM49.3638 79.6033C50.9916 79.5935 54.874 78.9687 55.9241 77.7418C56.7588 76.7668 53.242 76.6368 50.4727 77.304C46.8954 78.1663 45.6833 79.6258 49.3638 79.6028V79.6033Z" fill="#20262C"/>
<path d="M47.0475 5.35519C47.0462 5.16411 47.1019 4.97698 47.2077 4.81782C47.3135 4.65866 47.4644 4.53464 47.6408 4.46171C47.8176 4.38874 48.0118 4.37017 48.1992 4.40829C48.3862 4.44646 48.5579 4.53962 48.6922 4.67583C48.8261 4.81208 48.9162 4.98519 48.9515 5.17304C48.9863 5.36089 48.9647 5.55494 48.8886 5.7303C48.8129 5.90569 48.6863 6.0544 48.5252 6.15751C48.3646 6.26057 48.1763 6.31327 47.9855 6.30889C47.8609 6.30851 47.7381 6.28343 47.6234 6.2352C47.5086 6.18692 47.4049 6.11641 47.3174 6.02771C47.2302 5.93906 47.1614 5.83391 47.1151 5.71848C47.0687 5.60305 47.0458 5.47955 47.0475 5.35519Z" fill="#20262C"/>
<path d="M64.5722 68.775C64.5973 69.8643 65.3121 69.5864 57.6502 71.096C50.6619 72.4725 50.9454 72.3285 50.8749 71.9625C49.9003 66.911 49.9649 67.2255 50.1719 67.016C50.3143 66.8719 50.1111 66.9811 53.3263 66.4133C64.0214 64.5246 63.9895 64.4252 64.1021 64.6109C64.4523 65.1893 64.5573 68.104 64.5722 68.775ZM64.3121 69.1699C64.0571 67.0024 64.1893 67.0521 63.9194 64.8319C63.9011 64.6831 64.2296 64.752 58.1092 65.9012C50.4975 67.3305 50.2926 67.1885 50.3266 67.3534C51.3092 72.1317 51.0007 71.9647 51.2705 71.9294C55.7526 71.3425 64.1242 69.4189 64.131 69.4189C64.3023 69.3917 64.3168 69.3909 64.3121 69.1699Z" fill="#20262C"/>
<path d="M60.0394 67.6514C60.0508 67.7521 51.8611 69.5532 52.5453 68.9752C52.9729 68.6136 60.016 67.4478 60.0394 67.6514Z" fill="#20262C"/>
<path d="M52.8814 70.0276C52.875 69.9914 52.8814 69.9273 52.9035 69.9162C53.3625 69.6489 56.9946 69.2494 57.0549 69.2422C59.9768 68.8928 52.9435 70.3684 52.8814 70.0276Z" fill="#20262C"/>
<path d="M35.1646 74.2398C33.8169 74.2398 34.0524 74.8671 33.2096 70.7251C33.009 69.7399 32.9746 69.6626 33.2559 69.5823C34.5377 69.2236 36.0133 69.2138 47.2461 67.4194C47.3281 67.4194 47.408 67.4462 47.473 67.4964C47.5381 67.5461 47.5852 67.6162 47.6065 67.6953C48.499 72.5428 48.3957 72.3035 48.2482 72.5568C47.8972 73.1574 35.1735 74.4787 35.1646 74.2398ZM34.7396 74.0397C34.7396 74.0618 38.5344 73.7936 40.2727 73.5768C48.4578 72.5568 48.0119 72.4451 48.0102 72.1229C48.0102 71.8841 48.0901 72.4723 47.3073 67.8559C47.2822 67.7093 47.6082 67.773 42.9642 68.4509C32.7816 69.9346 33.3299 69.6005 33.4314 70.0714C34.4047 74.6041 33.9232 74.0397 34.7375 74.0397H34.7396Z" fill="#20262C"/>
<path d="M36.4808 71.2038C36.3928 70.9025 37.5713 70.8638 39.1187 70.6713C43.4461 70.1367 44.4878 70.1099 44.5413 70.2306C44.6246 70.4197 36.5666 71.4967 36.4808 71.2038Z" fill="#20262C"/>
<path d="M36.6586 72.6496C36.3976 72.5731 36.4677 72.2493 37.0793 72.3011C37.1881 72.3105 40.4313 72.1677 40.6412 72.1889C41.3323 72.2582 37.2298 72.8175 36.6586 72.6496Z" fill="#20262C"/>
<path d="M33.2034 46.3323C33.095 46.3392 33.006 46.3183 32.9226 46.2599C32.8392 46.2015 32.8149 46.1327 32.8218 46.034L33.1959 40.6919L30.9505 41.0878L30.5277 47.1209C30.5068 47.417 30.5408 47.6791 30.6298 47.9071C30.7187 48.1351 30.8584 48.3054 31.0294 48.4459C31.2004 48.5863 31.3985 48.6732 31.6279 48.7303C31.8573 48.7873 32.0881 48.7832 32.3481 48.7373L39.7105 47.4391L40.2747 39.4437L38.0057 39.8438L37.5996 45.5571L33.2034 46.3323ZM33.4086 40.4472L33.3975 40.5223L33.7019 40.7976L33.3216 46.1043L37.4342 45.3791L37.8402 39.6658L40.4874 39.199L40.4763 39.2741L40.7807 39.5494L40.1922 47.8903L32.6406 49.2219C32.3452 49.274 32.0651 49.2746 31.81 49.2099C31.5548 49.1453 31.3269 49.0271 31.1496 48.8512L31.0759 48.7789C30.8202 48.6412 30.6248 48.4319 30.4803 48.165C30.3357 47.898 30.2892 47.565 30.3268 47.1563L30.7614 40.914L33.4086 40.4472ZM40.8718 47.4415L41.4597 39.0276L49.023 37.694C49.4012 37.6273 49.7348 37.6538 50.0476 37.7692C50.3604 37.8846 50.5988 38.0619 50.7789 38.3226L50.8664 38.4047C51.0159 38.5611 51.1458 38.7453 51.2348 38.9733C51.3237 39.2014 51.3459 39.4655 51.3271 39.7735L51.2024 41.6232C51.176 41.9569 51.096 42.2634 50.9625 42.5429C50.829 42.8223 50.6538 43.0725 50.4466 43.2796C50.2415 43.4986 50.0044 43.6744 49.7375 43.819C49.4705 43.9635 49.207 44.0587 48.9234 44.1087L43.9718 44.9818L43.8116 47.2521L41.2353 47.7064L40.9427 47.429L40.8718 47.4415ZM49.0112 37.9032L41.6487 39.2014L41.0846 47.1968L43.3299 46.8009L43.4825 44.5563L48.5995 43.6541C48.8477 43.6103 49.1014 43.529 49.3448 43.3886C49.5881 43.2482 49.8036 43.0884 49.999 42.8833C50.1943 42.6783 50.3619 42.4538 50.4857 42.1883C50.6094 41.9227 50.6818 41.6419 50.7027 41.3458L50.8273 39.496C50.8503 39.2117 50.8066 38.9636 50.7176 38.7355C50.6308 38.5193 50.5029 38.3469 50.3319 38.2065C50.1609 38.066 49.9628 37.9791 49.7334 37.9221C49.504 37.8651 49.2593 37.8595 49.0112 37.9032ZM43.7242 41.0897L48.144 40.3104C48.2545 40.3153 48.3435 40.3361 48.4151 40.3966C48.4749 40.4592 48.511 40.5259 48.5096 40.5871L48.488 41.0174C48.481 41.1161 48.4344 41.1974 48.3524 41.285C48.2704 41.3726 48.1702 41.4268 48.066 41.4573L43.6462 42.2367L43.7242 41.0897ZM48.0542 41.2523C48.1897 41.1918 48.276 41.1279 48.3107 41.0486L48.3184 40.8158L44.2058 41.5409L44.178 41.9358L48.0542 41.2523ZM52.3278 40.1088L52.0352 39.8314L51.9643 39.8439L52.1579 37.1412L59.4731 35.8514L59.462 35.9264L59.7664 36.2017L59.5721 38.8314L57.244 39.2419L57.058 41.9189L59.067 41.5647L59.0677 41.6377L59.368 41.8893L59.1778 44.5427L51.9336 45.82L51.641 45.5426L51.5701 45.5551L51.7519 42.8545L54.08 42.444L54.2659 39.7671L52.3278 40.1088ZM56.7623 38.7907L59.0904 38.3802L59.2603 36.096L52.347 37.315L52.1771 39.5992L54.5051 39.1887L54.269 42.6178L51.9409 43.0283L51.7828 45.3105L58.6962 44.0914L58.8543 41.8093L56.5262 42.2198L56.7623 38.7907Z" fill="#20262C"/>
</svg>
