<svg width="85" height="85" viewBox="0 0 85 85" fill="none" xmlns="http://www.w3.org/2000/svg">
<path fill-rule="evenodd" clip-rule="evenodd" d="M54.1408 52.088C56.795 52.5823 59.3509 53.0795 61.7679 53.5644C61.6778 53.6401 61.4768 53.8037 61.2209 54.006C58.6016 53.4896 55.9288 52.9677 53.3253 52.4633C53.616 52.3362 53.8875 52.2112 54.1408 52.088ZM42.1524 49.9281C37.3199 49.0764 33.779 48.4721 33.6363 48.4517C32.9699 48.3624 32.2927 48.3969 31.6388 48.5537C30.5102 48.7267 29.3529 48.9154 28.1851 49.1155C28.1909 49.1835 28.1972 49.2511 28.2039 49.3191C28.2106 49.3731 28.2177 49.4207 28.2268 49.4636C32.4837 48.6676 32.6882 48.6697 33.5084 48.7743C34.2943 48.8746 37.3721 49.4296 41.6278 50.2286C41.8004 50.1321 41.9747 50.0323 42.1524 49.9281ZM70.9105 55.941C71.1736 55.8484 71.4409 55.7528 71.712 55.6542C73.007 55.9283 75.3772 56.4723 76.7479 56.7868C77.3518 56.9253 77.7619 57.0193 77.7997 57.0261V57.0248C80.6434 57.6869 82.3341 58.1149 82.4718 58.1689C82.8917 58.3334 82.8861 58.5879 82.8691 59.4069C82.8653 59.5994 82.8606 59.823 82.8606 60.0844C82.8662 60.6067 82.8364 61.129 82.7718 61.6475C82.7591 61.7427 82.7476 61.832 82.7374 61.9157L82.737 61.9161C82.6566 62.5562 82.6167 62.8736 82.1862 63.1422C81.5321 63.5502 81.1373 63.7649 80.901 63.8932C80.6685 64.019 80.5903 64.0619 80.5703 64.1231C80.5605 64.1546 80.5656 64.1907 80.5737 64.2455C80.5814 64.2978 80.5911 64.3671 80.5928 64.4648C80.62 66.1954 80.5937 68.0591 80.5627 70.2125V70.2134C80.5542 70.8003 80.5457 71.4089 80.5376 72.0422C80.4479 79.0997 80.4398 79.101 80.3293 79.1222C80.3255 79.1231 80.3213 79.1235 80.3174 79.1248C80.2214 79.1494 80.2125 79.0508 80.2001 78.8944C80.1304 78.0274 80.1479 75.5943 80.1678 72.7727V72.7719C80.1878 69.9996 80.2103 66.8516 80.1555 64.4444C80.1513 64.2842 74.1685 67.85 68.4523 71.2568C63.9248 73.9555 59.5638 76.5544 58.4729 77.1239C58.0079 77.3661 58.0007 77.1647 57.9671 76.1821C57.9599 75.9738 57.9514 75.7307 57.9374 75.4494C57.7767 72.2572 57.5995 71.9444 57.4295 72.1259C57.1464 72.4289 57.2884 76.307 57.3237 76.7907C57.3636 77.3317 57.3585 77.33 56.999 77.1804C56.8625 77.1235 56.6751 77.0457 56.4201 76.9683C55.5612 76.7074 46.7667 74.2301 36.8836 71.4455H36.8827C23.81 67.7628 8.83253 63.5434 7.79332 63.2068C7.66816 63.1665 7.67139 63.2107 7.68992 63.4644C7.6957 63.543 7.70297 63.6425 7.70832 63.7657C7.71376 63.8907 7.71083 63.9523 7.70641 64.0437C7.69476 64.2863 7.67301 64.7385 7.7708 67.1283C7.81997 68.3332 7.94433 70.4323 8.02988 71.8764C8.08258 72.7664 8.12057 73.4073 8.11717 73.4374C8.104 73.5717 7.9408 73.4583 7.90467 73.341C7.57232 72.2602 7.26632 65.974 7.2829 63.1835C7.28345 63.07 7.26794 63.0666 7.09662 63.0249C7.00635 63.0033 6.87281 62.9714 6.67557 62.9072C6.5601 62.8698 6.45198 62.8345 6.35053 62.8018C5.58268 62.554 5.19462 62.4287 4.87672 62.2043C4.55181 61.9748 4.30029 61.6411 3.79161 60.9671C3.7478 60.9089 3.70207 60.8485 3.65423 60.7852C3.16362 59.9382 2.76619 59.0401 2.4689 58.1077C2.46129 58.075 2.44831 58.0439 2.43643 58.0155C2.4179 57.9708 2.40205 57.9326 2.41345 57.9062C2.48069 57.7507 3.49624 58.0053 10.5038 59.7618C16.372 61.2331 26.4423 63.7576 43.6765 67.9766C47.3948 68.8865 50.0838 69.567 52.046 70.0638C57.1248 71.349 57.333 71.4017 57.9178 71.0115C58.333 70.7327 68.3902 64.9391 78.5052 60.2165C82.1704 58.5046 82.1734 58.4813 82.1794 58.4405C82.1798 58.4362 82.1806 58.432 82.1849 58.4256C81.7845 58.2037 77.1639 57.2114 70.9105 55.941ZM12.6698 52.3039C14.6466 51.8134 17.0368 51.2745 19.6125 50.7403C19.5856 50.9014 19.5606 51.054 19.5384 51.1959C16.2207 51.932 11.8667 52.9533 9.32417 53.6813C9.06688 53.7548 8.82943 53.8233 8.6103 53.8862C6.33298 54.5394 6.03047 54.6265 5.9603 54.4714L5.95843 54.4676C5.94602 54.4433 5.90309 54.3596 6.1303 54.2589C7.34325 53.7196 11.1687 52.6762 12.6698 52.3039Z" fill="#20262C"/>
<path d="M80.9625 47.7699C80.9035 47.4469 80.7203 47.16 80.4525 46.97C80.2749 46.8565 80.4071 46.8047 80.6561 46.5374C80.7441 46.4349 80.81 46.3155 80.8491 46.1859C80.8882 46.0567 80.8996 45.9207 80.8826 45.7868C80.8661 45.6529 80.8214 45.5237 80.7517 45.4081C80.682 45.2925 80.5885 45.1927 80.478 45.1153C80.2872 44.9848 80.1448 44.8701 80.2366 44.6856C80.274 43.2032 80.2332 41.7202 80.1138 40.2422C79.7585 36.2795 78.4644 30.8497 75.5578 27.8599C72.6818 24.8649 68.7055 25.4544 68.6503 25.0481C68.6184 24.833 68.5428 24.6268 68.428 24.4423C68.3133 24.2576 68.1615 24.0986 67.983 23.9749C67.8041 23.8512 67.6018 23.7655 67.3885 23.7231C67.1755 23.6807 66.9558 23.6825 66.7433 23.7284C66.1436 23.8491 66.0671 24.1534 65.9783 23.9524C65.7263 23.4111 65.5312 22.8453 65.3952 22.2639C65.3795 22.2141 65.391 22.1929 65.4377 22.1929C65.6647 22.1763 65.8886 22.1325 66.105 22.0624C66.5091 21.9236 66.8746 21.6905 67.1713 21.3824C68.2304 20.4687 68.9244 20.994 68.8713 20.3505C68.8709 19.9197 68.8071 19.4912 68.6817 19.0789C68.3154 17.7814 67.7042 17.6216 67.6078 16.6688C67.5185 15.744 68.0153 15.2633 67.9027 14.1328C67.805 13.1553 67.3693 12.6729 66.7403 11.505C66.5682 11.1039 66.476 10.6731 66.4692 10.2368C66.249 8.17725 64.4857 8.31197 64.0378 7.8925C63.3272 7.2261 63.6319 6.62302 61.7113 5.98722C61.2374 5.85241 60.7364 5.84391 60.2578 5.96257C59.1022 6.30725 58.7567 5.16272 56.9539 6.69825C56.7503 6.8759 56.8034 6.7144 56.361 6.6923C55.6002 6.65277 54.9249 7.34807 54.406 7.78242C54.0779 8.05527 53.057 8.92525 52.6996 9.28437C50.6027 11.3894 51.8687 12.9279 51.7009 13.8965C51.4493 15.344 50.2899 15.7457 50.3081 17.6012C50.3158 18.2906 50.6435 18.6718 51.1156 19.4287C51.4157 19.9061 51.5581 20.4656 51.5236 21.0284C51.6792 22.2392 50.1517 23.5482 50.1454 23.5572C50.0565 23.6847 50.065 23.7662 50.1878 23.8602C51.0021 24.4748 51.9652 24.8619 52.9784 24.9818C53.0124 24.9911 53.0481 24.9929 53.083 24.9871C53.1174 24.9813 53.1505 24.968 53.1799 24.9482C53.2088 24.9283 53.2334 24.9024 53.2517 24.8721C53.2695 24.8419 53.281 24.8081 53.2848 24.7731C53.6202 23.4008 53.4493 21.9766 53.8598 24.8351C53.8849 25.0128 53.8705 25.0234 54.944 24.8049C56.3074 24.527 56.3542 24.0425 56.6865 24.2227C57.1366 24.4924 57.6428 24.6557 58.1655 24.7C59.9854 24.915 60.1975 24.2444 60.2094 24.9019C60.2094 25.0438 60.1435 25.0421 59.9943 25.0459C59.1116 25.0668 58.2633 25.6205 58.1999 26.5139C58.1927 26.6142 58.2 26.5929 58.1269 26.6524C57.993 26.7566 57.6887 26.9015 57.123 27.2959C53.9355 29.5246 52.5394 33.0861 51.9235 35.0636C51.3353 36.8661 50.9227 38.7212 50.6911 40.6031C50.6626 41.0094 50.6596 41.1267 50.507 41.1556C49.7072 41.3226 49.2035 42.1909 49.875 42.7302C50.3196 43.0859 50.0323 42.9287 49.4148 43.5879C49.323 43.6882 49.252 43.8055 49.2057 43.933C49.1594 44.0609 49.1385 44.1965 49.1449 44.332C49.1509 44.468 49.1836 44.6011 49.241 44.7243C49.2988 44.8471 49.3799 44.9576 49.4802 45.0494C49.5627 45.1247 49.5708 45.1383 49.6371 45.2063C44.7394 48.0644 42.7746 49.7725 40.2021 50.962C39.9896 51.0657 39.7983 50.5744 39.378 50.8222C38.9577 51.07 38.4005 51.3798 38.3329 51.6042C38.2879 51.7644 38.1854 51.7997 38.0469 51.8507C37.3422 52.1882 36.6869 51.9901 35.7578 51.9757C35.1888 51.9599 34.6204 52.0237 34.0693 52.1661C33.67 52.2757 33.3069 52.4891 33.0168 52.7844C32.7268 53.0798 32.5203 53.447 32.4182 53.8482C32.3863 54.1211 32.1657 54.0339 31.5839 54.6557C28.9986 57.4301 38.0566 58.459 37.9215 55.5355C37.9147 55.3825 37.9037 55.2873 38.0422 55.2766C39.202 55.1878 39.3869 55.1819 39.4154 55.2422C39.4744 55.3599 39.1285 55.646 40.5204 55.6698C40.8179 55.6749 41.1052 55.6421 41.2216 55.3676C41.3895 54.9702 40.9407 55.0956 43.2859 54.923C44.0538 54.8665 48.949 54.1793 52.1539 52.9434C54.8543 51.9017 56.2475 50.9616 56.9526 50.217C57.2139 49.9425 56.7575 52.0445 56.5552 52.6578C56.6878 52.6748 56.8183 52.7045 56.9454 52.7466C57.1409 51.9523 57.2947 51.1482 57.4065 50.3377C57.5922 49.5217 57.4503 48.6649 57.0108 47.9526C53.3983 40.5453 53.5496 39.9158 55.2734 34.7057C56.7787 30.1655 56.6423 30.7588 56.5535 30.5582C56.1 30.8043 54.4396 36.3344 54.301 36.8125C53.1629 40.7004 54.0167 42.6954 55.7817 46.3389C55.9517 46.687 56.1026 46.8871 55.7817 46.6551C54.7821 45.9368 53.6712 45.3873 52.4935 45.029C51.8917 44.8731 51.2661 44.8314 50.649 44.9062C50.2214 44.9785 50.1131 45.0669 49.8972 44.9232C49.7994 44.8671 49.7157 44.7898 49.6528 44.6967C49.5895 44.6036 49.5482 44.4974 49.5325 44.386C49.5163 44.2747 49.5261 44.1608 49.561 44.0537C49.5954 43.947 49.6541 43.8492 49.7323 43.7681C50.2516 43.298 50.8585 43.0099 50.1411 42.5177C49.7501 42.2508 49.864 41.9061 50.1411 41.6541C50.558 41.2682 51.4484 41.4467 51.4182 41.1998C51.3987 41.0417 51.1313 41.0723 51.1207 41.0723C50.9329 41.0595 50.9635 41.0119 51.0204 40.5699C51.3128 38.7239 51.7463 36.9031 52.3175 35.1235C53.2453 32.2399 55.3388 28.5722 58.1753 27.043C58.3096 26.9703 58.2272 26.9801 58.5816 27.8819C58.8838 28.6508 57.4766 29.1569 57.8706 30.8744C57.9943 31.4073 58.2786 31.5671 58.625 31.8731C59.129 32.3173 57.7133 33.3951 58.6675 34.7041C59.0232 35.1911 60.2914 36.2451 60.1715 35.744C60.1205 35.5315 60.0576 35.5179 59.5859 35.0755C58.2331 33.8082 58.7138 33.659 59.1184 32.2535C59.2251 31.8808 58.9909 31.6585 58.6794 31.4205C58.4541 31.2228 58.2913 30.9637 58.211 30.6749C58.1307 30.3861 58.1366 30.08 58.2276 29.7944C58.4214 29.373 58.6386 28.9629 58.8791 28.5662C59.2986 27.7459 58.3185 27.0919 58.6126 26.2861C58.721 26.0022 58.9195 25.7618 59.1779 25.602C59.4363 25.4423 59.7402 25.372 60.0423 25.4021C60.1222 25.3944 60.149 25.4416 60.1384 25.5117C59.8451 27.4476 58.673 27.27 60.7304 33.5986C60.9982 34.3391 61.3076 35.0639 61.6569 35.7695C61.7139 35.857 61.7512 35.9556 61.7665 36.0588C61.7823 36.162 61.7751 36.2673 61.7462 36.3675C61.3008 39.4105 62.1189 42.8934 62.9706 45.862C63.2026 46.6602 63.5001 47.4379 63.8593 48.1876C63.9073 48.2569 64.0293 48.2089 63.9791 48.01C63.9791 47.9921 61.7139 41.8436 61.9663 37.6455C62.0585 35.938 62.5014 34.2677 63.2664 32.7384C63.6646 32.0329 64.0042 31.2964 64.433 30.6058C64.929 29.8059 67.7701 25.2461 66.9074 24.8657C66.6732 24.7392 66.4653 24.5698 66.2941 24.3664C66.0765 24.1479 67.5028 23.6957 68.0978 24.6214C68.6928 25.547 67.6039 26.3095 67.9444 27.2746C68.1042 27.8002 68.0799 28.3646 67.8751 28.8743C67.6554 29.4562 67.0752 29.6963 66.6779 30.0116C65.5937 30.8731 66.7935 31.8778 65.8444 32.3666C64.9621 32.8251 63.7819 33.4019 63.4933 34.1486C63.4729 34.1866 63.4632 34.2293 63.4644 34.2723C63.4661 34.3154 63.4789 34.3573 63.5018 34.3938C63.6264 34.4729 63.7143 34.2969 63.8469 34.1439C64.3178 33.6105 64.9719 33.3033 66.0952 32.6768C66.2635 32.583 66.4025 32.4442 66.4968 32.2759C66.5907 32.1077 66.6362 31.9166 66.6281 31.724C66.6383 31.503 66.626 31.2815 66.5907 31.0631C66.3782 30.1655 67.8874 30.1565 68.2873 28.8849C68.4501 28.3686 68.5211 27.5156 68.2746 27.0906C68.1292 26.8382 68.2321 26.8241 68.4739 26.0528C68.6295 25.5581 68.6014 25.4752 68.7264 25.4888C72.5679 25.8832 74.0644 27.185 74.9131 27.9848C78.6956 31.5472 79.9986 38.453 79.9187 43.6044C79.8992 44.8629 79.8949 44.7383 79.7526 44.7209C79.543 44.6941 79.0942 44.5934 79.1023 44.8255C79.1104 45.0575 79.8248 44.9266 80.3463 45.4999C80.4394 45.5943 80.4959 45.7188 80.5057 45.8514C80.5159 45.9836 80.4785 46.1149 80.4003 46.2224C80.0271 46.5782 79.6115 46.8174 79.8966 47.0418C80.5932 47.5875 81.113 47.9156 79.7836 48.7019C79.328 48.9684 79.297 47.9853 74.3835 47.1651C70.6788 46.5471 69.9635 48.1354 69.6414 47.8574C68.9032 47.2169 69.8025 46.6466 69.9546 46.4974C70.3044 46.1481 69.3877 45.8897 69.7119 45.304C70.0762 44.6499 71.3269 44.117 72.0494 44.029C72.7966 43.941 72.9232 44.0022 72.9109 43.8713C72.9096 43.8582 72.905 43.8454 72.8977 43.8344C72.8901 43.8237 72.8803 43.8144 72.8684 43.8084C72.3304 43.675 71.7643 43.7077 71.2449 43.9015C70.4208 44.185 70.4761 44.2572 70.4183 44.0715C69.1369 40.0387 69.2143 39.949 69.0472 38.7305C68.4811 34.6038 69.9971 31.7992 69.4391 32.398C69.3902 32.4422 69.3511 32.4958 69.3235 32.5557C67.116 39.1857 70.5853 44.0838 70.0035 44.4757C69.4059 44.879 69.0196 45.5271 69.4629 46.1221C69.5224 46.2025 69.6558 46.279 69.5351 46.3737C68.8126 46.9496 68.833 47.5574 69.2801 48.0312C69.5351 48.3032 67.7926 48.2782 63.7466 51.7963C63.2464 52.2315 59.5816 55.5091 58.9718 55.4993C58.8179 55.4993 58.812 55.3387 58.2828 55.3625C58.0317 55.3701 57.7885 55.4547 57.5871 55.6052C57.0541 56.0493 57.2849 56.3311 56.9109 56.3026C56.2641 56.3247 55.6228 56.4297 55.0023 56.6145C54.1242 56.8415 53.349 57.36 52.8046 58.0855C51.8067 59.2653 52.3872 59.3923 52.3851 59.6758C52.3422 59.8131 52.3154 59.9546 52.3061 60.0983C52.2997 60.5658 52.6936 60.3868 52.6613 60.6563C52.6541 60.7115 52.6601 60.7672 52.6788 60.8199C52.6975 60.8722 52.7281 60.9194 52.7685 60.9576C52.8093 60.9954 52.8581 61.0235 52.9113 61.0388C52.9648 61.0545 53.0213 61.0571 53.0757 61.0464C53.3732 60.9903 53.3626 60.9041 53.431 61.0758C53.6435 61.6236 54.352 61.1931 56.1974 60.4357C56.4791 60.3201 58.1035 59.7808 58.6241 59.3953C59.1911 58.9758 66.643 57.8878 73.2292 55.0276C74.5735 54.4296 75.8502 53.6905 77.0385 52.8227C77.1962 52.7109 77.2111 52.6646 77.2638 53.1117C77.3301 53.6829 77.4716 55.2282 77.4979 57.2057C77.7249 57.258 77.8537 57.2741 78.0037 57.3018C77.8617 55.4823 77.8503 54.7008 77.5787 52.8584C77.5268 52.5082 77.5103 52.4138 77.6038 52.3361C78.5069 51.6561 79.1843 50.7194 79.5469 49.6484C79.6671 49.2858 79.6064 49.1758 79.8626 49.0699C80.3365 48.8808 81.0118 48.336 80.9625 47.7699ZM38.7847 51.5315C38.9641 51.3603 39.1706 51.2196 39.3958 51.1159C39.4423 51.0819 39.4971 51.0611 39.5543 51.0555C39.6116 51.05 39.6692 51.0602 39.7214 51.0844C39.8459 51.1371 39.9578 51.2158 40.0496 51.3152C40.1415 51.4142 40.2113 51.532 40.2543 51.6603C40.2571 51.6731 40.2565 51.6862 40.2525 51.6986C40.2484 51.7109 40.2412 51.7219 40.2314 51.7304C39.972 51.948 39.6849 52.1299 39.3776 52.2719C39.228 52.3288 39.2271 52.3293 39.1107 52.2175C38.7103 51.832 38.5297 51.7776 38.7843 51.5307L38.7847 51.5315ZM31.7577 56.2316C31.6134 56.1351 31.5057 55.9932 31.4517 55.8279C31.3978 55.663 31.4008 55.4849 31.4602 55.3217C31.9503 54.2226 33.8368 53.5443 34.1262 53.6038C34.0374 53.7815 32.3838 54.759 33.0948 55.1963C33.8058 55.6336 35.2151 54.2906 35.2087 54.9838C35.2024 55.677 35.1484 55.6562 34.8594 56.9235C34.8517 56.9584 34.8332 56.9902 34.8064 57.014C34.7796 57.0383 34.7459 57.0531 34.7102 57.0565C33.6747 57.0183 32.663 56.7357 31.7577 56.2316ZM35.0697 56.9426C35.2482 56.6222 35.5683 55.263 35.4429 54.9073C35.3791 54.7246 36.278 55.0025 37.0579 54.7841C37.264 54.7263 37.3337 54.702 37.4328 54.878C38.5322 56.8334 34.9274 57.1976 35.0697 56.9426ZM39.5637 54.8363C39.5034 54.9315 39.344 54.8941 38.9878 54.9213C37.6903 55.0369 37.8726 55.076 37.726 54.8015C37.5322 54.439 37.641 54.8478 38.1204 54.2443C38.1506 54.2061 38.1914 53.9379 37.9321 54.141C37.015 54.861 35.3452 54.4334 35.1089 54.4904C34.1518 54.7186 34.7438 54.6238 33.6379 54.9923C33.4008 55.0722 33.0994 54.9596 33.1938 54.8261C33.3527 54.606 33.2002 54.7373 34.0506 54.0356C34.6618 53.5256 34.9231 53.3939 34.6494 53.283C34.0948 53.0577 32.7833 53.7271 32.7416 53.708C33.4522 52.1083 35.2823 52.2404 37.0341 52.3055C38.321 52.3543 38.2186 51.6255 38.9428 52.4423C39.0592 52.5749 39.1153 52.6973 39.2734 52.6263C39.3933 52.5724 39.5233 52.5375 39.6415 52.4789C39.7222 52.4389 39.7639 52.4674 39.8038 52.5294C39.9266 52.719 39.8769 52.7169 39.7711 52.756C39.6529 52.787 39.5423 52.8418 39.446 52.917C39.3036 53.0802 39.398 53.3161 39.4315 53.6706C39.4583 53.9494 39.4549 54.1806 39.729 54.2154C40.0435 54.2532 40.2718 54.1415 40.2718 54.3042C40.279 54.8818 40.0444 54.5992 39.7388 54.6867C39.6634 54.7122 39.6008 54.7658 39.5637 54.8363ZM40.143 52.9417C40.8808 52.7836 40.9887 52.7543 41.0389 52.9774C41.0503 53.028 41.0946 53.2966 41.1141 53.4785C41.1337 53.6604 41.1285 53.776 40.9322 53.8295C40.5854 53.9188 40.2277 53.9587 39.8697 53.9481C39.7728 53.9362 39.7329 53.8979 39.6776 53.3348C39.6581 53.1198 39.565 53.0658 40.143 52.9417ZM40.7898 55.3973C40.496 55.4318 40.1987 55.4228 39.9075 55.3706C39.8276 55.3599 39.7209 55.3472 39.6976 55.303C39.6813 55.2388 39.6846 55.1712 39.7069 55.1092C39.7293 55.0467 39.7697 54.9927 39.8229 54.9536C39.9008 54.9252 39.9847 54.9171 40.0665 54.9307C40.7299 55.0017 41.0155 54.9337 41.0138 55.1139C41.0135 55.1793 40.9913 55.2426 40.9507 55.2941C40.9101 55.3455 40.8535 55.382 40.7898 55.3973ZM50.3897 45.3248C51.479 45.0273 52.6775 45.3329 53.7047 45.8119C55.0698 46.4494 56.3244 47.3844 56.5038 47.7312C57.0512 48.7869 57.0988 48.843 57.1128 49.3007C57.1234 49.7176 55.5501 50.9642 53.2916 52.0721C49.7952 53.7832 41.4805 55.0246 40.6407 54.6799C40.5599 54.6459 40.5948 54.5669 40.5982 54.5099C40.6203 54.1385 40.6725 54.1946 40.9535 54.124C41.0861 54.0905 41.2858 54.0684 41.3444 53.9902C41.4503 53.6098 41.4354 53.2065 41.302 52.835C41.1944 52.4308 40.7919 52.492 40.3895 52.62C40.2543 52.6625 40.2888 52.6812 40.072 52.2413C40.4851 51.8975 40.6861 51.8137 40.4545 51.4079C40.3593 51.2379 40.3657 51.2238 40.5433 51.141C42.8494 50.0092 42.0308 50.5341 47.8198 46.8213C49.4356 45.7724 49.8691 45.4698 50.3897 45.327V45.3248ZM63.1045 15.7337C63.4513 14.0614 64.8856 14.432 64.9371 15.7418C64.9723 15.9849 64.957 16.2327 64.8929 16.4697C64.8287 16.7068 64.7165 16.9281 64.5631 17.1201C64.4815 17.2521 64.3667 17.3604 64.2299 17.4337C64.093 17.5071 63.9396 17.543 63.7845 17.5379C63.0059 17.6186 62.9978 16.251 63.1045 15.7359V15.7337ZM66.7297 25.3188C65.8372 28.1497 63.229 31.2548 62.3786 33.9093C61.7789 35.7755 62.0233 35.2425 61.9208 35.4635C61.6522 34.9779 61.4193 34.473 61.2251 33.9531C61.104 33.6263 61.2553 33.9607 60.5145 31.6122C59.2357 27.5538 60.3169 26.4803 60.4894 25.6163C60.6939 24.5865 60.4389 24.5287 60.6849 24.4263C61.7381 23.9817 61.2438 23.813 60.9676 23.9052C60.1809 24.2026 59.3432 24.3418 58.5026 24.3149C56.8676 24.1874 55.2233 23.1003 54.103 20.7496C53.5041 19.4958 53.2576 17.8349 53.1152 16.5225C53.0897 16.2879 53.5428 15.9246 53.7447 15.7975C53.8148 15.7529 54.0209 15.7635 54.0345 15.6976C54.0575 15.5795 53.8373 15.5051 53.7137 15.5149C53.176 15.5574 53.0783 16.0699 53.063 15.656C52.9571 12.6665 53.2559 13.7435 54.5309 12.3095C54.9755 11.8084 54.27 11.2045 54.3864 10.2032C54.6108 8.2767 56.4141 7.47005 56.1634 7.75437C55.531 8.46497 54.2619 9.55892 54.8811 11.2296C55.5726 13.0958 56.7571 12.0001 58.5417 12.6899C59.5192 13.0681 59.3415 14.1961 59.2527 15.1834C58.9433 18.5957 61.1784 17.4172 60.6106 20.2485C60.3216 21.6935 60.4406 21.898 60.5936 22.5775C60.6565 22.8576 60.6994 23.0727 60.9489 23.13C62.0653 23.3825 63.342 22.4547 63.9808 22.3544C64.3684 22.2941 64.2031 20.7441 64.1729 20.3493C64.116 19.6038 64.5091 20.7318 64.617 21.2906C64.7543 22.0131 64.7161 22.3106 64.9409 22.2528C65.1185 22.2103 65.0624 22.2911 65.2384 22.994C65.8168 25.3681 66.8904 24.8126 66.7297 25.3209V25.3188ZM57.8 55.8449C57.9016 55.7577 58.0232 55.6974 58.1536 55.6676C58.2841 55.6383 58.4197 55.6413 58.5489 55.6766C58.6781 55.7114 58.7967 55.7773 58.8948 55.8687C58.9926 55.9596 59.0665 56.0735 59.1107 56.1997C59.2591 56.7578 58.6462 57.3047 57.9738 57.1347C57.8378 57.1007 57.7154 57.0264 57.6219 56.9218C57.5289 56.8177 57.469 56.6876 57.4503 56.5487C57.4316 56.4097 57.4549 56.2686 57.517 56.1432C57.5795 56.0174 57.6781 55.9137 57.8 55.8449ZM58.4664 59.1063C58.0138 59.3239 58.5616 59.2313 56.8187 59.8841C54.9767 60.5734 55.165 60.6571 53.975 61.0562C53.7974 61.1149 53.7086 61.0447 53.6712 60.9287C53.6597 60.8994 53.6567 60.8675 53.6631 60.8369C53.6699 60.8063 53.6852 60.7783 53.7077 60.7562C53.8352 60.6002 55.3036 59.5687 55.1748 59.4268C55.046 59.2848 55.1017 59.3549 53.7532 60.3477C53.6643 60.4157 53.2632 60.7081 53.2313 60.7196C53.1816 60.7375 53.0324 60.8407 52.9291 60.726C52.9049 60.6954 52.8913 60.658 52.8896 60.6189C52.8879 60.5802 52.8985 60.5415 52.9202 60.5092C52.9988 60.3856 53.0932 60.2725 53.2011 60.1731C54.2411 59.0642 54.5564 58.9967 54.4281 58.8981C54.2666 58.7765 53.3533 59.6091 52.8182 60.1663C52.6286 60.3635 52.284 59.9695 53.1318 59.0634C53.6843 58.4726 54.1093 58.3154 54.0392 58.2015C53.9912 58.1216 53.9083 58.1615 53.8446 58.2015C53.3384 58.4828 52.8998 58.8717 52.5598 59.3409C52.5152 59.278 52.4901 59.2028 52.4884 59.1254C52.4863 59.0481 52.5075 58.972 52.5491 58.907C52.9104 58.3026 53.3941 57.7807 53.9695 57.3749C54.6805 56.8836 55.8455 56.6834 56.7048 56.5822C57.4617 56.4917 56.8404 56.9299 57.7375 57.4709C58.205 57.7195 58.3381 57.4284 58.4252 57.8109C58.4579 58.0026 58.65 59.0192 58.4652 59.1072L58.4664 59.1063ZM59.2484 58.7599C59.2442 58.836 59.2314 58.8709 59.1826 58.8993C59.0997 58.9389 59.0117 58.9661 58.9212 58.9809C58.9637 58.961 58.8264 59.0268 58.8111 58.9678C58.8035 58.5185 58.7465 58.0714 58.6411 57.635C58.5986 57.4892 58.6454 57.5113 58.7826 57.4382C58.9718 57.337 58.9735 57.3149 59.0347 57.4208C59.2098 57.8445 59.2824 58.3035 59.2472 58.7608L59.2484 58.7599ZM79.3237 49.183C77.7704 54.8453 65.2227 57.2516 59.6909 58.7854C59.5931 58.8122 59.5548 58.8279 59.5353 58.768C59.5429 58.2542 59.4486 57.7438 59.2574 57.2669C59.1609 57.0723 59.4172 56.9694 59.4529 56.479C59.4954 55.9141 59.0971 55.884 59.364 55.7225C62.4087 53.8376 64.5724 50.8626 68.9614 48.718C69.4718 48.4822 69.9661 48.2123 70.4408 47.9105C72.2437 46.7295 76.8116 47.9156 78.8133 48.7703C79.4177 49.0283 79.373 48.999 79.3225 49.1838L79.3237 49.183Z" fill="#20262C"/>
<path d="M59.0721 20.7274C57.565 21.5264 57.0712 21.4749 56.8336 21.5021C56.6211 21.5264 56.6861 21.616 56.7286 21.6194C57.0104 21.6715 57.299 21.6745 57.5816 21.6284C58.8141 21.4125 59.0291 21.0198 59.0168 21.2459C58.9157 21.7547 58.6738 22.2248 58.3185 22.6029C58.1264 22.8056 57.9454 22.8889 57.9785 22.9522C58.0334 23.0585 58.9038 22.6509 59.2795 21.6513C59.3275 21.4968 59.3657 21.3394 59.3934 21.18C59.33 20.8064 59.3351 20.588 59.0721 20.7274Z" fill="#20262C"/>
<path d="M56.4221 20.0685C56.2814 20.1072 56.1382 20.1369 55.9937 20.1573C55.9533 20.163 55.9121 20.1577 55.8743 20.1418C55.8364 20.126 55.8037 20.1003 55.7795 20.0674C55.7553 20.0346 55.7404 19.9958 55.7361 19.9551C55.7323 19.9145 55.7391 19.8735 55.7565 19.8364C55.8849 19.453 55.9478 19.0507 55.9431 18.6464C55.9639 18.3885 55.921 18.1293 55.8177 17.8921C55.8114 17.8714 55.7982 17.8534 55.7808 17.8406C55.7633 17.8279 55.7425 17.8209 55.7208 17.8209C55.6992 17.8209 55.6783 17.8279 55.6609 17.8406C55.6435 17.8534 55.6303 17.8714 55.6239 17.8921C55.5904 18.1693 55.5797 18.449 55.5921 18.728C55.5572 19.1366 55.4786 19.5401 55.3566 19.9316C55.3409 20.0475 55.3596 20.1654 55.4102 20.2709C55.4603 20.3764 55.5406 20.4648 55.6405 20.5255C55.7404 20.5861 55.856 20.6162 55.9729 20.6122C56.0897 20.6082 56.2028 20.5702 56.2984 20.5028C56.5674 20.3651 56.6201 20.0302 56.4221 20.0685Z" fill="#20262C"/>
<path d="M56.0542 15.3692C56.1685 15.1881 56.3249 15.0371 56.5098 14.9288C56.6947 14.8205 56.9029 14.7582 57.1167 14.747C57.3109 14.72 57.5086 14.7444 57.6905 14.8179C57.8719 14.8914 58.0313 15.0113 58.152 15.1656C58.1626 15.172 58.2472 15.1529 58.2017 15.0241C57.7602 13.7793 55.925 14.4112 55.7767 15.2714C55.7733 15.4907 55.9101 15.6 56.0542 15.3692Z" fill="#20262C"/>
<path d="M57.2222 17.0375C57.1754 17.1603 57.1555 17.2916 57.1636 17.4227C57.1716 17.5537 57.2069 17.6816 57.2681 17.7979C57.285 17.8312 57.3118 17.8583 57.3449 17.8754C57.3781 17.8925 57.4159 17.8987 57.4528 17.8931C57.7209 17.8931 57.6729 17.3982 57.627 17.1229C57.593 16.9169 57.3046 16.8476 57.2222 17.0375Z" fill="#20262C"/>
<path d="M54.0754 17.9261C54.0958 18.0476 54.1221 18.168 54.1544 18.2867C54.2296 18.5276 54.5087 18.545 54.5665 18.302C54.736 17.5888 54.145 17.0888 54.0754 17.9261Z" fill="#20262C"/>
<path d="M51.1723 57.156C50.8748 57.0362 50.2649 56.6996 47.1493 55.881C46.7217 55.7688 46.6694 55.6978 44.1704 56.9172C37.0568 60.3881 37.5209 60.1047 37.5209 60.8556C37.5349 60.8556 37.4809 61.2182 37.5863 61.3482C38.0704 61.9432 42.0063 63.2964 42.7548 63.4588C42.9239 63.5132 43.1033 63.5276 43.2792 63.5013C43.4547 63.4753 43.6222 63.4086 43.768 63.3075C46.2687 61.9402 48.6623 60.386 50.9288 58.658C51.0975 58.5628 51.2318 58.4166 51.3113 58.2398C51.4158 57.9112 51.4923 57.2839 51.1723 57.156ZM42.9422 63.1294C42.935 63.2386 43.0404 63.2994 42.0225 62.9517C37.7546 61.4948 37.7631 61.3129 37.7818 61.0639C37.8065 60.7388 37.7359 60.7974 37.8345 60.6491C40.682 61.7804 42.9885 62.5097 42.9728 62.5403C42.8997 62.7052 42.9626 62.8361 42.9422 63.1294ZM42.8721 61.7269C42.5074 61.5569 42.3225 61.5994 42.354 61.406C42.4475 60.8374 42.6515 61.1612 40.733 60.4285C40.6303 60.3881 40.5161 60.3881 40.4134 60.4285C40.2643 60.4889 40.1032 60.5178 39.9532 60.5781C39.8031 60.6385 39.7326 60.6321 39.0148 60.3308C39.4002 59.9755 46.7876 56.3987 46.9049 56.4327C49.9708 57.3184 50.086 57.3371 49.9016 57.4624C47.5084 59.0842 48.7791 58.1301 44.125 61.1395C43.1305 61.7826 43.0616 61.8153 42.8721 61.7269ZM51.1498 57.6524C51.1154 58.0081 51.1532 58.281 50.4698 58.7192C46.8841 61.0142 49.7048 59.3567 44.0714 62.8395C43.2104 63.3716 43.2184 63.3797 43.2155 63.2191C43.2044 62.6343 43.1806 62.6049 43.3931 62.4787C50.9488 58.006 51.1774 57.3681 51.1498 57.6524Z" fill="#20262C"/>
<path d="M43.2181 59.6867C43.1442 59.6391 42.7902 59.6757 44.3831 59.1491C44.44 59.13 44.505 59.0607 44.5607 59.1266C44.6032 59.1789 43.8765 59.9549 44.4719 59.9434C44.9028 59.7658 47.6169 58.1618 47.8923 57.9982C48.0079 57.9298 48.4983 57.7105 48.1528 57.56C47.701 57.3637 47.8502 57.4087 45.6279 58.835C45.0057 59.2341 44.9759 59.28 45.1302 59.0271C45.2084 58.8996 45.5242 58.4827 45.157 58.484C45.0295 58.484 42.9933 59.3238 42.7987 59.3212C42.8191 59.1674 42.8314 59.226 42.8501 59.1436C42.8586 59.1194 42.8603 59.093 42.8539 59.0679C42.848 59.0424 42.8348 59.0199 42.8157 59.0021C42.797 58.9846 42.7732 58.9727 42.7477 58.9685C42.7222 58.9638 42.6962 58.9672 42.6724 58.9774C42.5526 59.0199 42.4599 59.1104 41.9614 59.7212C41.847 59.861 41.8721 60.1185 42.1739 60.0765C42.6159 60.0127 43.6176 59.9426 43.2181 59.6867Z" fill="#20262C"/>
<path d="M33.5753 15.3065C35.0203 11.5894 36.0254 9.74834 36.0632 9.45764C35.7836 9.62764 33.4775 14.3354 32.8039 17.0919C32.9888 17.7745 32.8128 17.2653 33.5753 15.3065Z" fill="#20262C"/>
<path d="M38.9373 17.6955C44.3641 12.78 44.6247 12.808 44.7598 12.6044C44.5499 12.4268 39.3691 16.8149 38.7949 17.5675C38.7841 17.5779 38.7757 17.5904 38.7702 17.6043C38.7647 17.6182 38.7623 17.6331 38.763 17.648C38.7638 17.6629 38.7677 17.6775 38.7746 17.6908C38.7815 17.704 38.7912 17.7156 38.803 17.7248C38.8599 17.7746 38.899 17.7299 38.9373 17.6955Z" fill="#20262C"/>
<path d="M42.308 22.382C42.0555 22.4763 41.951 22.6132 41.9863 22.6637C42.1367 22.883 53.4379 18.2374 42.308 22.382Z" fill="#20262C"/>
<path d="M28.3179 17.2973C27.0888 14.205 26.586 11.1658 26.5282 11.7723C26.4921 12.1492 27.98 18.0555 28.3179 17.2973Z" fill="#20262C"/>
<path d="M23.9925 18.5679C24.6453 18.3933 23.4485 18.5254 21.6788 16.692C20.9563 15.944 21.0948 16.077 20.9839 16.0396C21.0238 16.1607 20.949 16.0549 21.2414 16.4102C22.0205 17.3563 22.8012 18.2347 23.9925 18.5679Z" fill="#20262C"/>
<path d="M38.8364 19.9023C38.7841 19.7688 38.7352 19.6668 38.5478 19.6587C35.7738 19.5355 13.8336 20.269 5.80196 21.714C4.41051 21.9644 4.67443 21.8271 4.82446 23.4752C5.33191 29.0538 6.50151 40.8849 8.26696 47.2689C8.84666 49.3658 8.78758 49.4755 9.04811 49.4665C10.5305 49.4143 19.8508 46.9786 19.8006 47.2289C19.5456 48.5086 19.3862 49.3267 19.3165 49.8584C18.9583 52.5886 18.9421 52.711 19.6344 53.071C20.572 53.564 21.5698 53.9324 22.6026 54.1675C23.1403 54.2665 29.5301 52.3017 30.0486 52.1236C31.483 51.6328 31.5527 51.7139 31.5238 50.7985C31.5102 50.3735 31.452 50.586 28.6402 49.583C28.5509 49.5511 28.528 49.5001 28.5008 49.2638C28.4128 47.8834 28.5048 46.4979 28.7745 45.1413C28.8357 44.7363 34.0951 43.7936 40.7854 41.6138C41.7629 41.2955 41.9499 41.2211 41.9202 40.9521C41.6541 38.5814 39.6859 22.0574 38.8364 19.9023ZM31.2671 51.1202C31.2616 51.3671 31.242 51.3922 30.9943 51.4666C21.5661 54.2941 22.8406 53.7879 22.8185 53.5312C22.7488 52.7216 22.4067 53.3476 29.4834 51.2651C31.4813 50.6769 31.1872 50.5749 31.2671 51.1202ZM30.5782 50.5975C30.2229 50.8287 24.9503 52.2256 22.9086 52.8138C22.8198 52.8393 22.7884 52.8138 21.9069 52.6013C20.1619 52.1797 20.1874 52.0153 19.943 52.042C19.8321 52.0544 19.9239 52.1695 20.0229 52.2201C20.6135 52.5019 21.2307 52.7242 21.8653 52.884C22.5236 53.0799 22.5542 52.9796 22.5317 53.2074C22.4773 53.7552 22.5763 53.8649 22.3982 53.8071C21.6393 53.5759 20.8952 53.2983 20.1704 52.9762C19.3131 52.6281 19.3442 52.6009 19.4729 51.6387C19.5953 50.7254 19.9485 48.8762 20.1589 47.5587C20.2299 47.1142 20.1589 47.0266 20.3569 46.9828C23.3825 46.3139 28.3703 44.939 28.3414 45.1264C28.1115 46.5119 28.0652 47.9217 28.2037 49.3191C28.2755 49.8898 28.3852 49.7815 30.5782 50.5975ZM41.4216 40.9878C40.2741 41.3512 38.3383 42.1578 28.7566 44.5629C28.6151 44.5982 9.09953 49.2604 9.04726 48.9323C8.72086 46.8885 6.85936 39.363 5.37823 25.4349C5.22821 24.0243 5.25073 23.8352 5.07223 22.3243C5.05651 22.1913 5.15723 22.2121 5.51678 22.1603C18.0033 20.3549 38.3735 19.9448 38.3825 19.9448C38.6124 19.9448 38.5852 19.7871 38.9154 21.4811C39.2733 23.3159 41.3804 38.9775 41.601 40.8331C41.6278 40.9487 41.5283 40.9542 41.4216 40.9878Z" fill="#20262C"/>
<path d="M37.4514 21.6002C37.2495 20.9419 37.6886 21.3656 22.7889 21.9291C22.7736 21.8305 10.8953 22.6708 7.68993 23.1387C6.82378 23.2662 6.52628 23.3805 6.53478 23.6372C6.56028 24.4167 8.30236 36.3154 8.30321 36.3252C8.59688 39.069 10.1702 47.0238 10.1702 47.0514C10.2259 47.439 10.6688 47.2265 12.4023 46.8559C18.2529 45.6026 35.9099 41.6925 39.5059 40.3083C39.9394 40.1408 39.9912 40.0877 39.9627 39.7558C39.7847 37.6975 38.1935 24.0227 37.4514 21.6002ZM39.6045 39.9687C35.6095 41.3992 22.0379 44.2999 16.5724 45.5201C10.4869 46.8801 10.4843 47.0501 10.441 46.8529C9.68148 43.3998 6.82846 24.0146 6.82506 23.6789C6.82506 23.5675 6.63678 23.4902 12.1354 22.9904C22.0192 22.0915 33.9073 21.8501 36.9979 21.5381C37.4119 21.4956 37.6873 24.9318 38.9466 33.7552C39.264 35.9767 39.2016 35.1849 39.6338 39.0809C39.7294 39.9559 39.7298 39.9419 39.6045 39.9687Z" fill="#20262C"/>
<path d="M27.3077 49.8306C27.1857 49.8306 24.7713 50.1978 24.6327 50.225C22.7202 50.6032 21.7614 50.9313 20.7555 51.1821C20.6845 51.1999 20.628 51.2267 20.6437 51.3138C20.6734 51.463 20.8213 51.3882 22.6527 50.9815C25.4079 50.3695 27.2758 50.1842 27.5546 49.9283C27.5827 49.9037 27.4339 49.831 27.3077 49.8306Z" fill="#20262C"/>
<path d="M14.3461 38.2254L16.2035 37.7802L15.1243 33.2778L17.9931 32.5902L17.5619 30.7911L9.967 32.6114L10.3982 34.4105L13.2669 33.7229L14.3461 38.2254ZM13.2042 34.1904L10.6563 34.8011L10.3308 34.6014L10.2725 34.6154L9.76206 32.4857L17.6876 30.5862L17.7016 30.6446L18.0271 30.8442L18.5235 32.9155L15.6548 33.6031L16.7339 38.1056L14.6042 38.616L14.2787 38.4164L14.2204 38.4304L13.2042 34.1904ZM25.1912 35.801L24.7059 35.3208L21.2148 36.1576L20.9169 37.103L18.3885 37.709L18.063 37.5094L17.9561 37.535L20.1663 30.496C20.3216 30.2428 20.5052 30.0651 20.7247 29.9509C20.9343 29.8389 21.1218 29.7631 21.2969 29.7212C21.4622 29.6815 21.6637 29.6641 21.9111 29.6665C22.1487 29.6712 22.3929 29.7464 22.6558 29.8993L22.7375 29.9826L22.9786 30.1305L28.1131 35.3783L25.5555 35.9913L25.2398 35.7893L25.1912 35.801ZM24.5644 34.9023L25.2682 35.6077L27.466 35.0809L22.5115 30.0265C22.2945 29.8934 22.0841 29.8307 21.8779 29.8287C21.6741 29.8364 21.4921 29.8492 21.3365 29.8865C21.1809 29.9238 21.0129 29.9949 20.8277 30.0804C20.6448 30.1756 20.4857 30.3269 20.3526 30.5439L18.2276 37.2951L20.4351 36.766L20.7232 35.8229L24.5644 34.9023ZM21.3442 33.8231L21.8726 32.1231L23.1044 33.4012L21.3442 33.8231ZM22.266 32.8207L22.0437 33.4806L22.7536 33.3105L22.266 32.8207ZM31.9788 32.2512L33.9504 33.5268L36.3037 32.9628L32.6701 30.5019L34.7934 26.6612L32.4401 27.2253L31.2609 29.256L29.299 27.9781L26.9457 28.5421L30.5817 31.0127L28.456 34.8436L30.8093 34.2796L31.9788 32.2512ZM32.3695 32.7231L31.2814 34.6189L28.5488 35.2739L28.2233 35.0742L28.0872 35.1069L30.3385 31.071L26.4976 28.4747L29.3469 27.7918L31.198 28.9934L32.3129 27.0809L35.1622 26.398L35.1105 26.4824L35.448 26.6894L33.2434 30.6627L36.7518 33.0302L36.7324 33.0348L37.0384 33.2391L34.2669 33.9034L33.9414 33.7038L33.9025 33.7131L32.3695 32.7231Z" fill="#20262C"/>
</svg>
