<svg width="650" height="420" viewBox="0 0 650 420" fill="none" xmlns="http://www.w3.org/2000/svg">
<path fill-rule="evenodd" clip-rule="evenodd" d="M315.462 0.312661C425.499 4.66057 588.324 63.2847 623.393 139.893C659.976 219.811 583.118 335.249 492.552 387.17C394.932 443.136 257.619 421.403 157.327 368.038C56.8113 314.554 -9.52194 226.746 27.8282 139.893C66.0563 50.9977 188.539 -4.7025 315.462 0.312661Z" fill="url(#paint0_linear_578_3874)"/>
<path fill-rule="evenodd" clip-rule="evenodd" d="M298.414 179.466C298.12 180.033 297.259 185.766 300.64 185.766C301.231 185.768 301.802 185.556 302.249 185.17C302.697 184.785 302.99 184.251 303.076 183.666C303.79 177.24 299.59 177.261 298.414 179.466ZM328.864 179.382C329.053 181.608 329.305 183.582 331.531 183.582C332.122 183.584 332.693 183.372 333.14 182.986C333.588 182.601 333.881 182.067 333.967 181.482C334.012 180.131 333.864 178.78 333.526 177.471C332.308 175.224 328.549 175.77 328.864 179.382ZM314.164 199.668C314.815 199.668 320.464 199.395 321.787 198.366C322.186 198.072 322.144 197.505 322.144 196.98C322.018 191.023 321.442 185.085 320.422 179.214C320.422 178.899 320.149 178.836 319.981 178.878C319.813 178.92 319.729 179.214 319.75 179.718C319.75 181.44 319.603 182.028 320.212 191.667C320.611 197.967 320.443 196.203 320.569 197.253C318.6 197.975 316.578 198.544 314.521 198.954C313.156 199.248 314.122 199.668 314.164 199.668ZM320.8 214.2C319.242 215.036 317.524 215.53 315.76 215.649C315.671 215.649 315.585 215.685 315.522 215.748C315.459 215.811 315.424 215.896 315.424 215.985C315.424 216.074 315.459 216.16 315.522 216.223C315.585 216.286 315.671 216.321 315.76 216.321C316.746 216.676 317.8 216.804 318.843 216.695C319.886 216.586 320.891 216.243 321.783 215.692C322.675 215.141 323.431 214.396 323.995 213.513C324.56 212.629 324.917 211.629 325.042 210.588C325.053 210.546 325.055 210.501 325.049 210.457C325.043 210.414 325.028 210.372 325.006 210.334C324.983 210.296 324.954 210.262 324.919 210.236C324.883 210.209 324.843 210.19 324.8 210.179C324.758 210.168 324.713 210.165 324.669 210.172C324.626 210.178 324.584 210.192 324.546 210.215C324.508 210.237 324.474 210.267 324.448 210.302C324.421 210.337 324.402 210.378 324.391 210.42C323.541 211.969 322.303 213.272 320.8 214.2ZM226.678 52.2484C232.075 70.2874 251.164 69.4054 253.39 70.7494C253.39 70.9594 257.758 87.7804 259.522 90.0904C260.509 91.3714 262.882 90.8674 264.457 90.5734C268.153 89.8384 272.437 89.6074 275.566 87.1084C276.364 86.4574 275.902 83.8114 275.692 82.9084C275.023 79.1325 274.097 75.4067 272.92 71.7574C272.457 70.6564 272.064 69.5271 271.744 68.3764C273.193 67.0926 274.769 65.9598 276.448 64.9954C279.219 63.1077 281.683 60.8059 283.756 58.1704C287.766 52.2961 289.578 45.1972 288.875 38.1197C288.173 31.0422 285 24.4384 279.913 19.4674C264.352 4.20038 236.212 9.17738 227.077 28.4344C223.948 35.1124 224.557 45.2344 226.678 52.2484ZM274.6 86.1004C271.807 88.3474 267.691 88.6414 264.1 89.3764C263.134 89.5864 260.845 90.1534 260.236 89.3764C259.048 87.6612 258.193 85.7377 257.716 83.7064C263.156 82.9398 268.476 81.4862 273.55 79.3804C274.236 81.5547 274.59 83.8203 274.6 86.1004ZM273.319 78.5194C267.953 79.5194 262.683 80.9808 257.569 82.8874C257.026 80.4501 256.325 78.0509 255.469 75.7054C260.894 75.1371 266.216 73.8227 271.282 71.7994C272.129 74.0193 272.831 76.2921 273.382 78.6034L273.319 78.5194ZM228.4 29.0854C237.199 10.8994 264.1 6.30038 278.8 20.6854C283.578 25.3717 286.567 31.5811 287.249 38.2387C287.932 44.8962 286.265 51.583 282.538 57.1414C278.905 62.2654 271.555 65.7934 270.421 67.6414C270.022 68.2924 270.757 69.9514 271.219 71.1274C268.825 71.5894 266.2 72.1564 263.848 72.6814C263.218 69.8044 260.278 58.1914 259.186 55.4614C258.766 54.3694 258.388 54.4534 257.275 54.7684C251.143 54.7684 244.402 53.2144 242.239 47.4394C241.978 46.7624 241.794 46.0579 241.693 45.3394C241.399 42.3154 243.793 38.7874 246.439 39.0394C246.061 41.3494 246.439 45.7594 248.413 47.0824C250.387 48.4054 252.613 46.3054 252.613 44.4154C252.501 43.0525 252.058 41.7375 251.322 40.5847C250.587 39.4319 249.581 38.4761 248.392 37.8004C248.722 37.0507 249.211 36.3817 249.826 35.84C250.44 35.2982 251.165 34.8965 251.95 34.6627C252.735 34.429 253.562 34.3688 254.372 34.4863C255.183 34.6039 255.958 34.8963 256.645 35.3434C254.986 38.5774 256.645 45.9904 259.585 44.2474C262.525 42.5044 261.559 38.2204 259.732 35.8474C258.85 34.6924 258.661 35.0074 259.102 34.6714C262.525 32.1724 266.41 35.0704 268.048 38.8714C270.4 44.1004 265.36 50.5474 262.168 52.5004C262.09 52.5477 262.034 52.6241 262.012 52.7127C261.991 52.8013 262.005 52.8949 262.052 52.9729C262.1 53.0509 262.176 53.1068 262.265 53.1285C262.353 53.1501 262.447 53.1357 262.525 53.0884C266.431 50.7994 271.366 44.0584 269.119 38.3884C266.872 32.7184 261.223 30.5344 257.653 33.9154C256.754 33.2986 255.728 32.8914 254.651 32.7237C253.574 32.556 252.473 32.6322 251.429 32.9465C250.385 33.2609 249.425 33.8055 248.619 34.5401C247.814 35.2748 247.184 36.1808 246.775 37.1914C242.869 36.6874 239.572 41.2444 240.013 45.3814C240.25 47.2099 240.941 48.9499 242.023 50.4428C243.105 51.9357 244.544 53.134 246.208 53.9284C248.182 54.8734 255.196 56.5954 257.968 55.7974C258.934 57.8974 262.441 70.2244 263.071 72.8074C253.747 74.9074 255.637 75.8944 255.175 74.5294C254.629 72.8284 254.293 70.3294 253.831 70.1614C242.239 67.5364 231.781 65.6044 227.875 51.8494C225.964 45.1924 225.46 35.3224 228.4 29.0854ZM247.888 39.4594C248.684 40.024 249.349 40.7532 249.838 41.5974C250.327 42.4416 250.629 43.3812 250.723 44.3524C250.723 44.9194 249.442 46.4524 248.623 44.7724C247.996 43.076 247.773 41.2569 247.972 39.4594H247.888ZM257.8 36.2464C259.48 37.8844 260.53 41.7064 258.703 42.8194C258.07 41.8614 257.66 40.7733 257.503 39.6356C257.347 38.4979 257.448 37.3397 257.8 36.2464ZM194.8 116.403C203.347 113.736 213.7 116.046 217.69 125.496C224.599 141.498 206.329 149.646 206.518 150.486C206.938 152.586 207.694 156.261 208.009 158.382C208.034 158.561 208.129 158.722 208.273 158.83C208.416 158.938 208.597 158.985 208.775 158.96C208.954 158.935 209.115 158.84 209.223 158.696C209.331 158.552 209.378 158.372 209.353 158.193C209.101 156.093 208.828 153.069 208.534 150.885C211.503 149.694 214.25 148.012 216.661 145.908C231.487 128.415 214.939 106.344 193.792 113.253C190.443 114.23 187.482 116.224 185.318 118.96C183.154 121.696 181.896 125.037 181.717 128.52C181.045 136.794 187.639 143.934 198.286 143.01C198.446 142.982 198.592 142.898 198.696 142.773C198.801 142.649 198.859 142.491 198.859 142.328C198.859 142.165 198.801 142.007 198.696 141.882C198.592 141.758 198.446 141.674 198.286 141.645C188.836 142.128 183.775 135.345 184.678 128.835C184.887 125.975 185.97 123.249 187.781 121.025C189.591 118.801 192.042 117.188 194.8 116.403ZM351.649 61.6144C351.827 61.6617 352.017 61.6363 352.176 61.5438C352.336 61.4512 352.452 61.2991 352.499 61.1209C352.547 60.9427 352.521 60.7529 352.429 60.5934C352.336 60.4339 352.184 60.3177 352.006 60.2704C342.913 57.7084 340.288 49.6654 343.228 43.7644C344.373 41.1289 346.301 38.9093 348.75 37.4066C351.199 35.904 354.052 35.191 356.92 35.3644C372.712 35.7634 379.642 50.2954 373.72 60.6694C369.793 67.7674 364.543 69.6784 357.823 70.5604C357.611 70.5902 357.414 70.6883 357.262 70.8399C357.111 70.9914 357.013 71.1881 356.983 71.4004C356.752 73.3324 356.248 77.1334 355.87 79.3384C355.834 79.5138 355.869 79.6965 355.967 79.8461C356.066 79.9958 356.219 80.1002 356.395 80.1364C356.57 80.1726 356.753 80.1376 356.903 80.0391C357.052 79.9407 357.157 79.7868 357.193 79.6114C357.676 77.3434 358.327 74.6764 358.768 72.4294C361.958 72.2578 365.096 71.5478 368.05 70.3294C375.169 66.1294 379.495 59.4934 378.928 51.0934C377.605 31.3744 348.835 24.3184 340.561 42.6934C337.348 50.1694 341.254 59.2624 351.649 61.6144ZM468.325 160.146C468.084 156.254 466.696 152.52 464.335 149.415C462.064 146.86 459.293 144.796 456.195 143.352C453.096 141.907 449.734 141.112 446.317 141.015C442.838 140.854 439.395 141.778 436.465 143.659C433.534 145.54 431.26 148.286 429.958 151.515C426.661 159.138 430.63 168.021 440.983 170.541C441.075 170.583 441.175 170.604 441.277 170.602C441.378 170.601 441.477 170.578 441.568 170.534C441.66 170.49 441.74 170.426 441.804 170.348C441.868 170.27 441.914 170.178 441.939 170.08C441.964 169.982 441.967 169.88 441.948 169.78C441.929 169.681 441.889 169.587 441.83 169.505C441.771 169.423 441.694 169.354 441.606 169.305C441.518 169.255 441.42 169.226 441.319 169.218C432.289 166.488 429.601 158.718 432.562 152.712C433.707 150.077 435.635 147.857 438.084 146.355C440.533 144.852 443.386 144.139 446.254 144.312C449.166 144.393 452.032 145.064 454.678 146.284C457.323 147.504 459.694 149.248 461.647 151.41C463.614 153.978 464.782 157.067 465.007 160.293C466.498 178.815 446.548 178.878 446.359 180.348C446.107 182.448 445.645 186.144 445.246 188.286C445.21 188.462 445.245 188.644 445.343 188.794C445.442 188.944 445.595 189.048 445.771 189.084C445.946 189.121 446.129 189.086 446.279 188.987C446.428 188.889 446.533 188.735 446.569 188.559C447.073 186.312 447.703 183.624 448.144 181.377C451.34 181.198 454.484 180.488 457.447 179.277C464.461 175.161 468.892 168.63 468.325 160.146ZM217.354 174.3C218.257 170.562 215.548 166.635 212.86 166.95C211.117 166.762 209.361 166.713 207.61 166.803C203.053 167.895 200.911 173.859 205.195 176.778C210.109 180.054 216.472 177.786 217.354 174.3ZM214.099 173.88C213.353 174.503 212.44 174.89 211.474 174.993C205.762 175.791 204.544 170.793 208.387 169.155L212.902 168.315C214.855 168.483 215.296 172.662 214.099 173.775V173.88ZM354.127 87.3604C349.234 85.5754 343.942 91.0984 347.407 95.7604C350.872 100.422 357.739 100.422 359.713 97.3144C361.687 94.2064 360.49 89.5024 357.844 88.9144C357.613 88.8094 355.786 87.9694 354.127 87.3604ZM356.773 95.7604C355.833 96.0801 354.827 96.1514 353.852 95.9674C352.877 95.7834 351.966 95.3504 351.208 94.7104C350.587 94.2648 350.077 93.6829 349.717 93.0094C349.108 91.3084 351.292 89.5654 352.888 89.4604L357.424 90.1114C359.188 91.0564 358.306 95.1724 356.773 95.8234V95.7604ZM447.157 197.988C446.737 197.799 444.574 196.896 443.461 196.476C438.547 194.691 433.276 200.214 436.741 204.876C440.206 209.538 447.052 209.538 449.047 206.43C451.042 203.322 449.824 198.576 447.157 197.988ZM446.086 204.939C445.146 205.257 444.141 205.327 443.166 205.143C442.191 204.959 441.28 204.528 440.521 203.889C439.906 203.429 439.397 202.842 439.03 202.167C438.442 200.487 440.605 198.744 442.201 198.639L446.737 199.29C448.501 200.172 447.619 204.267 446.086 204.939Z" fill="#20262C"/>
<path fill-rule="evenodd" clip-rule="evenodd" d="M430 313.825C425.8 293.161 409.462 261.325 389.848 253.198L385.9 244.945C385.872 244.885 385.831 244.832 385.78 244.789C385.73 244.746 385.671 244.715 385.607 244.697C385.543 244.679 385.476 244.675 385.411 244.685C385.346 244.695 385.283 244.719 385.228 244.756L381.028 247.465C379.694 238.551 375.621 230.273 369.373 223.777C373.741 217.036 380.734 214.978 387.958 214.663C393.943 214.411 398.353 214.054 401.818 208.93C408.685 198.808 407.068 188.938 399.004 179.53C386.719 165.208 381.889 169.492 375.904 161.575C364.522 146.707 361.939 124.72 345.181 113.275C323.761 98.7635 312.211 110.461 307.717 114.073C301.144 110.083 286.486 111.469 280.186 116.866C274.831 121.444 267.733 127.366 264.982 133.981C259.123 147.946 259.753 164.473 251.185 177.136C249.085 180.286 245.494 182.407 242.953 185.389C239.465 189.762 236.498 194.526 234.112 199.585C231.004 205.465 228.631 211.996 231.466 218.086C235.267 226.234 243.772 234.004 252.844 233.416C258.094 233.059 265.045 229.909 269.98 231.988C272.92 233.206 274.054 236.041 276.28 238.414C281.32 244.021 293.08 245.722 299.59 241.837C292.429 250.951 281.509 250.636 262.462 261.136C233.23 277.222 222.562 295.492 219.433 314.203C218.236 320.024 217.353 325.905 216.787 331.822C214.981 362.335 224.242 401.017 254.272 407.422C262.504 409.186 271.933 410.32 280.081 408.283C295.516 404.44 313.933 394.045 327.457 385.603C333.757 381.676 357.067 365.947 367.903 363.889C368.555 369.493 369.968 374.983 372.103 380.206C380.776 398.035 394.657 408.577 414.103 403.999C426.703 401.038 430.294 387.619 430.63 374.767C436.951 361.201 431.932 323.695 430 313.825ZM357.34 215.503C361.078 216.196 363.64 219.703 366.412 222.559C373.741 229.888 378.781 237.742 380.293 247.759C374.224 251.623 370.276 254.059 370.192 254.185C370.108 254.311 367.189 246.877 365.425 245.974C362.786 244.663 360.392 242.909 358.348 240.787C356.773 239.044 354.841 235.978 355.093 233.668C356.209 233.074 357.427 232.696 358.684 232.555V231.253C352.195 231.442 349.969 237.364 349.381 238.687C348.961 239.632 348.373 240.577 347.029 240.43C345.685 240.283 345.202 238.729 345.706 237.343C346.21 235.957 347.428 229.867 356.017 228.544C356.124 228.528 356.228 228.492 356.321 228.437C356.415 228.382 356.497 228.309 356.562 228.222C356.627 228.135 356.675 228.036 356.702 227.931C356.729 227.826 356.736 227.717 356.72 227.609C356.705 227.501 356.669 227.398 356.614 227.304C356.559 227.211 356.486 227.129 356.399 227.064C356.312 226.998 356.213 226.951 356.108 226.924C356.003 226.897 355.893 226.89 355.786 226.906C353.988 227.134 352.246 227.682 350.641 228.523C349.198 229.227 347.917 230.224 346.88 231.449C345.842 232.675 345.071 234.102 344.614 235.642C343.606 238.519 340.078 237.238 340.918 234.76C341.763 232.349 343.021 230.104 344.635 228.124C346.427 226.415 348.58 225.13 350.935 224.365C352.783 223.609 354.358 223.966 354.778 223.357C355.198 222.748 354.211 220.711 353.707 220.102C350.998 216.868 343.207 219.661 340.225 216.049C338.314 213.676 342.325 213.592 343.942 213.382C348.478 212.878 352.783 214.642 357.34 215.503ZM365.047 267.541C359.044 269.497 352.92 271.061 346.714 272.224C348.814 260.275 350.242 250.027 350.032 246.31C354.925 247.255 360.532 247.927 366.664 248.935C368.323 251.686 369.226 253.996 369.625 254.647L365.551 257.23C365.341 257.503 365.383 256.369 365.047 267.541ZM342.241 328.21C343.171 332.242 343.83 336.332 344.215 340.453C335.605 339.907 329.032 340.012 325.798 339.886C325.924 333.985 325.987 332.158 326.092 330.919C331.392 329.575 336.793 328.669 342.241 328.21ZM309.208 276.487C321.121 276.571 333.019 275.602 344.761 273.589C341.023 293.749 335.332 317.983 332.644 322.834C326.47 305.992 327.1 305.929 309.208 276.487ZM334.408 322.561C337.81 314.938 342.976 292.195 346.42 273.253C352.688 272.078 358.869 270.478 364.921 268.465C364.27 291.145 364.081 319.453 365.446 342.196C361.456 341.839 355.66 341.335 350.032 340.894C349.675 337.492 348.268 325.648 347.071 322.54C346.756 321.7 346.378 321.364 344.971 321.322C341.459 321.475 337.963 321.89 334.513 322.561H334.408ZM341.905 242.446C339.778 241.202 338.079 239.342 337.033 237.112C338.005 237.522 339.019 237.824 340.057 238.015C340.45 238.458 340.958 238.784 341.525 238.958C342.092 239.132 342.695 239.147 343.27 239.002C344.215 238.708 343.606 238.582 344.11 239.905C344.303 240.437 344.629 240.912 345.057 241.284C345.485 241.657 346.001 241.914 346.555 242.031C347.11 242.149 347.686 242.123 348.228 241.957C348.77 241.791 349.261 241.489 349.654 241.081C350.473 240.346 350.536 239.464 351.523 237.574C352.489 237.385 353.434 237.133 354.358 236.86C356.857 243.412 364.69 246.583 365.236 247.066C356.017 245.701 347.848 244.84 342.01 242.446H341.905ZM301.648 239.926C306.688 234.088 305.659 229.909 300.472 225.772C289.972 217.54 291.274 219.745 286.864 210.547C281.677 195.616 286.15 172.096 289.993 156.787C291.043 152.587 298.204 148.093 303.412 148.765C310.636 149.689 307.612 153.49 313.786 155.653C314.858 155.966 315.966 156.135 317.083 156.157C317.149 156.177 317.219 156.185 317.288 156.178C317.357 156.172 317.424 156.152 317.485 156.12C317.547 156.088 317.601 156.044 317.646 155.991C317.69 155.938 317.724 155.876 317.744 155.81C317.765 155.744 317.772 155.674 317.766 155.605C317.76 155.536 317.74 155.469 317.708 155.408C317.676 155.346 317.632 155.292 317.579 155.247C317.525 155.203 317.464 155.169 317.398 155.149C314.123 153.184 311.104 150.821 308.41 148.114C309.691 142.885 312.946 140.029 319.057 139.987C323.257 139.987 326.575 143.179 329.557 145.909C333.169 149.206 337.054 158.11 336.76 163.003C336.096 168.672 337.425 174.396 340.519 179.194C342.619 182.848 346.567 186.019 348.919 189.106C350.221 190.828 349.465 198.514 348.709 201.895C347.722 204.856 345.622 210.505 345.139 211.786C336.361 212.101 336.739 216.805 340.939 218.821C337.012 223.525 327.415 228.754 334.282 235.348C335.752 238.435 338.104 242.656 341.254 243.937C343.489 244.843 345.801 245.545 348.163 246.037C348.625 249.292 347.113 260.065 344.803 272.602C332.75 274.606 320.543 275.527 308.326 275.353C300.745 262.942 293.206 251.182 291.295 249.292C295.538 247.135 299.143 243.906 301.753 239.926H301.648ZM287.326 250.993C291.526 249.418 289.426 249.691 290.434 250.468C291.442 251.245 298.372 262.228 306.415 275.269C296.881 275.122 286.15 274.408 282.097 273.946C283.315 272.98 280.165 256.39 278.947 254.29C281.992 253.072 284.806 252.001 287.431 250.993H287.326ZM277.393 254.941C279.12 261.124 280.293 267.449 280.9 273.841C271.838 272.542 262.95 270.239 254.398 266.974C261.726 262.286 269.457 258.259 277.498 254.941H277.393ZM279.304 406.771C271.429 408.745 262.21 407.59 254.272 405.889C241.861 403.222 233.272 394.927 227.686 384.301C218.803 367.501 216.157 342.532 218.866 325.039C219.412 321.532 220.105 318.067 220.693 314.539C224.032 294.526 236.191 279.448 253.159 268.045C269.812 274.156 281.005 276.298 307.171 276.445C325.294 305.845 325.693 308.785 330.88 323.17C329.284 323.464 321.892 324.955 320.632 325.984C320.128 326.383 320.128 327.181 320.632 339.802C301.522 340.18 282.832 343.162 265.255 354.502C263.155 339.361 265.57 334.783 270.463 326.11C278.149 312.481 276.763 309.961 271.912 302.212C271.112 301.165 270.54 299.964 270.232 298.684C270.232 298.18 268.132 297.487 271.093 302.695C275.293 310.339 276.427 312.145 268.993 325.27C263.554 334.888 261.328 339.823 264.604 354.943C263.134 355.93 261.454 357.043 259.837 358.345C257.366 360.084 255.048 362.03 252.907 364.162C252.865 364.242 252.857 364.336 252.885 364.423C252.912 364.51 252.973 364.582 253.054 364.624C253.135 364.665 253.229 364.673 253.315 364.646C253.402 364.618 253.474 364.557 253.516 364.477C254.167 363.322 265.024 356.077 267.943 354.586C284.239 346.375 302.257 339.277 331.762 341.23C331.39 353.714 332.682 366.193 335.605 378.337C320.443 387.913 298.897 401.899 279.409 406.771H279.304ZM336.907 377.497C334.209 365.654 333.017 353.518 333.358 341.377C365.236 343.477 355.24 342.805 365.53 343.477C365.908 349.609 366.475 356.266 367.315 362.377C359.083 363.91 344.278 372.94 337.012 377.497H336.907ZM413.221 402.487C394.678 406.876 381.511 396.754 373.153 379.618C363.913 360.718 365.446 278.629 365.971 257.713L385.165 245.827C411.079 301.792 414.187 307.084 420.004 325.627C427.522 349.252 437.434 396.901 413.326 402.487H413.221ZM430.147 370.357C429.66 359.112 427.928 347.955 424.981 337.093C418.324 311.2 411.121 298.222 391.192 256.327L391.78 256.012C409.378 265.42 424.288 294.631 428.194 314.14C430.336 324.325 434.431 357.631 430.252 370.357H430.147Z" fill="#20262C"/>
<defs>
<linearGradient id="paint0_linear_578_3874" x1="632.806" y1="-1.13734e-05" x2="192.928" y2="558.367" gradientUnits="userSpaceOnUse">
<stop stop-color="white" stop-opacity="0"/>
<stop offset="1" stop-color="#CAFFE5"/>
</linearGradient>
</defs>
</svg>
