<svg width="32" height="32" viewBox="0 0 32 32" fill="none" xmlns="http://www.w3.org/2000/svg">
<g id="keyboard_arrow_down">
<mask id="mask0_375_750" style="mask-type:alpha" maskUnits="userSpaceOnUse" x="0" y="0" width="32" height="32">
<rect id="Bounding box" width="32" height="32" fill="#D9D9D9"/>
</mask>
<g mask="url(#mask0_375_750)">
<path id="keyboard_arrow_down_2" d="M16 19.9667C15.8222 19.9667 15.6555 19.939 15.5 19.8834C15.3444 19.8278 15.2 19.7334 15.0667 19.6001L8.93332 13.4667C8.68887 13.2223 8.56665 12.9112 8.56665 12.5334C8.56665 12.1556 8.68887 11.8445 8.93332 11.6001C9.17776 11.3556 9.48887 11.2334 9.86665 11.2334C10.2444 11.2334 10.5555 11.3556 10.8 11.6001L16 16.8001L21.2 11.6001C21.4444 11.3556 21.7555 11.2334 22.1333 11.2334C22.5111 11.2334 22.8222 11.3556 23.0667 11.6001C23.3111 11.8445 23.4333 12.1556 23.4333 12.5334C23.4333 12.9112 23.3111 13.2223 23.0667 13.4667L16.9333 19.6001C16.8 19.7334 16.6555 19.8278 16.5 19.8834C16.3444 19.939 16.1778 19.9667 16 19.9667Z" fill="#4C5F6E"/>
</g>
</g>
</svg>
