<svg width="32" height="32" viewBox="0 0 32 32" fill="none" xmlns="http://www.w3.org/2000/svg">
<g id="keyboard_arrow_up">
<mask id="mask0_375_207" style="mask-type:alpha" maskUnits="userSpaceOnUse" x="0" y="0" width="32" height="32">
<rect id="Bounding box" width="32" height="32" fill="#D9D9D9"/>
</mask>
<g mask="url(#mask0_375_207)">
<path id="keyboard_arrow_up_2" d="M16 14.4002L10.8 19.6002C10.5555 19.8446 10.2444 19.9669 9.86665 19.9669C9.48887 19.9669 9.17776 19.8446 8.93332 19.6002C8.68887 19.3558 8.56665 19.0446 8.56665 18.6669C8.56665 18.2891 8.68887 17.978 8.93332 17.7335L15.0667 11.6002C15.3333 11.3335 15.6444 11.2002 16 11.2002C16.3555 11.2002 16.6667 11.3335 16.9333 11.6002L23.0667 17.7335C23.3111 17.978 23.4333 18.2891 23.4333 18.6669C23.4333 19.0446 23.3111 19.3558 23.0667 19.6002C22.8222 19.8446 22.5111 19.9669 22.1333 19.9669C21.7555 19.9669 21.4444 19.8446 21.2 19.6002L16 14.4002Z" fill="#20262C"/>
</g>
</g>
</svg>
